<svg width="798" height="744" viewBox="0 0 798 744" fill="none" xmlns="http://www.w3.org/2000/svg">
<path d="M265.557 263.312C311.939 265.02 355.445 285.957 386.85 320.132C417.572 353.564 431.143 398.057 431.104 443.462C431.064 489.88 419.027 536.572 386.635 569.819C353.258 604.077 306.155 622.482 258.356 620.771C211.248 619.084 168.87 594.863 136.232 560.853C103.611 526.859 81.1127 483.531 81.447 436.418C81.7854 388.734 103.264 343.631 138.005 310.966C172.38 278.646 218.405 261.575 265.557 263.312Z" fill="#E1E4FF"/>
<path opacity="0.689993" d="M841.456 212.865C872.027 250.949 867.533 302.918 859.018 351.006C850.476 399.254 838.68 452.98 795.009 475.197C752.089 497.031 704.051 470.964 659.596 452.458C614.522 433.694 561.668 417.958 546.24 371.637C530.243 323.608 555.985 273.405 586.507 233.018C616.071 193.896 657.057 164.175 705.941 160.311C756.756 156.294 809.547 173.115 841.456 212.865Z" fill="#FFA07D"/>
<path d="M501.099 152.921C495.688 181.741 474.263 205.137 447.484 217.083C421.836 228.525 392.458 225.449 367.534 212.505C343.785 200.172 328.598 177.453 321.493 151.653C313.971 124.343 312.083 94.1962 328.615 71.1942C345.894 47.1545 375.478 34.2527 405.061 35.3848C433.185 36.4611 456.021 54.9577 473.829 76.7514C491.781 98.7227 506.334 125.035 501.099 152.921Z" fill="#F9B179" fill-opacity="0.5"/>
<path d="M38.5214 743.335C38.5214 742.292 43.6729 734.863 47.8854 729.831C59.7542 715.655 76.3069 700.996 93.8122 689.158C98.6029 685.919 102.523 683.049 102.523 682.781C102.523 682.513 98.9 677.15 94.4723 670.862C77.761 647.131 70.9431 637.153 64.7822 627.411C52.4493 607.911 37.9307 585.981 37.3533 585.981C36.785 585.981 29.0256 592.458 26.2185 595.276C23.6303 597.874 21.5016 598.219 19.6258 596.343C17.9193 594.636 18.0434 591.998 19.8838 590.857C20.695 590.354 23.6431 587.919 26.4352 585.447C37.2653 575.855 39.7504 573.797 46.7502 568.625C49.4321 566.644 51.7049 564.974 51.8009 564.914C51.8968 564.855 51.038 562.645 49.8924 560.003C48.7468 557.361 47.3452 553.764 46.7776 552.011C45.8283 549.078 45.4522 548.666 42.0788 546.868C39.2603 545.366 37.8501 544.086 35.984 541.338C30.9655 533.948 29.6644 528.009 30.1956 514.915L30.5687 505.717L27.5888 504.321C25.9498 503.553 23.1541 501.452 21.3762 499.652C19.173 497.421 17.6518 496.376 16.599 496.369C13.8161 496.354 8.1354 490.276 3.25318 482.093C0.92393 478.19 0.730225 477.53 0.730225 473.499C0.730225 469.647 0.936671 468.853 2.48316 466.756C3.44727 465.448 5.24934 463.418 6.48776 462.245C7.72618 461.072 9.70102 458.533 10.8763 456.604C12.0515 454.674 13.5094 452.83 14.116 452.505C14.7226 452.181 15.4096 451.155 15.6428 450.226C15.8759 449.297 16.3524 448.193 16.7018 447.772C17.5714 446.724 19.9218 446.809 20.8449 447.921C21.8266 449.104 22.617 449.075 24.0191 447.806C25.0175 446.903 25.4313 446.875 27.4195 447.579C30.8974 448.81 31.207 449.265 31.207 453.147V456.7L34.1023 458.685C35.6947 459.777 38.3005 461.885 39.8929 463.37C42.3411 465.652 42.7882 466.418 42.7882 468.329C42.7882 469.821 43.2058 470.967 44.0159 471.7C46.7362 474.162 52.5403 484.177 52.5412 486.41C52.5415 487.186 53.0194 487.568 54.0636 487.628C57.5395 487.829 68.9746 494.833 81.3715 504.354C82.3101 505.075 83.2404 505.502 83.439 505.304C83.6377 505.105 83.5331 503.285 83.2068 501.259L82.6136 497.576L88.7585 492.414C95.3564 486.872 103.946 480.322 107.026 478.484C108.069 477.862 110.359 476.129 112.115 474.634C113.871 473.139 115.552 472.067 115.85 472.251C116.638 472.738 119.321 481.665 121.388 490.683C122.376 494.989 123.883 500.823 124.739 503.648C126.686 510.076 126.678 510.624 124.618 511.931C122.76 513.11 109.857 522.853 107.794 524.635C105.112 526.951 110.684 523.484 115.6 519.778C118.218 517.804 122.097 514.954 124.22 513.446C137.327 504.131 142.882 500.32 143.897 499.944C145.475 499.36 147.628 500.985 147.628 502.759C147.628 504.421 147.195 504.8 135.515 513.351C130.779 516.818 126.904 519.952 126.904 520.314C126.904 520.676 128.916 524.422 131.376 528.638C133.836 532.854 137.306 539.046 139.087 542.399C140.868 545.751 143.208 550.003 144.286 551.847C145.365 553.69 148.523 559.313 151.304 564.342C154.085 569.371 158.737 577.462 161.641 582.323C167.222 591.664 169.296 595.223 176.027 607.01C178.324 611.033 181.553 616.518 183.202 619.2C189.019 628.66 191.52 632.622 192.352 633.69C193.136 634.698 194.606 634.166 214.449 625.684C250.29 610.364 285.547 596.699 310.526 588.447C314.801 587.035 318.298 585.614 318.298 585.29C318.298 584.966 317.831 583.823 317.261 582.75C316.691 581.677 316.187 579.291 316.141 577.447C316.063 574.329 315.063 570.318 308.538 546.97C307.18 542.109 304.972 533.332 303.632 527.465C302.291 521.598 300.35 513.166 299.317 508.727L297.44 500.656L295.831 501.045C294.946 501.26 292.987 501.803 291.478 502.252C289.006 502.989 288.656 502.965 287.932 502.01C287.395 501.301 287.239 499.942 287.462 497.903C287.645 496.226 288.087 488.821 288.444 481.445C288.8 474.07 289.48 462.824 289.956 456.454C290.431 450.085 291.131 436.995 291.512 427.366L292.205 409.859L289.132 406.866C285.561 403.388 281.743 397.721 280.564 394.151C279.765 391.729 279.689 391.675 277.926 392.289C274.083 393.629 270.145 389.711 270.145 384.549C270.145 383.321 270.413 381.813 270.742 381.199C271.234 380.281 271.068 380.015 269.809 379.699C266.263 378.809 264.586 372.052 267.249 369.387C268.863 367.773 269.08 364.158 267.727 361.472C266.701 359.436 267.283 358.122 269.744 356.914C271.046 356.275 271.372 355.677 271.407 353.867C271.429 352.628 271.664 351.065 271.926 350.395C272.188 349.724 272.128 348.737 271.793 348.201C270.725 346.489 271.798 343.999 273.781 343.603C274.787 343.402 276.957 341.858 278.793 340.038C283.16 335.708 288.418 332.893 291.756 333.098C293.37 333.197 294.83 332.879 295.765 332.224C298.801 330.098 303.278 331.521 305.286 335.251C306.299 337.131 307.766 338.273 308.38 337.659C308.528 337.51 308.066 334.967 307.353 332.006C305.529 324.428 305.499 324.244 305.98 323.57C307.324 321.69 325.662 316.623 344.813 312.841C348.165 312.179 358.451 309.997 367.67 307.992C376.889 305.987 390.878 303.259 398.757 301.931C406.635 300.602 421.721 297.866 432.281 295.849C442.841 293.833 456.007 291.631 461.539 290.957C472.965 289.563 480.705 288.25 484.701 287.026C486.21 286.565 489.775 285.873 492.625 285.489C495.475 285.105 499.107 284.413 500.698 283.95C502.289 283.488 505.854 282.779 508.622 282.377C511.39 281.974 515.137 281.136 516.95 280.514C520.62 279.255 522.84 279.077 523.407 279.994C524.219 281.308 527.1 316.945 527.965 336.376C529.221 364.566 530.221 379.867 531.949 397.329C532.779 405.71 533.692 414.485 533.979 416.828C534.489 420.997 534.464 421.121 532.806 422.67C531.874 423.54 530.317 424.503 529.345 424.81L527.578 425.368L531.729 438.778C534.012 446.153 535.885 452.634 535.891 453.179C535.896 453.725 535.528 454.482 535.07 454.862C534.505 455.331 534.102 457.845 533.813 462.708C533.122 474.307 531.73 487.492 530.128 497.598C528.763 506.209 528.126 513.101 527.041 530.97C526.832 534.406 526.805 537.218 526.982 537.218C527.158 537.218 531.013 536.672 535.55 536.006C559.304 532.515 644.884 521.979 649.485 521.979C649.63 521.979 647.768 519.991 645.349 517.56C639.943 512.129 637.695 507.775 637.695 502.736C637.695 499.578 637.881 499.089 639.769 497.31C642.136 495.077 647.477 493.331 651.941 493.331C653.531 493.331 656.723 493.019 659.034 492.637L663.237 491.943L661.428 489.313C658.787 485.475 658.656 483.837 660.525 478.063C662.588 471.691 665.862 465.182 671.867 455.515C677.918 445.775 681.356 441.12 686.557 435.625C688.849 433.203 690.724 430.985 690.724 430.695C690.724 430.405 689.876 429.362 688.839 428.377C684.492 424.249 682.24 417.537 681.767 407.291L681.41 399.575L678.679 399.166C674.704 398.57 673.048 396.56 673.048 392.334C673.048 390.522 673.467 388.229 673.979 387.239C674.491 386.248 675.15 383.526 675.444 381.189C675.942 377.22 677.919 372.643 679.134 372.643C679.41 372.643 680.484 371.141 681.52 369.304C684.477 364.065 690.273 361.213 694.61 362.862C695.689 363.272 696.641 363.199 697.85 362.615C699.793 361.676 706.113 361.765 709.924 362.784C711.265 363.143 712.911 364.068 713.582 364.839C714.521 365.921 715.316 366.2 717.047 366.056C718.828 365.908 719.437 366.138 719.989 367.17C720.372 367.886 720.532 368.872 720.344 369.362C720.133 369.91 721.14 371.352 722.971 373.123C727.755 377.752 728.175 378.982 728.194 388.408L728.208 396.553L725.999 398.465C724.142 400.072 723.718 400.911 723.337 403.729C722.254 411.741 718.909 420.56 714.72 426.445L712.652 429.351L716.026 434.166C717.882 436.815 721.869 443.324 724.887 448.632C738.56 472.685 742.024 483.181 739.111 491.732C738.57 493.318 738.228 494.69 738.349 494.78C738.471 494.87 741.403 495.526 744.865 496.239C753.315 497.978 756.293 499.472 757.898 502.775C759.589 506.255 759.044 508.862 755.875 512.462L753.4 515.274L765.185 515.276C771.667 515.277 781.702 515.458 787.485 515.677L798 516.076L798 517.961L798 519.846L772.752 519.637L747.504 519.428L741.818 522.807C738.69 524.665 733.35 527.461 729.95 529.02L723.769 531.856L724.336 533.911C725.137 536.81 723.764 539.229 720.6 540.495C716.408 542.172 710.021 541.894 691.636 539.237C680.819 537.673 668.656 533.53 659.427 528.266L654.647 525.54L636.265 527.461C626.154 528.518 606.335 530.853 592.221 532.649L566.56 535.915L562.033 539.279C555.136 544.406 552.966 548.132 552.966 554.852C552.966 560.706 556.956 565.524 565.825 570.379C570.936 573.177 576.455 575.056 588.412 578.072C614.395 584.626 627.571 591.358 639.748 604.302C648.477 613.582 651.523 620.442 653.854 636.072C656.621 654.623 662.054 664.785 672.634 671.197C679.94 675.625 697.395 678.046 707.247 675.999C713.664 674.665 726.391 670.88 729.092 669.502C732.598 667.714 739.917 662.073 754.113 650.22C768.957 637.826 771.203 636.183 777.765 632.911C781.919 630.839 796.031 625.6 797.458 625.6C797.756 625.6 798 626.533 798 627.672V629.743L791.142 632.016C778.055 636.355 774.488 638.597 755.578 654.365C733.677 672.627 732.278 673.5 718.76 677.326C703.891 681.535 696.655 681.91 683.102 679.176C674.486 677.438 669.1 674.701 663.624 669.278C656.4 662.125 652.122 652.564 650.215 639.315C647.587 621.05 644.742 614.939 634.124 604.747C621.909 593.023 613.472 588.958 586.823 581.961C579.798 580.116 572.067 577.813 569.643 576.842C559.598 572.82 551.396 565.686 549.562 559.377C547.66 552.834 549.884 545.061 555.114 539.979C556.676 538.46 557.586 537.218 557.136 537.218C556.686 537.218 550.421 538.041 543.214 539.046C536.006 540.052 529.904 540.875 529.652 540.875C529.4 540.875 529.194 541.839 529.194 543.017C529.194 544.742 528.84 545.376 527.375 546.266C524.483 548.025 513.157 550.233 506.946 550.25C501.208 550.266 499.216 549.667 497.404 547.387L496.396 546.118L485.214 548.117C443.871 555.508 406.457 564.057 368.582 574.769C355.859 578.367 354.426 578.907 353.089 580.602C352.279 581.63 350.737 582.838 349.663 583.287C347.13 584.345 329.362 588.258 324.665 588.792C321.348 589.169 299.286 596.443 283.648 602.315L277.345 604.682L285.477 605.083C307.827 606.187 323.682 609.366 334.95 615.005C345.516 620.293 351.691 624.963 356.403 631.231C361.805 638.417 363.129 642.823 362.147 650.344C360.356 664.067 360.285 665.58 361.213 670.033C363.115 679.157 368.894 686.025 380.175 692.571C383.856 694.708 389.031 697.725 391.676 699.276C403.229 706.055 410.896 717.401 410.221 726.722C409.879 731.453 407.831 735.314 403.218 739.928L399.296 743.85H395.605H391.915L395.487 741.211C399.835 737.999 403.14 734.4 404.887 730.975C405.921 728.949 406.147 727.619 405.959 724.67C405.398 715.866 398.26 707.445 385.344 700.35C381.153 698.049 375.909 694.966 373.69 693.499C367.831 689.627 361.874 683.05 359.28 677.588C356.464 671.658 356.037 665.294 357.649 653.294C358.73 645.243 358.731 644.881 357.652 641.848C354.554 633.126 346.172 625.2 333.227 618.754C321.493 612.91 301.172 609.133 281.417 609.124C265.426 609.118 265.057 609.203 243.789 617.912C225.108 625.562 200.66 635.938 197.422 637.592L195.715 638.464L198.811 642.403C202.898 647.603 203.59 649.135 202.393 650.332C201.092 651.633 199.869 650.937 197.705 647.662C196.665 646.088 194.899 643.734 193.78 642.429L191.745 640.057L181.519 644.867L171.293 649.677L171.126 652.817C170.838 658.254 167.054 662.433 160.68 664.351C157.374 665.346 155.978 666.428 154.014 669.518C152.447 671.982 147.363 674.934 142.035 676.472C138.981 677.353 138.335 677.367 136.477 676.591C135.321 676.107 133.61 674.71 132.676 673.485C131.543 672 130.653 671.377 130.005 671.614C128.157 672.29 109.237 683.813 109.23 684.266C109.227 684.517 110.325 686.3 111.673 688.228C116.018 694.447 118.366 698.239 118.366 699.036C118.366 700.167 116.698 701.375 115.678 700.984C115.196 700.799 113.384 698.327 111.651 695.491C109.918 692.655 107.771 689.467 106.881 688.407L105.261 686.48L96.1845 692.638C83.1141 701.505 71.1274 711.348 61.5784 721.057C51.7207 731.08 47.4064 736.01 44.5674 740.494C42.7526 743.36 42.2193 743.796 40.4979 743.821C39.4084 743.835 38.5214 743.619 38.5214 743.335ZM118.325 673.548L128.947 667.126L128.993 662.328C129.024 658.996 129.338 657.079 130.02 656.051C130.992 654.588 130.921 654.48 123.629 646.334C110.236 631.372 101.541 622.811 83.8615 607.177C82.594 606.056 82.5391 606.064 80.6728 607.634C79.4064 608.7 78.3757 609.106 77.5789 608.853C76.888 608.634 74.5282 605.337 71.9839 601.037C69.5638 596.947 66.9649 592.914 66.2085 592.076C65.4521 591.238 63.2332 587.665 61.2777 584.137C59.3221 580.609 56.9844 576.78 56.0827 575.628C54.5597 573.683 54.3651 573.603 53.3398 574.499C52.7329 575.029 49.6991 577.16 46.5981 579.233C43.497 581.307 40.9599 583.118 40.9599 583.257C40.9599 583.397 45.7071 590.719 51.5093 599.527C57.3115 608.336 63.6888 618.14 65.681 621.314C72.2541 631.786 83.3614 648.259 92.8604 661.623C98.0072 668.864 103.121 676.089 104.225 677.679C105.329 679.268 106.564 680.434 106.968 680.27C107.373 680.106 112.483 677.081 118.325 673.548ZM136.352 650.679C138.028 649.923 140.017 649.051 140.771 648.742C141.525 648.433 142.142 647.753 142.142 647.231C142.142 646.709 139.433 642.932 136.121 638.837C128.752 629.725 123.122 621.518 123.368 620.248C123.726 618.401 125.027 618.849 126.247 621.241C126.928 622.575 130.482 627.5 134.145 632.184C137.808 636.869 141.282 641.429 141.865 642.319C143.733 645.169 144.813 645.324 147.456 643.119C148.758 642.033 150.42 640.732 151.149 640.229L152.475 639.315L150.293 634.439C147.657 628.545 144.054 620.014 140.899 612.191C139.615 609.006 137.296 603.383 135.746 599.695C134.197 596.008 132.007 590.522 130.88 587.504C128.806 581.949 126.919 577.297 126.603 576.956C126.017 576.325 97.6478 593.941 88.9209 600.354L84.1574 603.855L85.5684 605.177C86.3445 605.904 91.0939 610.215 96.1225 614.757C106.4 624.038 116.131 633.901 125.937 644.974C129.584 649.093 132.734 652.37 132.936 652.258C133.139 652.145 134.676 651.435 136.352 650.679ZM179.449 641.344C184.714 638.887 189.034 636.656 189.049 636.386C189.063 636.116 187.996 634.305 186.676 632.36C184.026 628.458 175.291 613.895 170.192 604.876C165.856 597.209 161.738 590.187 156.787 582.019C152.289 574.597 149.317 569.342 140.932 553.98C135.401 543.847 125.786 526.739 124.033 523.909C123.244 522.635 123.045 522.581 122.133 523.39C121.572 523.887 117.548 526.73 113.19 529.707C108.831 532.685 105.193 535.467 105.105 535.889C104.874 536.992 105.778 538.488 110.031 544.042C112.103 546.749 114.339 549.681 115 550.558C115.66 551.434 117.718 553.952 119.571 556.153C121.425 558.354 123.83 561.372 124.915 562.858C126 564.345 128.125 567.012 129.639 568.784C131.152 570.557 132.39 572.251 132.39 572.55C132.39 573.219 130.836 574.816 129.873 575.137C129.36 575.308 129.458 576.261 130.228 578.58C132.258 584.693 145.932 618.299 151.716 631.391C154.246 637.118 154.898 638.119 156.182 638.256C161.193 638.79 165.968 641.484 167.726 644.77C168.196 645.648 168.873 646.242 169.229 646.089C169.585 645.936 174.184 643.801 179.449 641.344ZM85.7905 599.588C89.315 596.731 91.0113 595.567 103.367 587.526C108.83 583.971 115.201 580.172 124.161 575.128C126.843 573.619 129.145 572.295 129.277 572.187C129.408 572.079 128.174 570.461 126.534 568.591C121 562.281 112.218 551.559 110.565 549.094C108.335 545.769 101.947 537.827 101.502 537.827C100.843 537.827 82.3912 551.259 69.6077 561.044C63.0798 566.04 57.417 571.02 57.417 571.764C57.417 572.544 59.1057 575.512 63.4251 582.323C64.807 584.503 66.5204 587.383 67.2327 588.724C67.9451 590.065 69.1757 592.026 69.9674 593.083C70.7591 594.139 72.046 596.196 72.8273 597.654C73.6086 599.112 75.1924 601.736 76.3469 603.485L78.446 606.665L80.2746 604.621C81.2803 603.497 83.7625 601.232 85.7905 599.588ZM327.093 572.266C331.081 571.093 334.436 570.133 334.55 570.133C334.663 570.133 334.752 568.556 334.747 566.628C334.71 552.67 337.201 526.637 340.275 508.85C341.263 503.137 342.07 498.269 342.07 498.031C342.07 497.793 340.035 497.598 337.548 497.598H333.026L333.66 499.884C335.261 505.655 331.483 523.217 329.143 520.877C328.719 520.453 328.862 519.359 329.593 517.446C330.183 515.902 330.557 514.554 330.425 514.453C330.21 514.287 327.981 513.115 323.074 510.588C321.434 509.743 318.694 505.92 316.711 501.712C315.873 499.932 315.289 499.431 314.071 499.447C311.571 499.48 299.866 500.589 299.641 500.814C299.528 500.927 299.711 502.016 300.048 503.235C300.384 504.453 302.402 513.078 304.531 522.401C306.66 531.724 309.783 544.151 311.471 550.018C313.158 555.885 315.284 563.565 316.194 567.085C317.104 570.605 317.966 573.691 318.11 573.942C318.533 574.684 319.475 574.508 327.093 572.266ZM366.285 571.099C401.233 561.019 436.636 552.872 480.13 544.899L497.807 541.659L500.198 539.451C503.271 536.613 506.025 535.663 508.59 536.558C509.641 536.924 510.581 537.142 510.681 537.042C511.455 536.268 508.045 527.649 503.033 517.713C497.117 505.986 489.042 487.03 486.675 479.312C486.006 477.133 485.124 473.347 484.715 470.898C484.306 468.45 483.518 465.981 482.965 465.412C482.068 464.491 481.992 462.77 482.263 449.557L482.568 434.736L480.74 435.079C479.734 435.268 476.579 435.705 473.73 436.05C468.902 436.635 460.489 437.976 412.167 445.862C401.942 447.53 388.913 449.964 383.214 451.27C377.515 452.576 367.527 454.625 361.02 455.823C347.966 458.226 342.866 459.519 341.413 460.792C340.883 461.256 339.169 461.635 337.603 461.635C336.037 461.635 334.756 461.885 334.756 462.191C334.756 463.107 338.594 471.667 343.839 482.452C349.985 495.088 350.257 497.598 345.483 497.598C344.203 497.598 344.033 498.118 342.742 505.979C339.846 523.604 338.407 535.197 337.822 545.618C337.489 551.558 337.033 559.407 336.808 563.059L336.4 569.701L338.168 569.309C339.141 569.094 342.344 568.739 345.286 568.52C350.325 568.145 350.723 568.204 352.144 569.538C352.973 570.317 353.651 571.547 353.651 572.271C353.651 573.435 354.105 574.399 354.653 574.399C354.756 574.399 359.991 572.914 366.285 571.099ZM62.5981 557.112C68.3634 552.981 70.4687 551.138 70.3261 550.348C70.2183 549.75 70.904 548.439 71.8499 547.433L73.5697 545.605L69.9125 546.026C67.9011 546.258 64.3353 546.84 61.9886 547.318C59.6418 547.797 56.7094 548.189 55.472 548.189C54.2346 548.189 53.0527 548.464 52.8455 548.799C52.6383 549.134 51.5465 549.409 50.4192 549.409H48.3695L50.4743 554.742C53.5221 562.465 53.6862 562.82 54.2039 562.804C54.4625 562.798 58.2399 560.235 62.5981 557.112ZM60.664 544.595C65.9699 543.972 70.5354 543.224 70.8095 542.931C71.0836 542.638 71.4935 541.518 71.7204 540.44C72.0979 538.648 71.9872 538.453 70.4132 538.136C65.0286 537.054 55.3222 533.637 51.6264 531.523C47.096 528.932 42.7882 525.277 42.7882 524.025C42.7882 522.297 44.1657 522.704 47.4919 525.417C52.4364 529.449 61.1123 533.417 68.1112 534.846L73.8558 536.02L76.3947 534.181C77.7912 533.169 79.6544 532.342 80.5352 532.342C82.6357 532.342 84.8461 533.93 84.8461 535.439C84.8461 536.144 85.4484 536.867 86.3061 537.194C87.109 537.499 87.8914 538.109 88.0446 538.55C88.1979 538.991 88.5102 538.254 88.7386 536.913C89.2428 533.953 88.1884 527.983 87.0487 527.345C86.1389 526.836 81.0636 522.942 75.3983 518.406C71.8337 515.551 70.4769 513.446 72.2021 513.446C72.6725 513.446 76.1468 515.798 79.9229 518.672C83.6989 521.546 86.8975 523.788 87.0309 523.655C87.1642 523.522 86.8313 521.787 86.2911 519.801C85.3092 516.19 85.2046 515.692 84.5527 511.527C84.2927 509.865 83.8496 509.214 82.7984 508.95C82.0249 508.756 80.1806 507.54 78.7 506.248C71.1526 499.661 57.7217 490.709 54.5491 490.151C53.8268 490.024 53.3853 490.791 52.8596 493.085C51.8684 497.412 50.0317 500.719 47.764 502.261C46.7037 502.982 42.9844 504.35 39.499 505.301L33.1618 507.029L32.7939 509.713C32.1006 514.771 32.4048 525.909 33.3337 529.475C35.1897 536.6 39.4936 543.08 43.5379 544.837C46.1821 545.987 49.1603 545.944 60.664 544.595ZM78.189 542.537C80.4002 541.047 83.1739 537.382 82.8428 536.389C82.7312 536.055 82.1742 535.487 81.6046 535.128C80.2019 534.244 77.2944 535.876 77.0322 537.695C76.9124 538.525 76.4087 539.046 75.7259 539.046C74.5003 539.046 73.8745 540.197 73.8745 542.449C73.8745 544.355 75.4427 544.387 78.189 542.537ZM721.146 538.182C723.853 535.732 722.024 530.757 717.193 527.433C714.923 525.872 706.726 521.979 705.707 521.979C704.361 521.979 700.019 537.003 701.063 538.048C702.08 539.064 706.535 539.572 713.374 539.451C718.789 539.355 720.084 539.143 721.146 538.182ZM524.373 537.49C524.599 537.351 524.967 533.462 525.191 528.847C525.848 515.339 526.687 506.459 528.258 496.379C529.586 487.865 530.834 476.016 532.008 460.793L532.426 455.38L527.612 455.818C521.176 456.404 512.564 457.91 511.91 458.564C511.62 458.854 511.584 460.281 511.831 461.735C512.748 467.14 512.434 473.498 511.141 475.712C509.483 478.551 506.368 480.531 503.561 480.531C498.91 480.531 496.923 475.721 497.946 466.938C498.323 463.69 498.292 462.242 497.844 462.235C497.488 462.229 494.637 462.838 491.509 463.586L485.821 464.947L486.206 467.71C487.625 477.92 494.493 496.072 504.433 515.884C508.142 523.275 511.145 530.122 511.786 532.646C512.382 534.993 512.983 537.293 513.122 537.758C513.325 538.437 514.41 538.518 518.669 538.173C521.581 537.937 524.148 537.629 524.373 537.49ZM698.65 534.627C699.013 533.203 700.15 529.543 701.178 526.496L703.047 520.954L699.563 517.657C693.278 511.711 686.351 507.482 673.465 501.724C660.612 495.98 657.508 495.066 652.324 495.491C642.507 496.297 639.524 498.058 639.524 503.047C639.524 508.693 644.494 515.351 653.848 522.237C659.768 526.595 662.72 528.222 670.454 531.39C679.658 535.16 687.509 537.153 693.292 537.189L697.992 537.217L698.65 534.627ZM97.6464 530.025C99.155 528.844 101.761 526.58 103.437 524.994C106.217 522.364 114.636 515.793 118.371 513.339C119.209 512.788 120.779 511.558 121.859 510.606L123.824 508.874L122.596 505.522C121.921 503.678 120.976 500.249 120.497 497.903C118.547 488.357 115.018 476.252 114.269 476.539C113.393 476.874 108.415 480.501 98.3319 488.15C85.6938 497.737 84.9363 498.405 85.1857 499.731C87.3793 511.405 89.2355 521.664 90.0384 526.551C91.4013 534.847 91.2396 534.509 93.2335 533.237C94.152 532.651 96.1378 531.205 97.6464 530.025ZM99.752 508.293C97.79 506.331 97.6755 502.158 99.5192 499.814C101.316 497.529 105.873 497.515 108.571 499.785C111.641 502.368 111.051 506.985 107.411 508.868C104.669 510.285 101.508 510.048 99.752 508.293ZM106.578 506.455C107.953 505.491 108.706 503.583 108.086 502.633C106.518 500.231 101.584 500.439 100.63 502.947C99.3516 506.31 103.387 508.69 106.578 506.455ZM732.417 525.666C737.187 523.336 741.758 520.776 742.575 519.977C743.391 519.177 745.515 517.74 747.294 516.783C751.235 514.663 756.4 509.703 756.95 507.51C757.517 505.25 755.53 501.809 752.897 500.494C751.684 499.888 749.389 499.428 747.576 499.428C742.963 499.426 734.697 501.204 731.868 502.806C730.527 503.566 725.727 506.092 721.201 508.42C711.331 513.497 703.574 517.878 703.546 518.391C703.532 518.597 705.239 519.513 707.334 520.426C715.189 523.85 717.49 525.12 720.073 527.455C721.531 528.774 722.954 529.865 723.234 529.878C723.514 529.891 727.646 527.997 732.417 525.666ZM710.738 511.858L713.989 509.918L704.096 510.146C698.656 510.271 694.126 510.451 694.031 510.547C693.935 510.642 695.66 512.145 697.865 513.886L701.872 517.052L704.68 515.425C706.224 514.53 708.95 512.925 710.738 511.858ZM331.295 511.375C332.034 509.448 332.431 501.96 331.849 500.92C331.303 499.943 331.13 500.037 330.219 501.797C329.659 502.88 328.234 504.837 327.052 506.145C325.87 507.453 325.08 508.811 325.297 509.162C325.68 509.782 329.788 512.146 330.576 512.2C330.792 512.216 331.115 511.843 331.295 511.375ZM699.915 506.788C701.92 504.782 702.061 503.917 700.851 501.022C699.897 498.739 697.404 496.762 694.687 496.134C693.681 495.902 692.337 495.556 691.701 495.366C690.609 495.04 690.563 495.323 690.88 500.404C691.183 505.265 691.373 505.923 692.833 507.179C695.103 509.131 697.716 508.987 699.915 506.788ZM711.439 507.605C712.199 506.844 711.1 497.736 710.102 496.531C708.823 494.987 703.436 495.97 702.703 497.882C702.495 498.425 702.649 500.083 703.046 501.568C703.663 503.874 703.614 504.59 702.71 506.486L701.651 508.705L706.226 508.474C708.742 508.347 711.087 507.956 711.439 507.605ZM325.892 503.116C327.75 500.788 329.27 498.698 329.27 498.473C329.27 498.248 328.449 497.128 327.445 495.985C324.786 492.956 323.542 490.18 321.478 482.664C318.008 470.027 311.95 441.061 310.642 430.854C310.127 426.831 309.57 423.082 309.405 422.524C309.045 421.304 310.325 420.34 310.953 421.357C311.197 421.751 311.878 425.558 312.467 429.816C314.081 441.492 321.12 474.611 324.121 484.647C324.998 487.579 326.584 491.281 327.645 492.873C329.526 495.694 329.653 495.767 332.681 495.768C338.73 495.771 346.946 494.969 346.946 494.377C346.946 494.046 344.465 488.567 341.432 482.201C338.399 475.834 334.3 466.614 332.322 461.711C328.436 452.079 315.703 418.78 313.376 412.166L311.949 408.107L308.533 409.831C304.074 412.082 301.414 412.534 297.528 411.701C295.779 411.326 294.278 411.093 294.192 411.184C294.106 411.274 293.729 419.577 293.354 429.635C292.98 439.692 292.281 453.132 291.801 459.502C290.722 473.846 289.412 500.001 289.757 500.346C289.897 500.486 291.351 500.198 292.987 499.706C294.624 499.213 299.959 498.506 304.845 498.135C309.73 497.764 313.835 497.36 313.966 497.239C314.098 497.117 312.812 493.514 311.109 489.231C305.441 474.983 303.072 463.991 301.22 443.349C300.544 435.806 299.722 427.453 299.393 424.787C299.003 421.62 299.004 419.733 299.394 419.342C299.723 419.013 300.127 418.88 300.292 419.045C300.807 419.56 301.83 427.872 303.096 441.825C304.43 456.519 304.976 460.506 306.751 468.483C309.217 479.573 314.756 494.367 319.648 502.931C321.037 505.362 322.249 507.35 322.343 507.35C322.436 507.35 324.033 505.445 325.892 503.116ZM720.287 506.08C724.009 504.942 732.029 500.274 733.812 498.208C736.124 495.528 738.268 489.382 738.268 485.436C738.268 479.125 733.831 468.368 723.966 450.762C719.477 442.75 713.614 433.311 712.036 431.555C711.78 431.269 710.377 431.72 708.919 432.555C704.991 434.806 701.367 435.129 696.903 433.625C694.867 432.939 692.934 432.378 692.607 432.378C692.28 432.378 690.656 433.818 688.998 435.578C678.542 446.679 665.405 468.045 662.108 479.312C660.534 484.693 660.665 485.245 664.833 490.785C669.233 496.633 676.477 501.585 684.985 504.56C687.302 505.371 689.226 505.987 689.261 505.93C689.298 505.873 689.196 503.358 689.037 500.341L688.748 494.855L684.835 492.417C682.683 491.076 680.075 489.207 679.038 488.264C677.287 486.669 677.179 486.336 677.511 483.531C677.837 480.785 680.23 474.978 681.625 473.552C681.982 473.187 682.444 473.226 682.875 473.657C683.382 474.164 683.22 474.82 682.253 476.177C680.634 478.451 679.143 482.576 679.143 484.783C679.143 486.191 679.939 486.973 684.383 489.93C687.265 491.848 689.741 493.299 689.886 493.154C690.031 493.009 689.868 492.149 689.522 491.243C688.347 488.153 688.751 485.458 690.677 483.532C691.657 482.552 692.861 481.75 693.353 481.75C693.868 481.75 695.199 479.748 696.494 477.026C698.499 472.813 698.673 472.072 698.107 470.169C697.232 467.229 697.242 466.842 698.203 466.64C698.663 466.543 699.364 467.174 699.759 468.04C700.965 470.687 700.622 474.276 698.879 477.25C698 478.75 697.383 480.073 697.508 480.19C697.632 480.307 699.723 480.258 702.153 480.081C706.144 479.789 706.572 479.633 706.573 478.468C706.573 477.759 707.42 475.396 708.454 473.217C710.017 469.925 710.273 468.784 709.971 466.468C709.573 463.421 709.975 462.494 711.24 463.544C712.59 464.664 712.249 470.203 710.602 473.905C708.033 479.679 708.063 480.072 711.173 481.358C713.152 482.177 714.006 482.924 714.302 484.098C714.899 486.46 714.867 491.633 714.248 492.931C713.761 493.953 713.954 493.932 716.39 492.697C717.863 491.95 719.269 491.033 719.515 490.659C720.291 489.482 720.028 486.938 718.536 481.196C717.665 477.842 717.323 475.487 717.675 475.269C718.659 474.661 719.193 475.753 720.527 481.105C721.947 486.796 722.132 489.764 721.178 491.546C720.83 492.196 718.842 493.582 716.759 494.626C714.676 495.67 712.873 496.613 712.752 496.722C712.631 496.832 712.866 499.275 713.274 502.151L714.017 507.382L716.237 507.01C717.459 506.806 719.281 506.387 720.287 506.08ZM701.881 477.084C701.666 476.526 702.111 474.911 702.878 473.466C703.996 471.358 704.221 470.115 704.046 467.007C703.874 463.947 704.01 463.159 704.716 463.159C706.956 463.159 707.076 469.802 704.922 474.497C703.209 478.228 702.538 478.799 701.881 477.084ZM39.5081 502.786C45.1345 501.32 47.037 500.041 48.9712 496.421C50.0275 494.444 50.7121 492.232 50.7121 490.797C50.7121 487.83 48.4892 482.292 45.4451 477.675C41.3815 471.512 30.591 461.614 27.9832 461.658C27.0734 461.674 24.5919 463.848 20.3464 468.35L14.0574 475.019L13.8467 479.348C13.7308 481.728 13.4847 483.828 13.2998 484.013C12.236 485.076 20.5535 496.298 24.8966 499.658C30.1797 503.746 33.2767 504.409 39.5081 502.786ZM33.3638 496.167C31.8115 495.032 32.6962 493.941 35.169 493.941C36.3028 493.941 37.3999 493.666 37.6071 493.331C38.2777 492.246 39.7405 492.686 39.7405 493.972C39.7405 494.822 39.0646 495.504 37.6267 496.105C35.0299 497.19 34.7688 497.194 33.3638 496.167ZM25.7992 485.958C24.3579 484.223 23.9359 483.292 24.3868 482.841C24.7404 482.487 25.4306 482.352 25.9205 482.54C27.2594 483.054 30.1494 487.091 29.6994 487.819C28.9796 488.984 27.874 488.456 25.7992 485.958ZM32.1621 480.316C29.9183 477.578 29.3649 475.655 30.8207 475.655C31.7915 475.655 36.0833 480.956 36.0833 482.155C36.0833 483.76 34.2982 482.923 32.1621 480.316ZM740.935 498.198C741.995 498.192 742.064 498.081 741.316 497.598C739.885 496.673 737.282 496.887 736.362 498.006C735.602 498.93 735.713 498.985 737.583 498.615C738.714 498.391 740.223 498.203 740.935 498.198ZM666.343 495.465C665.384 494.443 664.294 493.957 663.037 493.992C661.249 494.04 661.303 494.109 664.21 495.478C668.058 497.291 668.059 497.29 666.343 495.465ZM701.696 496.395C701.696 495.316 705.247 493.941 708.032 493.941C711.139 493.941 712.668 492.489 712.668 489.538C712.668 487.678 712.325 487.585 708.706 488.472C705.912 489.157 696.593 489.306 693.451 488.716C691.598 488.369 691.334 488.474 691.334 489.559C691.334 491.152 694.179 494.55 695.512 494.55C696.074 494.55 697.49 495.083 698.658 495.734C701.1 497.096 701.696 497.225 701.696 496.395ZM709.773 485.989C712.329 485.274 712.65 484.548 710.839 483.579C709.866 483.058 709.62 483.115 709.62 483.862C709.62 485.207 708.013 485.014 706.984 483.546C706.239 482.482 705.57 482.322 702.53 482.479C699.215 482.651 698.967 482.765 699.144 484.036C699.371 485.666 697.779 485.912 696.207 484.489C695.302 483.671 694.979 483.678 693.225 484.553C692.143 485.093 691.424 485.7 691.626 485.903C692.945 487.221 705.158 487.279 709.773 485.989ZM508.145 476.262C509.599 474.81 510.015 473.775 510.285 470.943C510.47 469.009 510.472 466.603 510.29 465.597C510 463.995 509.736 463.791 508.15 463.951C505.23 464.244 500.93 466.657 500.061 468.489C499.04 470.642 500.052 476.8 501.619 477.978C503.154 479.132 506.029 478.376 508.145 476.262ZM506.858 462.205C509.315 461.586 509.698 461.277 509.73 459.887C510.199 439.793 508.248 413.374 504.729 392.148C504.034 387.958 503.426 384.255 503.379 383.92C503.331 383.584 503.701 383.31 504.2 383.31C506.568 383.31 511.396 423.156 511.681 445.053C511.822 455.862 511.863 456.196 513.045 455.908C516.262 455.125 522.787 454.196 527.709 453.822L533.16 453.407L533.114 451.578C533.087 450.572 531.611 445.087 529.829 439.387C525.875 426.742 524.789 423.142 520.373 408.038C518.468 401.524 515.998 393.707 514.885 390.666C513.044 385.642 503.701 362.807 503.33 362.425C503.244 362.337 502.104 362.713 500.795 363.26C499.055 363.988 497.404 364.161 494.649 363.905C490.932 363.559 490.877 363.576 490.546 365.203C490.239 366.711 487.926 388.627 486.511 403.425C485.57 413.274 484.092 444.074 484.092 453.84C484.092 461.71 484.216 462.855 485.07 462.855C485.946 462.855 488.683 462.218 495.825 460.356L498.111 459.76L498.106 455.364C498.097 449.099 496.42 422.323 495.629 415.817C494.979 410.468 495.135 409.014 496.237 410.17C497.61 411.613 499.877 438.139 499.931 453.407C499.944 457.094 500.123 461.13 500.329 462.374C500.699 464.615 500.718 464.628 502.363 463.777C503.277 463.305 505.298 462.597 506.858 462.205ZM342.375 457.654C345.057 456.815 352.384 455.172 358.658 454.002C372.041 451.507 376.2 450.642 384.433 448.641C387.785 447.826 398.208 445.89 407.595 444.338C444.127 438.301 465.729 434.842 470.987 434.189C475.827 433.645 478.959 433.8 482.125 431.863C482.143 426.763 484.357 404.043 485.294 395.196C485.951 388.994 486.928 379.588 487.464 374.293C488 368.998 488.54 364.141 488.664 363.499C488.817 362.702 488.259 361.942 486.906 361.106C485.815 360.432 483.348 358.229 481.423 356.211C477.2 351.783 474.511 346.277 471.921 336.753C467.756 321.436 470.272 308.232 478.963 299.784C484.839 294.074 493.668 293.707 499.084 298.949L500.971 300.775L501.987 298.116C504.052 292.709 510.251 289.172 512.944 291.865C513.511 292.433 514.949 293.166 516.14 293.494C517.331 293.823 519.41 295.197 520.761 296.548L523.217 299.004L522.839 294.223C521.816 281.277 521.893 281.674 520.457 282.002C519.733 282.168 517.357 282.726 515.178 283.243C512.999 283.76 509.022 284.603 506.34 285.118C503.658 285.632 499.681 286.502 497.502 287.052C495.323 287.601 492.717 288.048 491.711 288.045C490.705 288.042 487.277 288.71 484.092 289.529C480.907 290.347 472.953 291.694 466.415 292.522C454.441 294.037 441.013 296.337 418.567 300.717C411.862 302.025 401.271 303.924 395.032 304.937C388.793 305.95 376.999 308.268 368.822 310.089C360.646 311.909 352.036 313.712 349.689 314.095C347.343 314.477 340.76 315.893 335.061 317.24C329.361 318.586 322.915 320.098 320.736 320.599C318.557 321.099 314.787 322.207 312.359 323.06C308.168 324.532 307.961 324.693 308.283 326.227C310.425 336.422 313.16 345.708 314.423 347.076C315.897 348.673 316.278 351.204 315.32 353.026C314.816 353.984 317.856 371.634 321.323 387.882C322.003 391.066 323.548 399.569 324.756 406.777C325.964 413.985 327.035 419.969 327.136 420.075C327.555 420.517 332.147 415.338 336.38 409.65C342.157 401.887 350.478 387.875 351.659 383.92C352.751 380.262 354.218 378.075 356.343 376.937C357.209 376.474 357.918 375.602 357.918 375.001C357.918 373.319 360.368 367.157 361.038 367.157C361.364 367.157 362.756 364.814 364.131 361.949C365.907 358.248 366.912 356.795 367.604 356.928C368.414 357.084 368.544 357.868 368.372 361.571C368.199 365.311 368.345 366.155 369.266 366.83C370.32 367.6 370.307 367.833 368.954 372.424C368.178 375.059 367.338 377.626 367.088 378.129C366.837 378.632 366.847 379.592 367.11 380.262C367.372 380.933 367.606 383.312 367.629 385.549C367.666 388.964 367.442 389.893 366.237 391.34C365.447 392.287 364.457 394.571 364.035 396.415C363.219 399.988 362.161 401.323 360.482 400.902C359.682 400.701 358.894 401.848 357.053 405.894C355.739 408.783 353.015 413.661 351 416.734C346.746 423.221 337.622 432.587 333.386 434.815C331.793 435.652 330.491 436.684 330.491 437.107C330.491 439.592 333.352 454.906 334.476 458.435C334.836 459.564 336.931 459.357 342.375 457.654ZM376.551 413.357C375.17 411.385 375.286 406.074 376.75 404.266C377.743 403.04 378.15 402.925 379.645 403.448C381.342 404.041 385.899 409.872 385.938 411.501C385.984 413.304 383.973 412.011 381.915 408.911C378.761 404.16 377.786 404.402 378.175 409.839C378.507 414.482 378.044 415.488 376.551 413.357ZM393.271 404.691C393.271 402.11 395.812 398.853 397.825 398.853C399.183 398.853 402.526 401.715 403.71 403.891C404.139 404.679 404.052 405.06 403.383 405.317C402.817 405.534 401.745 404.839 400.551 403.479C399.495 402.276 398.263 401.291 397.814 401.291C396.695 401.291 395.1 403.699 395.1 405.389C395.1 406.217 394.73 406.777 394.185 406.777C393.551 406.777 393.271 406.139 393.271 404.691ZM404.585 403.239C403.739 400.571 406.255 398.275 408.662 399.52C410.895 400.675 412.167 402.015 412.167 403.214C412.167 404.775 410.912 404.601 409.208 402.805C407.443 400.945 406.823 400.9 406.571 402.615C406.317 404.339 405.06 404.734 404.585 403.239ZM373.563 398.447C372.108 396.992 374.137 393.977 376.572 393.977C378.516 393.977 379.036 395.419 377.781 397.334C376.839 398.772 374.504 399.388 373.563 398.447ZM404.09 395.147C402.734 394.357 402.665 390.766 403.981 389.449C405.162 388.269 405.165 388.269 407.007 389.474C408.825 390.666 409.019 393.326 407.395 394.796C406.115 395.954 405.576 396.012 404.09 395.147ZM406.528 391.793C405.948 391.212 404.783 392.153 405.216 392.853C405.473 393.269 405.814 393.259 406.252 392.821C406.611 392.462 406.735 391.999 406.528 391.793ZM414.73 394.434C415.162 392.985 421.708 390.223 425.53 389.877C428.188 389.636 429.234 389.747 429.234 390.271C429.234 390.673 429.508 390.832 429.843 390.624C431.055 389.875 430.413 389.101 428.58 389.101C427.124 389.101 426.752 388.862 426.91 388.034C427.183 386.601 429.567 386.341 431.402 387.544C433.357 388.824 433.281 390.023 431.109 392.195C429.151 394.154 428.015 394.472 428.015 393.063C428.015 391.642 424.007 391.945 419.786 393.684C415.701 395.367 414.395 395.56 414.73 394.434ZM392.784 393.855C390.947 392.018 392.77 389.299 395.397 389.959C397.223 390.417 397.42 392.124 395.814 393.578C394.49 394.776 393.77 394.842 392.784 393.855ZM444.318 393.215C443.859 391.845 445.115 387.604 446.349 386.358C447.518 385.176 447.613 385.172 449.442 386.221L451.329 387.302L453.471 385.097C455.378 383.133 455.854 382.933 457.814 383.268C459.025 383.476 461.387 383.741 463.063 383.858C467.59 384.174 470.342 385.043 470.571 386.23C470.825 387.547 469.009 387.608 466.071 386.38C464.609 385.77 463.483 385.662 462.494 386.037C461.588 386.382 460.246 386.338 458.883 385.92C456.836 385.292 456.577 385.379 454.249 387.483C451.426 390.032 451.333 390.056 449.418 388.715C447.713 387.521 447.123 388.128 446.527 391.691C446.159 393.891 444.848 394.796 444.318 393.215ZM443.726 379.596C443.147 378.325 443.183 377.699 443.912 376.4C445.035 374.399 446.635 374.034 448.175 375.427C449.491 376.618 449.73 379.332 448.617 380.445C447.259 381.803 444.514 381.326 443.726 379.596ZM447.002 378.434C447.002 378.115 446.707 377.756 446.347 377.636C445.986 377.516 445.691 377.875 445.691 378.434C445.691 378.993 445.986 379.351 446.347 379.231C446.707 379.111 447.002 378.752 447.002 378.434ZM453.574 377.442C452.496 375.428 453.742 373.253 455.974 373.253C457.364 373.253 457.834 373.587 458.135 374.789C458.98 378.153 455.147 380.383 453.574 377.442ZM462.118 377.788C460.883 376.299 462.087 373.603 464.089 373.37C466.027 373.144 466.756 374.715 465.836 377.134C465.148 378.945 463.342 379.262 462.118 377.788ZM379.252 345.238C379.252 344.366 379.871 343.884 381.538 343.459C395.424 339.916 399.628 339.428 399.254 341.405C399.102 342.201 398.357 342.513 396.314 342.635C393.087 342.828 382.86 345.179 382.025 345.92C380.932 346.889 379.252 346.476 379.252 345.238ZM346.337 342.555C346.337 342.025 350.037 340.463 356.547 338.243C371.205 333.246 374.255 332.414 377.918 332.414C382.689 332.414 381.684 333.748 376.224 334.663C373.772 335.073 369.679 336.138 367.128 337.028C355.438 341.11 348.384 343.383 347.404 343.384C346.817 343.385 346.337 343.012 346.337 342.555ZM423.856 324.703C424.008 323.926 425.995 323.318 432.586 322.032C437.28 321.117 443.177 320.184 445.691 319.959C448.206 319.734 451.042 319.4 451.995 319.216C453.428 318.94 453.691 319.073 453.516 319.983C453.268 321.275 451.357 321.907 447.445 321.991C445.895 322.024 440.272 322.874 434.949 323.878C423.644 326.011 423.599 326.015 423.856 324.703ZM329.046 443.022C328.546 440.12 328.003 437.613 327.841 437.45C327.679 437.288 327.017 437.246 326.37 437.357C325.261 437.547 325.32 437.903 327.384 443.481C328.589 446.738 329.661 449.155 329.766 448.851C329.871 448.547 329.547 445.924 329.046 443.022ZM333.677 431.965C337.468 429.604 345.022 421.446 349.132 415.274C352.51 410.202 357.129 401.38 356.582 401.044C356.479 400.981 355.64 400.605 354.718 400.209C352.863 399.412 352.688 398.385 353.674 394.107C354.13 392.133 354.076 391.111 353.452 389.921C352.638 388.367 352.569 388.446 347.938 396.191C341.859 406.359 336.436 413.924 331.279 419.429C327.916 423.021 326.531 424.046 323.916 424.881C321.48 425.658 320.781 426.139 321.045 426.857C323.222 432.772 324.214 434.81 324.993 434.964C326.337 435.23 331.046 433.604 333.677 431.965ZM707.143 431.484C711.997 428.974 717.739 419.152 720.296 408.985C722.186 401.471 722.181 400.844 720.213 399.296C719.334 398.605 718.234 397.125 717.767 396.008C717.3 394.891 716.694 393.977 716.42 393.977C716.146 393.977 715.555 393.291 715.106 392.453C714.397 391.128 713.878 390.929 711.123 390.929C708.938 390.929 707.501 390.571 706.488 389.775C705.239 388.792 704.432 388.683 701.072 389.043C698.901 389.276 696.526 389.796 695.793 390.198C695.061 390.6 693.827 390.938 693.05 390.949C691.372 390.971 688.498 393.343 688.186 394.962C688.064 395.593 686.94 396.773 685.688 397.584L683.41 399.057V404.388C683.41 421.55 690.52 432.321 701.879 432.364C703.823 432.371 706.192 431.975 707.143 431.484ZM699.284 421.742C698.852 421.222 698.601 420.783 698.726 420.766C698.851 420.75 700.265 420.669 701.869 420.588C704.215 420.47 704.75 420.625 704.607 421.381C704.356 422.705 700.31 422.979 699.284 421.742ZM691.558 404.652C690.725 402.482 695.391 400.513 697.936 401.96C699.358 402.768 699.657 404.188 698.344 403.901C698.009 403.828 697.014 403.597 696.134 403.387C694.94 403.103 694.211 403.354 693.257 404.379C692.07 405.652 691.949 405.672 691.558 404.652ZM705.353 403.751C705.353 401.29 709.698 400.469 712.143 402.467C713.189 403.321 713.4 403.829 712.916 404.322C712.428 404.819 712.042 404.749 711.47 404.06C710.466 402.85 707.254 402.832 706.793 404.035C706.29 405.347 705.353 405.162 705.353 403.751ZM323.969 422.473C324.922 421.766 324.797 420.547 322.233 405.558C318.787 385.417 318.431 384.077 318.338 390.929C318.251 397.4 317.481 400.808 315.31 404.337C313.38 407.474 313.257 406.717 317.463 417.596C319.468 422.781 319.776 423.235 321.292 423.235C322.199 423.235 323.404 422.892 323.969 422.473ZM530.517 421.659C532.265 420.755 532.359 420.534 531.986 418.202C531.259 413.657 528.679 387.719 528.03 378.434C527.32 368.278 526.475 352.814 525.549 333.023C525.211 325.816 524.764 317.646 524.554 314.868L524.174 309.818L522.811 312.76C520.589 317.555 516.81 320.081 512.747 319.485C510.465 319.15 510.287 319.738 511.413 323.88C512.412 327.553 512.694 336.277 511.984 341.579C511.415 345.824 508.368 354.914 506.37 358.323L504.852 360.914L510.077 373.331C515.871 387.099 518.889 395.564 522.543 408.301C527.093 424.161 526.759 423.602 530.517 421.659ZM307.936 407.765C315.092 404.09 316.916 399.335 316.205 386.206C315.765 378.076 314.533 369.377 313.075 364.11C311.586 358.734 311.715 358.934 310.466 360.065C309.86 360.613 308.79 361.062 308.087 361.062C307.385 361.062 306.034 361.679 305.085 362.433C302.096 364.81 297.695 367.148 296.203 367.154C295.564 367.156 295.136 367.62 295.136 368.309C295.136 368.942 294.622 370.095 293.995 370.87C293.1 371.975 292.968 372.68 293.385 374.133C294.3 377.322 293.371 379.916 290.053 383.414C288.36 385.201 286.646 386.663 286.244 386.663C285.843 386.663 285.357 387.072 285.164 387.573C284.972 388.074 283.978 388.993 282.955 389.615L281.096 390.746L283.51 395.562C290.003 408.51 298.359 412.685 307.936 407.765ZM310.585 396.084C310.096 394.811 310.353 394.681 312.66 395.033C315.229 395.424 315.336 397.025 312.794 397.025C311.691 397.025 310.8 396.646 310.585 396.084ZM298.188 387.76C294.245 383.678 293.356 378.634 296.097 375.893C297.255 374.736 297.848 374.502 298.349 375.003C298.851 375.505 298.66 376.029 297.624 376.994C296.488 378.052 296.277 378.747 296.527 380.607C296.854 383.047 299.768 387.272 301.124 387.272C302.087 387.272 301.84 389.203 300.834 389.538C300.448 389.667 299.257 388.867 298.188 387.76ZM310.653 376.453C310.441 375.196 310.144 373.71 309.992 373.152C309.674 371.987 310.834 371.027 311.609 371.812C311.894 372.102 312.317 373.778 312.549 375.538C312.902 378.229 312.816 378.739 312.004 378.739C311.364 378.739 310.909 377.969 310.653 376.453ZM361.623 397.578C361.922 397.106 362.17 396.103 362.175 395.348C362.18 394.222 361.85 393.977 360.316 393.977C359.288 393.977 357.95 393.711 357.341 393.385C356.407 392.885 356.176 393.086 355.857 394.68C355.285 397.544 355.388 398.137 356.5 398.351C358.66 398.769 361.102 398.4 361.623 397.578ZM364.048 390.415C365.209 389.474 365.436 388.702 365.436 385.688C365.436 380.461 364.033 378.156 360.842 378.138C358.136 378.122 356.256 379.353 354.806 382.088C353.458 384.628 353.453 384.711 354.528 387.038C355.13 388.34 356.207 389.879 356.922 390.459C358.644 391.853 362.299 391.83 364.048 390.415ZM686.766 386.767C686.098 386.099 685.091 387.834 685.524 388.907C685.926 389.904 686.027 389.868 686.532 388.555C686.841 387.752 686.946 386.947 686.766 386.767ZM711.795 381.929C711.242 381.376 709.543 382.386 709.941 383.031C710.214 383.472 710.612 383.447 711.213 382.948C711.694 382.549 711.956 382.09 711.795 381.929ZM682.053 379.648L682.219 377.824L680.986 379.263C679.47 381.032 679.408 381.941 680.82 381.673C681.503 381.544 681.946 380.816 682.053 379.648ZM366.359 372.816C367.047 370.564 367.554 368.679 367.487 368.626C367.421 368.574 366.157 368.702 364.68 368.911C362.079 369.279 361.959 369.392 360.907 372.491L359.821 375.691L361.155 375.7C361.889 375.707 362.901 375.976 363.404 376.301C364.901 377.268 365.056 377.085 366.359 372.816ZM365.833 365.176C365.828 364.067 365.711 363.98 365.233 364.719C364.469 365.901 364.469 366.548 365.233 366.548C365.568 366.548 365.838 365.931 365.833 365.176ZM499.456 361.647C503.319 360.574 507.801 353.742 506.036 351.616C505.576 351.06 505.483 350.03 505.777 348.744C506.433 345.877 506.157 343.42 505.054 342.317C504.515 341.778 504.22 340.745 504.374 339.937C504.525 339.152 504.43 338.509 504.166 338.509C502.891 338.509 501.723 336.448 502.079 334.828C502.351 333.59 502.172 332.969 501.425 332.55C500.666 332.126 500.464 331.392 500.655 329.756C500.798 328.536 500.692 327.538 500.414 327.538C500.139 327.538 499.604 326.857 499.225 326.025C498.846 325.194 498.029 324.352 497.409 324.156C496.79 323.959 496.283 323.387 496.283 322.884C496.283 322.264 495.911 322.088 495.128 322.336C493.759 322.771 492.016 321.246 492.016 319.612C492.016 318.901 491.505 318.407 490.645 318.285C489.543 318.128 489.236 317.64 489.084 315.804C488.876 313.29 488.617 313.131 486.875 314.449C485.867 315.212 485.512 315.219 484.411 314.498C483.316 313.78 482.953 313.781 481.968 314.501C480.5 315.574 480.128 315.562 478.969 314.403C478.239 313.673 477.746 313.609 476.792 314.12C476.114 314.483 475.559 315.045 475.559 315.368C475.559 315.692 474.909 315.956 474.115 315.956C472.879 315.956 472.621 316.328 472.318 318.547C471.786 322.448 473.05 333.253 474.707 338.972C477.645 349.111 482.858 356.723 489.018 359.87C493.827 362.327 495.799 362.663 499.456 361.647ZM483.492 353.454C482.715 352.518 483.317 351.919 485.033 351.919C485.774 351.919 486.722 351.508 487.14 351.005C487.986 349.984 489.578 349.77 489.578 350.676C489.578 352.607 484.654 354.854 483.492 353.454ZM481.038 338.662C481.033 338.075 480.861 336.566 480.653 335.309C480.355 333.506 480.47 333.023 481.2 333.023C482.182 333.023 483.289 337.952 482.569 339.117C481.964 340.096 481.045 339.823 481.038 338.662ZM516.855 305.442C516.538 304.49 514.827 304.127 513.466 304.724C512.644 305.085 512.806 305.266 514.264 305.618C516.995 306.278 517.13 306.268 516.855 305.442Z" fill="black"/>
<path opacity="0.55" d="M126.603 650.556C124.044 647.61 119.41 642.031 116.305 638.159C106.967 626.513 91.3628 611.514 85.0951 608.159C83.3634 607.233 81.4726 605.108 81.4435 604.056C81.4321 603.651 82.1274 602.825 82.9883 602.22C83.8491 601.615 85.9842 599.994 87.7329 598.617C95.4049 592.58 113.514 580.996 120.783 577.477C124.3 575.774 126.605 572.049 127.659 575.574C128.056 576.905 130.245 584.175 131.002 585.646C132.351 588.272 139.686 603.323 142.719 611.675C144.323 616.09 148.12 625.172 152.421 634.462C153.8 637.442 152.44 642.458 152.44 643.073C152.44 644.542 148.888 647.422 144.235 649.727C142.182 650.744 138.996 652.552 137.156 653.744C135.315 654.937 133.234 655.913 132.532 655.913C131.689 655.913 129.673 654.091 126.603 650.556ZM711.394 540.204C710.889 539.878 702.911 539.408 700.953 539.403C694.568 539.386 699.902 538.277 702.234 529.863C704.193 522.791 702.266 520.645 705.177 520.645C706.529 520.645 711.241 522.387 712.49 523.059C717.614 525.813 719.593 527.157 720.197 528.293C720.548 528.951 721.328 530.237 721.931 531.149C723.356 533.307 723.37 537.269 721.953 538.489C721.364 538.998 719.252 539.729 717.259 540.115C712.905 540.958 712.569 540.963 711.394 540.204ZM325.025 511.369C323.587 509.931 325.345 509.733 327.242 504.315C328.406 500.99 329.568 497.108 330.689 498.232C330.961 498.504 333.434 502.875 333.434 506.226C333.434 510.976 332.388 512.447 331.672 512.899C330.149 513.862 326.386 512.73 325.025 511.369ZM713.665 507.69C711.292 506.812 710.975 497.54 713.081 493.412C714.021 491.57 714.17 490.097 713.693 489.207C713.348 488.56 714.452 486.858 714.447 485.91C714.429 482.434 712.428 483.062 709.78 482.34C705.94 481.292 698.164 480.477 693.842 482.215L690.67 485.24L690.227 494.668C690.205 500.728 689.98 506.015 689.732 506.415C688.93 507.714 683.021 506.004 679.628 503.454C675.504 500.355 673.175 498.224 671.498 498.224C669.75 498.224 666.336 494.815 663.447 490.33C662.174 488.354 660.595 484.35 660.18 484.347C658.799 484.337 660.343 483.086 661.413 478.988C662.741 473.905 665.42 468.122 668.789 463.065C672.915 456.873 679.1 447.19 681.339 443.42C684.25 438.516 690.422 431.229 691.664 431.23C692.245 431.23 694.17 431.781 695.942 432.454C700.444 434.166 704.876 434.057 708.462 432.148C712.236 430.139 713.705 430.176 714.512 432.301C714.864 433.227 716.265 435.459 717.625 437.261C718.985 439.063 721.881 443.953 724.06 448.127C726.239 452.302 728.532 456.075 729.156 456.512C729.78 456.949 731.042 459.498 731.961 462.175C732.88 464.853 734.447 468.973 735.444 471.33C736.44 473.687 737.818 478.158 738.506 481.267C739.626 486.326 739.672 487.288 738.951 490.45C738.254 493.502 737.596 494.548 734.106 498.147C731.884 500.439 729.138 502.892 728.004 503.599C723.987 505.174 716.391 507.192 713.665 507.69ZM317.448 503.496C316.932 502.66 317.592 501.634 318.646 501.634C319.106 501.634 320.745 500.67 322.289 499.492C325.324 497.175 326.31 496.862 326.31 498.215C326.31 499.177 321.243 503.085 319.168 503.725C318.439 503.949 317.665 503.847 317.448 503.496ZM315.902 498.267C315.902 497.762 316.209 497.349 316.586 497.349C316.961 497.349 318.582 496.385 320.188 495.206C323.296 492.924 324.473 492.56 324.473 493.88C324.473 494.88 318.351 499.186 316.929 499.186C316.364 499.186 315.902 498.772 315.902 498.267ZM287.74 494.403C287.74 493.42 289.163 493.164 298.454 492.477C310.02 491.622 311.617 491.649 311.617 492.7C311.617 493.76 308.912 494.115 296.77 494.65C290.601 494.922 287.74 494.844 287.74 494.403ZM324.684 491.074C323.849 489.717 325.835 489.39 334.917 489.39C341.213 489.39 344.676 489.614 344.676 490.021C344.676 490.369 344.333 490.772 343.911 490.917C342.518 491.399 324.972 491.542 324.684 491.074ZM287.858 488.111C288.238 486.958 308.861 485.778 309.931 486.848C310.308 487.225 310.482 487.668 310.317 487.833C310.152 487.998 304.967 488.322 298.795 488.554C289.275 488.911 287.616 488.844 287.858 488.111ZM323.861 486.169C323.861 484.959 325.256 484.643 333.986 483.878C338.432 483.488 341.443 483.463 341.791 483.811C342.802 484.822 340.269 485.537 334.269 485.932C331.07 486.143 327.42 486.493 326.157 486.709C324.337 487.02 323.861 486.908 323.861 486.169ZM499.661 464.75C499.273 464.362 498.955 463.696 498.955 463.27C498.955 461.245 494.667 460.971 490.996 462.762C490.154 463.172 488.323 463.654 486.927 463.832C484.497 464.142 484.372 464.077 484.019 462.309C483.816 461.294 483.649 459.326 483.647 457.937C483.647 456.548 483.889 452.957 483.402 449.956C482.629 445.188 482.737 442.135 483.523 425.773C484.017 415.474 486.252 402.088 486.915 396.027C487.577 389.966 488.076 382.451 488.285 379.589C488.494 376.727 489.089 372.126 489.869 368.972C490.649 365.817 489.558 362.817 489.412 362.436C489.225 361.948 492.182 363.352 496.608 363.352C500.063 363.352 502.182 361.511 502.759 361.227C504.249 360.494 507.526 365.718 507.526 368.828C507.526 370.068 507.912 371.403 508.384 371.794C508.856 372.186 509.817 374.63 510.519 377.226C511.221 379.822 514.573 389.798 517.969 399.394C524.279 417.226 526.271 423.151 532.04 441.233L535.33 451.542L532.7 453.522C530.315 455.316 527.753 455.106 519.618 455.106L514.301 456.513L510.814 458.565C507.782 460.35 512.574 462.035 510.284 462.27C508.969 462.405 504.379 462.879 503.866 463.324C501.978 464.962 500.406 465.495 499.661 464.75ZM297.044 418.683C292.172 417.312 290.635 416.294 291.751 415.178C291.937 414.993 293.383 415.332 294.965 415.933C299.273 417.568 304.19 418.004 308.201 417.106C310.11 416.679 311.814 416.1 311.987 415.82C312.53 414.942 314.066 415.268 314.066 416.261C314.066 418.813 303.068 420.377 297.044 418.683ZM296.317 414.358C292.733 413.363 291.676 412.7 292.234 411.796C292.434 411.473 294.345 411.695 296.742 412.32C301.867 413.656 305.657 413.709 308.862 412.49C313.103 410.876 313.453 410.824 313.453 411.803C313.453 414.586 302.84 416.168 296.317 414.358ZM294.226 409.495C289.736 407.108 287.233 404.834 285.842 401.879C285.139 400.383 283.92 398.317 283.134 397.287C280.282 393.548 277.35 385.377 277.339 381.141C277.331 377.708 278.122 376.328 280.722 375.242C282.424 374.531 282.843 374.017 282.846 372.641C282.854 369.752 283.989 366.621 285.572 365.134C286.804 363.976 287.532 363.779 289.558 364.05L292.037 364.383L292.728 361.64C293.532 358.444 296.764 354.702 298.72 354.702C299.46 354.702 300.621 355 301.3 355.363C302.255 355.874 302.778 355.805 303.604 355.057C305.013 353.782 307.485 353.829 309.132 355.162C310.157 355.992 312.542 353.6 313.901 359.996C314.867 364.541 315.361 366.702 315.686 367.55C316.011 368.398 317.031 380.416 317.266 384.282C317.999 396.396 314.548 403.602 313.147 405.339C308.896 410.61 299.104 412.089 294.226 409.495ZM350.104 406.282C347.144 402.986 343.897 397.711 344.363 396.957C344.976 395.965 345.707 396.69 348.755 401.317C350.305 403.67 352.225 406.022 353.022 406.544C354.766 407.687 354.896 408.577 353.319 408.577C352.685 408.577 351.238 407.544 350.104 406.282ZM350.871 400.035C347.587 396.089 346.654 394.111 347.62 393.145C348.034 392.731 348.487 393.003 348.999 393.972C349.419 394.765 350.959 396.978 352.423 398.889C353.887 400.799 355.084 402.659 355.084 403.021C355.084 404.45 353.771 403.519 350.871 400.035ZM355.829 390.48C351.271 387.287 351.859 379.666 356.863 377.078C359.513 375.708 361.429 375.907 363.266 377.744C364.699 379.178 366.568 380.114 366.568 383.889C366.568 387.769 366.975 388.856 365.341 390.49C363.293 392.539 358.053 392.037 355.829 390.48Z" fill="black"/>
</svg>
