<?xml version="1.0" encoding="UTF-8" standalone="no"?>
<!-- Created with Inkscape (http://www.inkscape.org/) -->

<svg
   width="185.12578"
   height="129.72298"
   viewBox="0 0 185.12578 129.72298"
   version="1.1"
   id="svg5"
   xml:space="preserve"
   xmlns:inkscape="http://www.inkscape.org/namespaces/inkscape"
   xmlns:sodipodi="http://sodipodi.sourceforge.net/DTD/sodipodi-0.dtd"
   xmlns="http://www.w3.org/2000/svg"
   xmlns:svg="http://www.w3.org/2000/svg"><sodipodi:namedview
     id="namedview7"
     pagecolor="#ffffff"
     bordercolor="#000000"
     borderopacity="0.25"
     inkscape:showpageshadow="2"
     inkscape:pageopacity="0.0"
     inkscape:pagecheckerboard="0"
     inkscape:deskcolor="#d1d1d1"
     inkscape:document-units=""
     showgrid="false" /><defs
     id="defs2" /><g
     inkscape:label="Layer 1"
     inkscape:groupmode="layer"
     id="layer1"
     transform="translate(-11.216707,-26.425185)"><g
       id="g1193"
       style="display:none"><g
         style="fill:none"
         id="g1075"
         transform="matrix(0.34938496,0,0,0.34938496,65.363568,152.87768)"><path
           opacity="0.689993"
           d="m 243.156,41.665 c 25.895,30.4551 23.419,73.083 17.564,112.628 -5.875,39.676 -14.285,83.91 -49.506,103.098 C 176.6,276.249 136.691,256.03 99.8872,241.915 62.572,227.603 18.961,215.949 5.26611,178.403 -8.93357,139.473 10.9698,97.7999 35.0102,64.0474 58.297,31.3529 91.147,6.08623 131.057,1.79467 c 41.486,-4.46112 85.071,8.082 112.099,39.87033 z"
           fill="#e1e4ff"
           id="path1066" /></g><g
         style="fill:none"
         id="g1086"
         transform="matrix(0.33755384,0,0,0.33755384,77.700513,13.279393)"><path
           opacity="0.506634"
           d="M 258.289,120.466 C 260.969,188.267 206.34,243.68 138.539,246.361 68.2859,249.138 3.38823,200.906 0.610855,130.653 -2.20205,59.501 57.6881,3.83399 128.84,1.02109 197.572,-1.69615 255.572,51.7337 258.289,120.466 Z"
           fill="#ffcd82"
           fill-opacity="0.8"
           id="path1077" /></g><g
         style="fill:none"
         id="g1097"
         transform="matrix(0.36090388,0,0,0.36090388,25.604907,75.04366)"><path
           d="m 163.138,5.54366 c 26.886,9.81624 53.457,27.60344 61.578,55.04894 7.873,26.607 -13.86,50.4814 -22.555,76.8314 -11,33.341 -4.377,76.915 -34.256,95.352 C 136.026,252.447 92.8228,243.291 60.076,225.101 29.1541,207.925 9.78411,175.458 2.4299,140.859 -4.0382,110.428 6.59713,79.6538 23.6266,53.6185 38.2646,31.2396 62.38,19.2648 87.6621,10.5528 112.444,2.01319 138.516,-3.44599 163.138,5.54366 Z"
           fill="#ffbda5"
           id="path1088" /></g><g
         id="g996"
         transform="matrix(0.78093645,0,0,0.78093645,25.541814,38.330183)"><path
           style="opacity:0.55;fill:#000000;stroke-width:0.147345"
           d="m 130.57421,108.1127 c 0.19802,-3.14883 0.92456,-6.60154 1.60573,-7.63086 0.26053,-0.39369 0.45011,-0.975993 0.5782,-1.775931 0.17227,-1.075925 0.24312,-1.238344 0.73801,-1.691875 0.5082,-0.465728 0.60362,-0.497034 1.33114,-0.436705 0.63899,0.05298 3.59537,1.320036 4.27229,1.831118 1.4792,1.116806 -0.9458,0.736839 -1.30918,3.250243 -0.32374,2.23924 -0.4753,7.90089 -0.25167,9.4009 0.9983,6.6962 1.44298,8.69998 2.51615,11.33805 0.40492,0.99535 0.82456,2.1033 0.93254,2.4621 0.10798,0.3588 0.56143,1.14678 1.00767,1.75108 0.94258,1.27648 2.74414,4.13104 3.64896,5.78178 0.46795,0.85372 0.69038,1.12778 0.87044,1.07246 1.39278,-0.42799 9.46801,-0.95929 16.15511,-1.06292 2.83639,-0.044 5.65104,-0.09 6.25481,-0.10241 l 1.09772,-0.0226 -1.1593,-1.65502 c 0.0587,-0.28364 1.51515,-0.33781 1.68947,-1.51289 0.17433,-1.17508 0.54782,-3.32999 0.82999,-4.7887 0.58345,-3.01624 0.6069,-3.1762 1.31679,-8.98804 0.28707,-2.35013 0.64704,-4.96919 0.79994,-5.82011 0.1529,-0.85091 0.35062,-2.07755 0.43938,-2.72587 0.3307,-2.41573 0.90318,-3.11683 2.44087,-2.98931 0.88271,0.0733 1.24423,0.31499 1.60375,1.07265 0.33137,0.69831 0.28933,1.64217 -0.20166,4.52806 -0.40515,2.38134 -1.19119,8.32339 -1.40877,10.64962 -0.0531,0.56728 -0.38497,2.52328 -0.73757,4.34667 -0.3526,1.8234 -0.77657,4.25265 -0.94216,5.39834 -0.66091,4.57301 -1.43149,7.04293 -2.9326,9.39981 -0.88411,1.38812 -2.57478,3.32517 -3.28206,3.76038 -1.19356,0.73441 -1.19355,0.73402 -0.0888,4.08128 1.87781,5.68941 3.77705,12.05722 4.15996,13.94755 0.15027,0.74174 0.7607,2.45538 1.58454,4.44815 1.18559,2.86782 1.33977,3.34371 1.33713,4.12714 -0.003,1.01278 -0.26336,1.52384 -1.00966,1.98508 -0.7916,0.48924 -1.75874,0.37423 -2.50905,-0.29841 -0.44564,-0.39949 -2.02897,-0.87775 -2.90592,-0.87775 -0.58874,0 -1.03719,-0.12538 -1.83814,-0.51395 -1.56229,-0.75789 -3.20039,-1.18201 -6.23948,-1.61544 -3.60787,-0.51456 -4.67792,-0.74615 -6.25196,-1.35312 -2.58302,-0.99603 -5.5587,-1.69094 -7.24087,-1.69094 -0.58047,0 -1.66468,0.14305 -2.40936,0.31788 -1.84085,0.43217 -2.50672,0.32948 -3.35338,-0.51717 -0.54125,-0.54126 -0.62962,-0.71642 -0.62962,-1.24807 0,-0.71561 0.16336,-1.08577 0.75586,-1.71268 0.37315,-0.39485 0.4626,-0.67719 0.72354,-2.28385 0.17673,-1.08813 0.56249,-2.61185 0.94909,-3.74877 0.35824,-1.05352 0.8882,-2.98899 1.17769,-4.30104 0.28948,-1.31204 0.62425,-2.66306 0.74392,-3.00225 0.11968,-0.33919 0.21759,-0.75712 0.21759,-0.92873 0,-0.1716 -0.38126,-1.05797 -0.84723,-1.96971 -0.46597,-0.91175 -0.9742,-1.90677 -1.12938,-2.21117 -0.15518,-0.30439 -0.7906,-1.2165 -1.41203,-2.0269 -2.14228,-2.7936 -5.97609,-8.79538 -7.29191,-11.41535 -2.47434,-4.92669 -3.56641,-9.38825 -4.27477,-17.4642 -0.21079,-2.40314 -0.2248,-2.92888 -0.12175,-4.56769 z"
           id="path992"
           sodipodi:nodetypes="csssssssssssccsccssssscsssssssssscsssssssssssssssssscsscc" /><path
           style="opacity:1;fill:#000000;stroke-width:0.146034"
           d="m 129.42999,106.34323 c 0.35664,-3.38695 1.75787,-7.576841 3.39983,-10.165916 0.2434,-0.383801 0.44254,-0.880771 0.44254,-1.104379 0,-0.766372 1.14284,-3.032603 2.20669,-4.375822 l 0.4383,-0.553396 -0.28925,-0.406758 c -0.57807,-0.812869 -0.81162,-7.718018 -0.5439,-16.080598 0.12697,-3.965884 0.1451,-4.145129 0.4381,-4.330503 0.27067,-0.17124 2.04488,-0.464481 7.97247,-1.317688 0.92367,-0.132951 3.78229,-0.662141 6.3525,-1.175976 6.83818,-1.367091 9.5967,-1.732946 15.99077,-2.120806 3.25415,-0.197394 8.28733,-0.09925 11.59499,0.226097 1.89725,0.186616 2.22122,0.256702 2.53073,0.547477 0.41003,0.38519 0.41119,0.341084 -0.1042,3.911545 -0.29013,2.009942 -0.33361,3.007946 -0.38811,8.908101 -0.0457,4.945382 -0.0125,7.013459 0.1297,8.087097 0.11622,0.877481 0.15123,1.849925 0.0894,2.482586 -0.14844,1.518632 0.014,4.100111 0.33189,5.275054 0.34079,1.259533 0.65763,3.662614 0.79107,6.000165 0.0906,1.58712 0.071,1.83259 -0.19498,2.43375 -0.16266,0.36773 -0.46619,0.78028 -0.6745,0.91677 -0.3154,0.20666 -0.37875,0.35884 -0.37875,0.90986 0,0.65954 -0.38343,5.93824 -0.81402,11.20652 -0.59537,7.28443 -1.58194,12.39485 -3.50644,18.16333 -1.3215,3.96104 -3.07148,7.23695 -5.05469,9.46221 -0.41722,0.46815 -0.87422,0.98376 -1.01554,1.14582 -0.24726,0.28351 -0.23535,0.35525 0.31518,1.89845 0.31468,0.88209 1.10385,3.24669 1.75371,5.25466 0.64986,2.00797 2.06436,6.3452 3.14334,9.63828 2.17669,6.64332 2.40802,7.46504 2.44149,8.67264 0.028,1.01097 -0.31357,1.68303 -1.05765,2.08088 -1.23439,0.66003 -4.38946,0.21158 -7.98333,-1.13471 -0.76241,-0.2856 -1.43075,-0.47476 -1.4852,-0.42033 -0.14523,0.14518 -0.20265,14.24746 -0.068,16.69691 l 0.11501,2.09178 1.27557,0.47941 c 1.18548,0.44553 2.94084,1.47237 3.73881,2.18706 0.71489,0.64028 1.30945,1.98088 1.49256,3.36532 0.32866,2.48502 0.0368,3.69193 -1.19068,4.92439 -0.89477,0.89836 -2.1559,1.51677 -4.21593,2.06732 -1.64478,0.43958 -1.75511,0.44959 -4.68306,0.42445 -2.60167,-0.0223 -3.22992,-0.0752 -4.74612,-0.39947 -0.96114,-0.20555 -2.06929,-0.53078 -2.46257,-0.72274 -0.55348,-0.27014 -0.79664,-0.31797 -1.07613,-0.21173 -1.70871,0.64965 -6.31952,0.28766 -10.54353,-0.82776 -2.77222,-0.73206 -4.85104,-2.13276 -5.56406,-3.74901 -0.52659,-1.19371 -0.47693,-2.67512 0.13341,-3.97939 1.15694,-2.47233 4.82123,-4.76012 8.01046,-5.00132 0.841,-0.0636 1.06822,-0.13008 1.07709,-0.31509 0.006,-0.12897 0.0302,-0.46449 0.0534,-0.7456 0.0232,-0.28112 0.0626,-2.84402 0.0876,-5.69534 0.025,-2.85133 0.0951,-6.79426 0.15577,-8.76207 0.0607,-1.96781 0.0721,-4.12968 0.0254,-4.80414 l -0.085,-1.22629 -1.98615,0.0948 c -1.09238,0.0521 -2.41329,0.19092 -2.93537,0.30844 -1.12831,0.25398 -1.95883,0.28004 -2.34464,0.0735 -0.49882,-0.26696 -0.76568,-0.99011 -0.66807,-1.81037 0.11737,-0.9864 1.25921,-4.72173 3.66384,-11.98556 l 1.98208,-5.98741 -0.69596,-0.64423 c -4.13931,-3.83164 -5.96787,-6.39877 -9.37098,-13.15603 -3.39854,-6.74818 -5.16254,-12.38827 -5.93208,-18.9668 -0.19443,-1.66212 -0.26372,-6.34347 -0.11482,-7.75749 z m 2.00458,5.76835 c 0.1759,4.27796 1.68899,10.55613 3.75773,15.59162 1.68343,4.09761 5.35477,10.75507 7.44896,13.50764 0.56604,0.74399 1.66322,1.91977 2.43819,2.61284 2.12232,1.89806 2.49088,2.34742 2.49675,3.0441 0.003,0.32128 -0.22968,1.24129 -0.51641,2.04448 -1.75705,4.92175 -5.11985,15.50687 -4.97304,15.65367 0.0428,0.0428 0.49209,0.007 0.99846,-0.0801 2.83714,-0.48644 5.75798,-0.35226 10.97034,0.50399 5.70056,0.93644 7.97028,1.55188 14.92223,4.04618 2.79625,1.00328 5.17304,1.46429 5.65208,1.09631 0.22916,-0.17603 0.232,-0.27186 0.036,-1.21336 -0.11702,-0.56224 -1.15943,-3.91373 -2.31646,-7.44776 -1.15704,-3.53404 -2.61101,-7.99038 -3.23104,-9.90298 -0.62005,-1.9126 -1.3434,-3.90686 -1.60745,-4.43169 -0.26406,-0.52483 -0.58899,-1.39852 -0.72206,-1.94155 -0.32716,-1.33498 -0.15037,-1.74521 1.22498,-2.84257 3.02658,-2.41487 5.74296,-8.75667 7.44858,-17.38982 0.6417,-3.24803 0.88527,-5.10629 1.33037,-10.1494 0.16659,-1.88749 0.43139,-4.7384 0.58845,-6.33533 0.15705,-1.59693 0.28556,-3.18213 0.28556,-3.52267 0,-0.60249 -0.0147,-0.62151 -0.54763,-0.70695 -0.3012,-0.0483 -0.76121,-0.13062 -1.02224,-0.18295 l -0.47461,-0.0952 -0.003,0.71192 c -0.0116,2.86127 -1.52659,12.58925 -2.71492,17.43286 -0.57765,2.3545 -1.45343,5.05513 -2.12172,6.54278 -0.40256,0.8961 -0.42427,1.02382 -0.25925,1.52521 0.34876,1.05975 -0.52523,2.77057 -1.72129,3.36939 -2.69382,1.34871 -6.14742,1.84117 -12.89458,1.83869 -1.72686,-5.9e-4 -4.68406,0.0241 -6.57155,0.0551 -3.15161,0.0517 -3.4949,0.0326 -4.20449,-0.23451 -1.37132,-0.51607 -1.88973,-1.53535 -1.72307,-3.38786 l 0.0922,-1.0247 -0.86812,-1.67694 c -2.1762,-4.20368 -4.11251,-10.04521 -4.98505,-15.03908 -0.68556,-3.92364 -0.7006,-8.84095 -0.0398,-12.99707 0.41647,-2.619271 0.50039,-2.400101 -1.17967,-3.080711 -0.79436,-0.3218 -1.58295,-0.56531 -1.75242,-0.54112 -0.68195,0.0974 -2.22535,3.851581 -2.8698,6.980621 -0.29614,1.43789 -0.56464,4.49576 -0.48085,5.4763 0.0206,0.24095 0.0699,1.22668 0.10949,2.19051 z m 4.24444,-16.580546 c 0.30145,0.582941 0.9138,1.02788 1.41463,1.02788 0.2327,0 0.65902,0.09858 0.94736,0.219054 0.66391,0.277391 1.23385,0.277691 1.89613,7.59e-4 0.28707,-0.119947 0.57022,-0.188242 0.62924,-0.151769 0.28257,0.174635 1.41704,-1.924224 1.54983,-2.867348 0.049,-0.347995 0.18542,-0.888823 0.30315,-1.201839 0.26816,-0.713005 0.42415,-3.20333 0.24333,-3.884705 -0.0814,-0.306713 -0.24072,-0.531146 -0.39866,-0.561562 -0.1447,-0.02787 -0.73957,0.184829 -1.32195,0.472653 -1.27168,0.628503 -2.77149,1.973854 -3.96289,3.554781 -0.47002,0.623695 -1.00347,1.290808 -1.18544,1.482481 -0.39212,0.413011 -0.4438,1.273056 -0.11473,1.909402 z m 1.40692,-10.28979 c 0.09,1.686698 0.20525,3.111382 0.25605,3.165965 0.0508,0.05458 0.48666,-0.201582 0.96857,-0.569257 1.94909,-1.487061 3.98082,-2.100783 5.06829,-1.530982 l 0.54121,0.283583 0.16762,-0.820689 c 0.70933,-3.473076 2.55692,-6.993705 4.88225,-9.303236 4.00629,-3.979086 8.52038,-4.325337 12.88455,-0.988304 2.91987,2.232662 5.99877,7.104119 7.3471,11.624626 0.32936,1.104257 0.57804,2.182065 0.55261,2.395124 -0.0254,0.213067 -0.22276,0.518592 -0.43852,0.67896 -0.34338,0.255217 -0.44729,0.268794 -0.83339,0.108867 -0.49,-0.202966 -0.5448,-0.325076 -1.40117,-3.121974 -1.3066,-4.267416 -4.6609,-9.113251 -7.44538,-10.756094 -3.26164,-1.92437 -6.19357,-1.457363 -9.15034,1.457496 -1.68457,1.660694 -2.95437,3.666164 -3.88302,6.13271 -0.49925,1.326027 -1.06589,3.928798 -1.16688,5.359893 -0.0713,1.010843 -0.13972,1.254213 -0.42865,1.525655 -0.19999,0.187878 -0.34379,0.491575 -0.34379,0.726066 0,1.360954 -0.90108,3.972577 -1.90837,5.531056 -0.59963,0.92774 -1.67117,1.75476 -2.27358,1.75476 -0.40559,0 -0.47073,0.10231 -0.58199,0.91411 l -0.0886,0.646261 1.44054,-0.25609 c 0.79229,-0.14084 2.82055,-0.429391 4.50725,-0.641211 3.82204,-0.47998 10.71759,-1.46004 12.85104,-1.8265 0.8835,-0.15176 2.29639,-0.34937 3.13974,-0.43914 0.84334,-0.0898 2.51909,-0.29122 3.72387,-0.447691 1.20479,-0.156466 2.82737,-0.28489 3.60574,-0.285391 0.77837,-4.4e-4 1.44245,-0.05016 1.47574,-0.110431 0.0333,-0.06026 -0.006,-0.618048 -0.088,-1.239572 -0.18491,-1.406695 0.0187,-2.448456 0.6453,-3.300396 0.57087,-0.776268 2.10294,-1.535111 3.75527,-1.860004 1.13298,-0.222781 1.26,-0.222356 1.85848,0.0061 0.3533,0.134928 0.71422,0.200932 0.80201,0.146669 0.10899,-0.06739 0.13106,-0.615241 0.0696,-1.726666 -0.0496,-0.895399 -0.12663,-4.284259 -0.17132,-7.530797 -0.0825,-5.992398 0.0261,-8.841373 0.46321,-12.155757 0.11842,-0.897836 0.18144,-1.666302 0.14004,-1.707705 -0.17013,-0.170121 -4.87315,-0.447341 -7.68877,-0.453215 -3.15334,-0.0066 -5.99211,0.144646 -9.6864,0.516001 -3.15843,0.317492 -5.40629,0.680754 -10.30467,1.66527 -2.3846,0.479278 -5.14879,0.971857 -6.14264,1.094617 -0.99385,0.122762 -2.82558,0.352747 -4.07053,0.511079 -1.24494,0.158332 -2.42782,0.306065 -2.62862,0.328297 -0.36293,0.04018 -0.36556,0.05117 -0.44501,1.865852 -0.15122,3.453756 -0.13979,9.570708 0.0236,12.631979 z m 9.33982,4.554425 c 0.35783,-3.304655 1.70529,-5.799509 4.79223,-8.872935 2.74262,-2.730609 5.19961,-3.361573 7.87809,-2.023119 1.62804,0.813542 4.05922,3.385343 5.02854,5.319388 0.49676,0.991177 1.56739,4.379956 1.56739,4.961145 0,0.853025 -0.98816,1.279393 -1.58407,0.683482 -0.14837,-0.148368 -0.5761,-1.216243 -0.95051,-2.373057 -0.85329,-2.636396 -1.4606,-3.661228 -3.11389,-5.254701 -1.53707,-1.481443 -2.41191,-1.962555 -3.5517,-1.953223 -1.24175,0.01016 -2.23579,0.548957 -3.80697,2.063447 -3.20179,3.086274 -4.36438,5.347835 -4.42515,8.608177 -0.0284,1.521026 -0.17261,1.807746 -0.90955,1.807746 -0.86877,0 -1.14842,-0.897384 -0.92441,-2.96635 z m 3.20823,-0.778697 c 0.14369,-0.726004 0.68818,-1.829597 1.53865,-3.118573 1.0661,-1.615788 1.60301,-2.142271 2.7758,-2.721898 1.99669,-0.986817 3.4303,-0.655632 5.14564,1.188722 0.83616,0.899067 2.11214,2.995258 2.36952,3.892708 0.16879,0.588518 -0.0526,1.373539 -0.44678,1.584518 -0.68226,0.365131 -1.45826,-0.02345 -1.45826,-0.730262 0,-0.519484 -1.29833,-2.719813 -2.06359,-3.497239 -1.15431,-1.172665 -1.92324,-1.270568 -3.2034,-0.407867 -0.98598,0.664449 -2.50299,2.984964 -2.8518,4.362271 -0.2631,1.03893 -0.54139,1.441332 -0.99448,1.438015 -0.38807,-0.003 -0.58426,-0.135027 -0.7952,-0.535789 -0.18744,-0.356115 -0.18989,-0.576528 -0.0161,-1.454606 z m 2.47993,0.08566 c 0.29774,-1.083215 1.11333,-1.965881 2.08239,-2.253661 1.02832,-0.305379 1.51327,-0.152026 2.40506,0.760535 0.84817,0.867928 1.01322,1.525342 0.49962,1.990134 -0.54078,0.489405 -1.04513,0.303659 -1.89616,-0.69832 -0.3079,-0.362514 -0.36603,-0.379578 -0.65715,-0.192885 -0.17565,0.112646 -0.46799,0.495778 -0.64964,0.8514 -0.36794,0.720343 -0.71633,0.94616 -1.25221,0.811664 -0.42381,-0.10637 -0.68208,-0.722506 -0.53191,-1.268867 z m -12.64036,23.567088 c 0.6738,4.24268 1.83786,8.32364 3.58201,12.55787 0.42397,1.02926 0.81807,1.81784 0.87579,1.75242 0.0577,-0.0654 0.2865,-1.3395 0.50842,-2.8313 0.39848,-2.67861 0.4001,-2.71856 0.13084,-3.21275 -0.24683,-0.45302 -0.27125,-0.84621 -0.25785,-4.15127 0.0164,-4.03902 0.13669,-4.92478 0.92676,-6.82264 0.69927,-1.67971 2.63523,-4.48362 3.9734,-5.75478 1.55843,-1.4804 3.68107,-2.38565 6.32502,-2.69748 4.3004,-0.50717 7.32953,0.51345 10.0762,3.39501 2.88853,3.0304 3.94651,7.36736 2.98699,12.24451 -0.18056,0.91777 -0.11917,6.62869 0.10493,9.76099 0.0896,1.25304 0.11204,1.32908 0.2764,0.93819 0.48065,-1.14312 1.58082,-4.72138 2.03573,-6.62113 0.97511,-4.07216 2.13913,-11.22303 2.49151,-15.30592 l 0.23175,-2.68532 -0.52492,-0.43269 c -0.62053,-0.51149 -1.0915,-1.39252 -1.67896,-3.140701 -0.23628,-0.70311 -0.46584,-1.26977 -0.51014,-1.25924 -0.0443,0.0105 -0.78646,0.0628 -1.64924,0.11608 -2.31682,0.14317 -7.40592,0.75246 -11.06092,1.32425 -4.635,0.725111 -8.07122,1.190881 -11.31767,1.534081 -3.46799,0.36663 -7.3378,0.8883 -7.47725,1.00799 -0.41535,0.3565 -0.45047,7.75471 -0.0488,10.28383 z m 10.96647,75.80304 c 0.45436,0.20802 1.13118,0.6001 1.50402,0.87129 0.37283,0.2712 0.88421,0.5981 1.13638,0.72644 0.25218,0.12837 0.75299,0.52786 1.11292,0.8878 l 0.65442,0.65442 0.0919,-0.67023 c 0.0505,-0.36862 0.092,-2.41894 0.0921,-4.55626 1.4e-4,-3.40713 0.0317,-3.94903 0.25555,-4.39715 0.1819,-0.36411 0.36803,-0.52414 0.64711,-0.55639 0.594,-0.0686 0.66918,0.25904 0.54649,2.38182 -0.0603,1.04414 -0.11543,3.16794 -0.1224,4.71955 l -0.0127,2.82111 0.43633,-0.3107 c 1.33019,-0.94718 4.08749,-1.84545 6.20587,-2.02173 l 1.16591,-0.097 -0.0244,-9.12715 c -0.0134,-5.01994 -0.0288,-9.40336 -0.0341,-9.74094 l -0.01,-0.61379 -1.35761,-0.43488 c -2.81773,-0.90261 -6.2424,-1.63612 -10.5442,-2.2584 l -2.33656,-0.338 -0.073,8.48192 c -0.0401,4.66506 -0.0927,9.54352 -0.11669,10.841 l -0.0437,2.35908 z M 172.6316,96.214205 c 0.65876,3.406024 1.4008,4.784395 3.00803,5.587525 1.02159,0.51051 1.87004,0.58313 2.71038,0.23201 l 0.52778,-0.22052 -0.10171,-1.71443 c -0.28709,-4.839123 -1.15089,-7.736031 -2.42755,-8.141226 -0.42163,-0.13382 -2.28057,0.302763 -2.98695,0.701507 -0.99562,0.562033 -1.15693,1.347628 -0.72998,3.555134 z"
           id="path988" /></g><g
         id="g1004"
         transform="matrix(0.86711225,0,0,0.86711225,14.395009,20.869059)"><path
           style="opacity:0.55;fill:#000000;stroke-width:0.161839"
           d="m 39.732398,179.61676 c 0.155797,-0.92682 0.724822,-2.8185 1.02453,-3.40597 0.177056,-0.34706 0.532592,-0.87095 0.790083,-1.16422 0.354049,-0.40324 0.496956,-0.76923 0.586289,-1.50151 0.51791,-4.24553 2.910515,-6.6561 5.262378,-5.30189 0.387326,0.22302 0.443263,0.20756 0.94524,-0.26136 0.685963,-0.64078 1.593415,-0.89448 2.411513,-0.67419 0.675636,0.18193 1.542467,0.98209 1.797766,1.65951 0.119907,0.31817 0.314687,0.46453 0.719115,0.54041 1.389422,0.26065 2.10572,1.26719 2.299395,3.23106 0.06145,0.62307 0.203621,1.24211 0.315942,1.37563 0.112321,0.13352 0.340451,0.49765 0.506955,0.8092 0.743378,1.39091 0.06024,10.47893 -0.932738,12.40847 -0.459091,0.8921 -1.455246,1.50969 -2.435082,1.50969 -0.449618,0 -0.731737,1.2215 -1.649618,1.75483 -1.517261,0.88158 -3.97228,0.66898 -4.875696,0.66704 -0.356046,-8.1e-4 -0.939291,-0.13401 -1.296102,-0.29611 -0.620422,-0.28185 -1.697922,-1.32317 -1.697922,-1.6409 0,-0.0832 -0.382345,-0.39599 -0.849655,-0.69515 -1.039931,-0.66573 -1.640503,-1.50518 -2.146191,-2.99987 -0.752019,-2.22277 -1.039348,-4.44925 -0.776202,-6.01467 z m 16.406824,33.35591 c 0.51372,-1.28262 1.795055,-1.03517 3.116338,-1.02979 1.695006,0.007 4.683487,1.75769 5.229071,3.06345 0.366847,0.87799 0.284592,2.14986 -0.183591,2.83885 -0.596897,0.87842 -2.526995,1.80003 -3.767799,1.79911 -2.327796,-0.002 -4.576569,-2.1052 -4.555402,-4.26107 0.0048,-0.48957 0.07743,-2.20094 0.161383,-2.41055 z"
           id="path990"
           sodipodi:nodetypes="sssssssscsssssscsssssscsscss" /><path
           style="fill:#000000;stroke-width:0.157158"
           d="m 31.481451,175.45869 c 0.114923,-0.25931 0.386108,-0.65996 0.60263,-0.89034 0.407153,-0.4332 1.524838,-1.07266 1.880824,-1.07607 0.111489,-8.2e-4 0.350006,-0.23092 0.530036,-0.51077 0.320809,-0.49868 0.321674,-0.52134 0.04341,-1.13744 -0.352637,-0.78079 -0.360478,-1.15875 -0.04062,-1.95814 l 0.251538,-0.62867 -0.509639,-0.42883 c -1.019097,-0.85751 -1.355753,-2.35414 -0.805274,-3.5799 0.248501,-0.55333 0.255869,-0.69367 0.06545,-1.24638 -0.391856,-1.13737 0.108958,-2.48325 1.175549,-3.15913 0.272807,-0.17288 0.579447,-0.50912 0.681424,-0.74722 0.453769,-1.05949 1.679036,-1.66253 3.014104,-1.48346 0.49402,0.0662 0.738426,0.0152 1.032088,-0.21584 0.855991,-0.67333 2.120767,-0.72068 3.126978,-0.11706 0.410736,0.2464 0.567645,0.26879 0.844679,0.12053 0.18713,-0.10015 0.706805,-0.17772 1.154835,-0.17237 0.733543,0.009 0.840904,-0.0348 1.078982,-0.43783 0.672331,-1.13817 2.170644,-1.90189 3.714132,-1.89317 0.394887,0.002 1.213022,0.18338 1.81808,0.40255 0.605058,0.21917 1.50662,0.46386 2.003471,0.54376 1.148896,0.18477 1.845081,0.47775 2.798834,1.17787 1.094716,0.8036 1.946907,2.15407 2.194712,3.47798 0.169946,0.90794 0.307946,1.19261 0.897124,1.85057 1.215908,1.35788 1.771063,2.89011 1.771063,4.88814 0,1.35925 -0.273681,2.3279 -0.959822,3.39716 -0.517156,0.80592 -1.678238,1.70244 -2.204827,1.70244 -0.150849,0 -0.311568,0.0603 -0.357154,0.1341 -0.04558,0.0737 0.123263,0.95033 0.375215,1.94795 0.836021,3.31028 0.964622,6.22932 0.386009,8.76183 -0.345719,1.51317 -1.496356,3.71683 -2.546886,4.8777 -0.889226,0.98263 -2.884031,2.42868 -3.597257,2.60769 -0.459482,0.11532 -0.459192,0.2935 0.004,2.46556 l 0.362567,1.70017 1.247247,1.14767 c 0.685984,0.63122 1.811456,1.59392 2.501047,2.13934 0.689589,0.54541 1.70582,1.37292 2.258288,1.83889 l 1.004488,0.84723 0.448285,-1.3999 c 0.982977,-3.06963 2.854196,-4.79853 5.60101,-5.17502 0.568714,-0.0779 0.755952,-0.1867 0.960252,-0.55772 0.959441,-1.74242 2.474757,-4.19699 2.814409,-4.55891 0.471749,-0.50266 1.039491,-0.55572 1.991699,-0.18615 0.558685,0.21684 0.768618,0.46633 1.769591,2.10304 1.26945,2.07572 2.837669,4.25076 3.508772,4.8665 0.504075,0.46249 0.777466,1.07948 0.777466,1.75461 0,0.25475 -0.278977,1.76031 -0.61996,3.34568 -0.340975,1.58537 -0.980055,4.8907 -1.42018,7.34518 -2.168544,12.09356 -2.770523,15.09175 -3.562343,17.74252 -0.514967,1.72394 -0.92588,2.44442 -1.567898,2.74907 -0.633372,0.30056 -1.033626,0.21684 -2.49482,-0.5218 -1.022717,-0.51699 -8.263053,-3.05318 -8.38062,-2.93562 -0.02906,0.0291 0.173439,1.03131 0.45,2.2272 1.474248,6.37493 0.347383,8.19452 -4.541611,7.33347 l -0.52824,-0.093 0.08192,0.6887 c 0.295071,2.48051 0.410923,5.13756 0.495986,11.37541 0.08734,6.40435 0.460064,15.90682 0.630626,16.07738 0.0375,0.0375 0.992126,0.1196 2.121394,0.18244 2.03436,0.1132 2.06099,0.11961 2.899654,0.69722 1.658296,1.14211 2.483634,3.03493 2.508194,5.75226 0.01815,2.00732 -0.313382,2.9071 -1.469601,3.98861 -1.981873,1.8538 -5.960788,2.82701 -11.555063,2.82623 -2.805602,-3.1e-4 -3.071447,-0.0265 -4.400418,-0.43116 -2.265141,-0.68983 -3.78329,-1.75749 -4.366057,-3.07049 -0.380376,-0.85701 -0.525543,-2.89686 -0.294064,-4.13214 0.155157,-0.82799 0.114012,-1.13235 -0.531151,-3.92894 -1.135883,-4.92372 -2.175041,-11.56698 -3.768315,-24.09056 -0.307906,-2.42023 -0.601581,-4.53736 -0.652609,-4.70473 -0.05103,-0.16738 -0.172232,-0.93787 -0.26934,-1.71221 l -0.176562,-1.4079 -0.631924,-0.18576 c -1.460624,-0.42938 -2.018713,-1.17228 -2.010373,-2.67613 0.01054,-1.90225 1.601765,-9.61598 3.428342,-16.61956 0.648134,-2.48513 1.180152,-4.64212 1.182261,-4.79331 0.0021,-0.1512 0.181272,-0.87604 0.398143,-1.61075 0.216871,-0.73471 0.607287,-2.18449 0.86759,-3.22174 1.141242,-4.54756 3.45138,-12.05003 4.109913,-13.34747 l 0.313521,-0.61769 -0.449844,-0.31245 c -0.247414,-0.17184 -0.931859,-0.79591 -1.520989,-1.38683 -1.757637,-1.76295 -2.717926,-4.16662 -3.022296,-7.565 -0.09382,-1.04747 -0.147405,-1.2122 -0.365611,-1.12391 -0.622421,0.25184 -1.537709,0.25348 -2.659862,0.005 -2.226741,-0.4936 -3.343539,-1.2088 -3.874166,-2.48101 -0.295803,-0.70921 -0.306406,-1.91815 -0.02244,-2.55887 z m 3.83183,55.97871 c 0.218199,0.34322 1.488847,0.51629 5.533539,0.75373 5.417026,0.31799 6.564905,0.43414 11.963586,1.21049 5.387078,0.77469 5.166612,0.80402 5.166612,-0.68723 0,-1.45209 -1.377783,-7.6864 -1.724217,-7.80188 -0.0986,-0.0328 -0.475879,-0.3011 -0.838396,-0.59607 -0.362515,-0.29498 -0.782339,-0.57876 -0.93294,-0.63062 -0.442096,-0.15224 -0.66937,-1.25398 -0.665953,-3.22829 l 0.0032,-1.83419 -0.439035,-0.0878 c -0.941273,-0.18826 -3.724545,-1.38591 -4.885994,-2.10247 -1.392695,-0.85922 -3.332959,-2.69214 -3.662827,-3.46017 -0.330446,-0.76938 -0.01936,-1.35103 0.757261,-1.41586 0.533921,-0.0446 0.666827,0.0447 1.887768,1.26841 0.763635,0.76536 1.772645,1.58287 2.410522,1.95303 1.050257,0.60947 3.771558,1.77697 4.141887,1.77697 0.26047,0 0.200818,-0.51853 -0.268793,-2.3365 l -0.420872,-1.6293 -2.170681,-1.12096 c -1.193873,-0.61654 -2.819602,-1.58066 -3.612728,-2.14249 -1.685389,-1.19391 -4.143901,-3.59664 -4.294631,-4.19719 -0.165215,-0.65827 0.233766,-1.21527 0.91142,-1.27238 0.488136,-0.0412 0.637167,0.0354 1.095166,0.56252 0.871181,1.00264 2.989993,2.78443 4.397416,3.69795 1.57207,1.02039 2.969088,1.74367 2.969088,1.53719 0,-0.0818 -0.244258,-1.26753 -0.542796,-2.63504 -0.298539,-1.3675 -0.827017,-4.18368 -1.174395,-6.25816 -0.347378,-2.07448 -0.845689,-4.76094 -1.107358,-5.96991 -0.261671,-1.20897 -0.475764,-2.24239 -0.475764,-2.29646 0,-0.0541 -0.602523,-0.14723 -1.338941,-0.20698 -0.736418,-0.0598 -1.660161,-0.20531 -2.052763,-0.32347 -0.64356,-0.19368 -0.723121,-0.18899 -0.808265,0.0477 -0.05194,0.1444 -0.214197,0.43936 -0.360569,0.65546 -0.288907,0.42651 -1.552759,4.64375 -2.519758,8.40794 -0.333076,1.29655 -1.001246,3.87787 -1.484821,5.73626 -0.483576,1.85839 -0.976173,3.80321 -1.094661,4.32184 -0.118487,0.51862 -0.615266,2.42809 -1.103951,4.24326 -0.967495,3.59366 -1.834073,7.38982 -2.583038,11.31536 -0.861688,4.51634 -0.85387,4.46124 -0.673293,4.74527 z m 3.241923,7.59162 c 0.216042,1.33976 0.786472,5.30015 1.267623,8.80084 1.049912,7.63882 1.967718,13.30985 2.61976,16.18724 0.264429,1.1669 0.504492,2.14699 0.533475,2.17798 0.02899,0.0309 0.392731,-0.22505 0.808331,-0.56898 1.112778,-0.92088 2.018694,-1.39143 3.427317,-1.78019 1.38641,-0.38264 3.082087,-0.45168 4.086102,-0.16636 0.345747,0.0983 0.974207,0.17904 1.396578,0.17952 l 0.767947,8.2e-4 -0.101406,-1.61087 c -0.222913,-3.54103 -0.403187,-8.99816 -0.4971,-15.04785 -0.09906,-6.38118 -0.292038,-11.42961 -0.442661,-11.58023 -0.132149,-0.13216 -5.21085,-0.80366 -7.409669,-0.97971 -1.123678,-0.09 -3.151316,-0.21079 -4.505862,-0.26849 l -2.46281,-0.1049 0.05978,1.16258 c 0.03288,0.63937 0.236548,2.2587 0.452589,3.59848 z m 2.451808,-55.00635 c 0.443007,1.56405 1.13208,2.82059 2.046817,3.73244 2.512727,2.50475 6.145963,3.08452 8.902685,1.42062 2.698613,-1.62883 4.291769,-4.72898 4.291769,-8.35143 0,-1.59668 -0.50238,-4.38384 -1.165431,-6.46571 -0.506934,-1.59169 -0.616495,-1.79254 -1.382022,-2.5335 -0.907494,-0.87839 -1.645209,-1.21054 -2.392256,-1.07712 -0.265229,0.0474 -0.866401,-0.0155 -1.335936,-0.13979 l -0.853702,-0.22592 -0.573563,0.46093 c -0.608076,0.48866 -1.987447,1.07946 -2.520292,1.07946 -0.408753,0 -1.409334,0.50933 -1.742373,0.88693 -0.141525,0.16046 -0.335762,0.66537 -0.431639,1.12201 -0.09587,0.45665 -0.322567,1.12087 -0.503761,1.47604 -0.426066,0.83516 -1.599646,2.0869 -2.183209,2.32862 -0.576964,0.23899 -0.62158,0.48835 -0.548529,3.06581 0.04147,1.46329 0.152553,2.37721 0.391442,3.22061 z m 5.981549,1.53341 c 0.201767,-0.34641 0.824299,-0.35644 1.105337,-0.0178 0.117406,0.14146 0.507239,0.38313 0.866297,0.53704 0.359059,0.15391 0.702643,0.36043 0.763522,0.45894 0.190939,0.30894 -0.05755,0.90552 -0.416245,0.99932 -0.458181,0.11981 -1.793254,-0.4679 -2.180111,-0.9597 -0.346073,-0.43997 -0.370601,-0.61981 -0.1388,-1.01778 z m 0.965474,-7.31938 c 0.265834,-0.26583 0.833902,-0.22761 1.083295,0.0728 0.141781,0.17084 0.233487,0.82857 0.271866,1.94991 0.05444,1.59054 0.03804,1.70275 -0.273285,1.86936 -0.424771,0.22734 -0.928697,-0.0212 -1.026514,-0.50625 -0.192787,-0.95602 -0.229667,-3.2116 -0.05537,-3.3859 z m 3.661437,0.0622 c 0.205234,-0.41346 0.745074,-0.49764 1.025381,-0.15989 0.297258,0.35817 0.41724,3.12675 0.149485,3.44937 -0.237263,0.28588 -0.844576,0.30798 -1.064277,0.0387 -0.221057,-0.27092 -0.309338,-2.9278 -0.110589,-3.3282 z m 1.591414,22.93363 0.260722,1.72873 0.800996,0.76119 c 1.338849,1.27229 3.760289,2.96134 3.937486,2.74654 0.0228,-0.0277 0.164632,-0.56145 0.315183,-1.18625 l 0.273727,-1.13599 -0.526859,-0.43542 c -0.289773,-0.23948 -0.845104,-0.72096 -1.234069,-1.06996 -0.388966,-0.34898 -1.343699,-1.15877 -2.12163,-1.7995 -0.777931,-0.64074 -1.538183,-1.26794 -1.689447,-1.39375 -0.335965,-0.27947 -0.335479,-0.3332 -0.01611,1.78441 z m 1.563295,7.73388 c 0.238492,1.05547 0.514131,1.94993 0.612531,1.98769 0.0984,0.0377 0.574649,-0.11824 1.058328,-0.34666 0.857674,-0.40506 0.883648,-0.4364 1.050537,-1.2674 0.09412,-0.46863 0.15344,-0.86174 0.131833,-0.87357 -0.02161,-0.0118 -0.35753,-0.1591 -0.746496,-0.3273 -0.388965,-0.16819 -1.157804,-0.64543 -1.708527,-1.06055 -0.874465,-0.65913 -0.990582,-0.70892 -0.916572,-0.393 0.04661,0.19896 0.279874,1.22532 0.518366,2.28079 z m 1.438813,13.36849 c 0.463343,0.52863 3.945694,2.01668 7.462853,3.18896 1.837959,0.6126 3.750505,1.32055 4.250102,1.57321 0.499596,0.25266 0.973968,0.45939 1.05416,0.45939 0.329325,0 1.460795,-4.72379 2.505784,-10.46143 0.345293,-1.89587 0.987541,-5.45323 1.427218,-7.90526 0.439679,-2.45202 1.080332,-5.77384 1.423684,-7.38182 0.343343,-1.60799 0.592191,-3.00718 0.553005,-3.10931 -0.254174,-0.66236 -4.934831,-1.5476 -7.557893,-1.4294 -2.288477,0.10313 -3.212936,0.40347 -4.161471,1.35201 -0.812933,0.81293 -1.270834,1.825 -1.675911,3.70416 -0.131287,0.60903 -0.368692,1.60237 -0.527568,2.20744 -0.490716,1.86881 -1.142454,5.60053 -0.999717,5.72416 0.07448,0.0645 0.489013,0.24653 0.921197,0.40448 1.914857,0.69983 3.843739,2.34469 4.564186,3.89214 1.082131,2.3243 -0.162269,5.26985 -2.431983,5.75662 -1.585003,0.33992 -3.680006,0.1457 -4.882464,-0.45264 -0.302529,-0.15054 -0.811839,-0.32119 -1.131801,-0.37923 -0.56973,-0.10334 -0.584909,-0.0932 -0.734571,0.48952 -0.402246,1.56622 -0.412127,1.96389 -0.05881,2.367 z m 0.207003,-7.09353 c 0.398904,0.82403 1.911914,2.25166 2.886146,2.72328 0.898574,0.43499 2.414772,0.5931 3.073006,0.32045 0.632149,-0.26185 1.222821,-0.98119 1.346346,-1.63964 0.133238,-0.71023 -0.346728,-1.77187 -1.153108,-2.55056 -0.802766,-0.77521 -2.675654,-1.76313 -3.576621,-1.88662 -0.985265,-0.13505 -2.010206,0.28086 -2.512023,1.01935 -0.473562,0.69691 -0.487535,1.13832 -0.06375,2.01374 z M 69.488826,195.0977 c 0.54023,0.0571 1.366511,0.17009 1.836179,0.25117 1.314091,0.22683 1.349733,0.21687 1.018289,-0.28478 -0.157051,-0.2377 -0.649849,-1.12616 -1.095108,-1.97435 l -0.809562,-1.54217 -0.957431,1.62074 c -0.526586,0.89141 -0.961293,1.66685 -0.966016,1.72319 -0.0047,0.0564 0.433419,0.14913 0.973649,0.2062 z"
           id="path986" /></g><g
         id="g1000"
         transform="matrix(0.86711225,0,0,0.86711225,38.255454,36.406093)"
         inkscape:export-filename="index-illustration.svg"
         inkscape:export-xdpi="96"
         inkscape:export-ydpi="96"><path
           style="opacity:0.55;fill:#000000;stroke-width:0.12566"
           d="m 13.514159,14.562661 c 0.05761,-0.215924 0.189798,-0.463176 0.293743,-0.549441 0.103945,-0.08628 0.188992,-0.350649 0.188992,-0.587512 0,-0.637421 0.251363,-1.019039 1.275592,-1.936602 1.973809,-1.7682561 2.945753,-2.2117053 5.274658,-2.4065483 1.522919,-0.1274141 1.611601,-0.1215046 2.159811,0.1438736 0.314426,0.1522169 0.930753,0.6573844 1.369617,1.1226057 0.688543,0.729889 0.919991,1.112217 1.688284,2.788867 0.489692,1.068653 1.049286,2.432914 1.243542,3.031677 l 0.353193,1.088664 0.939259,-1.277153 c 2.236864,-3.041564 3.929534,-4.014945 5.553322,-3.193478 0.750102,0.379477 1.294081,1.135486 1.572803,2.185843 0.125723,0.473782 0.354942,1.015486 0.509374,1.203795 0.487037,0.593857 0.592255,1.147541 0.517865,2.725093 -0.07787,1.651336 -0.296864,2.603939 -0.868678,3.778651 -0.527722,1.084128 -1.732646,2.31838 -2.447719,2.507294 -0.327239,0.08647 -1.918261,2.570195 -2.129313,2.823328 -2.956742,0.245969 -2.892636,2.945438 -4.446167,3.586724 -1.122658,0.428486 -2.215913,-0.595436 -2.896266,-1.319634 -0.226401,-0.240992 -0.415288,-0.307076 -0.877783,-0.307076 -0.538679,0 -0.61759,0.04044 -0.918508,0.471226 -0.979038,1.401422 -2.519979,1.521023 -3.720249,0.288751 C 17.772622,30.34465 17.346906,29.683601 16.962022,28.887665 16.632039,28.20526 15.905406,26.803847 15.347282,25.773426 14.42031,24.06201 14.330527,23.833699 14.30953,23.13456 14.29689,22.713612 14.195985,22.00165 14.085299,21.552414 13.688776,19.943042 13.311272,15.323055 13.514159,14.562661 Z m 4.05398,1.440658 c 0.305471,0.608234 0.651677,1.44117 0.769345,1.85098 0.117669,0.409801 0.230368,0.763737 0.250441,0.786513 0.05213,0.05919 2.611724,-0.863649 2.74692,-0.990343 0.09294,-0.08713 -0.361728,-3.865958 -0.479287,-3.983514 -0.03253,-0.03258 -1.587191,0.152596 -2.414309,0.287482 -0.354003,0.05777 -1.428513,0.718497 -1.428513,0.878461 0,0.03551 0.249932,0.562188 0.555403,1.170421 z m 26.728533,54.619358 c 0.710327,-1.237235 1.861171,-1.512519 3.778211,-0.903746 0.884857,0.280995 0.976561,0.289016 1.163533,0.101749 0.155743,-0.155976 0.517935,-0.213026 1.556611,-0.245168 l 1.353641,-0.04186 2.787937,0.392488 c 1.842233,0.259351 0.02548,1.257105 0.02548,3.741396 0,0.953418 0.110964,3.11816 0.246587,4.81054 0.520777,6.498451 0.668749,11.673912 0.373171,13.052123 -0.113269,0.528171 -0.08247,0.906398 0.197465,2.425139 0.182413,0.98967 0.333918,2.142725 0.336674,2.562357 0.01097,1.67395 -1.058397,2.618864 -2.593372,2.291493 -0.489549,-0.104411 -0.612823,-0.08684 -0.883089,0.125728 -0.694276,0.546118 -1.896686,0.388076 -2.455857,-0.322797 -0.7066,-0.898299 -1.754597,-5.299637 -2.744901,-11.527946 -0.918087,-5.774111 -1.518315,-8.656166 -2.669385,-12.817324 -0.552196,-1.996217 -0.711914,-3.227496 -0.472706,-3.644144 z"
           id="path984"
           sodipodi:nodetypes="scssscssscssscsscccsscsscscsssccccsssssccssssscscsssss" /><path
           style="fill:#000000;stroke-width:0.124085"
           d="m 12.481126,16.234616 c 0.436175,-3.437362 2.148001,-6.19425 4.621467,-7.4428507 1.833237,-0.9254142 4.568443,-1.1225455 5.981687,-0.4311088 1.757363,0.8597968 3.529045,3.3094645 4.6067,6.3695865 0.126177,0.358295 0.260261,0.649944 0.297964,0.648108 0.0377,-0.0018 0.208148,-0.237861 0.378764,-0.524502 1.004873,-1.688211 3.673328,-3.48493 5.173775,-3.483596 0.436999,3.73e-4 0.8814,0.08429 1.130013,0.213348 2.272902,1.179867 3.666086,6.32749 2.623133,9.692115 -0.316266,1.020296 -0.927573,2.295976 -1.49951,3.12919 -0.787824,1.147725 -5.613501,5.72863 -7.636466,7.249124 -1.385532,1.041388 -1.528132,1.177534 -1.528132,1.458952 0,0.122477 0.29998,0.430518 0.686182,0.704624 0.377402,0.267859 1.0335,0.736877 1.457997,1.042263 0.424498,0.305386 1.302276,0.839433 1.950619,1.18677 0.648343,0.347335 1.904702,1.042762 2.791908,1.54539 3.455225,1.957481 5.502413,2.486465 7.972843,2.060135 1.498824,-0.258656 2.308256,-0.576406 3.335416,-1.309362 1.561901,-1.114533 1.51744,-1.0556 1.782874,-2.363036 0.131626,-0.648344 0.295482,-1.675157 0.364123,-2.281806 0.08369,-0.739608 0.196685,-1.182427 0.342983,-1.344086 0.207864,-0.229686 0.207895,-0.24684 6.2e-4,-0.362814 -0.119635,-0.06695 -0.543461,-0.392982 -0.941837,-0.724513 -2.003575,-1.667392 -3.643947,-5.014754 -3.993443,-8.149062 -0.152231,-1.365215 -0.0028,-3.052442 0.379966,-4.291883 l 0.250293,-0.810353 -0.309435,-0.54125 c -0.637119,-1.114421 -1.006934,-2.634717 -1.161628,-4.775412 -0.192581,-2.664977 0.125346,-3.8209934 1.17903,-4.2870879 0.905601,-0.4005906 1.865913,-0.022957 2.357105,0.9269004 l 0.196279,0.379562 0.161707,-0.470373 c 0.457858,-1.3318206 1.912662,-1.8219473 2.912001,-0.9810582 0.657393,0.5531589 0.785272,0.9502357 0.762913,2.3689147 -0.01103,0.699527 0.02202,1.270601 0.07344,1.269051 0.05141,-0.0015 0.180552,-0.179551 0.286978,-0.395557 0.661249,-1.342163 2.648393,-1.6198536 3.457764,-0.483201 0.313088,0.439697 0.598756,1.494633 0.69233,2.556721 0.04211,0.477726 0.105034,1.020118 0.139881,1.205315 l 0.06339,0.336721 0.454613,-0.243658 c 0.510231,-0.273469 1.641189,-0.327292 2.407148,-0.114558 0.549006,0.152476 1.166734,0.847422 1.347466,1.51591 0.06933,0.256413 0.292962,1.418767 0.496973,2.583009 0.204005,1.164241 0.559911,2.936705 0.790896,3.938807 0.553172,2.399879 0.612995,2.85927 0.450815,3.461577 -0.245643,0.912247 -1.437229,1.699375 -2.250592,1.486676 -0.210356,-0.05501 -0.30473,0.05178 -0.563218,0.637359 -0.170789,0.386893 -0.530815,1.04203 -0.800066,1.455859 l -0.489531,0.752418 0.434035,2.411744 c 0.883323,4.907969 1.180179,6.731309 1.796753,11.035639 0.347045,2.422753 0.961549,6.387266 1.365567,8.81002 1.486251,8.912552 1.661418,10.220785 1.661495,12.408484 7.1e-5,2.219514 -0.210105,2.903397 -1.152786,3.750949 -0.674042,0.606024 -1.394643,0.872263 -2.967819,1.09651 l -1.033308,0.14729 0.0797,1.81457 c 0.04385,0.998015 0.224678,4.187689 0.40187,7.088174 0.264118,4.323481 0.324147,6.348956 0.333182,11.242279 l 0.01103,5.968681 1.613106,0.144163 c 2.501574,0.223563 3.477071,0.563663 4.332465,1.510484 1.112379,1.23127 1.071895,2.322799 -0.14613,3.939969 -1.444052,1.91726 -4.993771,4.03545 -8.07079,4.816 -2.787294,0.70705 -5.651131,0.68023 -8.008859,-0.075 -1.716821,-0.54995 -3.5929,-1.76095 -4.275168,-2.75961 -0.748985,-1.09633 -0.817706,-2.12244 -0.221007,-3.29997 0.423538,-0.835805 1.504391,-1.974255 2.367596,-2.493747 0.800786,-0.481929 2.330807,-0.929409 3.620788,-1.058953 L 48.67889,97.00821 48.32981,95.537384 C 47.85073,93.518843 47.27525,90.620906 46.23592,84.99326 44.890386,77.707607 44.296528,75.198366 43.250351,72.378256 42.97948,71.648092 42.740869,71.033692 42.720103,71.012927 c -0.02076,-0.02076 -0.666575,0.103899 -1.435133,0.277028 -1.569801,0.353623 -2.033487,0.301164 -2.492165,-0.281954 -0.432591,-0.549948 -0.327648,-1.287972 0.799064,-5.619473 0.577048,-2.218382 1.579485,-6.266945 2.227638,-8.996815 0.648153,-2.729863 1.347986,-5.657354 1.555186,-6.505525 0.207199,-0.848178 0.354911,-1.563955 0.328248,-1.59062 -0.02666,-0.02663 -0.371308,0.01122 -0.765879,0.08414 -1.611367,0.297882 -3.457259,0.07492 -5.325004,-0.643193 -2.437407,-0.937141 -6.8197,-3.432808 -9.334277,-5.315777 -0.629574,-0.471437 -1.192356,-0.857154 -1.250627,-0.857154 -0.05827,0 -0.501705,-0.307503 -0.985406,-0.683341 -0.811824,-0.630793 -0.906499,-0.672973 -1.231069,-0.548516 -1.161903,0.445546 -3.593941,-1.026944 -4.477887,-2.711163 -0.553133,-1.053911 -0.693574,-1.832435 -0.622224,-3.449269 l 0.06185,-1.401492 -0.38654,-0.158483 c -0.607982,-0.249263 -2.220275,-1.948081 -3.05966,-3.223827 -1.282286,-1.94889 -2.635918,-4.879998 -3.213062,-6.957454 -0.586275,-2.110323 -0.837683,-4.574726 -0.632028,-6.195423 z m 2.037775,4.606803 c 0.687709,2.992705 2.241921,6.497841 3.809131,8.590546 0.532894,0.711573 1.540246,1.597388 2.030501,1.785516 0.08575,0.03291 0.409328,-0.186455 0.719054,-0.487474 1.485538,-1.443778 3.476835,-1.60529 4.657196,-0.377742 l 0.531238,0.552476 0.337356,-0.255498 c 1.823493,-1.381033 5.390788,-4.599788 6.959358,-6.279398 1.051647,-1.126091 1.875886,-2.665886 2.195123,-4.100797 0.381484,-1.714696 0.02031,-4.296572 -0.822144,-5.877182 -0.753627,-1.413947 -1.253308,-1.577775 -2.608765,-0.855322 -1.436405,0.765594 -2.453672,1.924318 -3.380632,3.850723 -0.349343,0.726002 -0.704911,0.969894 -1.279139,0.877394 -0.436418,-0.0703 -0.599227,-0.359499 -1.518241,-2.696846 -1.074002,-2.731528 -1.561001,-3.589581 -2.68619,-4.732842 -0.972826,-0.9884535 -1.359706,-1.1593543 -2.627083,-1.1604931 -1.069459,-9.673e-4 -1.934906,0.2005529 -2.969531,0.6914411 -1.828414,0.867511 -3.218509,3.074227 -3.631689,5.765156 -0.181501,1.182077 -0.05858,3.217545 0.284457,4.710342 z m 2.712196,-6.297254 c 0.153555,-0.143197 0.670058,-0.406662 1.147785,-0.585476 0.477726,-0.178815 1.067028,-0.462254 1.309559,-0.629864 0.531022,-0.366984 0.994673,-0.389786 1.290011,-0.06344 0.125479,0.138655 0.294361,0.67971 0.396994,1.271869 0.108572,0.626435 0.371091,1.448628 0.669445,2.096667 0.549605,1.193766 0.611532,1.729188 0.242661,2.098058 -0.29348,0.293481 -0.94571,0.322728 -1.295585,0.05809 -0.386201,-0.292108 -0.613239,-0.217633 -1.146846,0.3762 -0.888774,0.989087 -1.518519,0.659319 -1.777204,-0.930636 -0.175766,-1.080309 -0.35979,-1.575707 -0.799447,-2.152127 -0.407617,-0.534414 -0.423279,-1.179471 -0.03738,-1.539346 z m 1.954335,1.676816 c 0.136494,0.282509 0.24817,0.600107 0.24817,0.705773 0,0.231822 0.249237,0.249224 0.530132,0.03701 0.190854,-0.144185 0.190341,-0.205325 -0.0073,-0.86836 -0.215631,-0.72337 -0.342727,-0.818839 -0.779155,-0.585271 -0.290853,0.155661 -0.291601,0.09041 0.0082,0.710842 z m 2.36841,19.890212 c 0.147182,0.590382 0.825576,1.5964 1.187802,1.761443 0.160307,0.07303 0.307513,0.109766 0.327124,0.08162 1.145212,-1.643643 1.94865,-3.721395 1.94865,-5.039359 0,-0.709486 -0.40098,-1.497605 -0.814797,-1.601466 -1.196524,-0.300309 -2.455251,0.805675 -2.770044,2.433907 -0.114345,0.591439 -0.06091,1.633116 0.121265,2.363857 z m 4.983615,3.082354 c 3.144605,2.216188 3.737469,2.613236 5.516802,3.694624 5.727368,3.48081 8.448392,4.372155 11.141582,3.649723 2.429314,-0.651647 3.168332,-1.022797 4.802935,-2.412146 0.773135,-0.657135 2.219121,-2.357211 3.172126,-3.729543 0.374465,-0.53923 0.44149,-0.581513 0.865744,-0.546123 0.621764,0.05185 0.838924,0.453548 0.580094,1.073024 -0.278227,0.665885 -1.736743,2.577588 -2.840049,3.722507 -1.151094,1.194495 -1.823972,1.715347 -3.134724,2.426474 l -0.939309,0.509606 -1.044348,4.40501 c -0.574389,2.42276 -1.789068,7.392356 -2.699283,11.043549 -0.910217,3.651194 -1.63894,6.655335 -1.619386,6.675867 0.01955,0.02051 0.474765,-0.07439 1.011579,-0.210943 2.83558,-0.721297 3.518933,-0.786666 8.73133,-0.835223 6.84453,-0.06378 8.350938,-0.294961 8.880999,-1.363052 0.20383,-0.410722 0.237659,-0.739144 0.228625,-2.219249 -0.01187,-1.942889 -0.272617,-3.860867 -1.602582,-11.788055 -0.435093,-2.593374 -1.02072,-6.334531 -1.301391,-8.313685 -0.638744,-4.504201 -0.993798,-6.726935 -1.6182,-10.130515 -0.27096,-1.476985 -0.492653,-2.720175 -0.492653,-2.762647 0,-0.04247 -0.213058,0.06377 -0.473468,0.236106 -1.162149,0.769075 -2.971083,1.029896 -4.315099,0.622174 -0.812512,-0.246483 -0.79525,-0.252332 -0.79525,0.269445 0,0.251304 -0.06356,0.95257 -0.141256,1.558372 -0.136562,1.064857 -0.132439,1.107632 0.124085,1.287309 0.75394,0.528077 -0.125312,1.701696 -2.508275,3.348031 -2.337603,1.614995 -3.597005,2.035308 -6.098448,2.035308 -2.43592,0 -3.949235,-0.472739 -7.024322,-2.194309 -1.050381,-0.588051 -2.414263,-1.337948 -3.030849,-1.666441 -0.616586,-0.328499 -1.674737,-1.009749 -2.351445,-1.513896 l -1.23038,-0.916629 -0.384398,0.881091 c -0.211419,0.4846 -0.449809,0.992767 -0.529754,1.129263 -0.07995,0.136489 -0.147053,0.448519 -0.149127,0.693388 -0.0036,0.424904 0.05428,0.486133 1.268095,1.341585 z M 44.366293,24.469256 c 0.768855,3.006195 2.487048,5.422678 4.593135,6.459831 0.716911,0.353046 0.925443,0.397499 1.864764,0.397499 0.859102,0 1.168617,-0.05468 1.649204,-0.291332 1.124496,-0.553739 2.503747,-2.209375 3.013482,-3.61734 l 0.202154,-0.558382 -0.787975,-0.80655 C 54.467673,25.609378 53.371105,24.33891 52.464233,23.229717 50.239268,20.508364 48.972744,19.471384 47.588721,19.237852 47.220036,19.175643 46.375682,19.093818 45.71238,19.056021 l -1.206008,-0.06872 -0.141854,0.523785 c -0.414747,1.531417 -0.414103,3.332107 0.0018,4.958173 z m 1.894443,-1.989917 c 0.194303,-0.194303 0.654525,-0.190813 0.81802,0.0062 0.16242,0.195723 0.329872,1.838627 0.228546,2.242335 -0.08958,0.35692 -0.476076,0.494193 -0.775325,0.275377 -0.341891,-0.249998 -0.555695,-2.239462 -0.271241,-2.523917 z m 1.985357,5.707901 c 0.0819,-0.0819 0.282674,-0.148902 0.446173,-0.148902 0.163499,0 0.457178,-0.09446 0.65262,-0.20991 0.33667,-0.198876 0.368661,-0.197865 0.608545,0.01923 0.336341,0.304381 0.319562,0.631939 -0.05139,1.00287 -0.239562,0.239563 -0.432907,0.304572 -0.905821,0.304572 -0.652886,0 -0.89905,-0.152887 -0.89905,-0.558382 0,-0.143318 0.06701,-0.327584 0.148901,-0.40948 z m -3.323379,44.135688 c 1.145841,3.011972 1.769692,5.571898 3.04239,12.484202 1.111578,6.037236 1.393337,7.452708 2.019216,10.143938 0.464176,1.99594 0.536444,2.20159 0.770538,2.192794 0.142079,-0.0052 1.095832,-0.130976 2.119448,-0.279188 l 1.861128,-0.269483 0.101061,-0.744512 c 0.201322,-1.483084 -0.0019,-11.745965 -0.33843,-17.061658 -0.174806,-2.763989 -0.318479,-5.534143 -0.319272,-6.155901 -6.45e-4,-0.621758 -0.03772,-1.395224 -0.08209,-1.718816 l -0.08064,-0.588348 -4.417437,0.06631 c -4.410882,0.06621 -5.22398,0.122657 -5.22398,0.36267 0,0.07004 0.246629,0.775632 0.548066,1.567992 z"
           id="path978" /></g></g><g
       id="g1225"><g
         style="fill:none"
         id="g1197"
         transform="matrix(0.34938496,0,0,0.34938496,103.90723,63.547083)"><path
           opacity="0.689993"
           d="m 243.156,41.665 c 25.895,30.4551 23.419,73.083 17.564,112.628 -5.875,39.676 -14.285,83.91 -49.506,103.098 C 176.6,276.249 136.691,256.03 99.8872,241.915 62.572,227.603 18.961,215.949 5.26611,178.403 -8.93357,139.473 10.9698,97.7999 35.0102,64.0474 58.297,31.3529 91.147,6.08623 131.057,1.79467 c 41.486,-4.46112 85.071,8.082 112.099,39.87033 z"
           fill="#e1e4ff"
           id="path1195" /></g><g
         style="fill:none"
         id="g1201"
         transform="matrix(0.26369781,0,0,0.26369781,11.080738,90.888251)"><path
           opacity="0.506634"
           d="M 258.289,120.466 C 260.969,188.267 206.34,243.68 138.539,246.361 68.2859,249.138 3.38823,200.906 0.610855,130.653 -2.20205,59.501 57.6881,3.83399 128.84,1.02109 197.572,-1.69615 255.572,51.7337 258.289,120.466 Z"
           fill="#ffcd82"
           fill-opacity="0.8"
           id="path1199" /></g><g
         style="fill:none"
         id="g1205"
         transform="matrix(0.36090388,0,0,0.36090388,44.650009,26.523996)"><path
           d="m 163.138,5.54366 c 26.886,9.81624 53.457,27.60344 61.578,55.04894 7.873,26.607 -13.86,50.4814 -22.555,76.8314 -11,33.341 -4.377,76.915 -34.256,95.352 C 136.026,252.447 92.8228,243.291 60.076,225.101 29.1541,207.925 9.78411,175.458 2.4299,140.859 -4.0382,110.428 6.59713,79.6538 23.6266,53.6185 38.2646,31.2396 62.38,19.2648 87.6621,10.5528 112.444,2.01319 138.516,-3.44599 163.138,5.54366 Z"
           fill="#ffbda5"
           id="path1203" /></g><g
         id="g1211"
         transform="matrix(0.72811984,0,0,0.72811984,57.76709,-19.473746)"><path
           style="opacity:0.55;fill:#000000;stroke-width:0.147345"
           d="m 130.57421,108.1127 c 0.19802,-3.14883 0.92456,-6.60154 1.60573,-7.63086 0.26053,-0.39369 0.45011,-0.975993 0.5782,-1.775931 0.17227,-1.075925 0.24312,-1.238344 0.73801,-1.691875 0.5082,-0.465728 0.60362,-0.497034 1.33114,-0.436705 0.63899,0.05298 3.59537,1.320036 4.27229,1.831118 1.4792,1.116806 -0.9458,0.736839 -1.30918,3.250243 -0.32374,2.23924 -0.4753,7.90089 -0.25167,9.4009 0.9983,6.6962 1.44298,8.69998 2.51615,11.33805 0.40492,0.99535 0.82456,2.1033 0.93254,2.4621 0.10798,0.3588 0.56143,1.14678 1.00767,1.75108 0.94258,1.27648 2.74414,4.13104 3.64896,5.78178 0.46795,0.85372 0.69038,1.12778 0.87044,1.07246 1.39278,-0.42799 9.46801,-0.95929 16.15511,-1.06292 2.83639,-0.044 5.65104,-0.09 6.25481,-0.10241 l 1.09772,-0.0226 -1.1593,-1.65502 c 0.0587,-0.28364 1.51515,-0.33781 1.68947,-1.51289 0.17433,-1.17508 0.54782,-3.32999 0.82999,-4.7887 0.58345,-3.01624 0.6069,-3.1762 1.31679,-8.98804 0.28707,-2.35013 0.64704,-4.96919 0.79994,-5.82011 0.1529,-0.85091 0.35062,-2.07755 0.43938,-2.72587 0.3307,-2.41573 0.90318,-3.11683 2.44087,-2.98931 0.88271,0.0733 1.24423,0.31499 1.60375,1.07265 0.33137,0.69831 0.28933,1.64217 -0.20166,4.52806 -0.40515,2.38134 -1.19119,8.32339 -1.40877,10.64962 -0.0531,0.56728 -0.38497,2.52328 -0.73757,4.34667 -0.3526,1.8234 -0.77657,4.25265 -0.94216,5.39834 -0.66091,4.57301 -1.43149,7.04293 -2.9326,9.39981 -0.88411,1.38812 -2.57478,3.32517 -3.28206,3.76038 -1.19356,0.73441 -1.19355,0.73402 -0.0888,4.08128 1.87781,5.68941 3.77705,12.05722 4.15996,13.94755 0.15027,0.74174 0.7607,2.45538 1.58454,4.44815 1.18559,2.86782 1.33977,3.34371 1.33713,4.12714 -0.003,1.01278 -0.26336,1.52384 -1.00966,1.98508 -0.7916,0.48924 -1.75874,0.37423 -2.50905,-0.29841 -0.44564,-0.39949 -2.02897,-0.87775 -2.90592,-0.87775 -0.58874,0 -1.03719,-0.12538 -1.83814,-0.51395 -1.56229,-0.75789 -3.20039,-1.18201 -6.23948,-1.61544 -3.60787,-0.51456 -4.67792,-0.74615 -6.25196,-1.35312 -2.58302,-0.99603 -5.5587,-1.69094 -7.24087,-1.69094 -0.58047,0 -1.66468,0.14305 -2.40936,0.31788 -1.84085,0.43217 -2.50672,0.32948 -3.35338,-0.51717 -0.54125,-0.54126 -0.62962,-0.71642 -0.62962,-1.24807 0,-0.71561 0.16336,-1.08577 0.75586,-1.71268 0.37315,-0.39485 0.4626,-0.67719 0.72354,-2.28385 0.17673,-1.08813 0.56249,-2.61185 0.94909,-3.74877 0.35824,-1.05352 0.8882,-2.98899 1.17769,-4.30104 0.28948,-1.31204 0.62425,-2.66306 0.74392,-3.00225 0.11968,-0.33919 0.21759,-0.75712 0.21759,-0.92873 0,-0.1716 -0.38126,-1.05797 -0.84723,-1.96971 -0.46597,-0.91175 -0.9742,-1.90677 -1.12938,-2.21117 -0.15518,-0.30439 -0.7906,-1.2165 -1.41203,-2.0269 -2.14228,-2.7936 -5.97609,-8.79538 -7.29191,-11.41535 -2.47434,-4.92669 -3.56641,-9.38825 -4.27477,-17.4642 -0.21079,-2.40314 -0.2248,-2.92888 -0.12175,-4.56769 z"
           id="path1207"
           sodipodi:nodetypes="csssssssssssccsccssssscsssssssssscsssssssssssssssssscsscc" /><path
           style="opacity:1;fill:#000000;stroke-width:0.146034"
           d="m 129.42999,106.34323 c 0.35664,-3.38695 1.75787,-7.576841 3.39983,-10.165916 0.2434,-0.383801 0.44254,-0.880771 0.44254,-1.104379 0,-0.766372 1.14284,-3.032603 2.20669,-4.375822 l 0.4383,-0.553396 -0.28925,-0.406758 c -0.57807,-0.812869 -0.81162,-7.718018 -0.5439,-16.080598 0.12697,-3.965884 0.1451,-4.145129 0.4381,-4.330503 0.27067,-0.17124 2.04488,-0.464481 7.97247,-1.317688 0.92367,-0.132951 3.78229,-0.662141 6.3525,-1.175976 6.83818,-1.367091 9.5967,-1.732946 15.99077,-2.120806 3.25415,-0.197394 8.28733,-0.09925 11.59499,0.226097 1.89725,0.186616 2.22122,0.256702 2.53073,0.547477 0.41003,0.38519 0.41119,0.341084 -0.1042,3.911545 -0.29013,2.009942 -0.33361,3.007946 -0.38811,8.908101 -0.0457,4.945382 -0.0125,7.013459 0.1297,8.087097 0.11622,0.877481 0.15123,1.849925 0.0894,2.482586 -0.14844,1.518632 0.014,4.100111 0.33189,5.275054 0.34079,1.259533 0.65763,3.662614 0.79107,6.000165 0.0906,1.58712 0.071,1.83259 -0.19498,2.43375 -0.16266,0.36773 -0.46619,0.78028 -0.6745,0.91677 -0.3154,0.20666 -0.37875,0.35884 -0.37875,0.90986 0,0.65954 -0.38343,5.93824 -0.81402,11.20652 -0.59537,7.28443 -1.58194,12.39485 -3.50644,18.16333 -1.3215,3.96104 -3.07148,7.23695 -5.05469,9.46221 -0.41722,0.46815 -0.87422,0.98376 -1.01554,1.14582 -0.24726,0.28351 -0.23535,0.35525 0.31518,1.89845 0.31468,0.88209 1.10385,3.24669 1.75371,5.25466 0.64986,2.00797 2.06436,6.3452 3.14334,9.63828 2.17669,6.64332 2.40802,7.46504 2.44149,8.67264 0.028,1.01097 -0.31357,1.68303 -1.05765,2.08088 -1.23439,0.66003 -4.38946,0.21158 -7.98333,-1.13471 -0.76241,-0.2856 -1.43075,-0.47476 -1.4852,-0.42033 -0.14523,0.14518 -0.20265,14.24746 -0.068,16.69691 l 0.11501,2.09178 1.27557,0.47941 c 1.18548,0.44553 2.94084,1.47237 3.73881,2.18706 0.71489,0.64028 1.30945,1.98088 1.49256,3.36532 0.32866,2.48502 0.0368,3.69193 -1.19068,4.92439 -0.89477,0.89836 -2.1559,1.51677 -4.21593,2.06732 -1.64478,0.43958 -1.75511,0.44959 -4.68306,0.42445 -2.60167,-0.0223 -3.22992,-0.0752 -4.74612,-0.39947 -0.96114,-0.20555 -2.06929,-0.53078 -2.46257,-0.72274 -0.55348,-0.27014 -0.79664,-0.31797 -1.07613,-0.21173 -1.70871,0.64965 -6.31952,0.28766 -10.54353,-0.82776 -2.77222,-0.73206 -4.85104,-2.13276 -5.56406,-3.74901 -0.52659,-1.19371 -0.47693,-2.67512 0.13341,-3.97939 1.15694,-2.47233 4.82123,-4.76012 8.01046,-5.00132 0.841,-0.0636 1.06822,-0.13008 1.07709,-0.31509 0.006,-0.12897 0.0302,-0.46449 0.0534,-0.7456 0.0232,-0.28112 0.0626,-2.84402 0.0876,-5.69534 0.025,-2.85133 0.0951,-6.79426 0.15577,-8.76207 0.0607,-1.96781 0.0721,-4.12968 0.0254,-4.80414 l -0.085,-1.22629 -1.98615,0.0948 c -1.09238,0.0521 -2.41329,0.19092 -2.93537,0.30844 -1.12831,0.25398 -1.95883,0.28004 -2.34464,0.0735 -0.49882,-0.26696 -0.76568,-0.99011 -0.66807,-1.81037 0.11737,-0.9864 1.25921,-4.72173 3.66384,-11.98556 l 1.98208,-5.98741 -0.69596,-0.64423 c -4.13931,-3.83164 -5.96787,-6.39877 -9.37098,-13.15603 -3.39854,-6.74818 -5.16254,-12.38827 -5.93208,-18.9668 -0.19443,-1.66212 -0.26372,-6.34347 -0.11482,-7.75749 z m 2.00458,5.76835 c 0.1759,4.27796 1.68899,10.55613 3.75773,15.59162 1.68343,4.09761 5.35477,10.75507 7.44896,13.50764 0.56604,0.74399 1.66322,1.91977 2.43819,2.61284 2.12232,1.89806 2.49088,2.34742 2.49675,3.0441 0.003,0.32128 -0.22968,1.24129 -0.51641,2.04448 -1.75705,4.92175 -5.11985,15.50687 -4.97304,15.65367 0.0428,0.0428 0.49209,0.007 0.99846,-0.0801 2.83714,-0.48644 5.75798,-0.35226 10.97034,0.50399 5.70056,0.93644 7.97028,1.55188 14.92223,4.04618 2.79625,1.00328 5.17304,1.46429 5.65208,1.09631 0.22916,-0.17603 0.232,-0.27186 0.036,-1.21336 -0.11702,-0.56224 -1.15943,-3.91373 -2.31646,-7.44776 -1.15704,-3.53404 -2.61101,-7.99038 -3.23104,-9.90298 -0.62005,-1.9126 -1.3434,-3.90686 -1.60745,-4.43169 -0.26406,-0.52483 -0.58899,-1.39852 -0.72206,-1.94155 -0.32716,-1.33498 -0.15037,-1.74521 1.22498,-2.84257 3.02658,-2.41487 5.74296,-8.75667 7.44858,-17.38982 0.6417,-3.24803 0.88527,-5.10629 1.33037,-10.1494 0.16659,-1.88749 0.43139,-4.7384 0.58845,-6.33533 0.15705,-1.59693 0.28556,-3.18213 0.28556,-3.52267 0,-0.60249 -0.0147,-0.62151 -0.54763,-0.70695 -0.3012,-0.0483 -0.76121,-0.13062 -1.02224,-0.18295 l -0.47461,-0.0952 -0.003,0.71192 c -0.0116,2.86127 -1.52659,12.58925 -2.71492,17.43286 -0.57765,2.3545 -1.45343,5.05513 -2.12172,6.54278 -0.40256,0.8961 -0.42427,1.02382 -0.25925,1.52521 0.34876,1.05975 -0.52523,2.77057 -1.72129,3.36939 -2.69382,1.34871 -6.14742,1.84117 -12.89458,1.83869 -1.72686,-5.9e-4 -4.68406,0.0241 -6.57155,0.0551 -3.15161,0.0517 -3.4949,0.0326 -4.20449,-0.23451 -1.37132,-0.51607 -1.88973,-1.53535 -1.72307,-3.38786 l 0.0922,-1.0247 -0.86812,-1.67694 c -2.1762,-4.20368 -4.11251,-10.04521 -4.98505,-15.03908 -0.68556,-3.92364 -0.7006,-8.84095 -0.0398,-12.99707 0.41647,-2.619271 0.50039,-2.400101 -1.17967,-3.080711 -0.79436,-0.3218 -1.58295,-0.56531 -1.75242,-0.54112 -0.68195,0.0974 -2.22535,3.851581 -2.8698,6.980621 -0.29614,1.43789 -0.56464,4.49576 -0.48085,5.4763 0.0206,0.24095 0.0699,1.22668 0.10949,2.19051 z m 4.24444,-16.580546 c 0.30145,0.582941 0.9138,1.02788 1.41463,1.02788 0.2327,0 0.65902,0.09858 0.94736,0.219054 0.66391,0.277391 1.23385,0.277691 1.89613,7.59e-4 0.28707,-0.119947 0.57022,-0.188242 0.62924,-0.151769 0.28257,0.174635 1.41704,-1.924224 1.54983,-2.867348 0.049,-0.347995 0.18542,-0.888823 0.30315,-1.201839 0.26816,-0.713005 0.42415,-3.20333 0.24333,-3.884705 -0.0814,-0.306713 -0.24072,-0.531146 -0.39866,-0.561562 -0.1447,-0.02787 -0.73957,0.184829 -1.32195,0.472653 -1.27168,0.628503 -2.77149,1.973854 -3.96289,3.554781 -0.47002,0.623695 -1.00347,1.290808 -1.18544,1.482481 -0.39212,0.413011 -0.4438,1.273056 -0.11473,1.909402 z m 1.40692,-10.28979 c 0.09,1.686698 0.20525,3.111382 0.25605,3.165965 0.0508,0.05458 0.48666,-0.201582 0.96857,-0.569257 1.94909,-1.487061 3.98082,-2.100783 5.06829,-1.530982 l 0.54121,0.283583 0.16762,-0.820689 c 0.70933,-3.473076 2.55692,-6.993705 4.88225,-9.303236 4.00629,-3.979086 8.52038,-4.325337 12.88455,-0.988304 2.91987,2.232662 5.99877,7.104119 7.3471,11.624626 0.32936,1.104257 0.57804,2.182065 0.55261,2.395124 -0.0254,0.213067 -0.22276,0.518592 -0.43852,0.67896 -0.34338,0.255217 -0.44729,0.268794 -0.83339,0.108867 -0.49,-0.202966 -0.5448,-0.325076 -1.40117,-3.121974 -1.3066,-4.267416 -4.6609,-9.113251 -7.44538,-10.756094 -3.26164,-1.92437 -6.19357,-1.457363 -9.15034,1.457496 -1.68457,1.660694 -2.95437,3.666164 -3.88302,6.13271 -0.49925,1.326027 -1.06589,3.928798 -1.16688,5.359893 -0.0713,1.010843 -0.13972,1.254213 -0.42865,1.525655 -0.19999,0.187878 -0.34379,0.491575 -0.34379,0.726066 0,1.360954 -0.90108,3.972577 -1.90837,5.531056 -0.59963,0.92774 -1.67117,1.75476 -2.27358,1.75476 -0.40559,0 -0.47073,0.10231 -0.58199,0.91411 l -0.0886,0.646261 1.44054,-0.25609 c 0.79229,-0.14084 2.82055,-0.429391 4.50725,-0.641211 3.82204,-0.47998 10.71759,-1.46004 12.85104,-1.8265 0.8835,-0.15176 2.29639,-0.34937 3.13974,-0.43914 0.84334,-0.0898 2.51909,-0.29122 3.72387,-0.447691 1.20479,-0.156466 2.82737,-0.28489 3.60574,-0.285391 0.77837,-4.4e-4 1.44245,-0.05016 1.47574,-0.110431 0.0333,-0.06026 -0.006,-0.618048 -0.088,-1.239572 -0.18491,-1.406695 0.0187,-2.448456 0.6453,-3.300396 0.57087,-0.776268 2.10294,-1.535111 3.75527,-1.860004 1.13298,-0.222781 1.26,-0.222356 1.85848,0.0061 0.3533,0.134928 0.71422,0.200932 0.80201,0.146669 0.10899,-0.06739 0.13106,-0.615241 0.0696,-1.726666 -0.0496,-0.895399 -0.12663,-4.284259 -0.17132,-7.530797 -0.0825,-5.992398 0.0261,-8.841373 0.46321,-12.155757 0.11842,-0.897836 0.18144,-1.666302 0.14004,-1.707705 -0.17013,-0.170121 -4.87315,-0.447341 -7.68877,-0.453215 -3.15334,-0.0066 -5.99211,0.144646 -9.6864,0.516001 -3.15843,0.317492 -5.40629,0.680754 -10.30467,1.66527 -2.3846,0.479278 -5.14879,0.971857 -6.14264,1.094617 -0.99385,0.122762 -2.82558,0.352747 -4.07053,0.511079 -1.24494,0.158332 -2.42782,0.306065 -2.62862,0.328297 -0.36293,0.04018 -0.36556,0.05117 -0.44501,1.865852 -0.15122,3.453756 -0.13979,9.570708 0.0236,12.631979 z m 9.33982,4.554425 c 0.35783,-3.304655 1.70529,-5.799509 4.79223,-8.872935 2.74262,-2.730609 5.19961,-3.361573 7.87809,-2.023119 1.62804,0.813542 4.05922,3.385343 5.02854,5.319388 0.49676,0.991177 1.56739,4.379956 1.56739,4.961145 0,0.853025 -0.98816,1.279393 -1.58407,0.683482 -0.14837,-0.148368 -0.5761,-1.216243 -0.95051,-2.373057 -0.85329,-2.636396 -1.4606,-3.661228 -3.11389,-5.254701 -1.53707,-1.481443 -2.41191,-1.962555 -3.5517,-1.953223 -1.24175,0.01016 -2.23579,0.548957 -3.80697,2.063447 -3.20179,3.086274 -4.36438,5.347835 -4.42515,8.608177 -0.0284,1.521026 -0.17261,1.807746 -0.90955,1.807746 -0.86877,0 -1.14842,-0.897384 -0.92441,-2.96635 z m 3.20823,-0.778697 c 0.14369,-0.726004 0.68818,-1.829597 1.53865,-3.118573 1.0661,-1.615788 1.60301,-2.142271 2.7758,-2.721898 1.99669,-0.986817 3.4303,-0.655632 5.14564,1.188722 0.83616,0.899067 2.11214,2.995258 2.36952,3.892708 0.16879,0.588518 -0.0526,1.373539 -0.44678,1.584518 -0.68226,0.365131 -1.45826,-0.02345 -1.45826,-0.730262 0,-0.519484 -1.29833,-2.719813 -2.06359,-3.497239 -1.15431,-1.172665 -1.92324,-1.270568 -3.2034,-0.407867 -0.98598,0.664449 -2.50299,2.984964 -2.8518,4.362271 -0.2631,1.03893 -0.54139,1.441332 -0.99448,1.438015 -0.38807,-0.003 -0.58426,-0.135027 -0.7952,-0.535789 -0.18744,-0.356115 -0.18989,-0.576528 -0.0161,-1.454606 z m 2.47993,0.08566 c 0.29774,-1.083215 1.11333,-1.965881 2.08239,-2.253661 1.02832,-0.305379 1.51327,-0.152026 2.40506,0.760535 0.84817,0.867928 1.01322,1.525342 0.49962,1.990134 -0.54078,0.489405 -1.04513,0.303659 -1.89616,-0.69832 -0.3079,-0.362514 -0.36603,-0.379578 -0.65715,-0.192885 -0.17565,0.112646 -0.46799,0.495778 -0.64964,0.8514 -0.36794,0.720343 -0.71633,0.94616 -1.25221,0.811664 -0.42381,-0.10637 -0.68208,-0.722506 -0.53191,-1.268867 z m -12.64036,23.567088 c 0.6738,4.24268 1.83786,8.32364 3.58201,12.55787 0.42397,1.02926 0.81807,1.81784 0.87579,1.75242 0.0577,-0.0654 0.2865,-1.3395 0.50842,-2.8313 0.39848,-2.67861 0.4001,-2.71856 0.13084,-3.21275 -0.24683,-0.45302 -0.27125,-0.84621 -0.25785,-4.15127 0.0164,-4.03902 0.13669,-4.92478 0.92676,-6.82264 0.69927,-1.67971 2.63523,-4.48362 3.9734,-5.75478 1.55843,-1.4804 3.68107,-2.38565 6.32502,-2.69748 4.3004,-0.50717 7.32953,0.51345 10.0762,3.39501 2.88853,3.0304 3.94651,7.36736 2.98699,12.24451 -0.18056,0.91777 -0.11917,6.62869 0.10493,9.76099 0.0896,1.25304 0.11204,1.32908 0.2764,0.93819 0.48065,-1.14312 1.58082,-4.72138 2.03573,-6.62113 0.97511,-4.07216 2.13913,-11.22303 2.49151,-15.30592 l 0.23175,-2.68532 -0.52492,-0.43269 c -0.62053,-0.51149 -1.0915,-1.39252 -1.67896,-3.140701 -0.23628,-0.70311 -0.46584,-1.26977 -0.51014,-1.25924 -0.0443,0.0105 -0.78646,0.0628 -1.64924,0.11608 -2.31682,0.14317 -7.40592,0.75246 -11.06092,1.32425 -4.635,0.725111 -8.07122,1.190881 -11.31767,1.534081 -3.46799,0.36663 -7.3378,0.8883 -7.47725,1.00799 -0.41535,0.3565 -0.45047,7.75471 -0.0488,10.28383 z m 10.96647,75.80304 c 0.45436,0.20802 1.13118,0.6001 1.50402,0.87129 0.37283,0.2712 0.88421,0.5981 1.13638,0.72644 0.25218,0.12837 0.75299,0.52786 1.11292,0.8878 l 0.65442,0.65442 0.0919,-0.67023 c 0.0505,-0.36862 0.092,-2.41894 0.0921,-4.55626 1.4e-4,-3.40713 0.0317,-3.94903 0.25555,-4.39715 0.1819,-0.36411 0.36803,-0.52414 0.64711,-0.55639 0.594,-0.0686 0.66918,0.25904 0.54649,2.38182 -0.0603,1.04414 -0.11543,3.16794 -0.1224,4.71955 l -0.0127,2.82111 0.43633,-0.3107 c 1.33019,-0.94718 4.08749,-1.84545 6.20587,-2.02173 l 1.16591,-0.097 -0.0244,-9.12715 c -0.0134,-5.01994 -0.0288,-9.40336 -0.0341,-9.74094 l -0.01,-0.61379 -1.35761,-0.43488 c -2.81773,-0.90261 -6.2424,-1.63612 -10.5442,-2.2584 l -2.33656,-0.338 -0.073,8.48192 c -0.0401,4.66506 -0.0927,9.54352 -0.11669,10.841 l -0.0437,2.35908 z M 172.6316,96.214205 c 0.65876,3.406024 1.4008,4.784395 3.00803,5.587525 1.02159,0.51051 1.87004,0.58313 2.71038,0.23201 l 0.52778,-0.22052 -0.10171,-1.71443 c -0.28709,-4.839123 -1.15089,-7.736031 -2.42755,-8.141226 -0.42163,-0.13382 -2.28057,0.302763 -2.98695,0.701507 -0.99562,0.562033 -1.15693,1.347628 -0.72998,3.555134 z"
           id="path1209" /></g><g
         id="g1217"
         transform="matrix(0.75838238,0,0,0.75838238,-1.2495577,-91.803993)"><path
           style="opacity:0.55;fill:#000000;stroke-width:0.161839"
           d="m 39.732398,179.61676 c 0.155797,-0.92682 0.724822,-2.8185 1.02453,-3.40597 0.177056,-0.34706 0.532592,-0.87095 0.790083,-1.16422 0.354049,-0.40324 0.496956,-0.76923 0.586289,-1.50151 0.51791,-4.24553 2.910515,-6.6561 5.262378,-5.30189 0.387326,0.22302 0.443263,0.20756 0.94524,-0.26136 0.685963,-0.64078 1.593415,-0.89448 2.411513,-0.67419 0.675636,0.18193 1.542467,0.98209 1.797766,1.65951 0.119907,0.31817 0.314687,0.46453 0.719115,0.54041 1.389422,0.26065 2.10572,1.26719 2.299395,3.23106 0.06145,0.62307 0.203621,1.24211 0.315942,1.37563 0.112321,0.13352 0.340451,0.49765 0.506955,0.8092 0.743378,1.39091 0.06024,10.47893 -0.932738,12.40847 -0.459091,0.8921 -1.455246,1.50969 -2.435082,1.50969 -0.449618,0 -0.731737,1.2215 -1.649618,1.75483 -1.517261,0.88158 -3.97228,0.66898 -4.875696,0.66704 -0.356046,-8.1e-4 -0.939291,-0.13401 -1.296102,-0.29611 -0.620422,-0.28185 -1.697922,-1.32317 -1.697922,-1.6409 0,-0.0832 -0.382345,-0.39599 -0.849655,-0.69515 -1.039931,-0.66573 -1.640503,-1.50518 -2.146191,-2.99987 -0.752019,-2.22277 -1.039348,-4.44925 -0.776202,-6.01467 z m 16.406824,33.35591 c 0.51372,-1.28262 1.795055,-1.03517 3.116338,-1.02979 1.695006,0.007 4.683487,1.75769 5.229071,3.06345 0.366847,0.87799 0.284592,2.14986 -0.183591,2.83885 -0.596897,0.87842 -2.526995,1.80003 -3.767799,1.79911 -2.327796,-0.002 -4.576569,-2.1052 -4.555402,-4.26107 0.0048,-0.48957 0.07743,-2.20094 0.161383,-2.41055 z"
           id="path1213"
           sodipodi:nodetypes="sssssssscsssssscsssssscsscss" /><path
           style="fill:#000000;stroke-width:0.157158"
           d="m 31.481451,175.45869 c 0.114923,-0.25931 0.386108,-0.65996 0.60263,-0.89034 0.407153,-0.4332 1.524838,-1.07266 1.880824,-1.07607 0.111489,-8.2e-4 0.350006,-0.23092 0.530036,-0.51077 0.320809,-0.49868 0.321674,-0.52134 0.04341,-1.13744 -0.352637,-0.78079 -0.360478,-1.15875 -0.04062,-1.95814 l 0.251538,-0.62867 -0.509639,-0.42883 c -1.019097,-0.85751 -1.355753,-2.35414 -0.805274,-3.5799 0.248501,-0.55333 0.255869,-0.69367 0.06545,-1.24638 -0.391856,-1.13737 0.108958,-2.48325 1.175549,-3.15913 0.272807,-0.17288 0.579447,-0.50912 0.681424,-0.74722 0.453769,-1.05949 1.679036,-1.66253 3.014104,-1.48346 0.49402,0.0662 0.738426,0.0152 1.032088,-0.21584 0.855991,-0.67333 2.120767,-0.72068 3.126978,-0.11706 0.410736,0.2464 0.567645,0.26879 0.844679,0.12053 0.18713,-0.10015 0.706805,-0.17772 1.154835,-0.17237 0.733543,0.009 0.840904,-0.0348 1.078982,-0.43783 0.672331,-1.13817 2.170644,-1.90189 3.714132,-1.89317 0.394887,0.002 1.213022,0.18338 1.81808,0.40255 0.605058,0.21917 1.50662,0.46386 2.003471,0.54376 1.148896,0.18477 1.845081,0.47775 2.798834,1.17787 1.094716,0.8036 1.946907,2.15407 2.194712,3.47798 0.169946,0.90794 0.307946,1.19261 0.897124,1.85057 1.215908,1.35788 1.771063,2.89011 1.771063,4.88814 0,1.35925 -0.273681,2.3279 -0.959822,3.39716 -0.517156,0.80592 -1.678238,1.70244 -2.204827,1.70244 -0.150849,0 -0.311568,0.0603 -0.357154,0.1341 -0.04558,0.0737 0.123263,0.95033 0.375215,1.94795 0.836021,3.31028 0.964622,6.22932 0.386009,8.76183 -0.345719,1.51317 -1.496356,3.71683 -2.546886,4.8777 -0.889226,0.98263 -2.884031,2.42868 -3.597257,2.60769 -0.459482,0.11532 -0.459192,0.2935 0.004,2.46556 l 0.362567,1.70017 1.247247,1.14767 c 0.685984,0.63122 1.811456,1.59392 2.501047,2.13934 0.689589,0.54541 1.70582,1.37292 2.258288,1.83889 l 1.004488,0.84723 0.448285,-1.3999 c 0.982977,-3.06963 2.854196,-4.79853 5.60101,-5.17502 0.568714,-0.0779 0.755952,-0.1867 0.960252,-0.55772 0.959441,-1.74242 2.474757,-4.19699 2.814409,-4.55891 0.471749,-0.50266 1.039491,-0.55572 1.991699,-0.18615 0.558685,0.21684 0.768618,0.46633 1.769591,2.10304 1.26945,2.07572 2.837669,4.25076 3.508772,4.8665 0.504075,0.46249 0.777466,1.07948 0.777466,1.75461 0,0.25475 -0.278977,1.76031 -0.61996,3.34568 -0.340975,1.58537 -0.980055,4.8907 -1.42018,7.34518 -2.168544,12.09356 -2.770523,15.09175 -3.562343,17.74252 -0.514967,1.72394 -0.92588,2.44442 -1.567898,2.74907 -0.633372,0.30056 -1.033626,0.21684 -2.49482,-0.5218 -1.022717,-0.51699 -8.263053,-3.05318 -8.38062,-2.93562 -0.02906,0.0291 0.173439,1.03131 0.45,2.2272 1.474248,6.37493 0.347383,8.19452 -4.541611,7.33347 l -0.52824,-0.093 0.08192,0.6887 c 0.295071,2.48051 0.410923,5.13756 0.495986,11.37541 0.08734,6.40435 0.460064,15.90682 0.630626,16.07738 0.0375,0.0375 0.992126,0.1196 2.121394,0.18244 2.03436,0.1132 2.06099,0.11961 2.899654,0.69722 1.658296,1.14211 2.483634,3.03493 2.508194,5.75226 0.01815,2.00732 -0.313382,2.9071 -1.469601,3.98861 -1.981873,1.8538 -5.960788,2.82701 -11.555063,2.82623 -2.805602,-3.1e-4 -3.071447,-0.0265 -4.400418,-0.43116 -2.265141,-0.68983 -3.78329,-1.75749 -4.366057,-3.07049 -0.380376,-0.85701 -0.525543,-2.89686 -0.294064,-4.13214 0.155157,-0.82799 0.114012,-1.13235 -0.531151,-3.92894 -1.135883,-4.92372 -2.175041,-11.56698 -3.768315,-24.09056 -0.307906,-2.42023 -0.601581,-4.53736 -0.652609,-4.70473 -0.05103,-0.16738 -0.172232,-0.93787 -0.26934,-1.71221 l -0.176562,-1.4079 -0.631924,-0.18576 c -1.460624,-0.42938 -2.018713,-1.17228 -2.010373,-2.67613 0.01054,-1.90225 1.601765,-9.61598 3.428342,-16.61956 0.648134,-2.48513 1.180152,-4.64212 1.182261,-4.79331 0.0021,-0.1512 0.181272,-0.87604 0.398143,-1.61075 0.216871,-0.73471 0.607287,-2.18449 0.86759,-3.22174 1.141242,-4.54756 3.45138,-12.05003 4.109913,-13.34747 l 0.313521,-0.61769 -0.449844,-0.31245 c -0.247414,-0.17184 -0.931859,-0.79591 -1.520989,-1.38683 -1.757637,-1.76295 -2.717926,-4.16662 -3.022296,-7.565 -0.09382,-1.04747 -0.147405,-1.2122 -0.365611,-1.12391 -0.622421,0.25184 -1.537709,0.25348 -2.659862,0.005 -2.226741,-0.4936 -3.343539,-1.2088 -3.874166,-2.48101 -0.295803,-0.70921 -0.306406,-1.91815 -0.02244,-2.55887 z m 3.83183,55.97871 c 0.218199,0.34322 1.488847,0.51629 5.533539,0.75373 5.417026,0.31799 6.564905,0.43414 11.963586,1.21049 5.387078,0.77469 5.166612,0.80402 5.166612,-0.68723 0,-1.45209 -1.377783,-7.6864 -1.724217,-7.80188 -0.0986,-0.0328 -0.475879,-0.3011 -0.838396,-0.59607 -0.362515,-0.29498 -0.782339,-0.57876 -0.93294,-0.63062 -0.442096,-0.15224 -0.66937,-1.25398 -0.665953,-3.22829 l 0.0032,-1.83419 -0.439035,-0.0878 c -0.941273,-0.18826 -3.724545,-1.38591 -4.885994,-2.10247 -1.392695,-0.85922 -3.332959,-2.69214 -3.662827,-3.46017 -0.330446,-0.76938 -0.01936,-1.35103 0.757261,-1.41586 0.533921,-0.0446 0.666827,0.0447 1.887768,1.26841 0.763635,0.76536 1.772645,1.58287 2.410522,1.95303 1.050257,0.60947 3.771558,1.77697 4.141887,1.77697 0.26047,0 0.200818,-0.51853 -0.268793,-2.3365 l -0.420872,-1.6293 -2.170681,-1.12096 c -1.193873,-0.61654 -2.819602,-1.58066 -3.612728,-2.14249 -1.685389,-1.19391 -4.143901,-3.59664 -4.294631,-4.19719 -0.165215,-0.65827 0.233766,-1.21527 0.91142,-1.27238 0.488136,-0.0412 0.637167,0.0354 1.095166,0.56252 0.871181,1.00264 2.989993,2.78443 4.397416,3.69795 1.57207,1.02039 2.969088,1.74367 2.969088,1.53719 0,-0.0818 -0.244258,-1.26753 -0.542796,-2.63504 -0.298539,-1.3675 -0.827017,-4.18368 -1.174395,-6.25816 -0.347378,-2.07448 -0.845689,-4.76094 -1.107358,-5.96991 -0.261671,-1.20897 -0.475764,-2.24239 -0.475764,-2.29646 0,-0.0541 -0.602523,-0.14723 -1.338941,-0.20698 -0.736418,-0.0598 -1.660161,-0.20531 -2.052763,-0.32347 -0.64356,-0.19368 -0.723121,-0.18899 -0.808265,0.0477 -0.05194,0.1444 -0.214197,0.43936 -0.360569,0.65546 -0.288907,0.42651 -1.552759,4.64375 -2.519758,8.40794 -0.333076,1.29655 -1.001246,3.87787 -1.484821,5.73626 -0.483576,1.85839 -0.976173,3.80321 -1.094661,4.32184 -0.118487,0.51862 -0.615266,2.42809 -1.103951,4.24326 -0.967495,3.59366 -1.834073,7.38982 -2.583038,11.31536 -0.861688,4.51634 -0.85387,4.46124 -0.673293,4.74527 z m 3.241923,7.59162 c 0.216042,1.33976 0.786472,5.30015 1.267623,8.80084 1.049912,7.63882 1.967718,13.30985 2.61976,16.18724 0.264429,1.1669 0.504492,2.14699 0.533475,2.17798 0.02899,0.0309 0.392731,-0.22505 0.808331,-0.56898 1.112778,-0.92088 2.018694,-1.39143 3.427317,-1.78019 1.38641,-0.38264 3.082087,-0.45168 4.086102,-0.16636 0.345747,0.0983 0.974207,0.17904 1.396578,0.17952 l 0.767947,8.2e-4 -0.101406,-1.61087 c -0.222913,-3.54103 -0.403187,-8.99816 -0.4971,-15.04785 -0.09906,-6.38118 -0.292038,-11.42961 -0.442661,-11.58023 -0.132149,-0.13216 -5.21085,-0.80366 -7.409669,-0.97971 -1.123678,-0.09 -3.151316,-0.21079 -4.505862,-0.26849 l -2.46281,-0.1049 0.05978,1.16258 c 0.03288,0.63937 0.236548,2.2587 0.452589,3.59848 z m 2.451808,-55.00635 c 0.443007,1.56405 1.13208,2.82059 2.046817,3.73244 2.512727,2.50475 6.145963,3.08452 8.902685,1.42062 2.698613,-1.62883 4.291769,-4.72898 4.291769,-8.35143 0,-1.59668 -0.50238,-4.38384 -1.165431,-6.46571 -0.506934,-1.59169 -0.616495,-1.79254 -1.382022,-2.5335 -0.907494,-0.87839 -1.645209,-1.21054 -2.392256,-1.07712 -0.265229,0.0474 -0.866401,-0.0155 -1.335936,-0.13979 l -0.853702,-0.22592 -0.573563,0.46093 c -0.608076,0.48866 -1.987447,1.07946 -2.520292,1.07946 -0.408753,0 -1.409334,0.50933 -1.742373,0.88693 -0.141525,0.16046 -0.335762,0.66537 -0.431639,1.12201 -0.09587,0.45665 -0.322567,1.12087 -0.503761,1.47604 -0.426066,0.83516 -1.599646,2.0869 -2.183209,2.32862 -0.576964,0.23899 -0.62158,0.48835 -0.548529,3.06581 0.04147,1.46329 0.152553,2.37721 0.391442,3.22061 z m 5.981549,1.53341 c 0.201767,-0.34641 0.824299,-0.35644 1.105337,-0.0178 0.117406,0.14146 0.507239,0.38313 0.866297,0.53704 0.359059,0.15391 0.702643,0.36043 0.763522,0.45894 0.190939,0.30894 -0.05755,0.90552 -0.416245,0.99932 -0.458181,0.11981 -1.793254,-0.4679 -2.180111,-0.9597 -0.346073,-0.43997 -0.370601,-0.61981 -0.1388,-1.01778 z m 0.965474,-7.31938 c 0.265834,-0.26583 0.833902,-0.22761 1.083295,0.0728 0.141781,0.17084 0.233487,0.82857 0.271866,1.94991 0.05444,1.59054 0.03804,1.70275 -0.273285,1.86936 -0.424771,0.22734 -0.928697,-0.0212 -1.026514,-0.50625 -0.192787,-0.95602 -0.229667,-3.2116 -0.05537,-3.3859 z m 3.661437,0.0622 c 0.205234,-0.41346 0.745074,-0.49764 1.025381,-0.15989 0.297258,0.35817 0.41724,3.12675 0.149485,3.44937 -0.237263,0.28588 -0.844576,0.30798 -1.064277,0.0387 -0.221057,-0.27092 -0.309338,-2.9278 -0.110589,-3.3282 z m 1.591414,22.93363 0.260722,1.72873 0.800996,0.76119 c 1.338849,1.27229 3.760289,2.96134 3.937486,2.74654 0.0228,-0.0277 0.164632,-0.56145 0.315183,-1.18625 l 0.273727,-1.13599 -0.526859,-0.43542 c -0.289773,-0.23948 -0.845104,-0.72096 -1.234069,-1.06996 -0.388966,-0.34898 -1.343699,-1.15877 -2.12163,-1.7995 -0.777931,-0.64074 -1.538183,-1.26794 -1.689447,-1.39375 -0.335965,-0.27947 -0.335479,-0.3332 -0.01611,1.78441 z m 1.563295,7.73388 c 0.238492,1.05547 0.514131,1.94993 0.612531,1.98769 0.0984,0.0377 0.574649,-0.11824 1.058328,-0.34666 0.857674,-0.40506 0.883648,-0.4364 1.050537,-1.2674 0.09412,-0.46863 0.15344,-0.86174 0.131833,-0.87357 -0.02161,-0.0118 -0.35753,-0.1591 -0.746496,-0.3273 -0.388965,-0.16819 -1.157804,-0.64543 -1.708527,-1.06055 -0.874465,-0.65913 -0.990582,-0.70892 -0.916572,-0.393 0.04661,0.19896 0.279874,1.22532 0.518366,2.28079 z m 1.438813,13.36849 c 0.463343,0.52863 3.945694,2.01668 7.462853,3.18896 1.837959,0.6126 3.750505,1.32055 4.250102,1.57321 0.499596,0.25266 0.973968,0.45939 1.05416,0.45939 0.329325,0 1.460795,-4.72379 2.505784,-10.46143 0.345293,-1.89587 0.987541,-5.45323 1.427218,-7.90526 0.439679,-2.45202 1.080332,-5.77384 1.423684,-7.38182 0.343343,-1.60799 0.592191,-3.00718 0.553005,-3.10931 -0.254174,-0.66236 -4.934831,-1.5476 -7.557893,-1.4294 -2.288477,0.10313 -3.212936,0.40347 -4.161471,1.35201 -0.812933,0.81293 -1.270834,1.825 -1.675911,3.70416 -0.131287,0.60903 -0.368692,1.60237 -0.527568,2.20744 -0.490716,1.86881 -1.142454,5.60053 -0.999717,5.72416 0.07448,0.0645 0.489013,0.24653 0.921197,0.40448 1.914857,0.69983 3.843739,2.34469 4.564186,3.89214 1.082131,2.3243 -0.162269,5.26985 -2.431983,5.75662 -1.585003,0.33992 -3.680006,0.1457 -4.882464,-0.45264 -0.302529,-0.15054 -0.811839,-0.32119 -1.131801,-0.37923 -0.56973,-0.10334 -0.584909,-0.0932 -0.734571,0.48952 -0.402246,1.56622 -0.412127,1.96389 -0.05881,2.367 z m 0.207003,-7.09353 c 0.398904,0.82403 1.911914,2.25166 2.886146,2.72328 0.898574,0.43499 2.414772,0.5931 3.073006,0.32045 0.632149,-0.26185 1.222821,-0.98119 1.346346,-1.63964 0.133238,-0.71023 -0.346728,-1.77187 -1.153108,-2.55056 -0.802766,-0.77521 -2.675654,-1.76313 -3.576621,-1.88662 -0.985265,-0.13505 -2.010206,0.28086 -2.512023,1.01935 -0.473562,0.69691 -0.487535,1.13832 -0.06375,2.01374 z M 69.488826,195.0977 c 0.54023,0.0571 1.366511,0.17009 1.836179,0.25117 1.314091,0.22683 1.349733,0.21687 1.018289,-0.28478 -0.157051,-0.2377 -0.649849,-1.12616 -1.095108,-1.97435 l -0.809562,-1.54217 -0.957431,1.62074 c -0.526586,0.89141 -0.961293,1.66685 -0.966016,1.72319 -0.0047,0.0564 0.433419,0.14913 0.973649,0.2062 z"
           id="path1215" /></g><g
         id="g1223"
         transform="matrix(0.86711225,0,0,0.86711225,63.648923,57.265014)"
         inkscape:export-filename="index-illustration.svg"
         inkscape:export-xdpi="96"
         inkscape:export-ydpi="96"><path
           style="opacity:0.55;fill:#000000;stroke-width:0.12566"
           d="m 13.514159,14.562661 c 0.05761,-0.215924 0.189798,-0.463176 0.293743,-0.549441 0.103945,-0.08628 0.188992,-0.350649 0.188992,-0.587512 0,-0.637421 0.251363,-1.019039 1.275592,-1.936602 1.973809,-1.7682561 2.945753,-2.2117053 5.274658,-2.4065483 1.522919,-0.1274141 1.611601,-0.1215046 2.159811,0.1438736 0.314426,0.1522169 0.930753,0.6573844 1.369617,1.1226057 0.688543,0.729889 0.919991,1.112217 1.688284,2.788867 0.489692,1.068653 1.049286,2.432914 1.243542,3.031677 l 0.353193,1.088664 0.939259,-1.277153 c 2.236864,-3.041564 3.929534,-4.014945 5.553322,-3.193478 0.750102,0.379477 1.294081,1.135486 1.572803,2.185843 0.125723,0.473782 0.354942,1.015486 0.509374,1.203795 0.487037,0.593857 0.592255,1.147541 0.517865,2.725093 -0.07787,1.651336 -0.296864,2.603939 -0.868678,3.778651 -0.527722,1.084128 -1.732646,2.31838 -2.447719,2.507294 -0.327239,0.08647 -1.918261,2.570195 -2.129313,2.823328 -2.956742,0.245969 -2.892636,2.945438 -4.446167,3.586724 -1.122658,0.428486 -2.215913,-0.595436 -2.896266,-1.319634 -0.226401,-0.240992 -0.415288,-0.307076 -0.877783,-0.307076 -0.538679,0 -0.61759,0.04044 -0.918508,0.471226 -0.979038,1.401422 -2.519979,1.521023 -3.720249,0.288751 C 17.772622,30.34465 17.346906,29.683601 16.962022,28.887665 16.632039,28.20526 15.905406,26.803847 15.347282,25.773426 14.42031,24.06201 14.330527,23.833699 14.30953,23.13456 14.29689,22.713612 14.195985,22.00165 14.085299,21.552414 13.688776,19.943042 13.311272,15.323055 13.514159,14.562661 Z m 4.05398,1.440658 c 0.305471,0.608234 0.651677,1.44117 0.769345,1.85098 0.117669,0.409801 0.230368,0.763737 0.250441,0.786513 0.05213,0.05919 2.611724,-0.863649 2.74692,-0.990343 0.09294,-0.08713 -0.361728,-3.865958 -0.479287,-3.983514 -0.03253,-0.03258 -1.587191,0.152596 -2.414309,0.287482 -0.354003,0.05777 -1.428513,0.718497 -1.428513,0.878461 0,0.03551 0.249932,0.562188 0.555403,1.170421 z m 26.728533,54.619358 c 0.710327,-1.237235 1.861171,-1.512519 3.778211,-0.903746 0.884857,0.280995 0.976561,0.289016 1.163533,0.101749 0.155743,-0.155976 0.517935,-0.213026 1.556611,-0.245168 l 1.353641,-0.04186 2.787937,0.392488 c 1.842233,0.259351 0.02548,1.257105 0.02548,3.741396 0,0.953418 0.110964,3.11816 0.246587,4.81054 0.520777,6.498451 0.668749,11.673912 0.373171,13.052123 -0.113269,0.528171 -0.08247,0.906398 0.197465,2.425139 0.182413,0.98967 0.333918,2.142725 0.336674,2.562357 0.01097,1.67395 -1.058397,2.618864 -2.593372,2.291493 -0.489549,-0.104411 -0.612823,-0.08684 -0.883089,0.125728 -0.694276,0.546118 -1.896686,0.388076 -2.455857,-0.322797 -0.7066,-0.898299 -1.754597,-5.299637 -2.744901,-11.527946 -0.918087,-5.774111 -1.518315,-8.656166 -2.669385,-12.817324 -0.552196,-1.996217 -0.711914,-3.227496 -0.472706,-3.644144 z"
           id="path1219"
           sodipodi:nodetypes="scssscssscssscsscccsscsscscsssccccsssssccssssscscsssss" /><path
           style="fill:#000000;stroke-width:0.124085"
           d="m 12.481126,16.234616 c 0.436175,-3.437362 2.148001,-6.19425 4.621467,-7.4428507 1.833237,-0.9254142 4.568443,-1.1225455 5.981687,-0.4311088 1.757363,0.8597968 3.529045,3.3094645 4.6067,6.3695865 0.126177,0.358295 0.260261,0.649944 0.297964,0.648108 0.0377,-0.0018 0.208148,-0.237861 0.378764,-0.524502 1.004873,-1.688211 3.673328,-3.48493 5.173775,-3.483596 0.436999,3.73e-4 0.8814,0.08429 1.130013,0.213348 2.272902,1.179867 3.666086,6.32749 2.623133,9.692115 -0.316266,1.020296 -0.927573,2.295976 -1.49951,3.12919 -0.787824,1.147725 -5.613501,5.72863 -7.636466,7.249124 -1.385532,1.041388 -1.528132,1.177534 -1.528132,1.458952 0,0.122477 0.29998,0.430518 0.686182,0.704624 0.377402,0.267859 1.0335,0.736877 1.457997,1.042263 0.424498,0.305386 1.302276,0.839433 1.950619,1.18677 0.648343,0.347335 1.904702,1.042762 2.791908,1.54539 3.455225,1.957481 5.502413,2.486465 7.972843,2.060135 1.498824,-0.258656 2.308256,-0.576406 3.335416,-1.309362 1.561901,-1.114533 1.51744,-1.0556 1.782874,-2.363036 0.131626,-0.648344 0.295482,-1.675157 0.364123,-2.281806 0.08369,-0.739608 0.196685,-1.182427 0.342983,-1.344086 0.207864,-0.229686 0.207895,-0.24684 6.2e-4,-0.362814 -0.119635,-0.06695 -0.543461,-0.392982 -0.941837,-0.724513 -2.003575,-1.667392 -3.643947,-5.014754 -3.993443,-8.149062 -0.152231,-1.365215 -0.0028,-3.052442 0.379966,-4.291883 l 0.250293,-0.810353 -0.309435,-0.54125 c -0.637119,-1.114421 -1.006934,-2.634717 -1.161628,-4.775412 -0.192581,-2.664977 0.125346,-3.8209934 1.17903,-4.2870879 0.905601,-0.4005906 1.865913,-0.022957 2.357105,0.9269004 l 0.196279,0.379562 0.161707,-0.470373 c 0.457858,-1.3318206 1.912662,-1.8219473 2.912001,-0.9810582 0.657393,0.5531589 0.785272,0.9502357 0.762913,2.3689147 -0.01103,0.699527 0.02202,1.270601 0.07344,1.269051 0.05141,-0.0015 0.180552,-0.179551 0.286978,-0.395557 0.661249,-1.342163 2.648393,-1.6198536 3.457764,-0.483201 0.313088,0.439697 0.598756,1.494633 0.69233,2.556721 0.04211,0.477726 0.105034,1.020118 0.139881,1.205315 l 0.06339,0.336721 0.454613,-0.243658 c 0.510231,-0.273469 1.641189,-0.327292 2.407148,-0.114558 0.549006,0.152476 1.166734,0.847422 1.347466,1.51591 0.06933,0.256413 0.292962,1.418767 0.496973,2.583009 0.204005,1.164241 0.559911,2.936705 0.790896,3.938807 0.553172,2.399879 0.612995,2.85927 0.450815,3.461577 -0.245643,0.912247 -1.437229,1.699375 -2.250592,1.486676 -0.210356,-0.05501 -0.30473,0.05178 -0.563218,0.637359 -0.170789,0.386893 -0.530815,1.04203 -0.800066,1.455859 l -0.489531,0.752418 0.434035,2.411744 c 0.883323,4.907969 1.180179,6.731309 1.796753,11.035639 0.347045,2.422753 0.961549,6.387266 1.365567,8.81002 1.486251,8.912552 1.661418,10.220785 1.661495,12.408484 7.1e-5,2.219514 -0.210105,2.903397 -1.152786,3.750949 -0.674042,0.606024 -1.394643,0.872263 -2.967819,1.09651 l -1.033308,0.14729 0.0797,1.81457 c 0.04385,0.998015 0.224678,4.187689 0.40187,7.088174 0.264118,4.323481 0.324147,6.348956 0.333182,11.242279 l 0.01103,5.968681 1.613106,0.144163 c 2.501574,0.223563 3.477071,0.563663 4.332465,1.510484 1.112379,1.23127 1.071895,2.322799 -0.14613,3.939969 -1.444052,1.91726 -4.993771,4.03545 -8.07079,4.816 -2.787294,0.70705 -5.651131,0.68023 -8.008859,-0.075 -1.716821,-0.54995 -3.5929,-1.76095 -4.275168,-2.75961 -0.748985,-1.09633 -0.817706,-2.12244 -0.221007,-3.29997 0.423538,-0.835805 1.504391,-1.974255 2.367596,-2.493747 0.800786,-0.481929 2.330807,-0.929409 3.620788,-1.058953 L 48.67889,97.00821 48.32981,95.537384 C 47.85073,93.518843 47.27525,90.620906 46.23592,84.99326 44.890386,77.707607 44.296528,75.198366 43.250351,72.378256 42.97948,71.648092 42.740869,71.033692 42.720103,71.012927 c -0.02076,-0.02076 -0.666575,0.103899 -1.435133,0.277028 -1.569801,0.353623 -2.033487,0.301164 -2.492165,-0.281954 -0.432591,-0.549948 -0.327648,-1.287972 0.799064,-5.619473 0.577048,-2.218382 1.579485,-6.266945 2.227638,-8.996815 0.648153,-2.729863 1.347986,-5.657354 1.555186,-6.505525 0.207199,-0.848178 0.354911,-1.563955 0.328248,-1.59062 -0.02666,-0.02663 -0.371308,0.01122 -0.765879,0.08414 -1.611367,0.297882 -3.457259,0.07492 -5.325004,-0.643193 -2.437407,-0.937141 -6.8197,-3.432808 -9.334277,-5.315777 -0.629574,-0.471437 -1.192356,-0.857154 -1.250627,-0.857154 -0.05827,0 -0.501705,-0.307503 -0.985406,-0.683341 -0.811824,-0.630793 -0.906499,-0.672973 -1.231069,-0.548516 -1.161903,0.445546 -3.593941,-1.026944 -4.477887,-2.711163 -0.553133,-1.053911 -0.693574,-1.832435 -0.622224,-3.449269 l 0.06185,-1.401492 -0.38654,-0.158483 c -0.607982,-0.249263 -2.220275,-1.948081 -3.05966,-3.223827 -1.282286,-1.94889 -2.635918,-4.879998 -3.213062,-6.957454 -0.586275,-2.110323 -0.837683,-4.574726 -0.632028,-6.195423 z m 2.037775,4.606803 c 0.687709,2.992705 2.241921,6.497841 3.809131,8.590546 0.532894,0.711573 1.540246,1.597388 2.030501,1.785516 0.08575,0.03291 0.409328,-0.186455 0.719054,-0.487474 1.485538,-1.443778 3.476835,-1.60529 4.657196,-0.377742 l 0.531238,0.552476 0.337356,-0.255498 c 1.823493,-1.381033 5.390788,-4.599788 6.959358,-6.279398 1.051647,-1.126091 1.875886,-2.665886 2.195123,-4.100797 0.381484,-1.714696 0.02031,-4.296572 -0.822144,-5.877182 -0.753627,-1.413947 -1.253308,-1.577775 -2.608765,-0.855322 -1.436405,0.765594 -2.453672,1.924318 -3.380632,3.850723 -0.349343,0.726002 -0.704911,0.969894 -1.279139,0.877394 -0.436418,-0.0703 -0.599227,-0.359499 -1.518241,-2.696846 -1.074002,-2.731528 -1.561001,-3.589581 -2.68619,-4.732842 -0.972826,-0.9884535 -1.359706,-1.1593543 -2.627083,-1.1604931 -1.069459,-9.673e-4 -1.934906,0.2005529 -2.969531,0.6914411 -1.828414,0.867511 -3.218509,3.074227 -3.631689,5.765156 -0.181501,1.182077 -0.05858,3.217545 0.284457,4.710342 z m 2.712196,-6.297254 c 0.153555,-0.143197 0.670058,-0.406662 1.147785,-0.585476 0.477726,-0.178815 1.067028,-0.462254 1.309559,-0.629864 0.531022,-0.366984 0.994673,-0.389786 1.290011,-0.06344 0.125479,0.138655 0.294361,0.67971 0.396994,1.271869 0.108572,0.626435 0.371091,1.448628 0.669445,2.096667 0.549605,1.193766 0.611532,1.729188 0.242661,2.098058 -0.29348,0.293481 -0.94571,0.322728 -1.295585,0.05809 -0.386201,-0.292108 -0.613239,-0.217633 -1.146846,0.3762 -0.888774,0.989087 -1.518519,0.659319 -1.777204,-0.930636 -0.175766,-1.080309 -0.35979,-1.575707 -0.799447,-2.152127 -0.407617,-0.534414 -0.423279,-1.179471 -0.03738,-1.539346 z m 1.954335,1.676816 c 0.136494,0.282509 0.24817,0.600107 0.24817,0.705773 0,0.231822 0.249237,0.249224 0.530132,0.03701 0.190854,-0.144185 0.190341,-0.205325 -0.0073,-0.86836 -0.215631,-0.72337 -0.342727,-0.818839 -0.779155,-0.585271 -0.290853,0.155661 -0.291601,0.09041 0.0082,0.710842 z m 2.36841,19.890212 c 0.147182,0.590382 0.825576,1.5964 1.187802,1.761443 0.160307,0.07303 0.307513,0.109766 0.327124,0.08162 1.145212,-1.643643 1.94865,-3.721395 1.94865,-5.039359 0,-0.709486 -0.40098,-1.497605 -0.814797,-1.601466 -1.196524,-0.300309 -2.455251,0.805675 -2.770044,2.433907 -0.114345,0.591439 -0.06091,1.633116 0.121265,2.363857 z m 4.983615,3.082354 c 3.144605,2.216188 3.737469,2.613236 5.516802,3.694624 5.727368,3.48081 8.448392,4.372155 11.141582,3.649723 2.429314,-0.651647 3.168332,-1.022797 4.802935,-2.412146 0.773135,-0.657135 2.219121,-2.357211 3.172126,-3.729543 0.374465,-0.53923 0.44149,-0.581513 0.865744,-0.546123 0.621764,0.05185 0.838924,0.453548 0.580094,1.073024 -0.278227,0.665885 -1.736743,2.577588 -2.840049,3.722507 -1.151094,1.194495 -1.823972,1.715347 -3.134724,2.426474 l -0.939309,0.509606 -1.044348,4.40501 c -0.574389,2.42276 -1.789068,7.392356 -2.699283,11.043549 -0.910217,3.651194 -1.63894,6.655335 -1.619386,6.675867 0.01955,0.02051 0.474765,-0.07439 1.011579,-0.210943 2.83558,-0.721297 3.518933,-0.786666 8.73133,-0.835223 6.84453,-0.06378 8.350938,-0.294961 8.880999,-1.363052 0.20383,-0.410722 0.237659,-0.739144 0.228625,-2.219249 -0.01187,-1.942889 -0.272617,-3.860867 -1.602582,-11.788055 -0.435093,-2.593374 -1.02072,-6.334531 -1.301391,-8.313685 -0.638744,-4.504201 -0.993798,-6.726935 -1.6182,-10.130515 -0.27096,-1.476985 -0.492653,-2.720175 -0.492653,-2.762647 0,-0.04247 -0.213058,0.06377 -0.473468,0.236106 -1.162149,0.769075 -2.971083,1.029896 -4.315099,0.622174 -0.812512,-0.246483 -0.79525,-0.252332 -0.79525,0.269445 0,0.251304 -0.06356,0.95257 -0.141256,1.558372 -0.136562,1.064857 -0.132439,1.107632 0.124085,1.287309 0.75394,0.528077 -0.125312,1.701696 -2.508275,3.348031 -2.337603,1.614995 -3.597005,2.035308 -6.098448,2.035308 -2.43592,0 -3.949235,-0.472739 -7.024322,-2.194309 -1.050381,-0.588051 -2.414263,-1.337948 -3.030849,-1.666441 -0.616586,-0.328499 -1.674737,-1.009749 -2.351445,-1.513896 l -1.23038,-0.916629 -0.384398,0.881091 c -0.211419,0.4846 -0.449809,0.992767 -0.529754,1.129263 -0.07995,0.136489 -0.147053,0.448519 -0.149127,0.693388 -0.0036,0.424904 0.05428,0.486133 1.268095,1.341585 z M 44.366293,24.469256 c 0.768855,3.006195 2.487048,5.422678 4.593135,6.459831 0.716911,0.353046 0.925443,0.397499 1.864764,0.397499 0.859102,0 1.168617,-0.05468 1.649204,-0.291332 1.124496,-0.553739 2.503747,-2.209375 3.013482,-3.61734 l 0.202154,-0.558382 -0.787975,-0.80655 C 54.467673,25.609378 53.371105,24.33891 52.464233,23.229717 50.239268,20.508364 48.972744,19.471384 47.588721,19.237852 47.220036,19.175643 46.375682,19.093818 45.71238,19.056021 l -1.206008,-0.06872 -0.141854,0.523785 c -0.414747,1.531417 -0.414103,3.332107 0.0018,4.958173 z m 1.894443,-1.989917 c 0.194303,-0.194303 0.654525,-0.190813 0.81802,0.0062 0.16242,0.195723 0.329872,1.838627 0.228546,2.242335 -0.08958,0.35692 -0.476076,0.494193 -0.775325,0.275377 -0.341891,-0.249998 -0.555695,-2.239462 -0.271241,-2.523917 z m 1.985357,5.707901 c 0.0819,-0.0819 0.282674,-0.148902 0.446173,-0.148902 0.163499,0 0.457178,-0.09446 0.65262,-0.20991 0.33667,-0.198876 0.368661,-0.197865 0.608545,0.01923 0.336341,0.304381 0.319562,0.631939 -0.05139,1.00287 -0.239562,0.239563 -0.432907,0.304572 -0.905821,0.304572 -0.652886,0 -0.89905,-0.152887 -0.89905,-0.558382 0,-0.143318 0.06701,-0.327584 0.148901,-0.40948 z m -3.323379,44.135688 c 1.145841,3.011972 1.769692,5.571898 3.04239,12.484202 1.111578,6.037236 1.393337,7.452708 2.019216,10.143938 0.464176,1.99594 0.536444,2.20159 0.770538,2.192794 0.142079,-0.0052 1.095832,-0.130976 2.119448,-0.279188 l 1.861128,-0.269483 0.101061,-0.744512 c 0.201322,-1.483084 -0.0019,-11.745965 -0.33843,-17.061658 -0.174806,-2.763989 -0.318479,-5.534143 -0.319272,-6.155901 -6.45e-4,-0.621758 -0.03772,-1.395224 -0.08209,-1.718816 l -0.08064,-0.588348 -4.417437,0.06631 c -4.410882,0.06621 -5.22398,0.122657 -5.22398,0.36267 0,0.07004 0.246629,0.775632 0.548066,1.567992 z"
           id="path1221" /></g></g></g></svg>
