<?xml version="1.0" encoding="UTF-8" standalone="no"?>
<!-- Created with Inkscape (http://www.inkscape.org/) -->

<svg
   width="132.77113"
   height="141.0686"
   viewBox="0 0 132.77113 141.0686"
   version="1.1"
   id="svg5"
   xml:space="preserve"
   inkscape:version="1.2 (dc2aeda, 2022-05-15)"
   sodipodi:docname="d&amp;i iconen.svg"
   xmlns:inkscape="http://www.inkscape.org/namespaces/inkscape"
   xmlns:sodipodi="http://sodipodi.sourceforge.net/DTD/sodipodi-0.dtd"
   xmlns="http://www.w3.org/2000/svg"
   xmlns:svg="http://www.w3.org/2000/svg"><sodipodi:namedview
     id="namedview7"
     pagecolor="#ffffff"
     bordercolor="#000000"
     borderopacity="0.25"
     inkscape:showpageshadow="2"
     inkscape:pageopacity="0.0"
     inkscape:pagecheckerboard="0"
     inkscape:deskcolor="#d1d1d1"
     inkscape:document-units=""
     showgrid="false"
     inkscape:zoom="1.4738356"
     inkscape:cx="308.71829"
     inkscape:cy="362.31993"
     inkscape:window-width="1280"
     inkscape:window-height="1278"
     inkscape:window-x="1512"
     inkscape:window-y="25"
     inkscape:window-maximized="0"
     inkscape:current-layer="layer1" /><defs
     id="defs2" /><g
     inkscape:label="Layer 1"
     inkscape:groupmode="layer"
     id="layer1"
     transform="translate(-15.040503,-24.663963)"><g
       style="fill:none"
       id="g327"
       transform="matrix(1.5023295,0,0,1.5023295,14.933402,40.476148)"
       inkscape:label="blob"
       inkscape:export-filename="../../dei-bingo/public/icons/joiner.svg"
       inkscape:export-xdpi="96"
       inkscape:export-ydpi="96"><path
         opacity="0.689993"
         d="m 72.8975,12.5995 c 7.772,9.1384 7.0288,21.9294 5.2714,33.7952 C 76.4057,58.3001 73.8816,71.573 63.3103,77.3307 52.9213,82.9893 40.9429,76.9223 29.8966,72.6868 18.6969,68.3925 5.60747,64.8955 1.4971,53.6294 -2.76479,41.948 3.209,29.4434 10.4245,19.3156 17.4138,9.50523 27.2734,1.92365 39.2519,0.635917 51.7036,-0.702696 64.7851,3.06102 72.8975,12.5995 Z"
         fill=""
         id="path318"
         inkscape:export-filename="speaker.svg"
         inkscape:export-xdpi="96"
         inkscape:export-ydpi="96" /></g><g
       id="g2471"
       inkscape:label="advocate"
       transform="translate(2.2166222,4.4332443)"
       inkscape:export-filename="../../dei-bingo/public/icons/advocate.svg"
       inkscape:export-xdpi="96"
       inkscape:export-ydpi="96"><path
         style="opacity:0.6;fill:#020202;stroke-width:0.0846667"
         d="m 67.682798,149.57234 c -0.836718,-0.31474 -1.275995,-0.57149 -1.768865,-1.03383 -0.213832,-0.2006 -0.510893,-0.45733 -0.660134,-0.57053 -0.330393,-0.25061 -0.464756,-0.56191 -0.539069,-1.24895 -0.03114,-0.28789 -0.209453,-0.92902 -0.396254,-1.42473 -0.186802,-0.49571 -0.411097,-1.19361 -0.498435,-1.5509 -0.319237,-1.30595 -1.013512,-4.90467 -1.097204,-5.68727 -0.04731,-0.44238 -0.165569,-1.58538 -0.262802,-2.54 -0.09723,-0.95462 -0.290561,-2.57071 -0.429616,-3.59132 -0.303124,-2.22481 -0.319267,-2.75051 -0.09532,-3.10421 0.153745,-0.24283 0.156069,-0.30153 0.04432,-1.11953 -0.205788,-1.50635 -1.116521,-6.79531 -1.548253,-8.99127 -0.228878,-1.16417 -0.495378,-2.59292 -0.592223,-3.175 -0.297488,-1.78805 -1.021054,-5.78027 -1.112536,-6.13834 -0.04759,-0.18626 -0.221094,-0.63889 -0.385567,-1.00584 -0.251837,-0.56185 -0.292545,-0.73477 -0.257892,-1.09541 0.03434,-0.35742 0.09175,-0.47461 0.347138,-0.70866 0.238602,-0.21866 0.37978,-0.28042 0.641059,-0.28042 0.184289,0 0.461074,-0.0734 0.615077,-0.16321 0.154004,-0.0898 0.737206,-0.24609 1.296006,-0.34739 1.299333,-0.23553 1.929064,-0.18628 3.300874,0.25817 0.721497,0.23375 1.287819,0.35599 1.94846,0.42058 1.108373,0.10836 1.755455,0.21703 2.304457,0.38701 0.747064,0.2313 2.334191,0.38179 4.849876,0.45986 1.373717,0.0426 2.783416,0.11524 3.132666,0.16134 0.34925,0.0461 1.1303,0.12503 1.735667,0.17539 1.491867,0.12412 2.42998,0.3063 3.10801,0.60359 0.312406,0.13698 0.761106,0.28568 0.997112,0.33043 0.517667,0.0982 0.654053,0.16754 0.943366,0.47977 0.484754,0.52318 0.543468,0.99827 0.187784,1.51948 -0.189932,0.27833 -1.531895,3.87091 -2.131269,5.70565 -0.216682,0.66327 -0.845659,3.68311 -1.150228,5.52246 -0.12126,0.73231 -0.395588,2.21821 -0.609619,3.302 -0.21403,1.0838 -0.425488,2.23724 -0.469905,2.5632 -0.415458,3.04894 -0.849914,6.62512 -0.956615,7.87429 -0.357298,4.18294 -0.477421,5.80993 -0.637585,8.63571 -0.04751,0.8382 -0.145619,1.80975 -0.218022,2.159 -0.277111,1.33669 -0.896486,2.20283 -1.940293,2.71331 -0.736016,0.35996 -1.234978,0.42648 -2.742581,0.36565 -1.178594,-0.0476 -1.382824,-0.0349 -1.873155,0.11633 -0.324751,0.10013 -0.932088,0.19105 -1.481666,0.2218 -0.889426,0.0498 -0.961276,0.0408 -1.596761,-0.19821 z m 70.346092,-42.33652 c -0.2794,-0.0399 -1.28092,-0.095 -2.2256,-0.12256 -2.17492,-0.0634 -3.59521,-0.24149 -5.7754,-0.72417 -2.15607,-0.47733 -3.28957,-0.70737 -4.38745,-0.8904 -0.67128,-0.11192 -1.28269,-0.22267 -1.3587,-0.24612 -0.076,-0.0234 -1.97163,-0.0817 -4.21252,-0.12958 -4.26521,-0.091 -5.04014,-0.15796 -6.00415,-0.51864 -0.82768,-0.30968 -1.38738,-0.97923 -1.39198,-1.66519 -0.003,-0.41771 0.32397,-1.83752 0.59877,-2.6016 0.13407,-0.372769 0.42943,-1.392158 0.65636,-2.265307 l 0.41261,-1.587544 -1.22293,-1.245468 c -1.11205,-1.132548 -1.25617,-1.314858 -1.58957,-2.01079 -0.48252,-1.007214 -0.52258,-1.252737 -0.31358,-1.921324 0.19243,-0.615526 0.29818,-1.134401 0.52609,-2.581212 0.43914,-2.787727 2.08513,-8.615073 3.21132,-11.36915 0.22048,-0.539166 0.75265,-1.837551 1.18259,-2.885301 0.42996,-1.04775 1.21485,-2.7432 1.74423,-3.767667 0.52937,-1.024467 1.34523,-2.679152 1.81303,-3.67708 0.99382,-2.120047 1.43,-2.878459 2.87634,-5.001253 0.78678,-1.154755 1.28969,-1.791722 1.91387,-2.42409 0.90739,-0.919273 1.24929,-1.14029 2.00536,-1.296309 0.60869,-0.125607 0.98132,-0.05727 1.7011,0.311965 l 0.57378,0.294343 0.90788,-0.04922 c 0.49933,-0.02707 1.16017,-0.07348 1.4685,-0.103125 0.98656,-0.09485 1.77141,0.239173 2.10682,0.896627 0.12138,0.237937 0.23594,0.339083 0.43303,0.382374 0.59877,0.131512 1.26344,0.982832 2.15103,2.755089 0.81023,1.617805 1.23276,2.305793 1.6319,2.657179 0.47141,0.415009 0.6383,0.786957 1.1985,2.671172 0.24229,0.814917 0.87399,2.815166 1.40378,4.445 0.52979,1.629833 1.00556,3.153833 1.05726,3.386666 0.10982,0.494531 0.21306,0.812093 0.72941,2.243667 0.49062,1.360279 1.02932,3.265075 1.13666,4.019175 0.0462,0.324596 0.181,0.800846 0.29955,1.058333 0.16318,0.35445 0.23379,0.694367 0.29066,1.399492 0.0686,0.849649 0.17079,1.442014 0.81106,4.699 0.31426,1.598625 0.37098,4.265512 0.12426,5.841949 -0.30324,1.937436 -0.42544,2.305776 -1.3383,4.034059 -0.17576,0.332751 -0.39577,0.689232 -0.4889,0.79217 -0.25963,0.28697 -0.75954,0.50782 -1.1495,0.50782 -0.33995,0 -0.35016,0.008 -0.30037,0.23283 0.24011,1.08464 0.25739,1.55854 0.10638,2.91685 -0.0834,0.74972 -0.22578,1.60344 -0.3165,1.89715 -0.41245,1.33534 -1.38867,1.86967 -2.99668,1.64019 z M 72.817807,95.556468 c -0.149463,-0.09113 -0.344167,-0.310065 -0.432676,-0.486517 -0.168434,-0.335793 -0.568629,-1.799363 -1.031129,-3.770988 -0.230508,-0.982653 -0.297738,-1.164166 -0.431188,-1.164166 -0.08696,0 -0.53036,-0.149163 -0.985345,-0.331472 -0.877088,-0.351444 -1.523312,-0.47194 -2.986244,-0.556821 -0.48895,-0.02837 -1.0033,-0.07087 -1.143,-0.09444 l -0.254,-0.04286 -0.309565,0.914962 c -0.765341,2.262071 -1.612725,4.478454 -1.780527,4.657071 -0.406576,0.432781 -1.149672,0.401897 -1.541763,-0.06408 -0.316008,-0.375554 -0.360606,-0.772462 -0.160565,-1.42896 1.212465,-3.979084 2.128306,-6.855132 3.789743,-11.901071 1.088617,-3.306233 2.120412,-6.506633 2.292876,-7.112 0.377267,-1.32424 0.551468,-1.68975 0.909383,-1.908075 0.779864,-0.475709 1.696587,-0.177778 2.031779,0.66032 0.161676,0.404247 0.484714,2.400534 0.863695,5.337413 0.822106,6.370816 1.476136,10.027351 2.545703,14.23244 0.253499,0.996653 0.460908,1.924345 0.460908,2.061537 0,0.367628 -0.246601,0.823294 -0.543557,1.004377 -0.34501,0.210387 -0.943595,0.207301 -1.294528,-0.0067 z M 70.215541,85.60277 c -0.162864,-0.969001 -0.450413,-2.869829 -0.638998,-4.224063 -0.188586,-1.354234 -0.366796,-2.595593 -0.396023,-2.758577 -0.04561,-0.254322 -0.254273,0.309819 -1.471877,3.979334 -0.780305,2.351616 -1.407101,4.287729 -1.392881,4.302473 0.01422,0.01474 0.686892,0.06077 1.494826,0.102287 0.919758,0.04726 1.690554,0.133425 2.061637,0.230468 0.325967,0.08524 0.603189,0.149342 0.616049,0.142442 0.01286,-0.0069 -0.109869,-0.805365 -0.272733,-1.774364 z"
         id="path2467" /><path
         style="fill:#030303;stroke-width:0.0846667"
         d="m 133.66856,161.21526 c -1.30349,-0.21325 -2.96327,-0.86094 -4.46158,-1.741 -1.54752,-0.90896 -2.71602,-1.93306 -3.69234,-3.23607 -0.69267,-0.92443 -0.70758,-0.92055 -1.71684,0.44652 -0.50355,0.68206 -1.13113,1.19371 -2.05565,1.67592 -2.187,1.1407 -5.21354,1.78577 -7.29343,1.55449 -1.69798,-0.1888 -3.47643,-0.75293 -4.43149,-1.40568 -1.67092,-1.142 -1.90586,-2.97134 -0.69072,-5.37804 1.04579,-2.07128 2.61954,-3.59169 4.75213,-4.59105 0.41155,-0.19286 1.2582,-0.47568 1.94648,-0.65023 l 1.2181,-0.30891 -8.4e-4,-0.25404 c 0,-0.13972 -0.0371,-0.76839 -0.0815,-1.39704 -0.0444,-0.62865 -0.12176,-1.80975 -0.17183,-2.62467 -0.0936,-1.52383 -0.35754,-5.52464 -0.71771,-10.87966 -0.11275,-1.6764 -0.24586,-3.82905 -0.29579,-4.78367 -0.0499,-0.95462 -0.1841,-3.33587 -0.29814,-5.29167 -0.11403,-1.9558 -0.26749,-4.64185 -0.34102,-5.969 -0.15866,-2.86389 -0.7693,-10.88435 -0.83701,-10.99391 -0.026,-0.0421 -0.22897,-0.12186 -0.45094,-0.17717 -0.66051,-0.16459 -1.60522,-0.65916 -1.83217,-0.95917 -0.4169,-0.5511 -0.46024,-1.36986 -0.12766,-2.41168 0.0841,-0.26339 0.0667,-0.29903 -0.39208,-0.80433 -0.54885,-0.60451 -0.6346,-0.74988 -0.87551,-1.484132 -0.33858,-1.031904 -0.37504,-1.701827 -0.18128,-3.330631 0.17922,-1.506561 0.28914,-2.068728 0.44067,-2.253597 0.0593,-0.07239 0.0397,-0.2762 -0.0633,-0.656772 -0.20017,-0.739503 -0.14066,-1.562066 0.30017,-4.148938 1.10591,-6.489703 2.59032,-11.364568 5.4785,-17.991666 2.22789,-5.112038 4.2358,-8.479874 6.76406,-11.345333 1.20208,-1.362403 1.8333,-1.947334 2.10141,-1.947334 0.11987,0 0.21762,-0.02858 0.21722,-0.0635 0,-0.03493 -0.23601,-0.215102 -0.52357,-0.400393 -2.32015,-1.495065 -4.74475,-4.360143 -6.16339,-7.283106 -1.17182,-2.414399 -1.68569,-4.73238 -1.69167,-7.6308 -0.002,-1.08639 -0.0239,-1.298437 -0.14275,-1.397 -0.37154,-0.308128 -0.46475,-1.126865 -0.24636,-2.163831 0.43974,-2.087812 2.06113,-5.827591 3.36991,-7.772776 1.37295,-2.040572 2.81815,-3.743893 3.90679,-4.604559 0.70085,-0.554083 0.75932,-0.579475 1.80557,-0.784068 0.81988,-0.160326 0.99659,-0.168676 1.7182,-0.08119 0.44239,0.05363 1.10444,0.172599 1.47122,0.26437 0.81443,0.203771 0.81478,0.203776 0.81478,0.01107 0,-0.277443 0.32282,-1.427427 0.58336,-2.078069 0.76288,-1.905201 2.33912,-3.323091 4.01607,-3.612621 0.74219,-0.12814 1.36337,-0.01546 2.34324,0.42507 0.39582,0.177951 0.91648,0.386712 1.15704,0.463914 0.61468,0.197273 1.72582,0.777692 2.59134,1.353621 1.63751,1.089622 2.66396,2.639091 3.20965,4.845096 0.24138,0.975799 0.25921,2.673335 0.0368,3.500112 -0.37612,1.397898 -1.25379,2.585791 -2.41371,3.266868 -0.74823,0.439336 -1.39978,0.658851 -2.39053,0.805392 -0.38989,0.05767 -0.72047,0.113205 -0.73461,0.123415 -0.0142,0.01021 0.0729,0.260985 0.1934,0.557277 0.29541,0.726252 0.59558,1.874673 0.7715,2.951715 0.12008,0.735187 0.14248,1.399636 0.12949,3.840341 -0.0164,3.070942 -0.0127,3.03594 -0.38781,3.694992 -0.0663,0.116417 -0.21812,0.878417 -0.33745,1.693333 -0.46803,3.196207 -1.37245,5.839337 -2.6798,7.831667 -0.52923,0.806527 -1.87225,2.182924 -2.55245,2.615899 -0.55993,0.356413 -0.55326,0.451833 0.0587,0.838957 2.06288,1.305078 5.20209,6.519294 6.81487,11.319477 0.50773,1.51121 2.18585,6.969676 2.79655,9.096447 1.46453,5.100254 2.07143,8.854986 2.17683,13.467219 0.0523,2.288831 -0.0261,3.507085 -0.2821,4.381787 -0.0769,0.2628 -0.15837,1.049313 -0.19949,1.92588 -0.10559,2.251367 -0.45031,3.820197 -1.12463,5.118167 -0.40669,0.78282 -1.28905,1.73353 -1.96517,2.11737 -0.23283,0.13218 -0.52679,0.36305 -0.65323,0.51302 -0.32794,0.389 -0.767,0.56711 -1.54101,0.62516 l -0.67506,0.0506 -0.18489,1.31233 c -0.24404,1.73224 -0.29355,1.99158 -0.93313,4.88725 -1.1343,5.13551 -2.99502,14.77383 -3.92739,20.34342 -0.48099,2.87322 -1.06422,6.87027 -1.31248,8.99468 -0.17853,1.52774 -0.55181,5.49568 -0.55181,5.86571 0,0.0668 0.21832,0.12497 0.61384,0.16343 1.64553,0.16004 3.30105,0.7401 4.53464,1.58884 1.61404,1.11048 3.13224,3.286 3.4623,4.96129 0.12412,0.63004 0.12467,0.75391 0.006,1.35601 -0.17433,0.88488 -0.51143,1.54801 -1.11656,2.19643 -1.31501,1.40911 -3.90267,2.19585 -6.06094,1.84274 z m -7.14711,-10.5944 c 0.92941,-0.59454 2.57197,-1.13568 3.8886,-1.2811 l 0.5912,-0.0653 0.10128,-1.31233 c 0.52332,-6.78072 1.68111,-14.10327 4.43107,-28.02467 0.41854,-2.11878 0.96914,-4.77779 1.22356,-5.9089 0.62836,-2.79347 1.14473,-5.61073 1.14473,-6.2454 0,-0.097 -0.14714,-0.12236 -0.70872,-0.12236 -0.79962,0 -1.98389,-0.11574 -6.06461,-0.59268 -3.44095,-0.40217 -5.03931,-0.5469 -7.91634,-0.71685 -3.54007,-0.20912 -6.14768,-0.45499 -7.30699,-0.68899 -0.2617,-0.0528 -0.27675,-0.0435 -0.23429,0.14554 0.17822,0.7935 0.73773,7.77081 0.98029,12.22464 0.0938,1.72297 0.22612,4.04707 0.29398,5.16467 0.0678,1.1176 0.18298,3.15595 0.25585,4.52967 0.0729,1.37371 0.30046,4.97416 0.50573,8.001 0.20528,3.02683 0.45591,6.87493 0.55696,8.55133 0.10105,1.6764 0.1955,3.09087 0.20988,3.14326 0.0147,0.0534 0.3175,0.12123 0.68905,0.15436 0.9289,0.0828 1.56693,0.24061 2.53871,0.62776 0.85518,0.3407 1.62932,0.76541 2.12467,1.16565 l 0.27516,0.22234 v -0.76044 c 0,-0.8386 0.0827,-2.6266 0.33966,-7.34693 0.0938,-1.72297 0.20423,-4.19448 0.24539,-5.49225 0.0696,-2.19394 0.0868,-2.37151 0.24466,-2.52942 0.20342,-0.20342 0.57352,-0.22106 0.75843,-0.0361 0.11715,0.11715 0.13138,0.477 0.11502,2.91042 -0.0103,1.5272 -0.0732,3.76733 -0.13994,4.97807 -0.26937,4.88951 -0.39185,8.08857 -0.34122,8.91167 0.0345,0.56064 0.0211,0.92879 -0.0379,1.03892 -0.18183,0.33975 0.0197,0.34089 0.38719,0.002 0.20411,-0.18815 0.58612,-0.47963 0.84891,-0.64772 z m 0.18571,-35.93815 c -0.25611,-0.14927 -0.41709,-0.89667 -0.46583,-2.16267 -0.0732,-1.90138 0.068,-2.48858 0.59844,-2.48858 0.42644,0 0.48184,0.19297 0.51332,1.7877 0.016,0.80958 0.0709,1.67207 0.12211,1.91664 0.16721,0.79915 -0.21437,1.2696 -0.76804,0.94691 z m 7.03292,-1.09754 c -0.20298,-0.11849 -0.58524,-1.09203 -1.1213,-2.85577 -0.50966,-1.67691 -0.51849,-1.87424 -0.0925,-2.06835 0.18055,-0.0823 0.25158,-0.0716 0.43467,0.0651 0.1742,0.13006 0.33479,0.50882 0.78704,1.85621 0.3125,0.93105 0.63202,1.84034 0.71004,2.02065 0.1766,0.40817 0.17923,0.63943 0.01,0.88099 -0.13979,0.19958 -0.47876,0.24671 -0.72801,0.10121 z m -15.26919,-1.0309 c -0.3917,-0.22053 -0.39589,-0.59 -0.0124,-1.09247 0.58361,-0.76466 1.52738,-2.25594 1.81611,-2.86967 0.37247,-0.79174 0.49043,-0.93133 0.78696,-0.93133 0.27935,0 0.49967,0.26845 0.49967,0.60882 0,0.45542 -1.54571,3.15613 -2.24366,3.9202 -0.37679,0.41248 -0.59472,0.50629 -0.84667,0.36445 z m 21.75833,-6.16309 c 0.1494,-0.0568 0.28763,-0.22936 0.42391,-0.52917 0.5365,-1.18025 0.51238,-3.13712 -0.0822,-6.66788 -0.52281,-3.104609 -1.01197,-5.386814 -2.84005,-13.250333 -0.37889,-1.629833 -0.89695,-4.030133 -1.15123,-5.334 -0.38219,-1.959721 -1.46068,-7.259939 -2.1535,-10.583333 -0.0874,-0.4191 -0.31448,-1.65735 -0.50471,-2.751667 -0.19022,-1.094316 -0.51763,-2.770716 -0.72757,-3.725333 -0.65171,-2.963406 -0.70834,-3.249872 -0.71143,-3.598333 -0.002,-0.197844 -0.0693,-0.424968 -0.1625,-0.546214 -0.15759,-0.205052 -0.17664,-0.207654 -1.58562,-0.216546 -1.28859,-0.0081 -1.49663,-0.03068 -2.15751,-0.233848 -0.40227,-0.123667 -0.94352,-0.318663 -1.20279,-0.433323 -0.42445,-0.187712 -0.47556,-0.194345 -0.51326,-0.0666 -0.023,0.07803 -0.42245,1.437268 -0.88763,3.020535 -1.47058,5.005305 -2.90893,9.358247 -5.53936,16.763999 -2.89525,8.151313 -4.00445,11.749422 -5.89873,19.134667 -0.45529,1.775067 -1.08704,4.125409 -1.35391,5.037099 -0.0476,0.16268 -0.0866,0.4794 -0.0866,0.70381 v 0.40804 l 0.52916,0.23939 c 1.43733,0.65023 4.02093,1.03918 8.74184,1.31604 2.83182,0.16609 5.05362,0.34427 6.858,0.54999 0.79163,0.0902 2.60138,0.29719 4.02166,0.45984 1.42029,0.16265 2.79189,0.30933 3.048,0.32593 1.08898,0.0706 3.73059,0.0553 3.936,-0.0228 z m 2.78903,-2.75205 c 0.32404,-0.6507 0.75871,-2.22734 0.852,-3.09033 l 0.0595,-0.550337 -0.42533,0.472207 c -0.23392,0.25972 -0.63695,0.61797 -0.89561,0.79612 -0.41961,0.28899 -0.46401,0.3476 -0.41198,0.54379 0.0321,0.12093 0.0599,0.8402 0.0619,1.59837 l 0.004,1.37849 0.23045,-0.27783 c 0.12675,-0.15279 0.36326,-0.54451 0.52558,-0.87048 z m -29.97446,-5.302364 c 0.26076,-1.007066 0.4741,-1.883432 0.4741,-1.947478 0,-0.06405 -0.17781,-0.210776 -0.39513,-0.326066 -0.21732,-0.11529 -0.57676,-0.386525 -0.79875,-0.602744 l -0.4036,-0.393126 -0.0453,0.306556 c -0.1406,0.952601 -0.2286,2.298365 -0.1772,2.709805 0.084,0.671992 0.329,1.407859 0.59811,1.796191 0.12704,0.183316 0.24057,0.323076 0.25229,0.310596 0.0117,-0.0125 0.23468,-0.846667 0.49543,-1.853734 z m 29.7821,1.079188 c 0.69617,-0.803265 0.92769,-1.177475 1.15871,-1.872824 0.34601,-1.041447 0.39409,-1.521581 0.38576,-3.852333 -0.0138,-3.845962 -0.47205,-7.44381 -1.43917,-11.298223 -0.71149,-2.835647 -3.07283,-10.602928 -3.92672,-12.916443 -0.67108,-1.818187 -2.17083,-4.739749 -3.45528,-6.731 -0.50186,-0.778025 -1.69317,-2.290046 -1.75531,-2.227857 -0.0146,0.01459 0.19405,1.017123 0.46361,2.227857 0.26956,1.210733 0.65167,3.134783 0.84914,4.275666 0.19747,1.140884 0.48738,2.683933 0.64426,3.429 0.15687,0.745067 0.76022,3.716867 1.34078,6.604 1.20268,5.981033 1.29993,6.438822 2.00123,9.420898 1.33025,5.656616 2.18833,9.638318 2.53128,11.745768 0.29863,1.835187 0.33614,1.986487 0.47885,1.931727 0.0699,-0.0268 0.39515,-0.358112 0.72286,-0.736236 z m -28.28661,-6.789632 c 1.2978,-4.751257 2.29751,-7.845915 4.98727,-15.438388 1.75646,-4.958035 3.37137,-9.772823 4.74484,-14.14647 0.56299,-1.792817 1.04241,-3.31468 1.06537,-3.381919 0.176,-0.515399 -1.95953,2.113861 -3.05631,3.762919 -1.71961,2.585526 -3.04327,5.098389 -4.61592,8.763 -2.70744,6.308937 -4.0622,10.82903 -5.16404,17.229666 -0.43769,2.542513 -0.4694,3.358713 -0.15626,4.021667 0.357,0.755783 1.20245,1.669627 1.464,1.582441 0.0469,-0.01561 0.37582,-1.092428 0.73105,-2.392916 z m 17.05463,-34.710667 c 1.63163,-0.424986 3.33553,-2.054143 4.4239,-4.229857 0.48777,-0.97507 0.90411,-2.136891 1.24782,-3.482058 0.30034,-1.175457 0.74166,-3.739565 0.66499,-3.863622 -0.0224,-0.03623 -0.22457,-0.159041 -0.44929,-0.272912 -0.24122,-0.122239 -0.48365,-0.328532 -0.59188,-0.503661 -0.10083,-0.163142 -0.44868,-1.156401 -0.77299,-2.207242 -0.44546,-1.44334 -0.65964,-2.008272 -0.87574,-2.309897 -0.15735,-0.219601 -0.37542,-0.691026 -0.48463,-1.047612 -0.18773,-0.613049 -0.21355,-0.650783 -0.4745,-0.693307 -0.63234,-0.103042 -0.96061,-0.533877 -1.30197,-1.70871 l -0.19537,-0.672365 -0.0878,0.295026 c -0.19872,0.667446 -0.59818,1.013814 -1.16989,1.014377 -0.8514,8.46e-4 -1.24974,-0.553934 -1.92856,-2.685918 -0.10715,-0.336546 -0.20754,-0.599186 -0.22308,-0.583644 -0.0155,0.01554 0.0114,0.550604 0.0599,1.189028 0.0811,1.067884 0.0753,1.189739 -0.072,1.522778 -0.46667,1.05496 -1.88632,1.014403 -2.29439,-0.06555 -0.0724,-0.191693 -0.21259,-1.812491 -0.35242,-4.075381 -0.0197,-0.318539 -0.40374,3.385531 -0.40855,3.940227 -0.008,0.978643 -0.51253,1.628531 -1.26309,1.628531 -0.40758,0 -0.79547,-0.205073 -1.0422,-0.55098 -0.17488,-0.245187 -0.19717,-0.372175 -0.19717,-1.123111 0,-0.465667 0.027,-1.189567 0.06,-1.608667 0.0594,-0.755167 0.0588,-0.758583 -0.067,-0.381 -0.0698,0.20955 -0.36946,1.223756 -0.6659,2.253791 -0.60683,2.108537 -0.70567,2.342493 -1.08803,2.575636 -0.65057,0.396675 -1.48529,0.110064 -1.7849,-0.612865 -0.15859,-0.382647 -0.15895,-0.411164 -0.0129,-1.013974 0.0826,-0.34114 0.35659,-1.320516 0.60882,-2.176392 0.25221,-0.855876 0.44541,-1.569304 0.42932,-1.585397 -0.0161,-0.01609 -0.20766,0.398418 -0.4257,0.921137 -0.92282,2.21234 -1.32933,3.518437 -1.32933,4.271182 0,0.589275 -0.17116,1.073922 -0.42777,1.211255 -0.37301,0.199632 -0.41889,0.322938 -0.41882,1.125508 0,2.546581 0.51603,4.940234 1.51842,7.046413 1.58937,3.33954 4.31434,6.313261 7.01013,7.650073 1.70133,0.843663 3.19295,1.119054 4.38273,0.809157 z m -2.79369,-4.31491 c -0.38349,-0.135522 -0.71966,-0.476315 -0.71966,-0.729569 0,-0.449239 0.44268,-0.700127 0.81032,-0.459242 0.42366,0.277595 0.99911,0.06577 1.61953,-0.596165 0.39632,-0.42284 0.84131,-0.362924 0.99921,0.134535 0.0789,0.248589 -0.26204,0.793115 -0.6882,1.09916 -0.76136,0.546766 -1.47961,0.742668 -2.0212,0.551281 z m 1.89708,-7.990005 c -0.18476,-0.149607 -0.19977,-0.237859 -0.26136,-1.536275 -0.0359,-0.757652 -0.10435,-1.588574 -0.15203,-1.846491 -0.11505,-0.622397 -0.10955,-1.058439 0.0149,-1.18291 0.15164,-0.151641 0.615,-0.122777 0.76949,0.04793 0.26427,0.292016 0.46714,1.609927 0.4947,3.213698 0.0169,0.983678 0,1.140393 -0.13607,1.291167 -0.19408,0.214463 -0.47458,0.219413 -0.72964,0.01288 z m -4.43018,-0.227467 c -0.21265,-0.212659 -0.37143,-0.919863 -0.52157,-2.323142 -0.0772,-0.721783 -0.13794,-1.383271 -0.13491,-1.469974 0.007,-0.208788 0.25714,-0.477359 0.44412,-0.477359 0.50985,0 0.62936,0.277559 0.84426,1.960926 0.0971,0.760874 0.19823,1.546266 0.22465,1.745315 0.0368,0.27686 0.0125,0.401213 -0.10333,0.529166 -0.18132,0.20036 -0.56984,0.218448 -0.75322,0.03507 z m 5.86728,-10.440982 c -0.14424,-0.43008 -0.27674,-0.767486 -0.29443,-0.749791 -0.0177,0.0177 0.0858,0.384057 0.23008,0.814138 0.14424,0.43008 0.27673,0.767486 0.29443,0.749791 0.0177,-0.01769 -0.0858,-0.384057 -0.23008,-0.814138 z M 76.391558,159.76587 c -2.654142,-0.30408 -3.291518,-0.392 -4.275666,-0.58973 -1.384076,-0.2781 -1.791968,-0.41728 -2.251978,-0.76841 l -0.38071,-0.29061 -0.27064,0.27064 c -0.57798,0.57799 -1.568275,0.87488 -3.346941,1.00343 -0.683502,0.0494 -1.790582,0.14602 -2.460177,0.21471 -1.593744,0.16349 -3.444529,0.16106 -4.151007,-0.005 -2.156297,-0.50827 -2.911399,-2.04596 -2.908709,-5.9233 0.0013,-1.88905 0.12524,-2.66115 0.573274,-3.57163 0.491722,-0.99926 1.131142,-1.43937 2.57731,-1.77396 1.364279,-0.31564 2.483732,-0.6626 3.306245,-1.02472 0.48895,-0.21525 0.901924,-0.40057 0.91772,-0.41181 0.0158,-0.0112 -0.06984,-0.64251 -0.190313,-1.40282 -0.120469,-0.76032 -0.391542,-2.56349 -0.602384,-4.00706 -0.210843,-1.44356 -0.62877,-4.12961 -0.928727,-5.969 -0.720427,-4.41776 -0.801994,-4.95792 -1.355222,-8.97466 -0.630367,-4.57683 -1.131251,-7.94621 -1.743202,-11.72634 -0.433816,-2.67971 -1.008539,-6.75077 -1.008539,-7.14395 0,-0.0667 -0.153125,0.11564 -0.340278,0.40521 -1.016257,1.57234 -2.180394,2.11579 -3.478635,1.62391 -0.712972,-0.27013 -1.223969,-0.64709 -1.719239,-1.26827 -1.208672,-1.51596 -1.687784,-3.09531 -1.68512,-5.55487 0.0017,-1.52747 0.18054,-2.61518 0.574446,-3.492926 l 0.226048,-0.503702 -0.219482,-0.323425 c -0.414284,-0.610481 -0.512777,-1.130329 -0.504919,-2.664947 0.01518,-2.964325 0.872379,-7.524816 2.450722,-13.038357 1.301585,-4.546761 2.103521,-6.708561 3.643415,-9.821643 2.517958,-5.090358 5.39555,-9.486312 7.852112,-11.995281 l 0.677821,-0.692283 -0.646114,-0.695479 c -2.01784,-2.17201 -3.481801,-5.476451 -3.999407,-9.027427 l -0.150448,-1.032137 -0.20888,0.164304 c -0.282597,0.22229 -0.883072,0.218269 -1.249784,-0.0084 -0.562042,-0.347361 -1.01925,-1.3182 -1.22809,-2.607734 -0.08013,-0.494789 -0.172788,-2.037639 -0.305849,-5.092755 -0.06089,-1.397935 0.337766,-3.933655 1.025065,-6.520168 0.154673,-0.582083 0.359113,-1.388951 0.454309,-1.793038 0.29128,-1.236414 1.008579,-2.569797 2.087065,-3.879628 0.21088,-0.256117 0.609488,-0.754633 0.885795,-1.107812 0.965577,-1.234215 1.774826,-1.800538 3.382954,-2.367435 0.495454,-0.174657 1.163129,-0.418279 1.48372,-0.541384 0.89427,-0.343388 1.651176,-0.470701 2.798452,-0.470701 0.84952,0 1.196396,0.04051 1.878298,0.21937 0.459996,0.120653 1.064956,0.271126 1.344356,0.334384 1.206016,0.27305 1.994492,0.641989 3.01559,1.411039 0.931655,0.701684 4.091443,3.806534 4.37313,4.297094 0.121414,0.211445 0.476372,0.681405 0.788797,1.044355 0.390474,0.453624 0.586241,0.757988 0.626259,0.973667 0.03202,0.172567 0.107892,0.370908 0.168603,0.440758 0.236504,0.272102 0.885914,1.595407 1.053515,2.146752 0.219018,0.720486 0.222822,1.113133 0.01474,1.521275 -0.124474,0.244148 -0.144484,0.379838 -0.08692,0.589402 0.04113,0.14973 0.150719,0.710387 0.243529,1.245904 0.09281,0.535516 0.249262,1.354666 0.347672,1.820333 0.112694,0.533265 0.1593,0.970978 0.125906,1.182496 -0.07648,0.484417 -0.399851,0.866803 -0.830549,0.982123 -0.196685,0.05266 -0.468788,0.155079 -0.604675,0.227593 -0.135887,0.07251 -0.406211,0.129438 -0.60072,0.126498 l -0.353653,-0.0054 -0.05534,1.537319 c -0.169078,4.69671 -0.807884,7.789044 -2.206516,10.681318 -0.827251,1.710696 -1.741655,3.147182 -2.565861,4.030847 l -0.363926,0.390182 0.910542,1.21946 c 0.985584,1.319962 2.592274,3.697176 3.369335,4.985177 1.12697,1.867982 2.037121,3.792516 3.424899,7.242019 1.013829,2.520003 1.46197,3.856515 2.426267,7.235981 1.879995,6.588607 3.14244,12.451986 3.190178,14.816666 0.01222,0.60529 -0.01747,0.784656 -0.186793,1.128586 -0.195442,0.396978 -0.19794,0.427884 -0.08553,1.058334 0.170529,0.956388 0.152071,2.803136 -0.03484,3.485756 -0.189634,0.69255 -0.686498,1.71772 -1.231057,2.54 -0.419732,0.63378 -1.243604,1.55807 -1.597595,1.7923 l -0.18701,0.12375 0.342482,0.96814 c 0.404036,1.14214 0.412306,1.59343 0.03514,1.91784 -0.182641,0.1571 -0.324716,0.1933 -0.758773,0.1933 -0.293731,0 -0.735923,-0.0383 -0.98265,-0.0851 -0.246726,-0.0468 -0.458267,-0.0754 -0.470091,-0.0635 -0.01183,0.0119 -0.114766,0.42162 -0.228758,0.91057 -0.113993,0.48895 -0.386482,1.4986 -0.605531,2.24367 -0.506006,1.72111 -0.706571,2.60839 -1.646725,7.28496 -1.830359,9.10468 -2.470109,14.16642 -3.140278,24.84603 -0.09497,1.51341 -0.183342,2.89804 -0.196383,3.07694 -0.02234,0.30654 0.0044,0.34669 0.464758,0.69676 0.268658,0.20431 0.765298,0.51022 1.103645,0.67978 2.326252,1.16582 3.009063,1.92082 3.093486,3.42051 0.04304,0.76455 -0.264215,3.96782 -0.484937,5.05576 -0.218057,1.07482 -0.665505,1.98748 -1.122896,2.29041 l -0.349551,0.23151 -1.826795,0.0122 c -1.085701,0.007 -2.238967,-0.035 -2.842796,-0.10416 z m -6.646333,-10.82658 c 0,-0.19116 0.58994,-1.65354 0.803587,-1.99198 0.265541,-0.42065 0.548044,-0.63352 1.129606,-0.8512 0.739582,-0.27683 1.758406,-0.31063 2.624173,-0.0871 0.760017,0.19625 1.715581,0.55541 2.398749,0.90159 0.234698,0.11893 0.434963,0.20415 0.445033,0.18938 0.01007,-0.0148 0.140585,-1.89376 0.290031,-4.17553 0.635928,-9.70945 1.285819,-14.70722 3.067154,-23.58697 0.878492,-4.37918 1.2955,-6.19664 1.811386,-7.89466 0.27655,-0.91025 0.638281,-2.3295 0.638281,-2.5043 0,-0.0986 -0.625008,-0.20988 -3.344333,-0.59558 -2.599537,-0.3687 -3.730019,-0.49399 -7.281333,-0.80697 -1.303867,-0.11492 -3.342217,-0.30271 -4.529667,-0.41732 -2.323458,-0.22426 -4.742838,-0.36341 -7.35229,-0.42284 l -1.63729,-0.0373 0.05016,0.19986 c 0.02759,0.10992 0.201216,1.20722 0.38584,2.43845 0.184624,1.23122 0.506564,3.26227 0.715424,4.51344 0.208859,1.25117 0.550927,3.39881 0.760151,4.77253 0.374013,2.45569 0.559625,3.74805 1.398398,9.73666 0.231538,1.65312 0.688266,4.64397 1.014953,6.64634 0.326687,2.00236 0.827152,5.22181 1.112146,7.15433 0.555076,3.76392 0.62879,4.21651 0.698033,4.28575 0.02453,0.0245 0.191042,0.004 0.370034,-0.0458 0.178991,-0.0497 0.619285,-0.0906 0.97843,-0.0908 1.344668,-0.001 2.123413,0.54889 2.902153,2.04916 0.384452,0.74067 0.551189,0.92848 0.551189,0.62086 z m -0.634395,-3.12336 c -0.138201,-0.21091 -0.128938,-0.56092 0.135888,-5.13513 0.05257,-0.90805 0.11372,-4.58901 0.135883,-8.1799 0.03661,-5.93054 0.0276,-6.55348 -0.09831,-6.79696 -0.11763,-0.22747 -0.12198,-0.30293 -0.02874,-0.49843 0.08557,-0.17941 0.178921,-0.23613 0.421953,-0.25637 0.378435,-0.0315 0.60726,0.16414 0.741855,0.63433 0.05331,0.18623 0.131173,1.91827 0.18389,4.09066 0.09443,3.89118 0.0396,7.03524 -0.217788,12.48972 -0.123927,2.62619 -0.225696,3.39891 -0.484182,3.67636 -0.225379,0.24192 -0.624054,0.22967 -0.790448,-0.0243 z m 7.723077,-29.32879 c -0.07383,-0.0816 -0.176306,-0.25899 -0.227734,-0.39426 -0.115925,-0.30491 -0.432776,-2.13535 -0.723474,-4.1795 -0.121005,-0.8509 -0.271826,-1.81903 -0.335156,-2.15139 -0.0667,-0.35008 -0.08629,-0.68022 -0.04655,-0.78474 0.186774,-0.49125 0.722054,-0.51748 0.948136,-0.0464 0.07823,0.16298 0.338368,1.47743 0.578088,2.921 0.239719,1.44356 0.508197,2.97695 0.596619,3.40752 0.163571,0.79653 0.132156,1.152 -0.115738,1.30962 -0.178933,0.11378 -0.53645,0.0704 -0.674188,-0.0818 z M 61.164681,114.7873 c -0.225276,-0.24893 -0.164874,-0.56916 0.230575,-1.22244 0.833712,-1.3773 1.927285,-3.81767 2.508067,-5.59691 0.231311,-0.70863 0.419134,-0.91939 0.787473,-0.88365 0.198695,0.0193 0.299519,0.0889 0.38342,0.26482 0.104666,0.21944 0.07536,0.35244 -0.363801,1.651 -0.518866,1.53425 -1.388779,3.5856 -1.940952,4.57697 -0.675279,1.2124 -1.22656,1.62814 -1.604782,1.21021 z m 9.884386,-1.68797 c -0.232427,-0.15519 -0.288715,-0.43219 -0.205203,-1.00979 0.04584,-0.31703 0.08431,-0.78596 0.08549,-1.04208 0.0041,-0.89784 0.234339,-1.35466 0.682634,-1.35466 0.43974,0 0.500516,0.21992 0.421153,1.524 -0.06993,1.14909 -0.153903,1.52494 -0.401931,1.79901 -0.138327,0.15285 -0.418186,0.193 -0.582143,0.0835 z m -15.559578,-4.56024 c 0.372263,-0.17664 0.863977,-0.73664 1.199381,-1.36592 l 0.263904,-0.49513 -0.763581,-0.0964 c -1.452655,-0.18336 -1.958595,-0.65584 -1.950048,-1.8211 0.0047,-0.64434 0.416554,-2.853 0.741089,-3.9745 0.0317,-0.10956 -0.03976,-0.16565 -0.300488,-0.23586 -0.188146,-0.0507 -0.761284,-0.28125 -1.273639,-0.51242 -0.512356,-0.23117 -0.965332,-0.420307 -1.006614,-0.420307 -0.0747,0 -0.165336,0.19983 -0.344338,0.759217 -0.05166,0.16145 -0.138526,0.73953 -0.193025,1.28461 -0.170873,1.70902 0.1358,3.79493 0.730467,4.96845 0.782578,1.54435 1.989594,2.33989 2.896892,1.90935 z m 29.713502,-1.02646 C 84.944187,106.756 84.668494,106.11047 83.918763,104.50567 82.834337,102.18445 81.755331,99.49788 81.0028,97.245342 80.517793,95.793581 78.666641,89.35871 78.056082,87.00213 76.970005,82.810184 76.30334,79.408521 75.973644,76.376464 c -0.200442,-1.843372 -1.140723,-9.512479 -1.230109,-10.033 -0.04398,-0.256117 -0.138213,-0.982286 -0.209405,-1.613709 -0.118799,-1.053682 -0.414022,-2.71309 -0.510436,-2.86909 -0.02216,-0.03586 -0.336657,0.02041 -0.698881,0.12503 -1.975611,0.570628 -4.190503,0.434443 -5.959453,-0.366424 l -0.559534,-0.25332 -0.107555,0.604923 c -0.239315,1.345979 -1.394978,5.532527 -2.805139,10.161997 -1.002787,3.292088 -1.561305,5.337566 -2.10656,7.714926 -1.483995,6.470353 -2.37287,9.870727 -3.950618,15.113 -1.267392,4.211074 -2.399395,8.826013 -2.399395,9.781843 0,0.19872 0.05132,0.40001 0.115578,0.45334 0.210084,0.17435 1.338054,0.25821 3.525089,0.26204 3.171631,0.006 5.862899,0.15092 9.482666,0.51218 0.90805,0.0906 2.54635,0.2419 3.640667,0.33617 4.408728,0.37979 8.622462,0.91481 11.302999,1.43514 0.6985,0.13558 1.3843,0.26243 1.524,0.28189 0.1397,0.0195 0.280305,0.0411 0.312457,0.0481 0.03215,0.007 -0.02951,-0.2445 -0.137024,-0.55882 z m 1.064677,-3.21349 c 0.565814,-0.70572 0.813208,-1.08938 1.208035,-1.8734 0.447387,-0.88839 0.5577,-1.41096 0.556366,-2.635565 -0.0017,-1.575764 0.09143,-1.501933 -1.126134,-0.89261 -0.968858,0.484859 -2.009465,0.837466 -3.120739,1.057456 l -0.480362,0.0951 0.409004,0.99017 c 0.542315,1.31291 0.918546,2.1705 1.391766,3.17245 0.459425,0.97272 0.451906,0.97217 1.162064,0.0864 z m -30.66921,-5.930606 c 0.158894,-0.593672 0.550164,-1.955704 0.869487,-3.026737 1.638703,-5.496315 2.700799,-9.467008 3.668808,-13.716 1.015358,-4.45682 1.416493,-5.976487 2.581292,-9.779 1.506774,-4.918895 2.906558,-9.827834 2.863623,-10.042509 -0.01841,-0.09204 -0.211709,0.08204 -0.587192,0.528817 -2.912332,3.46528 -6.373739,9.263401 -8.319118,13.935158 -2.356273,5.658504 -4.694811,15.347233 -4.736551,19.623867 -0.01797,1.840937 0.189379,2.223915 1.550419,2.863681 0.800509,0.376286 1.574302,0.68353 1.735666,0.689168 0.04657,0.0016 0.214672,-0.482773 0.373566,-1.076445 z m 28.751767,0.217557 c 1.210688,-0.299521 2.895812,-1.09523 3.485042,-1.645625 0.267561,-0.249926 0.2826,-0.295053 0.282166,-0.846667 -0.0012,-1.503056 -0.972993,-6.564395 -1.997635,-10.404002 -0.627508,-2.351438 -1.786839,-6.406982 -2.161353,-7.560787 -1.007721,-3.104595 -3.141569,-8.079767 -4.351233,-10.145115 -1.606688,-2.743217 -3.947244,-6.212431 -4.191306,-6.212431 -0.136336,0 -0.135352,0.049 0.01572,0.783167 0.08864,0.430741 0.233678,1.392766 0.322315,2.137833 0.08864,0.745067 0.200441,1.602317 0.248453,1.905 0.101274,0.638464 0.846287,6.727054 1.151794,9.412997 0.518202,4.555899 1.251344,7.915694 3.313013,15.182669 1.529453,5.391014 2.228506,7.540852 2.472979,7.605295 0.189221,0.04988 0.600497,-0.01205 1.410043,-0.212334 z M 72.835559,60.885041 c 0.960944,-0.266928 1.870825,-0.77215 2.492,-1.38371 0.907405,-0.893359 2.222637,-3.039752 2.998741,-4.893797 0.334582,-0.799285 0.799656,-2.404058 1.025163,-3.537397 0.392467,-1.97244 0.504446,-3.290007 0.508066,-5.978006 0.0038,-2.849211 -0.02646,-3.036453 -0.533046,-3.294896 -0.200917,-0.1025 -0.456333,-0.372014 -0.724494,-0.76448 -0.306465,-0.448528 -0.449576,-0.592131 -0.550303,-0.552193 -0.568591,0.225449 -1.306328,0.01 -1.585826,-0.463177 -0.08687,-0.147053 -0.316342,-0.3602 -0.509948,-0.47366 -0.406063,-0.23797 -1.092023,-1.066372 -1.417425,-1.71176 -0.123263,-0.244475 -0.244589,-0.4445 -0.269613,-0.4445 -0.02502,0 -0.167258,0.116538 -0.316074,0.258974 -0.783304,0.74972 -1.659108,0.781983 -2.447069,0.09014 l -0.301514,-0.264732 -0.143429,0.218902 c -0.17691,0.269999 -0.749667,0.539661 -1.146229,0.539661 -0.420889,0 -0.92827,-0.255008 -1.260696,-0.63362 -0.289578,-0.329811 -0.684298,-1.081347 -0.68581,-1.305762 -5.08e-4,-0.07578 -0.02988,-0.09198 -0.07674,-0.04233 -0.100185,0.106157 -0.432351,2.646646 -0.432205,3.305617 2.54e-4,1.211351 -0.932405,1.899531 -1.883516,1.389767 l -0.314787,-0.168716 -0.04269,0.189882 c -0.02348,0.104436 -0.103134,0.642434 -0.177007,1.195551 -0.149994,1.123072 -0.219801,1.359565 -0.487357,1.651077 -0.371828,0.40512 -0.928387,0.530493 -1.358705,0.306067 -0.133381,-0.06956 -0.270994,-0.126479 -0.305807,-0.126479 -0.03481,0 -0.08928,0.257175 -0.121024,0.5715 -0.05989,0.592886 -0.32501,1.27193 -0.526847,1.349382 -0.16627,0.0638 -0.145722,0.617791 0.05378,1.449982 0.09281,0.387125 0.16874,0.817642 0.16874,0.956704 0,0.321835 -0.18955,0.689445 -0.468729,0.909048 -0.218047,0.171516 -0.218085,0.171778 -0.125694,0.875309 0.273449,2.082242 0.798924,3.882254 1.614292,5.529742 1.511023,3.053092 3.249516,4.705931 5.567823,5.293497 0.544626,0.138034 0.866262,0.159703 1.963641,0.132298 0.87329,-0.02181 1.482286,-0.07998 1.820334,-0.173885 z m -1.918193,-5.158242 c -1.142037,-0.407945 -2.275645,-1.635515 -2.271511,-2.459792 0.0015,-0.30611 0.06188,-0.411261 0.311365,-0.542591 0.29282,-0.154138 0.577261,0.02706 0.769814,0.490394 0.226846,0.545853 0.608407,0.954974 1.159677,1.243443 0.39056,0.204371 0.489394,0.226423 0.614468,0.137096 0.388031,-0.277128 0.538625,-0.31293 0.770762,-0.18324 0.484473,0.270664 0.26025,1.048764 -0.379212,1.315948 -0.342092,0.142935 -0.572529,0.142638 -0.975363,-0.0013 z m -1.819268,-8.210623 c -0.222081,-0.191026 -0.236175,-0.248741 -0.294634,-1.2065 -0.10876,-1.781858 -0.09084,-2.62818 0.05881,-2.777831 0.184995,-0.184995 0.572708,-0.166196 0.7563,0.03667 0.157635,0.174185 0.207285,0.610227 0.330228,2.900209 0.04475,0.833502 0.03458,0.925253 -0.119668,1.0795 -0.222652,0.222651 -0.446329,0.212845 -0.731035,-0.03205 z m 3.813635,0.135825 c -0.229469,-0.153221 -0.273029,-0.48877 -0.300939,-2.318214 -0.02729,-1.788648 -0.01849,-1.9282 0.132054,-2.094977 0.199899,-0.221453 0.507337,-0.229719 0.717756,-0.0193 0.130688,0.130687 0.169151,0.340269 0.213653,1.164167 0.117008,2.16624 0.104215,2.857012 -0.05748,3.103907 -0.149367,0.228065 -0.490558,0.307631 -0.705041,0.164417 z m 23.446362,11.82538 c -1.684672,-0.196296 -3.331764,-0.691109 -5.446302,-1.636155 -1.259176,-0.562761 -2.010381,-1.00431 -2.828975,-1.662834 -0.829968,-0.667676 -1.379127,-1.288397 -1.501647,-1.697331 -0.05464,-0.182384 -0.140811,-0.362552 -0.191483,-0.400373 -0.102788,-0.07672 -1.36308,-0.477712 -2.589796,-0.824007 -1.005705,-0.283903 -1.254142,-0.409555 -1.318752,-0.66698 -0.122832,-0.489404 0.196023,-0.856768 0.896152,-1.032486 0.868633,-0.21801 1.933086,-0.713501 3.358834,-1.5635 1.447667,-0.863066 1.431231,-0.844672 1.66835,-1.867111 0.229674,-0.990331 1.378514,-3.313466 2.660256,-5.379452 0.934195,-1.50579 1.837618,-2.678677 2.836048,-3.681958 2.337833,-2.349194 5.235186,-3.887445 8.69511,-4.616374 1.12105,-0.236179 3.59418,-0.212953 4.61433,0.04334 0.95667,0.240339 2.12996,0.809957 2.80537,1.361979 1.37932,1.127335 2.353,3.102135 2.84328,5.766661 0.2583,1.40382 0.25702,3.892107 -0.003,5.545666 -0.6507,4.140207 -2.18482,7.086498 -4.72116,9.067017 -1.68854,1.318506 -3.94427,2.361814 -6.21447,2.874281 -1.81814,0.41042 -3.979486,0.554044 -5.562273,0.369619 z m 3.093154,-1.216813 c 0.435798,-0.02451 1.260651,-0.139382 1.833021,-0.255272 3.55061,-0.718918 6.63598,-2.583889 8.22226,-4.970003 2.27207,-3.417678 3.00422,-9.176059 1.6731,-13.158972 -0.79223,-2.370476 -2.1009,-3.667311 -4.23682,-4.198526 -1.04351,-0.259529 -3.07141,-0.258451 -4.30768,0.0023 -2.31113,0.487434 -4.855759,1.66479 -6.600905,3.054119 -0.680273,0.541572 -2.103383,2.01729 -2.674376,2.773241 -0.864168,1.144092 -2.269729,3.421794 -2.994186,4.852058 -0.541656,1.069368 -0.669629,1.408089 -0.864407,2.287941 -0.125744,0.568011 -0.294842,1.116928 -0.375774,1.219815 -0.188543,0.239693 -2.959667,1.813419 -3.831433,2.175876 l -0.664842,0.276424 0.664842,0.200664 c 0.365664,0.110365 1.007743,0.293609 1.426843,0.407209 0.4191,0.113599 0.809094,0.270585 0.866653,0.348856 0.05756,0.07827 0.09927,0.279617 0.0927,0.447433 -0.0066,0.167815 0.03111,0.385589 0.08375,0.48394 0.119799,0.223847 1.190875,1.177721 1.739491,1.549147 1.103062,0.7468 4.041578,1.94793 5.599412,2.288782 0.845265,0.184944 2.454264,0.328568 3.175,0.283411 0.20955,-0.01313 0.737561,-0.04392 1.173358,-0.06843 z"
         id="path2465" /></g></g></svg>
