<?xml version="1.0" encoding="UTF-8" standalone="no"?>
<!-- Created with Inkscape (http://www.inkscape.org/) -->

<svg
   width="142.37677"
   height="142.13969"
   viewBox="0 0 142.37677 142.13969"
   version="1.1"
   id="svg5"
   xml:space="preserve"
   xmlns:inkscape="http://www.inkscape.org/namespaces/inkscape"
   xmlns:sodipodi="http://sodipodi.sourceforge.net/DTD/sodipodi-0.dtd"
   xmlns="http://www.w3.org/2000/svg"
   xmlns:svg="http://www.w3.org/2000/svg"><sodipodi:namedview
     id="namedview7"
     pagecolor="#ffffff"
     bordercolor="#000000"
     borderopacity="0.25"
     inkscape:showpageshadow="2"
     inkscape:pageopacity="0.0"
     inkscape:pagecheckerboard="0"
     inkscape:deskcolor="#d1d1d1"
     inkscape:document-units=""
     showgrid="false" /><defs
     id="defs2" /><g
     inkscape:label="Layer 1"
     inkscape:groupmode="layer"
     id="layer1"
     transform="translate(-15.040503,-29.817437)"><g
       style="fill:none"
       id="g327"
       transform="matrix(1.5023295,0,0,1.5023295,14.933402,40.476148)"
       inkscape:label="blob"
       inkscape:export-filename="decider.svg"
       inkscape:export-xdpi="96"
       inkscape:export-ydpi="96"><path
         opacity="0.689993"
         d="m 72.8975,12.5995 c 7.772,9.1384 7.0288,21.9294 5.2714,33.7952 C 76.4057,58.3001 73.8816,71.573 63.3103,77.3307 52.9213,82.9893 40.9429,76.9223 29.8966,72.6868 18.6969,68.3925 5.60747,64.8955 1.4971,53.6294 -2.76479,41.948 3.209,29.4434 10.4245,19.3156 17.4138,9.50523 27.2734,1.92365 39.2519,0.635917 51.7036,-0.702696 64.7851,3.06102 72.8975,12.5995 Z"
         fill=""
         id="path318"
         inkscape:export-filename="speaker.svg"
         inkscape:export-xdpi="96"
         inkscape:export-ydpi="96" /></g><g
       id="g4774"
       inkscape:label="ally"
       transform="matrix(0.95621592,0,0,0.95621592,15.574618,-1.8044311)"><path
         style="opacity:0.4;fill:#020202;stroke:none;stroke-width:0.0846667"
         d="m 89.470984,46.08703 c 1.217252,-1.394545 3.311906,-0.73914 4.703995,-0.0067 1.014307,-1.804416 3.499273,-1.740916 4.148666,0.338667 0.508,-0.30734 0.9398,-0.770128 1.524,-0.935482 2.763515,-0.78232 2.886285,2.579116 2.878665,4.322148 1.00584,-0.393022 2.09889,-0.426212 2.68309,0.680551 0.25484,0.483701 0.1397,1.219793 0.72136,1.452965 1.27846,0.512741 2.70171,0.659468 3.96155,1.237826 3.78799,1.739562 7.18989,4.40436 10.16762,7.286244 8.83581,8.552349 16.36437,19.308233 19.29722,31.421747 1.73398,7.161191 1.69672,14.662994 0.93049,21.928664 l 7.28133,-0.254 c 1.14978,-9.42594 0.61384,-18.968379 -2.14291,-28.109331 -0.63585,-2.10803 -1.65693,-4.120726 -2.60943,-6.096 -1.10913,-2.301324 -2.16238,-4.557776 -3.4544,-6.773333 -6.00117,-10.287931 -14.17319,-19.599571 -24.55925,-25.622334 -1.58412,-0.918718 -3.27237,-1.322239 -4.99534,-1.85547 -4.964,-1.536531 -10.311548,-1.926251 -15.48248,-2.059178 -1.109726,-0.02853 -2.208191,0.0177 -3.313514,0.01549 -0.685631,-0.0014 -1.698498,-0.01185 -2.318428,0.324781 -0.425619,0.23114 -0.655489,0.896282 -0.735584,1.341374 m -47.999985,72.135991 7.281333,-0.33866 c -0.192532,-1.72399 -0.535178,-3.42308 -0.587925,-5.16467 -0.117179,-3.8674 0.28067,-7.74302 0.491744,-11.599328 0.197273,-3.604938 0.07527,-7.260506 0.630428,-10.837334 0.305985,-1.971717 1.029716,-3.773169 1.591394,-5.672666 0.261959,-0.886037 0.360003,-1.842939 0.661755,-2.709333 1.779947,-5.110311 4.651925,-10.387838 8.45803,-14.24559 5.179822,-5.249926 11.435503,-9.153483 18.133907,-12.182771 2.152396,-0.973413 4.446523,-1.501309 6.688666,-2.200148 0.678857,-0.211582 2.019893,-0.241554 2.519934,-0.765302 0.454575,-0.475911 0.387943,-1.653371 0.447379,-2.271522 0.17382,-1.808988 0.170603,-3.662511 0.673354,-5.418667 -1.947757,0.03556 -3.893312,0.635 -5.757334,1.134364 -2.420281,0.648462 -4.882726,1.297094 -7.196666,2.274147 -1.647105,0.695621 -3.162723,1.654048 -4.741333,2.483019 -4.1656,2.187533 -8.224351,4.473448 -11.853333,7.520432 -5.825998,4.891617 -9.982115,10.895415 -13.00099,17.830038 -0.443145,1.017862 -1.091099,2.00516 -1.453811,3.048 -0.340191,0.9779 -0.341376,2.004144 -0.613072,2.980012 -0.668782,2.402163 -1.522391,4.694174 -1.931839,7.179988 -0.665649,4.041647 -0.499364,8.279553 -0.699093,12.366071 -0.269494,5.51078 -0.949282,11.14992 0.257472,16.58992 m 64.939341,-60.536657 -1.18534,7.281333 c 3.302,0.613748 6.88002,0.90534 9.82134,2.725081 4.3307,2.679531 6.77926,6.82481 9.29809,11.075585 2.21996,3.745992 3.70163,7.565051 5.03343,11.684 0.67056,2.074926 1.47913,4.143502 2.00322,6.260592 0.63584,2.569125 0.9652,5.184986 1.38176,7.794066 0.57996,3.63898 1.21073,7.32113 1.50283,11.00667 l 7.366,-0.33867 c -0.009,-1.19278 -0.2684,-2.37371 -0.40132,-3.55599 -0.22183,-1.97012 -0.29041,-3.95919 -0.55796,-5.92666 -0.10837,-0.79918 -0.39793,-1.56769 -0.51054,-2.37068 -0.38184,-2.725584 -0.73321,-5.451936 -1.41224,-8.127995 -0.61552,-2.429764 -1.5367,-4.731766 -2.29615,-7.112 -0.48091,-1.507236 -0.74592,-3.099223 -1.33266,-4.572 -1.37414,-3.447626 -3.23511,-6.73735 -5.14519,-9.905999 -2.74828,-4.561671 -5.75395,-8.907103 -10.35727,-11.813286 -3.89467,-2.459059 -8.66225,-3.646424 -13.208,-4.104047 M 49.047644,116.43834 c 2.250439,-0.009 4.822613,-0.0516 7.027333,-0.508 -0.23114,-0.97739 -0.174922,-1.89213 -0.216408,-2.87867 -0.101516,-2.41401 -0.05927,-4.78299 -0.06062,-7.19666 -7.62e-4,-1.21167 -0.212767,-2.42697 -0.129455,-3.64067 0.331978,-4.837515 1.637877,-9.808125 3.198029,-14.388592 0.648886,-1.905084 1.151213,-3.80094 2.119461,-5.592741 2.089573,-3.867235 5.028353,-6.461167 8.466328,-9.072287 3.275245,-2.487507 6.605524,-4.447879 10.414,-5.988558 1.662937,-0.672677 3.378623,-1.342644 5.164666,-1.618488 -0.244433,-1.067647 -0.345779,-1.877399 -0.350351,-2.963333 -0.003,-0.736516 0.15003,-1.407753 1.027684,-1.354667 l -0.08467,-3.556 c -2.403687,0.425111 -4.910751,1.387433 -7.196667,2.229443 -9.298601,3.42519 -18.448273,9.587653 -23.550964,18.25989 -1.830747,3.111415 -2.726097,6.655901 -3.732361,10.075333 -1.055962,3.588512 -2.138171,7.440337 -2.500629,11.176 -0.26035,2.68385 -0.02498,5.35627 -0.01888,8.04333 0.0068,2.9834 -0.06875,6.0132 0.423503,8.97467 m 50.301498,-43.688791 -0.341833,0.170128 c 1.689102,0.02379 2.631882,0.383709 4.227002,0.911013 10.31833,3.410966 14.32475,15.135436 16.82157,24.65832 0.45636,1.74015 0.74422,3.51392 1.22259,5.24933 0.70781,2.56769 1.09474,5.32943 1.47574,7.95867 0.10837,0.74447 -0.10329,2.39386 0.56049,2.90982 0.43265,0.33587 1.50961,0.0318 2.01761,-0.008 1.76276,-0.13885 3.56616,-0.27533 5.334,-0.27703 -0.81449,-3.3064 -1.09728,-6.8044 -1.71958,-10.16 -1.36652,-7.363284 -3.48234,-14.969738 -6.85292,-21.67466 -1.68995,-3.36296 -3.7719,-6.803898 -6.58283,-9.359731 -2.78977,-2.536697 -5.62695,-4.652771 -9.22867,-5.89644 -0.76369,-0.263737 -1.50791,-0.478282 -2.286,-0.687832 -0.31581,-0.08509 -0.72898,-0.304292 -1.05918,-0.187283 -0.59351,0.210228 -0.52481,1.685885 -0.81353,2.204807 -0.88392,1.589024 -1.74085,3.241124 -3.159021,4.402666 M 58.02231,115.8458 l 7.027333,-0.42333 c -0.34671,-1.20896 -0.172212,-2.40123 -0.188468,-3.64067 -0.03209,-2.45787 0.04538,-4.84361 0.400981,-7.28133 0.705697,-4.836326 2.380319,-9.447019 4.539404,-13.800664 1.460415,-2.945045 3.221058,-5.899996 5.501132,-8.297248 2.531194,-2.661412 5.721688,-4.734983 9.050951,-6.248654 1.997117,-0.907965 2.677479,-1.973608 4.898793,-2.260035 -1.727284,-1.858518 -3.984122,-2.797859 -4.227793,-5.62598 -4.987374,1.801622 -9.28668,3.904311 -13.200143,7.530754 -3.559048,3.29802 -6.208014,7.364984 -8.353805,11.68383 -4.392422,8.84047 -6.33857,18.507537 -5.448385,28.363327 M 93.921061,82.375078 c -0.961983,0.161882 -1.35509,0.980186 -1.673945,1.805262 -0.688848,1.782996 -1.291505,3.610356 -1.911011,5.418667 -2.297684,6.707378 -4.653196,13.457343 -7.219442,20.066003 -0.640504,1.64939 -1.393529,3.35915 -1.811782,5.08 -0.163153,0.67132 -0.332402,1.58089 0.09669,2.18804 0.236051,0.33409 0.598255,0.50927 1.004739,0.50148 0.416391,-0.008 0.788501,-0.21438 1.185334,-0.31412 0.92185,-0.23181 2.00533,-0.18161 2.624074,-1.0276 1.340104,-1.83201 0.80264,-4.77511 2.111502,-6.63558 0.323172,-0.45931 1.129707,-0.28549 1.614424,-0.32325 1.475062,-0.1149 2.936748,-0.15333 4.402666,-0.38007 0.438828,-0.0678 1.398694,-0.36314 1.72974,0.0505 0.402167,0.50317 0.346287,1.67691 0.450427,2.29997 0.257386,1.54652 0.557106,3.13758 0.944033,4.65667 0.155787,0.61324 0.305647,1.42485 0.753533,1.89661 0.630767,0.66371 2.297007,0.76615 3.149597,0.58497 1.00161,-0.21396 1.33096,-1.13267 1.25053,-2.05825 -0.19135,-2.19304 -0.83566,-4.41943 -1.16671,-6.604 -0.77639,-5.10836 -1.615437,-10.202587 -2.30801,-15.324667 -0.270087,-1.997371 -0.276013,-4.022428 -0.605367,-6.011333 -0.21082,-1.274402 -0.432646,-2.546688 -0.702733,-3.81 -0.135467,-0.62975 -0.27178,-1.35763 -0.809413,-1.776645 -0.663787,-0.51689 -2.308013,-0.417322 -3.108875,-0.282617 m 0.338582,9.594595 c 0.621707,3.808307 1.266613,7.906597 1.27,11.768667 l -5.588,0.42333 c 0.497247,-2.45948 1.741254,-4.853598 2.619417,-7.196663 0.605367,-1.615356 0.931672,-3.458041 1.698583,-4.995334 M 76.672276,126.96665 c -0.496485,0.0593 -0.009,0.51476 -0.181288,1.08626 -0.245279,0.81365 0.266277,1.89484 0.418169,2.6941 0.401659,2.11243 0.792819,4.23248 1.15824,6.35 0.592328,3.43154 0.690287,6.86223 0.967486,10.32933 0.564134,7.05866 1.116245,14.20707 2.911517,21.082 0.369231,1.41393 0.873083,3.937 2.110825,4.8387 0.408686,0.29803 0.93599,0.19812 1.397084,0.35814 0.508424,0.1778 1.124374,0.56896 1.683766,0.43942 0.624756,-0.14478 0.592498,-0.88985 1.0795,-1.16332 0.310812,-0.17441 0.693082,0 1.023112,-0.0999 0.529167,-0.16002 0.666666,-0.94742 0.785622,-1.4097 1.509946,0.16595 2.529248,0.86953 3.894667,-0.254 0.105156,0.57235 0.03006,1.60105 0.636778,1.91601 0.639149,0.33274 1.416389,-0.11684 2.072555,0.16595 0.669713,0.28786 1.03378,1.02192 1.693333,1.30047 0.596054,0.25231 2.108198,-0.99906 2.390138,-1.52569 0.38354,-0.71289 -0.53678,-1.58411 -0.57404,-2.36474 -0.0821,-1.69248 0.40979,-3.51197 0.72475,-5.16466 0.4318,-2.26145 1.03209,-4.50088 1.39107,-6.77334 0.53256,-3.36719 0.75269,-6.78772 1.30133,-10.16 0.43519,-2.67292 1.05156,-5.29928 1.50283,-7.95866 0.2303,-1.35636 0.66633,-2.77622 0.74084,-4.14867 0.0483,-0.9017 -0.20744,-1.60951 0.0195,-2.54 0.19558,-0.80433 0.96689,-2.58403 0.54271,-3.35703 -0.23114,-0.42249 -0.77385,-0.35645 -1.1811,-0.38524 -0.9889,-0.0677 -1.9812,-0.17695 -2.96333,-0.30988 -3.252894,-0.44196 -6.497321,-0.80518 -9.736667,-1.34535 -1.173311,-0.19558 -3.191087,-0.8128 -4.318,-0.35983 -0.96774,-0.5605 -2.541101,-0.23538 -3.640667,-0.381 -2.260854,-0.29888 -2.603779,-0.42342 -4.766759,-1.04141 -1.030953,0.0165 -2.056967,0.0992 -3.083971,0.18204 z"
         id="path4770"
         sodipodi:nodetypes="cccccccccccccccccscscccccccccsscccccccccsccccccccccccccccsccccccsccscsccccccsccccccscscccccccccccccccccccccscccccsscscccsccccccccsccccccccccscccscccccccccccccccccccccccccc" /><path
         style="fill:#030303;stroke:none;stroke-width:0.0846667"
         d="m 88.417643,74.02034 c -2.66844,1.593004 -4.580636,4.619075 -6.336454,7.112 -5.446775,7.733707 -8.133249,16.969571 -9.970346,26.162 -0.583861,2.92151 -1.004147,5.91701 -1.202521,8.89 -0.06274,0.94149 -0.335195,2.56117 0.660654,3.048 -0.380576,2.39268 0.719498,4.5593 2.217928,6.35 0.43942,0.52493 1.092708,0.91609 1.476164,1.47066 0.76183,1.10151 1.173056,2.55524 1.391496,3.86334 1.479212,8.86037 2.041398,17.84096 3.070776,26.75467 0.333417,2.88798 0.742357,5.77172 1.235286,8.636 0.274997,1.59766 0.72136,3.20971 0.853017,4.826 -1.763861,0 -4.186936,0.0161 -5.670973,1.10405 -1.749298,1.2827 -1.568958,3.95816 -1.183471,5.83861 0.1524,0.74337 0.368215,1.51892 0.891625,2.09381 0.999913,1.09812 2.650574,1.11167 4.015486,1.26492 2.133091,0.2396 4.120726,0.37422 6.265333,0.21336 1.900766,-0.14224 3.553544,-0.53256 4.572,-2.30209 1.530265,1.143 3.301068,1.27 5.164666,1.27 2.826173,0 5.678591,-0.29125 8.466671,-0.75523 1.34112,-0.22267 3.2893,-0.30395 4.38404,-1.18787 0.57573,-0.46397 0.66632,-1.17433 0.69596,-1.8669 0.0601,-1.41817 0.64008,-3.53652 -0.38947,-4.72609 -0.74761,-0.8636 -2.02269,-1.03971 -3.08187,-1.25137 -1.75598,-0.35137 -3.48064,-0.35899 -5.24933,-0.54187 0.51816,-2.73389 0.72813,-5.54651 1.16501,-8.29733 1.17433,-7.3804 2.44348,-14.7464 3.77698,-22.098 0.4335,-2.39184 0.7493,-4.8023 1.1684,-7.19667 0.12954,-0.74253 0.0754,-1.63661 0.29041,-2.34611 0.19812,-0.65194 1.11929,-1.29625 1.56295,-1.80256 0.96689,-1.1032 1.82202,-2.28684 2.40876,-3.64066 0.32174,-0.74338 0.4208,-1.5384 0.70189,-2.286 0.27178,-0.72475 0.83905,-1.27 1.08373,-2.032 1.9939,-6.21132 2.24282,-12.90253 1.27847,-19.304 -1.18787,-7.884079 -4.00897,-15.426524 -7.94597,-22.352003 -1.01346,-1.781725 -2.32664,-3.262545 -3.63812,-4.825577 -0.32428,-0.385826 -1.17856,-1.465072 -1.74922,-0.776986 -0.26585,0.32148 0.008,0.735838 0.17272,1.030563 0.49276,0.877231 0.64347,1.830409 0.878,2.794 1.02531,4.203023 2.78384,8.184557 3.91075,12.361333 0.59436,2.203196 0.89323,4.458208 1.35467,6.688667 1.66708,8.066193 2.60265,16.015803 1.23613,24.214663 -0.50461,3.02684 -0.98721,5.98509 -2.23689,8.80534 -0.93642,-0.17018 -1.92871,-0.116 -2.87867,-0.1922 -2.14715,-0.17272 -4.291754,-0.37338 -6.434668,-0.59012 -4.238582,-0.42926 -8.39961,-1.22259 -12.615333,-1.7924 -1.835658,-0.24892 -3.659462,-0.19642 -5.495797,-0.34628 -0.533146,-0.044 -1.462194,0.19896 -1.898735,-0.14224 -0.736261,-0.57574 -0.720005,-2.76437 -0.731943,-3.62543 -0.016,-1.15485 -0.20972,-2.31817 -0.163238,-3.47133 0.08467,-2.0972 0.544153,-4.13936 0.998898,-6.18067 0.707898,-3.17737 1.276434,-6.4571 2.243243,-9.56733 1.682919,-5.414183 4.016332,-10.658605 5.917014,-16.002003 1.491742,-4.193625 2.548128,-8.57885 4.210558,-12.7 1.338834,0.555075 2.597658,1.066969 4.064,1.168485 4.04622,0.280162 7.397331,-2.483443 8.974671,-6.079151 1.5621,0.74786 3.19447,0.315214 4.826,0.04115 1.05156,-0.1767 2.06925,-0.358564 2.4892,-1.48082 0.33189,-0.887561 0.27262,-1.945386 0.31242,-2.878328 0.0533,-1.269577 0.16425,-2.543387 0.26924,-3.81 0.55202,-6.661065 0.48768,-13.999549 -1.63153,-20.404666 -0.68072,-2.055758 -1.55109,-4.094303 -2.85073,-5.842 -3.66942,-2.98537 -15.779482,-2.624197 -19.817608,-1.133043 -2.2098,1.312547 -3.228317,3.523691 -4.236697,5.789709 -1.613831,3.626358 -2.245868,7.430262 -2.733548,11.345333 -0.335111,2.690707 -0.648885,5.414942 -0.672846,8.128 -0.02083,2.358644 -0.624078,5.363718 0.212429,7.619915 0.895942,2.416218 4.436194,1.432899 6.261777,2.464732 0.565742,0.319701 0.880533,1.40208 1.226904,1.93802 0.658538,1.018794 1.500632,1.809665 2.459652,2.539999 m -1.947334,-27.855332 -0.08467,0.08467 0.08467,-0.08467 m 2.624752,1.560237 c 3.205903,-0.423249 6.592908,0.402929 9.736581,0.930063 0.907627,0.152231 2.587418,-0.0442 3.197018,0.744813 1.59681,2.066883 1.05918,5.289042 0.95927,7.686886 -0.19558,4.668436 0.0618,9.372008 -2.50275,13.462 -1.253064,1.998896 -3.136051,3.716189 -5.548204,4.020651 -4.941401,0.623654 -9.33958,-3.611203 -9.842839,-8.423317 -0.122766,-1.174242 0.243163,-2.562098 0.419524,-3.725334 0.299212,-1.973664 0.51418,-3.933867 0.624078,-5.926666 0.121158,-2.198031 0.570653,-4.393269 1.127929,-6.519333 0.273135,-1.042078 0.626449,-2.090928 1.829393,-2.249763 m 1.696889,9.421368 c -0.845905,0.07239 -0.546439,2.509181 -0.443992,3.072384 0.05597,0.307848 0.205994,0.765302 0.604012,0.724662 0.317161,-0.03251 0.455253,-0.364067 0.475065,-0.64152 0.05444,-0.762 0.0232,-1.692063 -0.06841,-2.451862 -0.03717,-0.307763 -0.177377,-0.737023 -0.566674,-0.703664 m 5.963666,0.06113 c -0.309034,0.13208 -0.356447,0.517906 -0.372533,0.811022 -0.04233,0.786553 -0.178647,1.670812 -0.06943,2.452285 0.04741,0.340445 0.300566,0.762762 0.707813,0.583608 0.28956,-0.127508 0.34544,-0.470832 0.36322,-0.750909 0.04826,-0.777155 0.166793,-1.681734 0.06773,-2.452624 -0.04403,-0.339767 -0.265853,-0.827363 -0.696806,-0.643382 M 95.443278,67.76915 c -0.40894,0.09093 -0.75184,0.348318 -1.18364,0.364405 -0.370502,0.01372 -0.872914,-0.292608 -1.198626,-0.01998 -0.336127,0.281262 -0.09381,0.754464 0.204639,0.946404 0.432647,0.27813 1.022773,0.226314 1.501987,0.127677 0.453813,-0.09347 0.987213,-0.267801 1.241213,-0.688425 0.270933,-0.447378 -0.08975,-0.83566 -0.565573,-0.73008 m 7.537022,8.537193 c 2.1082,2.70527 3.62627,5.771812 5.03343,8.89 2.21996,4.920234 3.90568,9.904984 4.79468,15.239996 0.50461,3.02616 0.99652,6.24019 0.71712,9.31333 -0.25569,2.8023 -0.63161,5.54533 -1.24121,8.29734 -0.19304,0.86868 -0.31073,2.42062 -1.0033,3.048 -0.42926,0.38862 -1.35043,0.17864 -1.86605,0.0847 0.30988,-2.00067 0.48937,-4.00786 0.75861,-6.01133 0.18203,-1.35822 0.52493,-2.6836 0.50969,-4.064 -0.0195,-1.76335 -0.40386,-3.58275 -0.61722,-5.334 -0.6223,-5.12132 -1.66962,-10.304861 -2.86512,-15.324663 -0.81449,-3.419009 -2.13698,-6.640491 -3.15806,-9.990666 -0.37338,-1.225889 -1.19973,-2.855891 -1.06257,-4.148667 m -15.663329,0.169334 c -1.491573,4.770628 -3.454993,9.375902 -5.209879,14.054666 -1.285578,3.42773 -2.360252,6.923701 -3.45804,10.413996 -0.73533,2.33807 -1.797812,4.62068 -2.271945,7.02733 -0.480314,2.43781 -1.073404,4.81364 -1.398609,7.28134 -0.0817,0.61933 0.06452,2.34289 -0.342138,2.79069 -0.415121,0.45712 -2.062226,0.17264 -2.644055,0.17264 0,-4.87892 1.013968,-9.83234 2.123948,-14.56267 1.54813,-6.597473 3.528906,-13.436508 7.152639,-19.219326 1.688846,-2.695024 3.628475,-5.863759 6.048079,-7.958666 m -12.615333,42.756662 0.338667,5.92667 c -1.734312,-1.56718 -2.455334,-3.56532 -2.455334,-5.842 l 2.116667,-0.0847 m 35.983332,3.302 c -0.43688,1.73567 -1.24714,3.62458 -2.62467,4.826 l 0.8763,-3.47133 0.40386,-1.37838 1.34451,0.0237 m -4.74134,7.78933 -5.00126,29.972 -1.433399,10.07534 c -2.541694,0 -5.202005,0.25484 -7.704667,0.67733 -0.281601,-1.77038 -0.169333,-3.63135 -0.169333,-5.41867 0,-3.05646 0.03514,-6.09261 0.17653,-9.144 0.05351,-1.154 0.158157,-2.33002 0.339175,-3.47133 0.06325,-0.39793 0.258741,-1.04309 -0.145458,-1.32927 -0.486918,-0.34459 -0.82169,0.37423 -0.917109,0.7366 -0.314537,1.1955 -0.308779,2.50021 -0.407331,3.72534 -0.398442,4.95384 -0.248836,9.94664 0.02286,14.90133 -1.851406,-0.33782 -3.723132,-0.0906 -5.588,-0.0847 -0.500211,0.002 -1.609429,0.30142 -1.991191,-0.0999 -0.554567,-0.58166 -0.570061,-2.33934 -0.710523,-3.11743 -0.517398,-2.86766 -0.962406,-5.74463 -1.325287,-8.636 -1.32698,-10.57487 -1.730756,-21.27589 -4.185666,-31.66533 9.746996,0 19.26844,2.87866 29.040659,2.87866 m -22.651712,-1.37329 c -0.48023,0.25739 -0.504444,1.32334 -0.661586,1.79663 -0.545676,1.64168 -1.847003,3.04207 -2.319697,4.65582 -0.126153,0.43095 0.154094,0.89916 0.646938,0.72644 0.512657,-0.1795 0.799592,-0.88223 1.048935,-1.31826 0.75946,-1.32758 1.471338,-2.73643 1.824059,-4.23334 0.08153,-0.34628 0.369231,-2.11243 -0.538649,-1.62729 m 16.918092,2.45279 c -0.575733,0.28787 -0.462279,1.1938 -0.407246,1.7145 0.16764,1.59343 0.643466,3.15214 1.177706,4.65667 0.15325,0.4318 0.57828,1.76784 1.27593,1.37583 0.59605,-0.33443 0.0118,-1.37075 -0.15494,-1.79916 -0.72305,-1.85759 -0.99991,-3.55346 -1.20565,-5.49741 -0.0373,-0.35052 -0.32851,-0.62907 -0.6858,-0.45043 z"
         id="path4768"
         sodipodi:nodetypes="ccscccccccccsccccscccccccccccccccccccccccccccccsccccccccccccccccsccccccccccccccscscccccccccccccccccccccccccccccscccccccccscscccccccccccccccscccccccccccccccccccscccccs" /></g></g></svg>
