<?xml version="1.0" encoding="UTF-8" standalone="no"?>
<!-- Created with Inkscape (http://www.inkscape.org/) -->

<svg
   width="136.1321"
   height="144.18358"
   viewBox="0 0 136.1321 144.18358"
   version="1.1"
   id="svg5"
   xml:space="preserve"
   xmlns:inkscape="http://www.inkscape.org/namespaces/inkscape"
   xmlns:sodipodi="http://sodipodi.sourceforge.net/DTD/sodipodi-0.dtd"
   xmlns="http://www.w3.org/2000/svg"
   xmlns:svg="http://www.w3.org/2000/svg"><sodipodi:namedview
     id="namedview7"
     pagecolor="#ffffff"
     bordercolor="#000000"
     borderopacity="0.25"
     inkscape:showpageshadow="2"
     inkscape:pageopacity="0.0"
     inkscape:pagecheckerboard="0"
     inkscape:deskcolor="#d1d1d1"
     inkscape:document-units=""
     showgrid="false" /><defs
     id="defs2" /><g
     inkscape:label="Layer 1"
     inkscape:groupmode="layer"
     id="layer1"
     transform="translate(-15.040503,-28.178363)"><g
       style="fill:none"
       id="g327"
       transform="matrix(1.5023295,0,0,1.5023295,14.933402,40.476148)"
       inkscape:label="blob"
       inkscape:export-filename="decider.svg"
       inkscape:export-xdpi="96"
       inkscape:export-ydpi="96"><path
         opacity="0.689993"
         d="m 72.8975,12.5995 c 7.772,9.1384 7.0288,21.9294 5.2714,33.7952 C 76.4057,58.3001 73.8816,71.573 63.3103,77.3307 52.9213,82.9893 40.9429,76.9223 29.8966,72.6868 18.6969,68.3925 5.60747,64.8955 1.4971,53.6294 -2.76479,41.948 3.209,29.4434 10.4245,19.3156 17.4138,9.50523 27.2734,1.92365 39.2519,0.635917 51.7036,-0.702696 64.7851,3.06102 72.8975,12.5995 Z"
         fill=""
         id="path318"
         inkscape:export-filename="speaker.svg"
         inkscape:export-xdpi="96"
         inkscape:export-ydpi="96" /></g><g
       id="g4607"
       inkscape:label="ambassador"
       transform="translate(-37.295628,-7.2248074)"><path
         style="opacity:0.6;fill:#020202;stroke:none;stroke-width:0.0846667"
         d="m 166.18169,66.893872 c 1.37753,-0.04089 3.0988,0.864616 4.40267,1.322747 2.65599,0.933111 5.35855,1.759119 8.04333,2.603839 1.01516,0.319447 2.03539,0.626533 3.048,0.95614 0.42334,0.137753 0.92118,0.348319 1.31826,0.03294 0.78656,-0.625348 -0.57404,-1.755394 -0.94742,-2.290996 -1.04648,-1.503087 -2.1209,-2.987124 -3.17161,-4.487333 -0.35729,-0.510624 -1.13792,-1.1949 -1.13369,-1.86165 0.007,-1.008804 1.63322,-1.02252 2.3258,-1.148334 2.61027,-0.47388 5.1672,-1.239097 7.78933,-1.646682 -0.82381,-1.087967 -2.75675,-1.59258 -3.97933,-2.116667 -3.16738,-1.357884 -6.39657,-2.542286 -9.48267,-4.085167 -1.01685,-0.508508 -2.03369,-1.01837 -3.048,-1.531958 -0.34544,-0.175176 -0.82211,-0.554228 -1.2319,-0.409025 -0.38693,0.136737 -0.54271,0.593513 -0.65278,0.946912 -0.26501,0.847005 -0.51562,1.697228 -0.79671,2.539238 -0.66548,1.997964 -1.3081,4.005326 -1.94988,6.011333 -0.42333,1.32478 -1.27254,2.704677 -0.99314,4.143926 0.0703,0.363643 0.32682,0.676909 0.45974,1.020741 m -41.91,4.995333 c -2.08288,2.551176 -4.5637,4.850553 -6.37446,7.62 -1.60351,2.452454 -2.73914,5.44957 -3.9039,8.128 -1,2.299292 -2.10329,4.562009 -2.92329,6.942666 -0.73406,2.131399 -1.22724,4.340606 -1.78579,6.519325 -0.33401,1.30311 -0.79146,2.57108 -1.01041,3.89433 -0.16831,1.01676 -0.51198,2.02108 -0.58843,3.04834 -0.10863,1.45847 0.002,2.92591 -0.15943,4.40267 -0.17543,1.60951 -0.49623,3.23596 0.82838,4.48733 0.80476,-0.96943 1.90077,-0.74337 2.3053,0.508 0.5627,1.74075 -0.0676,3.77952 0.48176,5.51434 0.12497,0.39455 0.4522,0.65193 0.6466,1.00499 0.11802,0.21421 0.1137,0.50208 0.26958,0.69342 0.25213,0.30904 0.72144,0.0593 1.03809,0.0212 0.67861,-0.0804 1.44128,0.0906 2.11667,0.17018 1.89874,0.22437 4.02395,0.98213 5.92667,0.89831 0.6068,-0.0262 1.10261,-0.58166 1.64355,-0.61214 0.32402,-0.0178 0.61561,0.50123 0.89882,0.63416 0.44306,0.20828 0.92718,-0.0593 1.35229,-0.19643 0.19575,0.52239 0.49209,0.92795 1.10109,0.92879 0.40209,8.5e-4 0.7775,-0.15832 1.18491,-0.1397 1.69122,0.0754 3.28524,0.48091 4.99534,0.48091 0.73067,0 1.64422,0.23368 2.286,-0.16933 0.51985,0.47836 1.53077,0.38692 2.20133,0.42164 1.57057,0.0804 3.19955,0.19388 4.74133,0.50969 l 0.0847,-0.508 c 0.40132,0 0.88392,0.0542 1.24545,-0.15409 0.68834,-0.39624 0.51646,-0.92033 1.46388,-0.86191 0.12616,-1.36652 0.58928,-2.68817 0.73322,-4.064 0.2777,-2.65769 0.20658,-5.29759 0.38438,-7.95867 0.12616,-1.90076 0.51224,-3.77545 0.64347,-5.67266 0.0703,-1.01888 0.13631,-2.20709 -0.0203,-3.21734 -0.18881,-1.21598 -0.72475,-2.43882 0.0136,-3.61873 0.31157,-0.49691 0.87376,-0.42452 1.37837,-0.37169 1.00584,0.10541 1.6891,0.39929 2.62467,-0.17814 1.86182,-1.149514 3.06324,-2.961127 4.40266,-4.636765 0.6731,-0.841756 1.53586,-1.616794 2.09127,-2.54 0.73491,-1.221655 1.82541,-3.536611 1.65862,-4.995333 -0.0567,-0.499618 -0.36915,-0.965708 -0.52747,-1.439333 -0.24554,-0.736008 -0.37084,-1.522984 -0.50462,-2.286 -0.14308,-0.815594 0.0246,-2.688675 -0.78824,-3.120136 -1.33604,-0.709337 -2.36305,1.081108 -2.9608,2.104136 -0.83904,1.435438 -1.85335,3.87604 -3.71009,4.184904 -0.60113,0.09999 -1.11506,-0.208026 -1.69333,-0.290238 -0.5605,-0.793411 -1.28948,-1.43112 -1.77885,-2.286 -0.44111,-0.771482 -0.62823,-1.792901 -1.16925,-2.492925 -0.38015,-0.492421 -1.08542,-0.179747 -1.44441,-0.826431 -0.77385,-1.395984 -1.01346,-3.103457 -1.70265,-4.554643 -0.54271,-1.141222 -1.41054,-1.940222 -2.03538,-2.985178 -1.05156,-1.75878 -1.61121,-3.216317 -3.7228,-3.911515 -0.92117,-0.303276 -2.15476,-0.243925 -3.048,0.139361 -0.46786,0.20066 -0.88417,0.580306 -1.36618,0.729658 -0.62653,0.194056 -1.62882,0.525441 -2.27448,0.539326 -0.53154,0.01152 -0.97359,-0.197781 -1.524,-0.09237 -0.7344,0.140716 -1.60867,0.661924 -2.36593,0.495131 -0.5019,-0.11049 -0.90077,-0.61087 -1.35941,-0.841079 z"
         id="path4603" /><path
         style="fill:#040404;stroke:none;stroke-width:0.0846667"
         d="m 123.93303,72.312538 c -1.04098,0.525018 -1.78427,1.493182 -2.5185,2.370667 -1.2777,1.526794 -2.48098,3.096006 -3.60341,4.741333 -5.26974,7.724817 -7.89728,16.809551 -9.71076,25.908002 -0.5748,2.88434 -1.01473,5.86706 -1.17382,8.80533 -0.0505,0.93218 -0.32055,2.48073 0.66582,2.96333 -0.38058,2.39268 0.7195,4.5593 2.21793,6.35 0.43942,0.52494 1.09271,0.9161 1.47616,1.47066 0.76183,1.10152 1.17306,2.55524 1.3915,3.86334 1.47921,8.86037 2.0414,17.84096 3.07077,26.75467 0.34671,3.00228 0.78783,5.9944 1.29126,8.97467 0.25162,1.48928 0.67437,2.98111 0.79705,4.48733 -1.76505,0 -4.18541,0.0152 -5.67098,1.10405 -1.74929,1.2827 -1.56895,3.95817 -1.18347,5.83862 0.1524,0.74337 0.36822,1.51892 0.89163,2.0938 0.99991,1.09813 2.65057,1.11168 4.01548,1.26492 2.13504,0.23961 4.11844,0.37423 6.26534,0.21336 1.90076,-0.14224 3.55354,-0.53255 4.572,-2.30208 1.53026,1.143 3.30107,1.27 5.16466,1.27 2.82787,0 5.6769,-0.29041 8.46667,-0.75523 1.34112,-0.22267 3.2893,-0.30395 4.38404,-1.18787 0.57573,-0.46398 0.66633,-1.17433 0.69596,-1.8669 0.0601,-1.41817 0.64008,-3.53653 -0.38947,-4.7261 -0.76538,-0.88392 -2.08364,-1.0524 -3.16653,-1.2683 -1.72635,-0.3446 -3.42646,-0.34544 -5.16467,-0.52494 0.37,-1.95241 0.50038,-3.9607 0.8001,-5.92666 1.02955,-6.74116 2.01592,-13.54836 3.34857,-20.23534 0.61637,-3.09372 1.0668,-6.20691 1.60274,-9.31333 0.27432,-1.59343 0.93218,-3.17923 0.59859,-4.826 0.81111,-0.24299 1.2192,-0.90932 1.44357,-1.69333 0.42164,-1.47659 0.62484,-3.12674 0.74168,-4.65667 0.22098,-2.90322 0.23114,-5.81829 0.46228,-8.72067 0.30734,-3.85267 0.8001,-7.64675 0.40047,-11.51466 1.04564,0.44153 2.16239,0.82787 3.302,0.46363 1.34536,-0.4301 2.37998,-1.70061 3.24612,-2.749632 1.81272,-2.196338 3.48404,-4.541774 5.13758,-6.858 0.89916,-1.258993 2.31817,-2.538137 2.87697,-3.979333 1.58242,-0.0091 1.91601,-1.883664 2.20133,-3.217334 3.10896,-0.196596 4.10634,-3.17246 3.6085,-5.841999 -0.14986,-0.802556 -0.87207,-1.644058 -0.69766,-2.455334 0.65448,-3.046476 2.58742,-5.737606 3.18516,-8.805333 3.7973,1.457029 7.75462,2.678515 11.59934,4.032081 0.89492,0.315129 1.79324,0.692827 2.70933,0.940392 0.3556,0.09601 0.80941,0.125561 1.00076,-0.260688 0.47583,-0.958258 -0.62145,-2.079583 -1.13877,-2.764452 -1.67555,-2.215472 -3.64151,-4.236296 -5.11132,-6.603999 2.61789,-0.445008 5.2688,-0.805011 7.874,-1.321054 0.60536,-0.119888 2.2335,-0.182626 2.50952,-0.828718 0.20997,-0.490474 -0.29126,-0.958426 -0.6494,-1.208616 -0.91863,-0.643044 -2.1209,-0.916432 -3.13012,-1.401318 -3.6593,-1.758188 -7.4803,-3.255349 -11.176,-4.945973 -0.89493,-0.409533 -1.79917,-0.814663 -2.70934,-1.190329 -0.39116,-0.161374 -0.84328,-0.347641 -1.25137,-0.132164 -0.65617,0.346964 -0.74507,1.15299 -0.88561,1.799505 -0.30057,1.380151 -0.77216,2.715768 -1.18534,4.064 -1.7636,5.743533 -3.96494,11.412812 -5.31368,17.272 -1.49013,-0.547878 -2.97518,-0.0784 -3.94885,1.188296 -0.41825,0.544407 -0.60706,1.181439 -0.9652,1.752346 -0.29125,0.464143 -0.84921,0.656336 -1.14808,1.127083 -1.35551,2.138765 -2.37405,4.38133 -3.91837,6.430941 -0.61045,0.810514 -1.34705,2.137071 -2.38083,2.446951 -0.60113,0.180256 -1.04733,-0.23241 -1.39023,-0.672761 -0.69172,-0.888577 -1.22428,-1.847427 -1.83049,-2.79019 -2.25806,-3.512312 -4.41452,-7.099215 -6.71407,-10.583333 -0.56557,-0.857081 -1.13538,-1.710859 -1.74159,-2.54 -0.23622,-0.323173 -0.65193,-0.742865 -0.57658,-1.180592 0.0855,-0.496401 0.59267,-0.855726 0.72813,-1.359747 0.26332,-0.976376 0.27094,-2.044446 0.53002,-3.047661 0.36322,-1.406059 1.0033,-2.778421 1.48844,-4.148412 0.3539,-0.998813 1.55871,-1.211496 1.46304,-2.370921 0.89069,-0.486495 0.8365,-1.190159 1.18279,-2.032 0.28787,-0.700871 0.75015,-1.308015 1.01685,-2.032 0.16002,-0.433578 0.10075,-0.907119 0.26077,-1.331637 0.15071,-0.398357 0.45297,-0.715518 0.59436,-1.123866 0.43434,-1.256707 0.70189,-3.06942 0.6477,-4.402497 -0.0212,-0.51164 -0.35306,-0.934974 -0.37592,-1.439333 -0.0449,-0.968841 0.0593,-2.018115 -0.26077,-2.962571 -0.16172,-0.478452 -0.57743,-0.760053 -0.80603,-1.193631 -0.20997,-0.399203 -0.18796,-0.867664 -0.43011,-1.259755 -0.50122,-0.811107 -1.24544,-1.354667 -1.93463,-1.966722 -0.27093,-0.239946 -0.4064,-0.590381 -0.69257,-0.818558 -0.34714,-0.27796 -0.81788,-0.266276 -1.16586,-0.52959 -1.016,-0.770466 -2.04216,-1.326896 -3.17839,-1.929553 -0.33359,-0.176953 -0.59097,-0.470323 -0.95504,-0.594106 -0.45212,-0.15367 -0.90424,0.04919 -1.35382,-0.05165 -0.35983,-0.08069 -0.64685,-0.342561 -1.016,-0.40115 -1.01134,-0.160325 -2.05317,0.06553 -3.048,0.14969 -0.34205,0.02896 -0.67268,-0.107442 -1.016,-0.06375 -1.43502,0.182288 -2.92989,0.776309 -4.318,1.225974 -0.41791,0.135382 -0.86292,0.0453 -1.27,0.230716 -0.40682,0.185336 -0.71298,0.525188 -1.10067,0.740749 -0.8669,0.482092 -1.99398,0.527304 -2.75209,1.24714 -1.17898,1.119632 -1.70959,2.454741 -2.44026,3.858768 -0.39573,0.760476 -1.00482,1.608497 -1.18618,2.455333 -0.0782,0.364829 0.0239,0.736177 -0.0439,1.100667 -0.0765,0.411819 -0.33849,0.759714 -0.36711,1.185333 -0.0249,0.370163 0.1353,0.732282 0.0849,1.100667 -0.0574,0.4191 -0.35501,0.752941 -0.38151,1.185333 -0.0261,0.424942 0.21531,0.774192 0.24427,1.185333 0.0284,0.402506 -0.13031,0.777579 -0.0459,1.185334 0.0649,0.313351 0.26924,0.60452 0.25874,0.931333 -0.0209,0.651256 -0.50707,1.083818 -0.25824,1.777577 0.16798,0.468376 0.5964,0.716449 0.80705,1.142915 0.21996,0.445431 0.0411,0.946912 0.33409,1.395476 0.36204,0.554313 0.96546,0.795697 1.20074,1.443821 0.67006,1.845902 1.50038,3.780028 2.00601,5.670211 0.201,0.751247 -0.0586,1.5748 0.24994,2.286 0.87647,2.020739 2.37608,3.711956 3.72872,5.418666 m -1.43934,-28.278666 -0.0847,0.08467 0.0847,-0.08467 m 15.494,14.732 c 1.34282,0.06519 1.18449,1.053338 1.0939,2.116667 -0.15833,1.843447 -0.47668,3.894074 -1.43256,5.503333 -0.34968,-0.208365 -0.98214,-0.395647 -1.20142,-0.75057 -0.4953,-0.804672 -0.38185,-1.748536 -1.34282,-2.340271 -0.646,-0.398272 -1.71873,-1.118955 -2.45186,-1.274234 -0.79231,-0.16764 -1.76259,0.284226 -2.53924,0.40005 -0.74693,0.111506 -1.52569,-0.01456 -2.286,0.140208 -1.00474,0.204555 -1.84759,0.75565 -2.63982,1.355514 -0.67191,0.508762 -1.25594,0.987467 -1.33951,1.876636 -0.6814,-0.348826 -1.13157,-0.376682 -1.86267,-0.169333 -1.49275,-1.59893 -1.02446,-3.659039 -1.1082,-5.672667 -0.0351,-0.843703 -0.25738,-1.868762 -0.0246,-2.696294 0.17772,-0.631698 0.99958,-0.657691 1.16603,-1.368722 0.37719,-1.611291 0.27212,-3.35534 0.59377,-4.994317 0.23427,-1.1938 0.46685,-2.39268 0.82855,-3.556 0.17424,-0.560493 0.39802,-1.208616 0.93565,-1.519682 0.78715,-0.455422 1.98543,-0.258826 2.85818,-0.258318 2.71737,0.0016 5.36922,0.633561 8.04333,1.034796 1.51807,0.227669 2.66023,0.009 3.26813,1.674538 0.41318,1.132755 0.13039,2.298699 0.0423,3.471333 -0.17526,2.343065 -0.47244,4.681304 -0.60114,7.027333 m 47.15934,1.185333 v 0.08467 c -2.20896,0.505714 -4.3815,1.16078 -6.604,1.608751 -0.57912,0.116671 -1.95326,0.279824 -2.16493,0.952246 -0.21082,0.672254 1.08204,1.847766 1.45457,2.34967 1.61883,2.183553 3.67115,4.135289 5.11302,6.434666 -1.67809,-0.358987 -3.30877,-1.136481 -4.91066,-1.738461 -2.40284,-0.902716 -4.83616,-1.739307 -7.28134,-2.520696 -0.99398,-0.317669 -1.98712,-0.624247 -2.96333,-0.996188 -0.34121,-0.130217 -0.89493,-0.258656 -1.05156,-0.632798 -0.32597,-0.780711 0.5588,-2.476754 0.78655,-3.255857 0.87884,-3.005497 1.58666,-6.080844 2.80501,-8.974666 l 14.81667,6.688666 M 126.74355,55.01963 c -0.76716,0.199051 -0.47828,2.485221 -0.37228,3.068235 0.059,0.324951 0.24477,0.833713 0.67657,0.710354 0.3076,-0.08788 0.40031,-0.429091 0.40488,-0.710692 0.0124,-0.774531 0.0439,-1.688084 -0.0819,-2.451693 -0.0505,-0.306747 -0.24342,-0.715772 -0.6273,-0.616204 m 6.03572,0.05698 c -0.30963,0.13208 -0.35696,0.517906 -0.37279,0.811022 -0.0428,0.790024 -0.17983,1.666409 -0.0696,2.452285 0.0478,0.34036 0.3009,0.762762 0.70755,0.583607 0.2899,-0.127508 0.34578,-0.470831 0.36356,-0.750908 0.0483,-0.780542 0.16849,-1.677586 0.0677,-2.452624 -0.044,-0.339598 -0.26501,-0.827448 -0.69647,-0.643382 m 1.82169,12.663931 c -0.93896,0.682075 -1.44188,0.365337 -2.45534,0.569384 -0.4439,0.08941 -0.81915,0.397086 -1.27,0.455252 -0.43036,0.05546 -0.83608,-0.176868 -1.27,-0.148082 -0.33282,0.0221 -0.66598,0.221658 -0.99932,0.18432 -0.36711,-0.04115 -0.63381,-0.393362 -0.94953,-0.555668 -0.43316,-0.222758 -0.89256,-0.159258 -1.35315,-0.08187 -0.10718,-0.542968 -0.35323,-0.902462 -0.762,-1.27 0.4175,-0.366438 0.78901,-0.847598 1.2728,-1.125389 1.08195,-0.621454 2.28727,-0.593514 3.46854,-0.789856 0.94369,-0.156802 1.8376,-0.379052 2.69841,0.205063 0.73059,0.495639 1.16831,1.799844 1.61959,2.556848 m -3.13411,-2.102527 c -0.40911,0.09093 -0.75209,0.348319 -1.18389,0.364406 -0.3705,0.01372 -0.87292,-0.292608 -1.19863,-0.01998 -0.30353,0.254 -0.13005,0.691134 0.13293,0.896197 0.42375,0.330623 1.07763,0.292269 1.5737,0.191431 0.45246,-0.09195 0.98967,-0.285073 1.24155,-0.701887 0.27034,-0.447463 -0.0903,-0.835744 -0.56566,-0.730165 m 36.40811,1.679194 c -0.72983,2.629916 -1.91093,5.226304 -2.86258,7.789333 -0.37338,1.006179 -0.4318,2.309792 -1.62476,2.624667 -0.55033,-1.514433 -0.044,-2.687743 0.45212,-4.148667 0.7747,-2.278295 1.64592,-4.529666 2.51122,-6.773333 l 1.524,0.508 m -31.242,4.318 c 1.5096,2.157561 2.73473,4.456091 4.12242,6.688667 1.4605,2.347891 3.0717,4.597738 4.54067,6.942666 0.72644,1.16078 1.52993,2.421805 2.51545,3.378115 0.4318,0.418592 0.97028,0.886037 1.60612,0.89408 0.91694,0.0116 1.98798,-0.61451 2.61705,-1.233762 1.51723,-1.494198 2.73135,-3.668607 3.81762,-5.493766 h 0.0847 c 0.19558,1.445344 0.45635,2.730838 1.06256,4.064 0.26755,0.589364 1.07781,1.483021 1.07188,2.116666 -0.008,0.940986 -1.32503,2.358136 -1.82795,3.132667 -1.5494,2.389293 -3.25289,4.880779 -5.22478,6.942666 -1.03717,1.083989 -2.07264,1.997629 -3.63305,1.439589 -1.23782,-0.44264 -2.15476,-1.503681 -2.90322,-2.540255 -1.58834,-2.201249 -2.74489,-4.806611 -4.02505,-7.196667 -0.45381,-0.847682 -0.80179,-1.795949 -1.29625,-2.61366 -0.17272,-0.285072 -0.54271,-0.565234 -0.81449,-0.213106 -0.23707,0.305986 -0.0542,0.736516 0.0694,1.048766 0.30988,0.783082 0.69088,1.538648 1.07696,2.286 1.1303,2.182707 2.21488,4.434502 3.51959,6.519333 0.56727,0.907458 1.61036,1.736852 2.01676,2.706539 0.19897,0.47405 0.0703,1.18932 0.0703,1.69613 8.5e-4,1.10177 0.0847,2.19846 0.0847,3.302 -8.5e-4,2.14274 -0.3556,4.30327 -0.56303,6.43467 -0.25316,2.60519 -0.36746,5.25864 -0.44789,7.874 -0.0466,1.48928 -0.26247,2.93116 -0.47667,4.40266 -0.0991,0.67818 -0.14055,1.5875 -0.52494,2.1734 -0.34036,0.51985 -1.04394,0.68834 -1.62814,0.69765 -1.4461,0.022 -2.95994,-0.2286 -4.40266,-0.35306 -3.56024,-0.30903 -7.13156,-0.65617 -10.668,-1.17602 -2.40293,-0.35391 -4.78011,-0.88138 -7.19667,-1.143 -1.63457,-0.17695 -3.27067,-0.19981 -4.91067,-0.26839 -0.86343,-0.0364 -1.66852,0.3031 -1.92396,-0.77809 -1.23021,-5.20361 -0.0645,-10.41569 1.10439,-15.49315 0.51833,-2.25163 0.92524,-4.56624 1.61409,-6.77334 1.80365,-5.778922 4.26491,-11.396386 6.29471,-17.102665 1.26526,-3.5571 2.74523,-7.302584 3.49411,-11.006666 l 4.318,1.799336 1.60866,-0.21607 1.35467,-0.141901 1.524,-0.981541 2.70933,-1.814491 h 0.16934 m -13.29267,2.709333 c -1.46482,4.6852 -3.39945,9.203436 -5.11674,13.800667 -1.31318,3.51519 -2.42596,7.090325 -3.55118,10.667999 -0.73533,2.338069 -1.79781,4.620689 -2.27194,7.027339 -0.49158,2.49495 -1.07307,4.92904 -1.42181,7.45066 -0.0795,0.57404 0.0627,2.2733 -0.36796,2.656 -0.46584,0.41402 -1.99483,0.138 -2.59504,0.138 0,-4.96527 1.04301,-10.00709 2.18855,-14.81666 1.55186,-6.51502 3.50563,-13.24983 7.08804,-18.965338 1.6891,-2.694855 3.62865,-5.863929 6.04808,-7.958667 m 37.42267,5.672667 c -0.50631,1.643211 -1.12607,3.240447 -1.55279,4.910666 -0.20743,0.811784 -0.45297,1.623738 0.0288,2.370667 v 0.08467 l -0.254,0.423333 c -0.4953,-0.362797 -0.72814,-0.900684 -0.99399,-1.439333 -0.70781,-1.43129 -1.27762,-3.561334 -0.90339,-5.164667 0.16171,-0.695028 0.70781,-1.345522 0.95927,-2.032 0.44958,-1.227328 1.2065,-3.049608 2.80077,-3.003211 1.07104,0.03107 1.91262,1.885188 0.83312,2.479971 -1.03886,0.57277 -1.60866,-0.577003 -2.51629,-0.460248 -0.5334,0.0685 -0.5207,0.634323 -0.22013,0.945473 0.47328,0.490559 1.17348,0.728049 1.81864,0.884682 m 3.72533,-1.441365 c 0.90001,-0.260604 0.99991,0.824314 1.01346,1.441365 0.0263,1.236387 -0.22352,3.168988 -1.7018,3.559302 -0.77893,0.205486 -1.18618,-0.731012 -1.18195,-1.357969 0.007,-1.072811 0.71459,-3.30835 1.87029,-3.642698 m -2.45533,1.272032 c -0.41318,1.749382 -1.20396,3.04148 -0.254,4.741333 v 0.08467 l -0.762,1.778 -0.93134,-0.338666 c 0.63416,-2.026836 0.86276,-4.414859 1.94734,-6.265333 m -51.39267,37.253324 0.17662,3.21734 0.24671,2.70933 c -1.73084,-1.56379 -2.45533,-3.56955 -2.45533,-5.842 l 2.032,-0.0847 m 31.32667,11.09134 -5.00126,29.972 -1.43341,10.07533 c -2.54195,0 -5.202,0.25485 -7.70467,0.67733 -0.29032,-1.82456 -0.16933,-3.74565 -0.16933,-5.588 0,-2.99889 0.004,-5.9817 0.18051,-8.97466 0.0697,-1.18449 0.16112,-2.38422 0.34891,-3.556 0.0646,-0.40302 0.23038,-1.03717 -0.20853,-1.2971 -0.4782,-0.28448 -0.77868,0.44958 -0.86775,0.7891 -0.30582,1.16501 -0.31547,2.44517 -0.40081,3.64066 -0.35653,4.99364 -0.25756,9.99152 0.0163,14.986 -1.85141,-0.33782 -3.72313,-0.0906 -5.588,-0.0847 -0.50021,0.002 -1.60943,0.30141 -1.99119,-0.0999 -0.55457,-0.58166 -0.57006,-2.33934 -0.71053,-3.11743 -0.51731,-2.86681 -0.96249,-5.74548 -1.32528,-8.636 -1.32707,-10.57486 -1.73067,-21.27588 -4.18567,-31.66533 9.74725,0 19.26886,2.87867 29.04067,2.87867 m -22.6513,-1.3733 c -0.48057,0.25654 -0.50495,1.32419 -0.66201,1.79663 -0.54567,1.64169 -1.847,3.04207 -2.3197,4.65582 -0.12674,0.43265 0.15494,0.89831 0.64821,0.72644 0.5207,-0.18034 0.79697,-0.8763 1.04809,-1.31826 0.7565,-1.33011 1.47049,-2.73473 1.82364,-4.23333 0.0825,-0.34968 0.37981,-2.11582 -0.53823,-1.6273 m 16.93037,2.42232 c -0.57573,0.23791 -0.47498,1.17009 -0.42841,1.66031 0.15324,1.62221 0.64346,3.21225 1.18618,4.74133 0.15917,0.44789 0.519,1.65016 1.20904,1.40632 0.68326,-0.2413 0.10498,-1.33689 -0.055,-1.74498 -0.71289,-1.81695 -1.15908,-3.56108 -1.23444,-5.5008 -0.0144,-0.35983 -0.27262,-0.72898 -0.67733,-0.56218 z"
         id="path4601" /></g></g></svg>
