<?xml version="1.0" encoding="UTF-8" standalone="no"?>
<!-- Created with Inkscape (http://www.inkscape.org/) -->

<svg
   width="127.36977"
   height="119.06253"
   viewBox="0 0 127.36977 119.06253"
   version="1.1"
   id="svg5"
   xml:space="preserve"
   xmlns:inkscape="http://www.inkscape.org/namespaces/inkscape"
   xmlns:sodipodi="http://sodipodi.sourceforge.net/DTD/sodipodi-0.dtd"
   xmlns="http://www.w3.org/2000/svg"
   xmlns:svg="http://www.w3.org/2000/svg"><sodipodi:namedview
     id="namedview7"
     pagecolor="#ffffff"
     bordercolor="#000000"
     borderopacity="0.25"
     inkscape:showpageshadow="2"
     inkscape:pageopacity="0.0"
     inkscape:pagecheckerboard="0"
     inkscape:deskcolor="#d1d1d1"
     inkscape:document-units=""
     showgrid="false" /><defs
     id="defs2" /><g
     inkscape:label="Layer 1"
     inkscape:groupmode="layer"
     id="layer1"
     transform="translate(-15.040503,-41.038054)"><g
       style="fill:none"
       id="g327"
       transform="matrix(1.5023295,0,0,1.5023295,14.933402,40.476148)"
       inkscape:label="blob"
       inkscape:export-filename="decider.svg"
       inkscape:export-xdpi="96"
       inkscape:export-ydpi="96"><path
         opacity="0.689993"
         d="m 72.8975,12.5995 c 7.772,9.1384 7.0288,21.9294 5.2714,33.7952 C 76.4057,58.3001 73.8816,71.573 63.3103,77.3307 52.9213,82.9893 40.9429,76.9223 29.8966,72.6868 18.6969,68.3925 5.60747,64.8955 1.4971,53.6294 -2.76479,41.948 3.209,29.4434 10.4245,19.3156 17.4138,9.50523 27.2734,1.92365 39.2519,0.635917 51.7036,-0.702696 64.7851,3.06102 72.8975,12.5995 Z"
         fill=""
         id="path318"
         inkscape:export-filename="speaker.svg"
         inkscape:export-xdpi="96"
         inkscape:export-ydpi="96" /></g><g
       id="g4446"
       inkscape:label="bookworm"
       transform="translate(-37.917235,15.052571)"><path
         style="opacity:0.6;fill:#060606;stroke:none;stroke-width:0.0846667"
         d="m 124.10927,73.809286 c -2.20759,0.672084 -1.0541,3.979503 1.09974,3.293787 2.12539,-0.676571 1.03005,-3.942079 -1.09974,-3.293787 m 7.02725,3.541353 c -2.27152,0.559392 -1.302,4.22529 0.93134,3.63474 2.25467,-0.596223 1.35974,-4.198959 -0.93134,-3.63474 m -12.27666,2.702729 c -2.25916,0.380238 -1.64533,3.873923 0.59266,3.443732 2.18246,-0.419608 1.59529,-3.811947 -0.59266,-3.443732 m 12.27666,5.185918 c -2.16628,0.6604 -1.048,3.974846 1.10067,3.293787 2.13021,-0.675301 1.03209,-3.943773 -1.10067,-3.293787 m -7.95866,1.248918 c -2.26721,0.376597 -1.65168,3.874939 0.59266,3.443563 2.18347,-0.419778 1.5881,-3.805767 -0.59266,-3.443563 m -11.34534,0.518583 c -2.26009,0.13733 -2.00109,3.588597 0.254,3.465322 2.42663,-0.132757 2.10676,-3.608747 -0.254,-3.465322 m 30.90334,5.683165 c -2.22589,0.677334 -1.08035,4.008628 1.09982,3.291925 2.09296,-0.688086 0.98128,-3.925062 -1.09982,-3.291925 m -21.75934,1.258147 c -2.43323,0.254593 -1.76877,3.791797 0.59267,3.544147 2.41833,-0.253662 1.70172,-3.784262 -0.59267,-3.544147 m 9.906,0.58166 c -2.30784,0.421301 -1.53526,4.082965 0.762,3.613827 2.21658,-0.452543 1.397,-4.00795 -0.762,-3.613827 m -26.41591,1.54686 c -2.28736,0.696383 -0.98137,4.005751 1.18508,3.382518 2.32562,-0.668951 1.02159,-4.054263 -1.18508,-3.382518 m 11.684,4.379641 c -2.47337,0.44577 -1.90314,4.38065 0.67725,3.96019 2.36186,-0.38481 1.62119,-4.37438 -0.67725,-3.96019 m 9.22858,0.34704 c -2.39234,0.58886 -1.14478,4.08187 1.10058,3.50173 2.33596,-0.60342 1.09491,-4.04207 -1.10058,-3.50173 m 21.082,0.76023 c -2.22758,0.16798 -1.97697,3.59892 0.254,3.46989 2.26991,-0.13115 2.00237,-3.64007 -0.254,-3.46989 m -11.09133,2.71077 c -2.21488,0.55355 -1.54178,3.96274 0.762,3.42087 2.30801,-0.54271 1.54432,-3.9972 -0.762,-3.42087 m -31.496,0.83295 c -2.41072,0.32038 -1.86199,3.84691 0.508,3.53195 2.38396,-0.3175 1.84895,-3.84522 -0.508,-3.53195 m 19.812,2.46515 c -2.28431,0.50462 -1.77978,4.28498 0.59249,3.75158 2.20701,-0.49614 1.84955,-4.29175 -0.59249,-3.75158 m -11.684,3.23766 c 0.91812,-0.14563 2.33248,0.30226 3.15569,-0.0423 0.70079,-0.29379 0.11269,-1.54178 -0.22157,-1.87621 -1.43705,-1.43679 -3.27228,0.24299 -2.93412,1.91855 m 18.20333,2.52391 c -0.87511,0.21759 -1.38354,1.09305 -1.25671,1.96342 0.0743,0.50969 0.3306,0.92072 0.94511,0.81997 0.54254,-0.0889 1.98421,-0.63455 2.14931,-1.18573 0.34036,-1.13538 -0.96649,-1.81441 -1.83771,-1.59766 m 5.75733,3.3004 c -0.8763,0.21082 -1.56633,0.36905 -1.49436,1.28769 0.0533,0.68749 0.60183,1.27288 1.38753,1.10609 0.59944,-0.12785 1.85839,-0.57215 2.10138,-1.16905 0.52578,-1.29116 0.41681,-2.03912 -0.74821,-1.75887 m -14.285,4.36183 c -0.20219,0.71035 -0.22987,1.42748 0.29743,2.01337 0.92439,1.02531 2.61806,0.59267 2.9199,-0.74337 z"
         id="path4442"
         sodipodi:nodetypes="cccccccccccccccccccccccccccccccccccccccccccccccccccccscccccccccccc" /><path
         style="fill:#050505;stroke:none;stroke-width:0.0846667"
         d="m 119.79119,39.43606 c -3.62204,1.355767 -5.80839,5.282776 -6.31131,8.974666 -0.10939,0.802979 -0.41955,1.304162 -0.4811,2.105363 -0.0528,0.685546 0.30999,1.602614 0.2807,2.297304 -0.25485,6.0325 0.49022,14.013349 5.91904,17.779999 v 0.08467 c -2.46617,1.974173 -4.0612,5.051637 -5.97298,7.535333 -1.3942,1.811274 -2.65514,3.735324 -3.99482,5.588 -3.32359,4.596299 -6.76292,9.123341 -8.77003,14.478 -0.79248,2.114205 -1.70688,4.481065 -1.155023,6.773325 0.309965,1.28694 1.273983,2.41724 2.028193,3.47134 -1.445009,0.26416 -2.937343,0.55033 -4.402669,0.65955 -3.129788,0.23537 -6.915997,0.0644 -9.394868,2.40284 -3.371849,3.18177 -0.24384,8.81211 2.221569,11.50027 0.587079,0.64008 1.212173,1.25476 1.839299,1.85505 4.957572,4.74811 11.168039,7.92903 17.610669,10.14053 2.37913,0.81703 4.71788,1.58834 7.19666,2.04385 2.38608,0.43773 4.92532,1.07442 7.366,0.99568 1.57751,-0.0508 3.09034,0.43942 4.65667,0.65109 2.52222,0.3412 5.27897,0.44365 7.78933,-0.003 3.02768,-0.53848 4.33832,-2.99974 3.048,-5.77681 4.5974,-1.82118 9.04071,-4.09617 13.208,-6.74962 1.35552,-0.8636 2.70087,-1.75006 3.97934,-2.72627 0.62907,-0.48006 1.28185,-1.24883 2.032,-1.52315 0.85344,-0.31242 2.2225,-0.17611 3.13266,-0.17696 2.06164,-0.003 4.21302,0.0635 6.26534,-0.12276 2.51121,-0.2286 5.09862,-0.3302 7.62,-0.3827 0.83396,-0.0169 2.29108,0.29718 2.54,-0.76454 l -1.70773,-0.99822 -5.15027,-0.36745 -10.49867,-0.32766 c 0.67395,-0.76285 2.28092,-0.41233 3.21733,-0.42503 2.93455,-0.0398 5.86825,-0.16764 8.80534,-0.16764 0.9906,0 3.59071,0.44027 3.89466,-0.762 l -15.57866,0.254 c 0.0753,-1.38684 3.02429,-0.92879 4.064,-0.93133 2.53915,-0.007 5.07661,-0.072 7.62,0.005 1.92955,0.0584 3.6703,0.34629 5.50333,-0.34375 v -0.0847 c -3.92176,-0.0313 -7.83844,-0.33867 -11.76867,-0.33867 -1.77461,0 -3.76089,-0.0999 -5.50333,0.254 l -0.16933,-0.508 c 4.85902,-0.2667 9.70872,0.11091 14.56266,0.25908 1.04394,0.0313 2.08873,0.14901 3.13267,0.16256 0.33189,0.004 0.89577,0.0957 1.17009,-0.13631 0.26501,-0.22352 0.18373,-0.74084 0.18458,-1.04733 l -10.58334,-0.41825 -9.05933,-0.005 v -0.0847 c 4.96739,-0.51308 10.18201,-0.32597 15.15533,0.0618 1.14216,0.0889 2.3258,0.17441 3.47134,0.18542 0.24214,0.003 1.05664,-0.0246 0.94826,-0.45805 -0.0821,-0.3302 -0.91609,-0.59521 -1.20226,-0.67395 -1.27678,-0.35306 -2.82872,-0.21759 -4.14867,-0.28871 -3.55177,-0.19219 -7.11031,-0.18119 -10.668,-0.18119 -1.3462,0 -3.10303,0.47668 -4.40267,0.15833 -0.59859,-0.14732 -1.10659,-0.62399 -1.69333,-0.83566 v -0.0847 l 20.574,0.33867 v -0.67733 c -5.41867,0 -10.8331,-0.254 -16.256,-0.254 -1.26915,0 -2.54085,0.0186 -3.81,-8.5e-4 -0.49191,-0.008 -1.09474,-0.28363 -1.35467,0.25485 l -3.13266,-0.84667 c 1.29794,-2.02269 4.84716,-1.524 6.94266,-1.524 6.51087,0 12.97432,0.93133 19.47334,0.93133 v -1.18533 l -10.414,-0.59267 v -0.0847 l 10.49866,0.33866 v -1.18533 c -6.17474,-0.006 -12.35879,-0.42333 -18.542,-0.42333 -1.72127,0 -3.44085,-0.16256 -5.16466,-0.0737 -0.69596,0.0364 -1.95919,0.28786 -2.59165,-0.0262 -0.42418,-0.20997 -0.49022,-0.83566 -0.49953,-1.25476 -0.0246,-1.16306 0.57488,-2.34721 1.65184,-2.84819 1.43256,-0.66632 3.048,-0.52484 4.572,-0.46134 1.66116,0.0691 3.33248,0.0922 4.99534,0.0922 v 0.0847 c -2.31733,0 -4.6355,0.15816 -6.94267,0.37686 -0.54864,0.0519 -1.15316,0.0297 -1.68233,0.19591 -0.16086,0.0506 -0.49106,0.21548 -0.35136,0.43782 0.21674,0.34654 1.19634,0.0987 1.52569,0.0686 1.48929,-0.13623 2.99297,-0.24723 4.48733,-0.30963 4.06316,-0.1695 8.12208,-0.17687 12.192,-0.17687 2.02184,0 4.27482,-0.2766 6.26534,0.0847 l 0.16933,-1.60867 c -5.95291,-0.002 -11.90667,-0.33867 -17.86467,-0.33867 -2.02014,0 -4.27143,-0.38497 -6.26533,-0.10515 -2.38591,0.33486 -4.08686,2.35678 -3.87011,4.76182 0.066,0.73321 0.25908,1.56633 0.86698,2.04724 0.43688,0.34544 1.05156,0.2286 1.5638,0.18457 0.94403,-0.0821 1.94056,-0.20066 2.87866,-0.0305 v 0.0847 c -2.07094,-0.10922 -4.25788,0.19643 -5.08,2.37067 l -2.794,-0.508 c 0.55626,-1.70434 1.28948,-3.42816 1.26831,-5.24934 -0.033,-2.86782 -1.53501,-5.572752 -2.67631,-8.127992 -1.12861,-2.525014 -2.14038,-5.065437 -3.5577,-7.450666 -2.10735,-3.545756 -4.7608,-6.763089 -7.08914,-10.16 -1.30217,-1.899666 -2.44517,-3.898646 -3.67876,-5.842 -0.57404,-0.905171 -1.49014,-1.87071 -1.7289,-2.946654 -0.13631,-0.61468 0.74168,-1.500717 1.07358,-1.964013 1.09812,-1.534075 2.05401,-3.116495 2.85665,-4.826 1.81864,-3.874939 2.91846,-8.204369 3.19786,-12.462679 0.0237,-0.370501 0.36551,-0.782606 0.38498,-1.150313 0.0279,-0.559647 0.007,-0.862298 -0.0412,-1.457674 -0.0779,-0.977985 -0.71713,-1.918462 -1.1066,-2.794 -1.29032,-2.898902 -2.92269,-5.485384 -6.17474,-6.434666 0.45636,-0.593006 0.94319,-1.147488 1.19973,-1.862667 1.08289,-3.013117 -1.08035,-5.839121 -3.02853,-7.874 -0.6405,-0.669324 -0.19981,-1.643422 -1.3887,-1.889912 -1.14029,-0.23639 -2.4461,0.08865 -3.55583,0.349461 -3.99898,0.93986 -8.8105,4.22176 -7.03648,8.991118 0.27678,0.74405 0.69537,1.418336 1.19448,2.032 m 6.096,-5.926667 v 0.08467 c -0.66472,0.538818 -1.03116,1.133009 -1.27,1.947333 -0.24249,-0.976291 0.39599,-1.695704 1.27,-2.032 m -3.47133,11.345333 -0.0847,0.08467 0.0847,-0.08467 m -0.0847,0.254 v 0.254 h -0.0847 l 0.0847,-0.254 m -0.0847,0.338667 c -0.12149,0.714756 -0.54931,1.661414 -0.26602,2.36855 0.70688,1.764368 2.18601,0.253661 2.46736,-0.84455 0.92252,0.58293 1.37278,0.331216 2.20133,-0.254 0.40437,1.470067 1.54034,1.523492 2.54,0.592666 1.01236,1.398101 2.46888,0.567098 2.286,-1.016 h 0.0847 c 0.63076,1.132163 1.59681,3.066034 2.96333,1.524 h 0.16933 c 0.32936,0.777664 0.64432,1.672506 1.28524,2.25315 0.46398,0.419862 1.09305,0.661585 1.59343,1.04885 0.0278,1.194209 0.55963,1.374377 0.32681,2.963334 -0.33697,2.397252 -1.03801,4.742349 -1.82372,7.027333 -0.8509,2.47396 -2.14376,4.834466 -3.683,6.942666 -0.88307,1.20904 -1.93802,2.4373 -3.28676,3.140964 -0.96164,0.501904 -2.14401,0.659469 -3.21733,0.668274 -5.60172,0.04606 -9.41603,-4.892802 -10.67198,-9.905238 -0.8498,-3.391831 -0.48903,-6.738027 -0.84269,-10.159999 1.61891,0.05969 1.76615,-1.548638 2.37067,-2.709334 1.20515,1.613747 2.21454,0.397087 2.70933,-1.016 0.27128,0.127932 0.54873,0.297604 0.84718,0.351113 1.54119,0.276606 1.51926,-2.067137 1.94682,-2.975779 m 6.29624,9.803045 c -0.6488,0.339937 -0.41597,2.193713 -0.35628,2.808478 0.0314,0.324104 0.23114,0.766657 0.63873,0.589873 0.61028,-0.264584 0.46296,-2.383536 0.38066,-2.949025 -0.0468,-0.321818 -0.31792,-0.630259 -0.66311,-0.449326 m -6.60442,0.232325 c -0.60749,0.21844 -0.47448,2.450931 -0.40242,2.995592 0.0401,0.30353 0.27482,0.58293 0.60816,0.471 0.72915,-0.245025 0.50461,-2.312585 0.41918,-2.914396 -0.0435,-0.306408 -0.25264,-0.685969 -0.62492,-0.552196 m 5.12851,8.79729 c -0.48218,0.06054 -0.83397,0.428244 -1.34899,0.404876 -0.45788,-0.02074 -1.1215,-0.565997 -1.5472,-0.296333 -0.42181,0.267208 -0.0713,0.819488 0.21209,1.030393 0.53179,0.395732 1.38387,0.413512 2.01244,0.302514 0.41478,-0.07315 0.90983,-0.262721 1.12116,-0.654897 0.19591,-0.363728 0.012,-0.844465 -0.4495,-0.786553 m 4.06967,6.990673 c 0.94319,2.115058 2.3876,4.060613 3.63305,6.011333 4.51612,7.072376 10.03977,13.37166 12.72879,21.443695 0.4826,1.44831 1.43086,2.75844 1.87706,4.21031 0.79671,2.59215 0.083,5.3577 -0.9669,7.78933 h -0.16933 c -0.7747,-2.33087 -2.0828,-3.84556 -4.65667,-3.21733 -0.89154,-1.48903 -1.54262,-3.12302 -2.35627,-4.65667 -0.98298,-1.85267 -2.11159,-3.581656 -3.25882,-5.334002 -0.52155,-0.796883 -0.98044,-1.626108 -1.45965,-2.44746 -0.14732,-0.252476 -0.42588,-0.601387 -0.75354,-0.394377 -0.40301,0.255355 -0.16764,0.824145 -0.008,1.148503 0.50377,1.020826 1.13538,2.004822 1.74752,2.963334 1.31996,2.065112 2.51545,4.156632 3.61188,6.350002 0.4191,0.83752 1.16248,1.93802 1.26492,2.87867 0.066,0.6096 -0.51138,1.26322 -0.64177,1.86266 -0.24299,1.1193 -0.0762,2.36559 0.16002,3.47134 -3.95817,1.6764 -7.71567,3.69316 -11.59933,5.51772 -0.63128,0.29634 -1.36381,0.53594 -1.93227,0.94404 -0.6957,0.49953 -0.89501,1.2175 -1.87773,1.23359 -1.21362,0.0203 -1.96986,-0.87715 -2.96334,-1.40547 -2.24019,-1.19126 -4.62203,-2.18863 -6.77333,-3.53568 -1.40394,-0.87884 -2.8382,-1.73058 -4.318,-2.47819 -0.61857,-0.31327 -1.5124,-0.55033 -1.69333,-1.29201 4.0115,1.38768 7.88433,3.46202 11.59933,5.49486 1.04944,0.57404 2.10397,1.14385 3.13267,1.75514 0.39082,0.23199 0.86935,0.6858 1.35441,0.62146 0.56075,-0.0737 0.94581,-0.53933 1.3672,-0.86276 0.67208,-0.51477 1.39251,-0.98552 2.10439,-1.44356 2.43924,-1.56972 5.02327,-2.89645 7.70466,-4.0022 0.88816,-0.3666 1.81018,-0.62738 2.70764,-0.96604 0.18288,-0.0694 0.78148,-0.37084 0.43434,-0.62146 -0.25146,-0.18203 -0.67987,-0.0127 -0.94064,0.0635 -0.83312,0.24469 -1.65016,0.56896 -2.45534,0.89239 -2.75759,1.10829 -5.40258,2.50021 -7.874,4.14867 -0.74803,0.49868 -2.02556,1.85843 -2.96333,1.524 v -0.0847 c 2.74777,-2.64499 6.2865,-4.38573 9.82133,-5.73109 0.98214,-0.37422 1.96088,-0.77554 2.96334,-1.09389 0.26839,-0.0847 0.889,-0.1524 0.97874,-0.48175 0.12616,-0.46398 -0.69596,-0.30734 -0.89408,-0.25062 -0.97705,0.27771 -1.93209,0.65871 -2.87866,1.02447 -3.68385,1.4224 -7.07975,3.17415 -10.07534,5.77088 h -0.0847 c -2.64973,-2.71441 -5.46812,-4.96485 -8.97467,-6.52526 -0.98146,-0.43688 -2.02032,-0.77978 -3.048,-1.09135 -0.15494,-0.0466 -1.01862,-0.27602 -0.89366,0.15494 0.0945,0.32596 0.7079,0.42756 0.97833,0.52154 0.90966,0.31496 1.8271,0.62908 2.70933,1.01516 1.8448,0.80856 3.53094,1.9033 5.16467,3.07086 1.03589,0.73998 2.0585,1.45542 2.794,2.51544 -3.44365,-2.15138 -6.72186,-4.27397 -10.49867,-5.83861 -0.93972,-0.38947 -1.89882,-0.84243 -2.87867,-1.11929 -0.17162,-0.0483 -1.02641,-0.21421 -0.89365,0.22352 0.0919,0.3031 0.8078,0.40724 1.06299,0.50461 1.02446,0.3937 2.04461,0.80941 3.048,1.25391 3.50062,1.55025 7.72304,3.35958 10.414,6.1612 -3.25264,-1.76192 -6.46227,-3.57717 -9.82134,-5.13334 -1.0309,-0.47837 -2.07171,-0.9398 -3.13266,-1.3479 -0.561,-0.21505 -1.3534,-0.39624 -1.79426,-0.82296 -0.34214,-0.33104 -0.32757,-0.97959 -0.44433,-1.41647 -0.24054,-0.90085 -1.1237,-1.80255 -1.17924,-2.70933 -0.0759,-1.23952 0.75193,-2.69172 1.19956,-3.81 1.17128,-2.92574 2.52942,-5.779522 4.027,-8.551339 0.54365,-1.006179 1.13166,-1.982131 1.71789,-2.963333 0.17577,-0.294048 0.4936,-0.783675 0.18923,-1.101175 -0.36559,-0.381423 -0.85937,0.146643 -1.074,0.428075 -0.64829,0.850392 -1.14545,1.853184 -1.65583,2.789766 -2.07958,3.816096 -4.51908,8.144686 -5.38869,12.446006 -0.67716,-0.20828 -1.39446,-0.46313 -2.11667,-0.381 -1.66293,0.1888 -2.02319,2.10227 -2.286,3.429 -1.44407,-1.16078 -3.29827,-3.53822 -3.5847,-5.41867 -0.27838,-1.82736 0.43858,-3.65438 1.05986,-5.334002 1.43061,-3.867404 3.5499,-7.201323 5.88001,-10.583333 0.84913,-1.232324 1.73195,-2.438654 2.62306,-3.640667 1.11608,-1.505373 2.20201,-3.033099 3.27118,-4.572 1.47447,-2.12217 3.0221,-4.275751 4.67149,-6.265333 0.56752,-0.68453 1.12022,-1.761067 1.86935,-2.248154 0.54559,-0.354669 1.14241,-0.01101 1.65109,0.233765 0.90881,0.437472 1.88129,0.818642 2.87866,0.988906 2.56701,0.43832 4.71136,-0.395732 6.858,-1.68385 m 49.10667,29.294668 0.0847,-1.185336 c -7.05866,0 -14.20876,-0.3186 -21.25134,0.152654 -1.65354,0.11066 -3.61526,0.393362 -5.24933,0.187622 -0.65871,-0.08297 -1.38684,-0.358733 -1.66201,-1.019556 -0.31242,-0.751248 0.19389,-1.553295 0.69342,-2.082716 1.34028,-1.419182 3.19871,-1.415711 5.03259,-1.475909 7.41511,-0.243247 15.04442,-0.50546 22.43667,0.258572 v -1.185333 c -7.77325,-0.182288 -15.5973,-0.866733 -23.368,-0.122513 -0.77301,0.074 -1.62137,-0.02786 -2.37067,0.162391 -1.95919,0.497924 -4.36203,2.6289 -3.58225,4.870619 0.94996,2.729995 5.11641,1.649735 7.22292,1.535685 7.32197,-0.39624 14.68204,-0.0962 22.01333,-0.0962 m 0.0847,-4.402669 c -6.32122,-0.653288 -12.87442,-0.595207 -19.21934,-0.331131 -1.60782,0.06697 -3.21648,0.207687 -4.826,0.248835 -0.22352,0.0058 -1.62306,0.01008 -1.28354,0.528743 0.22013,0.335704 1.03293,0.153586 1.36821,0.141902 1.38515,-0.04843 2.76098,-0.163322 4.14867,-0.1651 4.99872,-0.0063 9.98643,-0.04233 14.986,-6.78e-4 1.21581,0.01016 4.18253,0.79138 4.826,-0.422571 m -13.37734,1.947333 v 0.08467 c -1.90838,0 -3.85656,-0.04995 -5.75733,0.122936 -1.98035,0.180086 -4.02336,0.0464 -6.01133,0.0464 -0.31666,0 -1.80848,-0.186097 -1.80848,0.330793 0,0.373803 0.81449,0.299805 1.04648,0.317585 1.2048,0.09203 2.43247,0.02896 3.64066,0.02896 5.08339,0 10.15577,-0.254 15.24,-0.254 1.4986,0 2.98874,0.08831 4.48734,0.0845 0.60706,-0.0015 1.3572,0.07129 1.60866,-0.592497 h 0.42334 l -0.0847,-0.677334 c -6.31613,-0.232748 -12.64073,-0.169333 -18.96533,-0.169333 -1.49776,0 -2.99297,-0.07722 -4.48734,-0.08433 -0.27855,-0.0013 -1.27,-0.144695 -1.37837,0.220218 -0.0914,0.307763 0.43688,0.358479 0.61807,0.377952 0.73321,0.07908 1.46727,0.05038 2.19964,0.117094 3.03276,0.275929 6.1832,0.0464 9.22866,0.0464 m 12.27667,6.604002 c -3.30285,0 -6.604,-0.20896 -9.906,-0.25045 -2.39268,-0.0301 -4.80314,0.16519 -7.19667,0.16578 -1.3462,3.4e-4 -2.72203,10e-4 -4.064,0.10778 -0.19388,0.0154 -1.46896,0.0864 -1.11421,0.55762 0.20151,0.26729 0.91186,0.0997 1.19888,0.0974 1.18703,-0.01 2.36728,-0.0854 3.556,-0.0854 4.42891,0 8.8646,-0.005 13.29267,9e-5 1.13368,0.001 3.79222,0.70815 4.23333,-0.59275 m 0,2.286 -0.254,-0.762 c -3.52552,0 -7.05781,-0.26247 -10.58333,-0.33587 -2.43078,-0.0506 -4.8531,0.0819 -7.28134,0.0819 -1.62306,0 -3.33756,0.19304 -4.8768,-0.2971 -0.27178,-0.0864 -0.6079,0.0514 -0.61214,0.37398 -0.008,0.54626 0.90086,0.50732 1.25561,0.5378 1.40377,0.12192 2.82533,0.0626 4.23333,0.0626 6.0342,0 12.09548,-0.12615 18.11867,0.33867 m -72.39,0.49191 c 0.96156,-0.083 1.58386,0.78909 1.96723,1.54009 0.74659,1.46134 1.82228,4.31969 -0.7819,4.58216 -2.28134,0.22944 -3.11632,-1.76022 -2.87705,-3.7355 0.1303,-1.07611 0.40513,-2.27499 1.69172,-2.38675 m 37.67667,0.98975 c 0.92202,-0.14393 1.60782,0.36068 2.04131,1.143 0.86445,1.56041 1.75175,5.5008 -0.85598,5.87672 -1.12945,0.16256 -1.70349,-0.57404 -2.18609,-1.47405 -0.84582,-1.57734 -1.62899,-5.13673 1.00076,-5.54567 m 13.29266,0.0423 -0.0847,0.0847 0.0847,-0.0847 m -54.27133,2.45533 -2.96333,-1.10067 c 1.3981,-0.36322 2.06163,-0.0305 2.96333,1.10067 m 75.946,-0.0847 c -1.64169,-0.42164 -3.48573,-0.17441 -5.16467,-0.26585 -4.34678,-0.23453 -8.76977,-0.15748 -13.12333,-0.15748 -1.39446,0 -2.8448,-0.005 -4.23333,-0.13123 -0.23876,-0.0212 -1.30048,-0.18881 -1.30048,0.23537 0,0.48345 1.01007,0.40047 1.30048,0.40555 1.41139,0.0229 2.82024,0.16764 4.23333,0.16764 3.67623,0 7.41595,-0.061 11.09133,0.0923 1.15486,0.0483 2.31733,0.0262 3.47134,0.0889 0.80602,0.0432 1.74074,0.22098 2.54,0.0745 0.4174,-0.0762 0.78994,-0.35984 1.18533,-0.5097 m -55.96467,25.48467 c -4.06781,0.5334 -8.35804,-0.52832 -12.192,-1.80594 -6.67715,-2.22589 -13.268787,-5.17737 -18.457329,-10.05925 -2.35602,-2.21657 -4.756574,-4.64481 -5.391489,-7.94681 -0.257556,-1.33943 -0.362881,-2.79654 0.607145,-3.88535 1.446953,-1.62476 3.89111,-1.69334 5.88501,-1.91178 1.511808,-0.1651 2.882223,-0.40894 4.402667,-0.13462 1.830916,0.3302 4.081526,0.92287 5.654466,1.95242 0.86258,0.56472 1.07061,1.52823 2.13487,1.95156 1.03158,0.41064 2.13732,-0.0406 3.13266,0.32851 1.42841,0.53001 2.78765,1.33604 4.14867,2.01676 3.23799,1.61883 6.42561,3.39937 9.22867,5.70484 0.86732,0.71374 1.56083,1.58581 2.38497,2.33934 0.44128,0.40301 1.11642,0.73914 1.3871,1.29286 0.3445,0.70527 -0.5986,2.19117 -0.8537,2.87613 -0.86258,2.31563 -1.7813,4.81668 -2.07171,7.28133 m 27.51667,-24.46867 v 0.0847 l -1.86267,0.254 0.16934,-0.59267 1.69333,0.254 m -7.70467,3.89467 c 1.27932,1.31318 3.46541,1.0795 4.58216,-0.34205 0.36915,-0.4699 0.45974,-1.45204 0.96436,-1.75176 0.75946,-0.45212 2.05655,-0.46397 2.92015,-0.53763 2.49851,-0.21421 5.76749,-0.51054 7.34483,1.95411 2.5527,3.99203 -3.13859,7.36684 -5.9055,9.22697 -3.27236,2.19964 -6.68612,4.01659 -10.24466,5.69976 -0.92626,0.43857 -1.8542,0.87291 -2.794,1.28016 -0.3937,0.17018 -0.90086,0.47837 -1.34197,0.4572 -0.38523,-0.0178 -0.64008,-0.40725 -0.87884,-0.66379 -0.54017,-0.57996 -1.11845,-1.11844 -1.75853,-1.5875 -2.0955,-1.53839 -4.38319,-2.40538 -6.77333,-3.34772 -0.49665,-0.19558 -2.58877,-0.91778 -2.39954,-1.63576 0.16383,-0.6206 1.70858,-1.07865 2.23021,-1.36398 2.20302,-1.2048 4.27143,-2.64329 6.51933,-3.76851 2.44263,-1.22259 4.95893,-2.7178 7.53533,-3.6195 m -32.93533,-2.032 2.62467,1.43933 v 0.0847 l -2.032,-0.96774 -0.59267,-0.55626 m 32.08867,0.67733 c -0.46059,0.53086 -1.16417,0.76962 -1.778,1.08035 -1.15655,0.58589 -2.2987,1.14469 -3.47134,1.6891 -1.22174,0.56642 -2.32664,1.40801 -3.47133,2.11159 -1.24629,0.76538 -2.56371,1.41562 -3.81,2.19371 -0.93963,0.58674 -1.91626,1.07781 -2.87867,1.62137 -0.39497,0.22267 -0.86893,0.63838 -1.35466,0.56134 -0.73076,-0.116 -1.4815,-1.08797 -2.032,-1.54432 -1.49733,-1.24122 -3.36491,-2.20726 -4.74134,-3.56447 1.52112,0.67818 3.03175,1.46135 4.48734,2.26991 1.06807,0.59352 1.92591,1.31996 3.21733,1.27932 1.49471,-0.0466 2.13792,-1.42748 3.38667,-2.00237 2.90152,-1.33519 5.71584,-2.84988 8.636,-4.14359 1.20734,-0.53424 2.50782,-1.30894 3.81,-1.55194 m -29.29467,0.84667 -0.0847,0.0847 0.0847,-0.0847 m 5.67267,3.21733 -0.0847,0.0847 0.0847,-0.0847 m 48.006,1.10067 v 0.0847 l -6.604,0.0847 c 0.46566,-0.41148 1.27931,-0.254 1.86266,-0.254 1.58158,0 3.15807,0.0847 4.74134,0.0847 m 4.40266,0.67733 v 0.0847 h -0.67733 l 0.67733,-0.0847 m -1.10066,0.0847 v 0.0847 l -10.668,0.254 c 0.77893,-0.53086 2.2208,-0.254 3.13266,-0.254 2.5146,0 5.02158,-0.0847 7.53534,-0.0847 m -41.82153,6.70306 c 0.86301,-0.10668 1.86225,0.6731 2.62086,0.99653 2.45279,1.04563 5.06476,2.11074 6.64887,4.40774 0.65363,0.94827 1.46728,2.58318 0.82042,3.7228 -0.5842,1.03039 -1.9033,1.33688 -2.98196,1.50114 -2.54677,0.38608 -5.16212,0.10922 -7.70466,-0.19982 -0.72018,-0.0872 -2.13894,-0.0889 -2.60147,-0.73998 -0.46033,-0.6477 0.14952,-1.77546 0.37617,-2.42147 0.66057,-1.88214 0.72695,-3.84979 1.63102,-5.67267 0.26188,-0.52832 0.49852,-1.50791 1.19075,-1.59427 z"
         id="path4440"
         sodipodi:nodetypes="csccccsssccccscccccccccccccccccsscccsccsccccccccccccccscccccscccsccccccsccccccccccccsccsscccccccccccccccccccccccscccccccccccccccccccccccccccccccccccccccccccscccscccccccccccccsccccccccccccccccccccccccccccccccccccsccccccscccccccscscccccccccccccccccccscccccccccccccccccsccccsscssccccssscccccssccsccccsscccscccccccccscccccccccscscscccccccsccccccccccccccccccsccccccccccccccccccccccccccscccccccccccccccsccccccccsccccccccccc" /></g></g></svg>
