<?xml version="1.0" encoding="UTF-8" standalone="no"?>
<!-- Created with Inkscape (http://www.inkscape.org/) -->

<svg
   width="123.11577"
   height="119.06253"
   viewBox="0 0 123.11577 119.06253"
   version="1.1"
   id="svg5"
   xml:space="preserve"
   xmlns:inkscape="http://www.inkscape.org/namespaces/inkscape"
   xmlns:sodipodi="http://sodipodi.sourceforge.net/DTD/sodipodi-0.dtd"
   xmlns="http://www.w3.org/2000/svg"
   xmlns:svg="http://www.w3.org/2000/svg"><sodipodi:namedview
     id="namedview7"
     pagecolor="#ffffff"
     bordercolor="#000000"
     borderopacity="0.25"
     inkscape:showpageshadow="2"
     inkscape:pageopacity="0.0"
     inkscape:pagecheckerboard="0"
     inkscape:deskcolor="#d1d1d1"
     inkscape:document-units=""
     showgrid="false" /><defs
     id="defs2" /><g
     inkscape:label="Layer 1"
     inkscape:groupmode="layer"
     id="layer1"
     transform="translate(-15.040503,-41.038054)"><g
       style="fill:none"
       id="g327"
       transform="matrix(1.5023295,0,0,1.5023295,14.933402,40.476148)"
       inkscape:label="blob"
       inkscape:export-filename="decider.svg"
       inkscape:export-xdpi="96"
       inkscape:export-ydpi="96"><path
         opacity="0.689993"
         d="m 72.8975,12.5995 c 7.772,9.1384 7.0288,21.9294 5.2714,33.7952 C 76.4057,58.3001 73.8816,71.573 63.3103,77.3307 52.9213,82.9893 40.9429,76.9223 29.8966,72.6868 18.6969,68.3925 5.60747,64.8955 1.4971,53.6294 -2.76479,41.948 3.209,29.4434 10.4245,19.3156 17.4138,9.50523 27.2734,1.92365 39.2519,0.635917 51.7036,-0.702696 64.7851,3.06102 72.8975,12.5995 Z"
         fill=""
         id="path318"
         inkscape:export-filename="speaker.svg"
         inkscape:export-xdpi="96"
         inkscape:export-ydpi="96" /></g><g
       id="g4291"
       inkscape:label="brainiac"
       transform="translate(-12.294611,84.305907)"><path
         style="opacity:0.4;fill:#010101;stroke:none;stroke-width:0.0846667"
         d="m 122.29728,48.566542 c -0.97536,0.28448 -1.86944,0.88646 -2.87866,1.055794 -1.21819,0.204046 -2.42333,-0.28448 -3.64067,-0.28448 -1.08983,0 -2.16425,0.397086 -3.21733,0.36322 -3.19719,-0.100754 -6.33967,-1.16332 -9.22867,-2.482427 -0.95479,-0.435187 -1.78731,-1.086273 -2.70933,-1.584113 -1.500297,-0.81026 -3.063498,-1.464734 -4.402671,-2.54508 -0.907457,-0.73152 -1.860211,-1.441874 -2.706539,-2.244514 -0.538565,-0.51054 -0.990939,-1.227666 -1.696127,-1.524 -0.946658,-0.397086 -2.324608,0.2921 -3.302,0.423334 -2.139865,0.28702 -4.222411,0.748453 -6.35,1.096433 -1.172125,0.1905 -2.464816,0.12954 -3.555577,0.65532 -0.84565,0.407247 -1.242314,1.210733 -1.685798,1.990513 -0.388027,0.682414 -1.043432,1.387687 -1.087966,2.201334 -0.110067,2.00914 1.47557,3.44678 2.552107,4.910666 0.940054,1.278467 1.641602,2.6162 2.845901,3.683847 1.266698,1.124373 2.51333,2.338493 3.894666,3.321473 1.350349,0.96012 2.856315,1.682327 4.205648,2.607733 0.768603,0.527474 1.28761,1.247987 2.144352,1.695874 1.163235,0.60706 2.423922,0.936413 3.640667,1.405466 1.201504,0.463974 2.331974,1.091354 3.556,1.505374 1.081447,0.366606 2.207427,0.522393 3.301997,0.831426 2.86064,0.809414 6.11387,2.054014 9.144,1.67386 2.25722,-0.282786 2.65007,-2.050626 3.19896,-3.940386 0.47837,-1.647614 0.97993,-3.31216 1.9448,-4.741334 0.38091,-0.564726 0.84556,-1.745826 1.55812,-1.937173 0.89611,-0.240453 2.37185,0.662093 3.11946,1.08966 1.88298,1.07696 3.69062,2.26822 5.58546,3.331633 0.55626,0.31242 0.89577,1.009227 1.52738,1.16078 0.72644,0.174414 1.57226,-0.194733 2.20049,-0.519006 1.13284,-0.5842 2.27499,-1.17094 3.38667,-1.794934 1.01176,-0.568113 2.1209,-0.71374 3.13266,-1.21158 0.9652,-0.474133 1.62052,-1.367366 2.54,-1.906693 2.79908,-1.644227 5.61763,-2.761827 7.84775,-5.24002 0.65956,-0.732366 1.40801,-1.56972 1.85082,-2.455333 0.33104,-0.662093 0.41063,-1.39192 0.29718,-2.116667 -0.5732,-3.648286 -4.39251,-4.3307 -7.45575,-4.979246 -1.72212,-0.364914 -3.54414,-1.18872 -5.24933,-0.354754 0.85683,-3.03784 1.78816,-5.659289 1.49352,-8.889999 -0.33359,-3.651335 -2.30293,-7.012771 -4.00219,-10.16 C 133.64516,21.821359 133.52324,20.883422 133,20.0343 c -0.35306,-0.572601 -1.52501,-3.719802 -1.86706,-4.280888 -1.36483,-2.23647 -1.73974,-1.96421 -3.00212,-4.270869 -1.21158,-2.2144566 -2.60858,-4.3489878 -3.73804,-6.6039998 -0.58674,-1.1710246 -1.027,-2.7161066 -2.26483,-3.3665159 -2.19033,-1.15095867 -3.95571,1.3965766 -6.26533,1.2264813 -1.45238,-0.1070187 -3.18025,-0.090509 -4.56921,-0.54991 -0.78215,-0.2586567 -1.25535,-1.25450598 -2.2026,-0.949198 -0.56778,0.1830493 -0.99704,0.8037407 -1.43654,1.1838093 -1.62467,1.404874 -2.84963,3.5891893 -4.22851,5.2493332 -1.49123,1.7954413 -2.50436,3.9053349 -3.791119,5.8419999 -2.936071,4.418753 -5.769526,8.768503 -8.073729,13.546666 -1.122849,2.328418 -1.765893,4.465744 -1.469136,7.027334 0.06934,0.597916 -0.245872,1.101936 0.03658,1.693333 0.548725,1.148927 1.724067,2.081106 2.532719,3.048 0.430191,0.513926 0.60308,1.187873 1.050713,1.672166 0.907203,0.981287 2.178812,1.753447 3.270165,2.5146 1.802554,1.2573 3.595707,2.558627 5.672667,3.331634 0.94217,0.35052 1.95012,0.56642 2.87866,0.938106 0.59335,0.237914 1.11371,0.667174 1.77123,0.334434 0.84565,-0.42672 0.79163,-1.395307 0.65269,-2.18694 -0.20599,-1.17348 -0.69045,-3.50774 0.3225,-4.43484 0.45686,-0.417407 1.11133,-0.247227 1.65625,-0.1397 1.32461,0.262466 2.56845,0.953346 3.89467,1.166706 0.5444,0.08721 1.10811,0.146474 1.58572,-0.186266 0.32563,-0.226907 0.51807,-0.618914 0.88663,-0.785707 0.42375,-0.192193 0.97002,-0.09567 1.42231,-0.115147 0.65972,-0.02963 1.46812,-0.369993 2.11159,-0.159173 0.68326,0.22352 1.14385,1.311487 1.33858,1.944793 0.57912,1.88468 0.26162,4.067387 1.12183,5.842 M 114.25395,20.96521 c 1.14943,-1.270424 3.73134,-2.663783 4.85809,-0.506307 0.14952,0.286258 0.24367,0.60833 0.27508,0.92964 0.0923,0.944964 -0.33714,1.980014 -0.77648,2.794 -0.81458,1.509098 -1.90474,2.873248 -3.25602,3.933782 -0.5925,0.465074 -1.32775,0.975953 -2.11659,0.95504 -1.04588,-0.0276 -1.42146,-1.163066 -1.86055,-1.925489 -1.05198,-1.826599 -2.6664,-3.827695 -2.11446,-6.096 0.61256,-2.517563 3.96164,-1.904661 4.99093,-0.08467 z"
         id="path4287"
         sodipodi:nodetypes="ccscccccccccccccccccccccccccccccccsccccccccccccccscscsccccccscccccccccssccccscss" /><path
         style="fill:#040404;stroke:none;stroke-width:0.0846667"
         d="m 102.73928,-18.320123 c -0.0914,6.503839 -0.19803,14.9439204 5.842,19.13466629 v 0.0846667 C 106.47401,2.6766172 104.52668,5.0132479 102.8071,7.1645432 98.447445,12.6186 94.787728,18.79207 91.669116,25.029209 c -0.871982,1.743964 -1.444075,3.491146 -2.05342,5.334 -0.348996,1.055709 -0.818896,2.167044 -0.736431,3.302 0.145542,2.003044 1.435692,3.402754 2.514684,4.995333 -1.671658,0.179494 -3.319525,0.5842 -4.995333,0.737447 -3.171105,0.290407 -6.95308,0.02625 -9.479534,2.409613 -3.408341,3.216487 -0.203792,8.89508 2.299716,11.58494 0.59199,0.635847 1.214205,1.25476 1.845818,1.850813 4.971034,4.695614 11.10361,7.855374 17.526,10.060094 2.380574,0.81788 4.716444,1.588346 7.196664,2.043853 2.39505,0.43942 5.00084,1.126067 7.45067,1.007533 1.20362,-0.05757 2.28727,0.26924 3.47133,0.475827 2.96842,0.51816 6.63364,0.856826 9.56734,0.0127 2.71864,-0.783167 3.50689,-3.18516 2.37066,-5.629487 4.44416,-1.76022 8.73845,-3.948006 12.78467,-6.482926 2.23774,-1.401234 4.52204,-2.865967 6.43466,-4.700693 0.86106,-0.827194 1.71196,-1.76276 2.19202,-2.871047 1.60952,-3.721947 -2.0557,-6.34492 -5.15535,-7.222067 -2.38082,-0.673946 -4.85563,-1.01854 -7.28133,-1.4986 0.49276,-1.791546 1.30133,-3.526366 1.32673,-5.418666 0.0398,-3.076617 -1.1811,-6.249077 -2.30886,-9.059333 -2.47058,-6.156875 -5.96223,-11.959421 -9.26677,-17.6953332 -1.14385,-1.9863646 -2.4765,-3.8526719 -3.74904,-5.7573332 -0.43603,-0.6518487 -1.38345,-1.5050347 -1.51723,-2.28599997 -0.1143,-0.67072932 0.87884,-1.59706733 1.2319,-2.11666663 1.132,-1.6631073 2.06926,-3.4740426 2.83464,-5.3339999 0.92795,-2.2546733 1.6383,-4.7148321 2.08111,-7.1120001 0.18796,-1.01473 0.0406,-2.33917 0.37761,-3.287776 0.17611,-0.495808 0.80942,-0.668528 1.19973,-0.956564 0.56049,-0.413258 1.01007,-0.977307 1.32249,-1.59766 0.70866,-1.407922 0.26162,-2.610442 0.23368,-4.064 -0.0152,-0.811445 0.26924,-1.637199 0.29972,-2.455333 0.0838,-2.267796 -0.60875,-4.94157 -2.0938,-6.685872 -0.62484,-0.73423 -1.59936,-1.092539 -2.14884,-1.872065 -0.27686,-0.393446 -0.73914,-0.872236 -0.84498,-1.348063 -0.12869,-0.579543 0.13801,-1.10346 -0.1397,-1.68766 -0.61891,-1.30065 -2.35881,-1.012444 -3.40106,-0.513673 -0.73152,-1.5383 -1.94394,-1.84575 -3.43323,-2.234218 -0.66641,-0.173871 -1.1861,-0.582269 -1.90077,-0.631037 -0.72534,-0.04948 -1.37609,0.31236 -2.07027,0.285182 -0.70104,-0.02744 -1.27406,-0.275573 -1.99373,-0.119701 -0.68233,0.147802 -1.20531,0.583404 -1.85115,0.787696 -0.44636,0.141207 -0.94505,-0.256252 -1.36627,-0.377588 -0.81923,-0.236034 -1.61941,-0.306806 -2.45524,-0.114689 -1.91245,0.439597 -3.83346,1.810588 -4.93209,3.420355 -0.44586,0.653288 -0.62907,1.470914 -1.08729,2.097193 -0.80577,1.101344 -1.88358,1.745488 -2.449238,3.067474 -0.750401,1.753785 -0.439843,3.610356 -0.850392,5.418666 -0.161121,0.709422 -0.722969,1.347216 -0.987467,2.032 -0.684276,1.771311 -0.70866,4.480391 0.914146,5.775452 0.563541,0.449749 1.216998,0.498179 1.856991,0.766233 0.79324,0.332232 1.43138,0.42816 2.286,0.316315 m 6.26526,-5.418657 c 0.94047,0.201168 1.68063,0.134366 2.54,-0.327744 0.44839,-0.241131 0.91905,-0.747861 1.43933,-0.797814 0.6168,-0.05918 1.2203,0.279061 1.86267,0.211412 0.63593,-0.06697 1.59766,-0.625178 2.20133,-0.432815 0.98594,0.314197 1.61586,1.26475 2.70933,1.507151 0.93218,0.206671 1.90416,-0.243078 2.76606,-0.05275 0.44281,0.09779 0.6604,0.749385 0.90678,1.07713 0.35645,0.475488 0.88054,0.811276 1.21328,1.2965 0.36491,0.531792 0.45974,1.20921 0.83058,1.752177 0.28363,0.415375 0.64092,0.787231 1.05664,1.071795 0.30056,0.20591 0.78062,0.34417 0.88053,0.737193 0.38439,1.510538 -0.4191,3.846068 -0.81957,5.303097 -0.98806,3.6023968 -2.27584,7.0883774 -4.45262,10.1599994 -0.92033,1.29920992 -1.94056,2.6037539 -3.31301,3.4553312 -3.33917,2.0724706 -7.68248,0.3986107 -10.32925,-1.97112461 -3.69976,-3.31266789 -4.65675,-8.94122319 -4.65675,-13.67620599 0,-1.284648 -0.16002,-2.704338 0.11142,-3.968073 0.16425,-0.764709 1.45483,-1.086358 1.99847,-1.575139 0.65067,-0.584877 0.4561,-1.235456 0.87944,-1.851152 0.50664,-0.736938 1.57556,-1.186518 2.17534,-1.91897 m 9.90603,6.496897 c -0.54255,0.116247 -2.51096,1.521799 -1.31835,2.029206 0.5334,0.226907 1.14385,-0.872659 1.74176,-0.959358 0.96089,-0.139361 1.7068,1.087289 2.51791,0.897551 0.75946,-0.17763 0.2015,-1.045802 -0.15494,-1.302512 -0.79164,-0.570399 -1.8178,-0.872574 -2.78638,-0.664887 m -7.95867,0.07036 c -0.78495,0.117941 -1.57599,0.571415 -2.03801,1.225211 -0.24765,0.350436 -0.33706,1.177883 0.33739,1.071034 0.69901,-0.110744 1.07366,-1.04902 1.86995,-1.181354 0.72966,-0.121243 1.83439,0.852847 2.40809,0.483616 0.46668,-0.300313 0.11024,-0.859452 -0.22005,-1.087205 -0.65345,-0.450596 -1.57962,-0.628057 -2.35737,-0.511302 m 5.49825,11.6719771 c -0.47997,0.057319 -0.83998,0.4219786 -1.34958,0.4036906 -0.46017,-0.01651 -1.11998,-0.5649806 -1.5472,-0.2943859 -0.42181,0.2672079 -0.0713,0.8194886 0.21209,1.0303933 0.51562,0.3837093 1.31555,0.402082 1.92777,0.315722 0.44526,-0.062823 0.9801,-0.2544234 1.21488,-0.6681047 0.21057,-0.3709247 0.006,-0.8426026 -0.45796,-0.7873153 m 6.01642,53.8120999 c 0.0102,-1.595966 -0.0796,-3.173306 -0.39878,-4.741333 -0.10414,-0.51308 -0.51986,-1.556173 -0.21336,-2.03962 0.27516,-0.43434 1.26153,-0.676487 1.7128,-0.902547 1.99306,-0.996526 3.86927,-1.606973 3.89298,-4.169833 0.0203,-2.248916 -0.78063,-4.373118 -1.3208,-6.519333 -0.0999,-0.396155 -0.48176,-2.236047 -1.2319,-1.531789 -0.53679,0.503936 0.15494,2.049441 0.33274,2.632456 0.50546,1.661498 1.02277,3.41249 1.03547,5.164666 0.005,0.748454 0,1.573953 -0.62061,2.09804 -0.52662,0.44704 -1.22766,0.662093 -1.83388,0.976207 -0.73914,0.38354 -1.60104,1.03886 -2.45533,1.09728 -0.58505,0.04064 -1.11337,-0.414867 -1.69333,-0.493607 -1.89925,-0.260773 -3.87808,0.306493 -4.91067,1.994747 -0.8244,-0.409787 -1.47633,-1.0414 -2.37067,-1.329267 -1.58589,-0.51054 -3.39496,-0.578273 -4.91066,-1.210733 -1.16282,-0.48514 -2.17162,-1.31064 -3.21734,-1.997287 -0.86766,-0.569806 -2.17627,-1.235117 -2.7879,-2.083816 -0.3484,-0.483362 -0.28804,-1.198202 -0.22699,-1.760897 0.16408,-1.510961 0.85445,-2.922185 1.58555,-4.233333 0.22106,-0.39641 1.23165,-1.6256 0.39243,-1.90263 -0.6913,-0.228176 -1.21437,1.02887 -1.4638,1.479296 -0.9669,1.745912 -1.854117,3.796454 -1.62535,5.842 0.10812,0.965962 0.80146,1.547199 1.50148,2.131907 1.58411,1.322493 3.64448,2.815166 5.58792,3.54076 l 0.33866,6.942666 c -5.44034,-1.093046 -11.255753,-4.37896 -14.690257,-8.720666 -0.99932,-1.263227 -2.381504,-2.702221 -2.72796,-4.318 -0.26145,-1.219539 0.191093,-2.330196 0.569299,-3.471333 0.537041,-1.620266 0.990685,-3.205819 1.757172,-4.741334 3.120559,-6.251871 6.724227,-12.480543 11.095566,-17.9493325 1.19736,-1.498092 2.48175,-2.9012726 3.77232,-4.3179999 0.52672,-0.5781887 1.12328,-1.5243387 1.83727,-1.867916 0.61087,-0.2939627 1.22691,0.1045633 1.77326,0.3577167 0.93946,0.4352713 1.93379,0.8058573 2.96333,0.9478433 1.44467,0.1992206 3.22563,0.039285 4.572,-0.5376334 0.7797,-0.3340099 1.75091,-1.3872633 2.62298,-1.3263879 0.46651,0.032512 0.72898,0.4679526 0.9635,0.8180493 0.5224,0.7814733 1.01431,1.5815733 1.5257,2.3703279 2.17,3.3478046 4.12072,6.7808685 6.10023,10.2446665 2.38083,4.167293 4.67868,8.454898 6.37117,12.954 0.84412,2.242735 1.71196,4.773252 1.71111,7.196666 -8.5e-4,3.074247 -1.62475,6.363547 -3.67453,8.541173 -0.53256,0.56642 -1.23106,0.788247 -1.90416,1.137074 -1.02277,0.53086 -2.03369,1.08966 -3.048,1.636606 -2.04808,1.1049 -4.38488,1.728894 -6.68866,2.06248 m -28.448004,-6.688666 -4.064,-1.439334 c 0.546693,-0.27432 1.770549,-0.618913 2.353903,-0.35306 0.666157,0.303954 1.265089,1.228514 1.710097,1.792394 m 18.880664,24.976666 c -4.06594,0.532553 -8.35956,-0.52832 -12.192,-1.80594 -6.675541,-2.22504 -13.270396,-5.177367 -18.45733,-10.059247 -2.354242,-2.215726 -4.758098,-4.647353 -5.391489,-7.946813 -0.256625,-1.336886 -0.360087,-2.79908 0.607145,-3.885353 1.689777,-1.89738 4.620514,-1.6891 6.90101,-2.048087 3.877395,-0.610446 7.411635,1.195494 10.837333,2.770294 4.712293,2.165773 9.585871,4.068233 13.885331,7.036646 1.87452,1.294554 3.49648,2.617894 5.09668,4.246033 0.49217,0.50038 1.32419,0.89154 1.63872,1.535007 0.34451,0.705273 -0.59859,2.191173 -0.85369,2.876127 -0.86275,2.315633 -1.78122,4.81584 -2.07171,7.281333 M 108.5731,40.877126 c 0.58801,-0.351367 1.69774,0.209126 2.29413,0.3429 1.29828,0.290406 2.72593,1.134533 3.46693,2.290233 1.11379,1.736513 0.73872,3.902287 -1.01159,4.952153 -1.32021,0.79248 -3.70883,0.38862 -4.45042,-1.088813 -0.51037,-1.016847 -0.43121,-2.523067 -0.46499,-3.633047 -0.0179,-0.587586 -0.43697,-2.5019 0.16594,-2.863426 m 6.4428,7.774093 c 0.80103,-1.042247 1.20464,-1.87452 1.06875,-3.217333 -0.12192,-1.204807 -0.91,-2.429934 -0.055,-3.5433 0.7438,-0.969434 3.56845,-1.472354 4.355,-0.325967 0.69427,1.011767 0.70782,2.93116 0.82381,4.123267 0.0703,0.717973 0.44365,2.055706 -0.15833,2.62128 -0.40555,0.381 -1.10998,0.397933 -1.63152,0.453813 -1.48887,0.161713 -2.92084,0.08382 -4.40267,-0.11176 m 25.4,-6.519333 v 0.08467 l -4.48733,0.931334 c 0.30395,-0.455507 0.68495,-1.209887 1.20734,-1.43764 0.82212,-0.358987 2.39438,0.349673 3.27999,0.42164 m 2.11667,1.131146 c 2.7288,-0.242993 5.95629,0.537634 6.60484,3.610187 0.13377,0.634153 0.0753,1.268307 -0.18627,1.862667 -0.24638,0.560493 -0.62484,1.065106 -1.02616,1.524 -3.62796,4.138506 -9.18209,6.871546 -14.02841,9.292166 -1.22513,0.61214 -2.47481,1.185333 -3.72534,1.74244 -0.55372,0.247227 -1.23952,0.679027 -1.8542,0.717127 -0.4301,0.02709 -0.6985,-0.381847 -0.95927,-0.662094 -0.51562,-0.554566 -1.0668,-1.071033 -1.67386,-1.524846 -2.16408,-1.617134 -4.55253,-2.485814 -7.02733,-3.47726 -0.45678,-0.18288 -2.63509,-0.991447 -2.16925,-1.69926 0.35145,-0.5334 1.36982,-0.796714 1.91525,-1.09474 1.49606,-0.81788 2.91592,-1.7653 4.40266,-2.597573 2.49259,-1.39446 5.10032,-2.495974 7.62,-3.81508 1.45034,-0.75946 2.9608,-1.9431 4.48734,-2.478194 2.38675,-0.836506 5.11048,-1.17602 7.62,-1.39954 m -28.448,6.150187 -0.0847,0.08467 0.0847,-0.08467 m 8.97466,0 v 0.08467 c -1.90923,1.143846 -3.78189,2.411306 -5.75733,3.43662 -0.57294,0.29718 -1.45949,1.032086 -2.11667,1.003299 -0.61019,-0.02709 -1.1767,-0.756073 -1.60866,-1.125219 -1.19626,-1.02108 -2.63703,-1.845734 -3.72534,-2.976034 0.90484,0.20066 1.86165,0.394547 2.794,0.285327 0.60122,-0.07112 1.17568,-0.400473 1.778,-0.402167 2.93683,-0.0051 5.73194,0.33782 8.636,-0.306493 m -5.33019,7.890086 c 0.86225,-0.100753 1.86225,0.671407 2.62086,0.994834 2.46465,1.050713 5.03682,2.116666 6.6421,4.407746 0.69511,0.992294 1.53839,2.737274 0.72051,3.8862 -0.69765,0.98044 -2.02014,1.2192 -3.12928,1.37414 -2.4621,0.343747 -4.99559,0.04826 -7.45066,-0.237066 -0.71722,-0.08297 -2.14258,-0.08975 -2.60105,-0.73914 -0.45314,-0.641774 0.15096,-1.782234 0.37584,-2.421467 0.66268,-1.88468 0.74972,-3.838787 1.63728,-5.672667 0.25527,-0.527473 0.49217,-1.512146 1.1844,-1.59258 z"
         id="path4285"
         sodipodi:nodetypes="ccccscscccccccccccccccccccccccccccccccccccsssscsscsccssccscsssscccccccccssccccccscccssscsccscssccccccccsccccccccccccssccccccccccsscsccccccccccccccccccsccccccccccccssccscccscccccccccccccccccccccccccccccccccccccccccccsc" /></g></g></svg>
