<?xml version="1.0" encoding="UTF-8" standalone="no"?>
<!-- Created with Inkscape (http://www.inkscape.org/) -->

<svg
   width="119.0625"
   height="134.73927"
   viewBox="0 0 119.0625 134.73927"
   version="1.1"
   id="svg5"
   xml:space="preserve"
   xmlns:inkscape="http://www.inkscape.org/namespaces/inkscape"
   xmlns:sodipodi="http://sodipodi.sourceforge.net/DTD/sodipodi-0.dtd"
   xmlns="http://www.w3.org/2000/svg"
   xmlns:svg="http://www.w3.org/2000/svg"><sodipodi:namedview
     id="namedview7"
     pagecolor="#ffffff"
     bordercolor="#000000"
     borderopacity="0.25"
     inkscape:showpageshadow="2"
     inkscape:pageopacity="0.0"
     inkscape:pagecheckerboard="0"
     inkscape:deskcolor="#d1d1d1"
     inkscape:document-units=""
     showgrid="false" /><defs
     id="defs2" /><g
     inkscape:label="Layer 1"
     inkscape:groupmode="layer"
     id="layer1"
     transform="translate(-15.040503,-30.82874)"><g
       style="fill:none"
       id="g327"
       transform="matrix(1.5023295,0,0,1.5023295,14.933402,40.476148)"
       inkscape:label="blob"
       inkscape:export-filename="decider.svg"
       inkscape:export-xdpi="96"
       inkscape:export-ydpi="96"><path
         opacity="0.689993"
         d="m 72.8975,12.5995 c 7.772,9.1384 7.0288,21.9294 5.2714,33.7952 C 76.4057,58.3001 73.8816,71.573 63.3103,77.3307 52.9213,82.9893 40.9429,76.9223 29.8966,72.6868 18.6969,68.3925 5.60747,64.8955 1.4971,53.6294 -2.76479,41.948 3.209,29.4434 10.4245,19.3156 17.4138,9.50523 27.2734,1.92365 39.2519,0.635917 51.7036,-0.702696 64.7851,3.06102 72.8975,12.5995 Z"
         fill=""
         id="path318"
         inkscape:export-filename="speaker.svg"
         inkscape:export-xdpi="96"
         inkscape:export-ydpi="96" /></g><g
       id="g4142"
       inkscape:label="celebrator"
       transform="matrix(0.90905922,0,0,0.90905922,-16.975668,-49.274985)"><path
         style="opacity:0.55;fill:#020202;stroke:none;stroke-width:0.0846667"
         d="m 91.65942,103.15332 h 0.08467 c 0.192024,1.29252 0.740156,2.54499 1.067562,3.81 0.89916,3.47429 1.886204,6.89474 2.924471,10.32933 0.314029,1.03886 0.581152,2.18211 1.122426,3.13055 0.251206,0.4401 0.67945,0.86809 1.232408,0.72618 0.499872,-0.12827 0.802556,-0.63838 1.028192,-1.06282 0.522309,-0.98213 0.88028,-2.08017 1.232571,-3.13258 0.69444,-2.07433 1.2198,-4.20463 1.95292,-6.26533 0.84117,-2.3644 1.88299,-4.57471 2.90145,-6.858 l 3.97933,6.35 c 0.97367,-0.5511 1.926,0.0898 2.87867,0.43273 0.34484,0.12421 0.85513,0.19863 1.05985,0.54187 0.63196,1.05943 -1.52942,0.45339 -1.82185,0.33316 -0.52748,-0.21683 -1.04835,-0.43112 -1.60867,-0.54576 1.06671,2.07594 2.5897,4.59909 4.318,6.18067 -0.16138,-1.44975 -0.42333,-2.85226 -0.42333,-4.318 0,-0.55889 0.24104,-1.57684 -0.0546,-2.06325 -0.25629,-0.42172 -0.89366,-0.6913 -1.30006,-0.9453 -0.99043,-0.61891 -1.99542,-1.22436 -2.96333,-1.87816 -0.56659,-0.38278 -1.22081,-0.82863 -1.62933,-1.38582 -0.16612,-0.22657 -0.30319,-0.58954 -0.007,-0.78004 0.53009,-0.34044 1.34442,0.63763 1.72059,0.91288 1.34764,0.98603 3.06773,2.22504 4.65667,2.75302 0.29396,-0.51715 0.63229,-0.62239 1.18533,-0.42333 0.52494,-1.2954 1.09542,-2.59072 1.59385,-3.89467 0.217,-0.56786 0.26797,-1.26568 0.94615,-1.43933 0.30751,-1.57201 0.42842,-3.17213 0.7714,-4.741338 0.12404,-0.56769 0.16095,-1.262465 0.46287,-1.768856 0.46067,-0.772651 1.50063,-1.273116 2.1524,-1.884138 1.30285,-1.221376 2.51324,-2.692518 3.302,-4.305672 h 0.0847 l 0.34899,6.343395 0.58234,1.953938 1.43933,0.169333 c 0.66548,-0.5461 1.14046,-0.03835 1.27,0.677338 h 0.0847 l 0.508,-0.508005 c -0.33443,-0.652272 -0.86953,-1.139274 -1.43849,-1.58987 -0.28448,-0.225298 -0.75353,-0.522224 -0.72644,-0.942086 0.0322,-0.502751 0.57066,-0.491406 0.90255,-0.315045 0.75099,0.399034 1.43933,1.08458 1.96257,1.746335 0.70528,0.892132 0.74592,1.954271 1.21666,2.939031 0.33105,0.69266 1.03378,1.17213 1.39362,1.82279 0.36152,0.65439 0.24553,1.96308 0.16086,2.68885 h 0.0847 l 2.54,-3.89467 h 0.0847 c 0.16086,4.35466 1.17517,9.40892 3.51959,13.12333 0.67818,1.074 2.13445,3.44272 3.67707,3.05935 1.46728,-0.36466 2.22928,-2.57971 2.72627,-3.82135 1.08458,-2.70899 1.84489,-5.53525 2.77791,-8.29733 0.54018,-1.6013 1.36652,-3.16196 1.69249,-4.826 h 0.0847 c 0.71289,2.05977 1.51214,4.09194 2.37066,6.096 0.87884,2.0502 1.74498,4.16755 3.14791,5.92667 0.4191,0.52493 1.20311,1.6173 2.0049,1.30666 1.12946,-0.43765 1.05326,-3.17975 1.19719,-4.18533 0.62399,-4.36795 1.14131,-8.715 1.36144,-13.123335 0.0813,-1.6209 0.35306,-3.237179 0.67056,-4.825999 0.13547,-0.675471 0.42164,-1.427201 -0.16933,-1.947334 0.27262,-0.474328 0.87122,-2.427965 -0.47837,-1.840952 -0.43095,0.187265 -0.69427,1.34826 -0.98637,1.756286 -0.99483,1.389413 -2.14122,2.67285 -3.37312,3.856414 -2.80839,2.69814 -6.51933,5.472159 -10.48681,6.06753 -3.25289,0.48802 -7.39309,-0.860971 -10.16,-2.519506 -2.91507,-1.747588 -5.30606,-4.423376 -7.49046,-6.981105 -0.49106,-0.574692 -1.02446,-1.1578 -1.34535,-1.851025 -0.18203,-0.393592 -0.21844,-0.970022 -0.79959,-0.903112 -0.39963,0.04599 -0.44654,0.454132 -0.6096,0.746177 -0.38795,0.694975 -0.68978,1.423997 -1.1298,2.092627 -1.56455,2.377837 -3.50426,4.013242 -5.81405,5.617209 -2.16756,1.50512 -4.76953,2.426208 -7.27981,3.175508 -4.96096,1.480817 -9.98754,2.150617 -15.155333,1.691897 -4.846066,-0.43011 -8.92937,-2.747605 -12.268708,-6.251281 -1.026753,-1.077316 -1.723644,-2.376754 -2.327233,-3.724868 -0.179916,-0.401752 -0.503174,-1.012588 -1.049781,-0.811073 -0.720429,0.265583 -0.16908,1.220581 -0.209635,1.741941 -0.143849,1.848908 0.144357,3.906748 0.307086,5.757333 0.275166,3.130548 0.593344,6.258138 0.724069,9.397998 0.07942,1.91008 -0.042,3.85335 0.122513,5.75734 0.09965,1.15349 0.01922,2.35322 0.379137,3.47124 0.152231,0.47287 0.474641,1.01177 1.030224,1.0398 0.926846,0.0466 1.535769,-1.2242 1.928707,-1.88638 1.26492,-2.13182 2.432388,-4.32138 3.72982,-6.43466 1.348656,-2.19677 3.099308,-4.15138 4.416468,-6.35 m 65.203486,-6.270926 c 0.74337,-0.248158 1.36906,0.756412 0.56049,1.07188 -0.70527,0.275251 -1.43256,-0.780627 -0.56049,-1.07188 m -72.830344,2.027343 c 0.678688,-0.03996 0.710438,0.72771 0.235627,1.046904 -0.690711,0.464229 -2.445343,0.847509 -3.271689,0.751929 -0.606976,-0.0703 -0.705443,-0.721873 -0.158327,-0.983323 0.798407,-0.381508 2.313601,-0.763609 3.194389,-0.81551 m 68.581774,1.880533 c 0.93387,0.15392 0.50546,1.49504 -0.32682,1.40521 -0.98128,-0.10575 -0.68834,-1.57243 0.32682,-1.40521 m -42.15316,0.54652 c 0.73245,-10e-4 2.24197,1.03285 2.74227,1.54737 0.31343,0.32233 0.39869,0.99246 -0.21582,1.01592 -0.70536,0.0268 -2.24925,-1.10973 -2.74455,-1.59563 -0.32606,-0.31987 -0.40251,-0.96656 0.2181,-0.96766 m -22.786847,0.13699 c 0.684107,0.0922 0.571246,0.81433 0.07993,1.08992 -1.335955,0.74938 -3.487504,0.85174 -4.984834,1.17144 -0.486072,0.10381 -1.266868,0.38778 -1.742271,0.15461 -0.763439,-0.37448 0.150199,-0.95386 0.557445,-1.05258 1.407753,-0.34121 2.820586,-0.67716 4.232826,-1.00025 0.559562,-0.1281 1.280668,-0.44078 1.856909,-0.36314 m 68.943052,0.0974 c 0.89746,-0.1436 1.11167,1.37118 0.2269,1.55533 -0.85682,0.17797 -0.99991,-1.43146 -0.2269,-1.55533 m -20.56299,0.25434 c 0.32088,-0.1298 0.68918,0.0786 0.98636,0.18415 0.65363,0.23156 1.35044,0.41402 2.032,0.54 1.61206,0.29803 3.19956,0.27119 4.826,0.16959 0.74761,-0.0467 1.62137,-0.29727 2.36305,-0.18153 0.4953,0.0773 0.69935,0.60359 0.29887,0.95132 -0.54186,0.47024 -1.72974,0.38879 -2.40792,0.43112 -2.22334,0.13885 -4.36372,0.0665 -6.51933,-0.54915 -0.52917,-0.15096 -1.22597,-0.25992 -1.63999,-0.64973 -0.26416,-0.24883 -0.34121,-0.73287 0.061,-0.89577 m -28.62453,1.50139 c 0.57082,-0.16459 1.30081,0.48565 1.75556,0.75751 1.45703,0.87114 3.09804,1.29134 4.57005,2.10939 0.37584,0.20887 1.28448,1.10278 0.47998,1.41918 -0.48599,0.1911 -1.15604,-0.39717 -1.5787,-0.58682 -1.54711,-0.69427 -3.04918,-1.30361 -4.48733,-2.21759 -0.30793,-0.19567 -1.78655,-1.17983 -0.73956,-1.48167 m -5.67623,0.0835 c 0.78715,-0.26864 1.19101,0.8581 0.39176,1.09813 -0.74549,0.22394 -1.15054,-0.83913 -0.39176,-1.09813 m 34.3922,0.69546 c 0.67818,-0.31014 2.06671,0.51578 2.75759,0.68029 1.47659,0.35154 3.05901,0.44586 4.572,0.46474 0.64685,0.008 1.29709,-0.13411 1.94479,-0.0436 0.46567,0.0649 0.96097,0.57015 0.46228,0.97172 -0.50715,0.40827 -1.54432,0.27636 -2.15307,0.27636 -2.00914,0 -4.09617,-0.18449 -6.01133,-0.81915 -0.52324,-0.17349 -1.21751,-0.33418 -1.62645,-0.72585 -0.2413,-0.23157 -0.29803,-0.64313 0.0542,-0.8045 m -41.344855,0.25137 c 1.125559,-0.45542 2.455333,1.16163 0.994495,1.80213 -1.196425,0.52451 -2.251541,-1.29345 -0.994495,-1.80213 m -6.118182,0.12006 c 1.011174,0.12624 0.03802,1.20066 -0.32639,1.43213 -1.648714,1.04716 -3.447288,1.93438 -5.248318,2.68512 -0.555413,0.23148 -1.482598,0.76327 -2.098463,0.57633 -0.584539,-0.17738 -0.311065,-0.77834 0.07696,-0.99111 1.749044,-0.95927 3.658785,-1.61772 5.408168,-2.61959 0.553551,-0.3169 1.522307,-1.16594 2.188041,-1.08288 m 65.401359,1.39522 c 0.70358,-0.17594 1.13961,1.14114 0.38269,1.33579 -0.7874,0.20269 -1.13453,-1.14808 -0.38269,-1.33579 m -53.87407,0.68334 c 1.13334,-0.0146 1.11666,1.92702 -0.0826,1.88748 -1.147151,-0.0378 -1.007197,-1.87351 0.0826,-1.88748 m 37.18712,1.00669 c 0.69681,-0.19981 1.80255,0.42452 2.52222,0.52341 1.66031,0.22826 3.47049,-0.41436 5.07238,-0.068 0.50377,0.10897 0.73067,0.68987 0.23199,0.99289 -0.47668,0.28914 -1.29117,0.21023 -1.83304,0.25366 -1.64084,0.13157 -3.31808,0.14935 -4.91066,-0.32334 -0.34375,-0.10194 -2.35712,-1.01321 -1.08289,-1.37863 m 18.95686,2.36491 c 0.80688,-0.23393 1.19888,1.06087 0.3937,1.23317 -0.7349,0.15731 -1.20226,-0.99881 -0.3937,-1.23317 m -18.01283,1.03556 c 0.43773,-0.19998 1.12268,0.0853 1.57819,0.13902 1.12861,0.13293 2.30378,-0.28025 3.38413,-0.11692 0.46312,0.07 0.82973,0.58657 0.37846,0.94437 -0.31666,0.25112 -0.8382,0.25612 -1.22259,0.3059 -1.16755,0.15113 -2.50275,0.13945 -3.63982,-0.19329 -0.40132,-0.11752 -1.19803,-0.75024 -0.47837,-1.07908 m -41.177634,0.15604 c 1.209294,-0.11633 1.260094,1.62272 -3.38e-4,1.6935 -1.113452,0.0627 -0.999998,-1.59723 3.38e-4,-1.6935 m 29.801824,1.43231 0.16933,0.508 -0.16933,-0.508 m -43.776988,0.4334 c 0.614087,-0.0507 0.640334,0.61358 0.302175,0.96012 -0.470323,0.48193 -1.650238,0.99433 -2.326894,1.01008 -0.52561,0.0122 -0.817287,-0.54864 -0.373126,-0.90238 0.483616,-0.38523 1.78579,-1.01735 2.397845,-1.06782 m 57.077278,1.02295 c 0.57658,-0.0764 1.97442,-0.19668 2.5146,-0.0247 0.89746,0.28592 -0.006,1.03226 -0.49107,1.12226 -0.61129,0.11345 -1.52146,0.19575 -2.10227,-0.0674 -0.51816,-0.23445 -0.55965,-0.94573 0.0787,-1.03014 m -41.745415,1.62661 c 0.847683,0 0.991955,1.40361 0.08035,1.41571 -0.840656,0.0113 -0.938192,-1.41571 -0.08035,-1.41571 m 43.840915,0.43282 c 0.96858,0.18677 -0.0627,1.2468 -0.74253,1.1314 -1.14469,-0.19431 -0.0313,-1.28058 0.74253,-1.1314 m -35.54646,65.99555 c 0.44721,2.21234 1.05639,4.35694 1.40107,6.604 1.27914,8.33966 1.74472,16.78093 2.79527,25.146 0.36262,2.88798 0.773,5.77765 1.32461,8.636 0.15214,0.78824 0.1496,2.51968 0.70485,3.11742 0.35407,0.38185 1.50893,0.1033 1.98687,0.0991 1.9232,-0.0169 3.83371,-0.0262 5.75733,8.5e-4 -0.49623,-4.80145 -0.48683,-9.92632 -0.0464,-14.732 0.11253,-1.22767 0.10406,-2.52391 0.4037,-3.72533 0.0682,-0.27348 0.36127,-1.15824 0.79578,-0.82042 0.36381,0.28363 0.15765,0.95334 0.10566,1.32842 -0.16247,1.17263 -0.2678,2.37405 -0.31995,3.556 -0.13471,3.05138 -0.17679,6.08753 -0.17679,9.144 0,1.75344 -0.10668,3.59918 0.16934,5.334 l 7.874,-0.762 3.77444,-24.13 2.66022,-16.002 c -5.68028,0 -8.32496,-0.65696 -13.92286,-1.58999 -3.0022,-0.50038 -9.19317,-1.11681 -12.23914,-1.20909 -1.01778,-0.0305 -2.03378,-0.17018 -3.048,0.005 m 6.61552,1.59173 c 0.76615,-0.15494 0.34916,1.39954 0.26035,1.71027 -0.4125,1.44441 -1.06824,2.76352 -1.80874,4.064 -0.22699,0.39878 -0.55202,1.1794 -1.08288,1.2319 -0.71569,0.0711 -0.28872,-0.86953 -0.12523,-1.14724 0.79062,-1.34281 1.5726,-2.66022 2.06291,-4.14866 0.13606,-0.41318 0.16417,-1.60359 0.69359,-1.71027 m 16.92859,2.41385 c 0.63246,-0.11346 0.41233,0.99652 0.42926,1.32842 0.0813,1.59004 0.66717,3.2766 1.26153,4.74133 0.13039,0.32258 0.70697,1.41055 0.0542,1.54771 -0.61045,0.12784 -0.93472,-1.06088 -1.08712,-1.46304 -0.55118,-1.45119 -0.98637,-3.0243 -1.14046,-4.572 -0.0449,-0.4445 -0.1397,-1.46982 0.4826,-1.58242 z"
         id="path4138"
         sodipodi:nodetypes="cccscsccscccccccscccscccccccssccccccccsccccccccccsccccccccccccccccccscccscccscccssccccccccccccccccscsccscccccccccccsscccccccsccccccccccccscccccccccccccccccccccccccccccccsccccccccccccccccccccccccsccccscscsscccsccccscccccccccscccccss" /><path
         style="fill:#040404;stroke:none;stroke-width:0.0846667"
         d="m 112.74142,112.55132 c 0.0966,4.11776 0.75243,8.51907 2.67665,12.19199 0.84404,1.6113 1.51156,2.76412 2.99602,3.89467 -2.66844,1.593 -4.58064,4.61908 -6.33646,7.112 -5.44677,7.73371 -8.13325,16.96957 -9.97034,26.162 -0.58387,2.92151 -1.00415,5.91702 -1.20252,8.89 -0.0627,0.94149 -0.3352,2.56117 0.66065,3.048 -0.38058,2.39268 0.7195,4.5593 2.21793,6.35 0.43942,0.52493 1.09271,0.91609 1.47616,1.47066 0.76183,1.10151 1.17306,2.55524 1.3915,3.86334 1.47921,8.86037 2.0414,17.84096 3.07077,26.75467 0.33342,2.88798 0.74236,5.77172 1.23529,8.636 0.275,1.59766 0.72136,3.20971 0.85302,4.826 -1.76386,0 -4.18694,0.0161 -5.67098,1.10405 -1.7493,1.2827 -1.56896,3.95817 -1.18347,5.83861 0.1524,0.74338 0.36822,1.51892 0.89163,2.09381 0.99991,1.09813 2.65057,1.11167 4.01548,1.26492 2.13309,0.23961 4.12073,0.37423 6.26534,0.21336 1.90076,-0.14224 3.55354,-0.53255 4.572,-2.30209 1.53026,1.143 3.30106,1.27 5.16466,1.27 2.82618,0 5.6786,-0.29125 8.46667,-0.75522 1.34112,-0.22268 3.2893,-0.30396 4.38404,-1.18788 0.57573,-0.46397 0.66633,-1.17432 0.69596,-1.8669 0.0601,-1.41816 0.64008,-3.53652 -0.38947,-4.72609 -0.7476,-0.8636 -2.02268,-1.03971 -3.08186,-1.25137 -1.75599,-0.35137 -3.48065,-0.35899 -5.24934,-0.54187 0.51816,-2.73389 0.72814,-5.54651 1.16502,-8.29733 1.17432,-7.3804 2.44348,-14.7464 3.77698,-22.098 0.43349,-2.39184 0.7493,-4.8023 1.1684,-7.19667 0.12954,-0.74253 0.0753,-1.63661 0.2904,-2.34611 0.1905,-0.62654 1.06257,-1.23275 1.48844,-1.71789 0.95674,-1.08797 1.80086,-2.23266 2.40708,-3.556 0.3666,-0.79756 0.47498,-1.64677 0.77808,-2.45533 0.26078,-0.69596 0.8145,-1.22005 1.05664,-1.94734 1.66201,-4.98796 2.21573,-10.70618 1.73313,-15.91733 -0.78401,-8.45913 -3.46795,-16.24279 -7.28218,-23.79133 -1.04309,-2.06578 -2.2225,-3.91397 -3.72703,-5.67267 -0.74083,-0.8647 -2.19032,-2.11252 -2.34442,-3.302 -0.0669,-0.51071 0.32004,-1.23571 0.52748,-1.69333 0.44111,-0.97765 1.01092,-2.07357 1.20904,-3.13267 0.3556,-1.89789 0.83312,-3.77274 1.18533,-5.67266 0.1778,-0.96029 0.16764,-2.02438 0.42841,-2.95936 0.22437,-0.80247 1.20312,-0.93785 1.3335,-1.86664 0.13208,-0.93362 -0.16933,-2.03793 -0.30903,-2.96334 -0.32089,-2.12996 -0.69003,-4.2898 -1.32927,-6.35 0.7747,-0.0302 1.69249,-0.15519 2.2225,-0.78596 0.45636,-0.54314 0.4462,-1.257383 0.41233,-1.923371 -0.0711,-1.415627 -0.47329,-3.068388 -1.1557,-4.316493 -0.31411,-0.576318 -0.29887,-1.356123 -0.89916,-1.736454 -1.40716,-0.89248 -3.11997,0.594868 -4.5593,0.704257 -0.93218,0.07085 -1.95157,-0.240809 -2.87867,-0.349546 -2.66911,-0.313055 -5.67182,-0.763372 -8.29733,0.03311 -1.42621,0.432646 -2.53932,1.348723 -3.64067,2.312102 -0.67581,0.591168 -1.39403,1.135185 -1.97087,1.829198 -2.00245,2.408927 -2.79078,5.267277 -3.25814,8.297157 -0.2032,1.31708 -0.31166,2.73143 -0.26958,4.064 0.0204,0.64415 0.12031,1.35679 0.61714,1.8178 0.52476,0.487 1.48556,0.57844 2.17212,0.63754 m 15.57867,14.98599 c 0.18203,-0.70434 0.62145,-2.96638 -0.34968,-3.28049 -0.61806,-0.19964 -1.63491,1.05097 -2.14037,1.32275 -0.86191,0.46338 -1.95165,0.12734 -2.84395,0.34908 -0.40217,-0.46499 -0.7333,-0.67302 -1.35467,-0.59267 -1.60731,-1.72491 -1.778,1.82279 -1.778,2.794 -3.8768,-2.07526 -5.01354,-7.52212 -5.55295,-11.51466 -0.16374,-1.21192 -0.61417,-2.85056 -0.32918,-4.05647 0.20176,-0.85344 0.94708,-1.79028 1.38819,-2.54753 0.48032,-0.82466 0.79587,-1.7322 1.12285,-2.62467 0.79798,-2.17814 1.42689,-4.88882 3.31495,-6.43975 0.66235,-0.54407 1.62323,-0.79214 2.42681,-1.046134 0.54694,-0.17289 1.11565,-0.399119 1.69333,-0.43307 1.31487,-0.0773 2.68478,0.542624 3.97933,0.741424 0.51139,0.0786 1.21074,0.0342 1.62391,0.38836 1.4605,1.2529 1.47405,3.48962 1.87537,5.1805 0.45296,1.90449 0.57404,3.86554 1.01346,5.75734 0.16425,0.70891 0.85936,1.23232 0.88815,1.95004 0.0838,2.11963 -0.8128,4.38091 -1.24968,6.43195 -0.54187,2.54102 -1.35297,6.1562 -3.72787,7.62 m -7.5317,-15.77306 c -0.8459,0.0724 -0.54644,2.50919 -0.44399,3.07239 0.056,0.30785 0.20599,0.7653 0.60401,0.72466 0.31716,-0.0325 0.45526,-0.36407 0.47507,-0.64152 0.0544,-0.762 0.0232,-1.69206 -0.0684,-2.45186 -0.0372,-0.30776 -0.17738,-0.73702 -0.56668,-0.70367 m 5.96367,0.0611 c -0.30903,0.13208 -0.35645,0.51791 -0.37253,0.81103 -0.0423,0.78655 -0.17865,1.67081 -0.0694,2.45228 0.0474,0.34045 0.30057,0.76276 0.70781,0.58361 0.28956,-0.12751 0.34544,-0.47083 0.36322,-0.75091 0.0483,-0.77716 0.1668,-1.68173 0.0677,-2.45262 -0.044,-0.33977 -0.26586,-0.82737 -0.69681,-0.64339 m -6.30597,8.85393 c -1.77225,-0.25281 -1.37296,2.55397 0.3318,2.56947 0.86809,0.008 0.54229,-1.22581 1.12946,-1.6289 1.01185,-0.69469 3.41469,-1.3755 4.5416,-0.67226 0.71967,0.44891 1.03463,1.32944 1.50707,1.98925 0.30734,0.429 0.84413,0.33121 1.02447,-0.15418 0.47413,-1.28042 -0.74507,-3.0662 -1.85759,-3.61527 -1.50283,-0.74176 -3.53483,-0.18593 -5.00016,0.37872 -0.67827,0.26136 -1.29235,0.46693 -1.67665,1.13317 m 4.99364,1.70748 c -0.40894,0.0909 -0.75184,0.34832 -1.18364,0.3644 -0.37051,0.0137 -0.87292,-0.29261 -1.19863,-0.02 -0.33613,0.28126 -0.0938,0.75447 0.20464,0.94641 0.43265,0.27813 1.02277,0.22631 1.50199,0.12767 0.45381,-0.0935 0.98721,-0.2678 1.24121,-0.68842 0.27093,-0.44738 -0.0898,-0.83566 -0.56557,-0.73008 m 1.49775,4.02166 -0.0288,0.0564 0.0288,-0.0564 m 3.32994,1.0442 c 1.32842,2.78807 1.86944,5.72406 2.88798,8.636 0.96097,2.74743 1.96596,5.47328 2.68901,8.29733 0.54356,2.12446 0.83312,4.29184 1.2827,6.43467 1.30133,6.18972 2.24536,12.45116 1.87198,18.796 -0.1524,2.59427 -0.59266,5.14688 -1.03293,7.70466 -0.38269,2.21573 -0.76285,4.52544 -1.85674,6.51934 -3.09287,-0.49192 -6.35593,-0.46398 -9.48267,-0.79079 -4.20835,-0.44027 -8.34322,-1.21751 -12.53066,-1.78393 -1.81145,-0.24553 -3.60325,-0.2159 -5.41867,-0.33274 -0.524,-0.0339 -1.53509,0.20574 -1.95199,-0.15578 -0.69478,-0.60113 -0.66438,-2.76945 -0.67192,-3.62543 -0.0105,-1.18532 -0.21158,-2.37066 -0.16247,-3.556 0.0843,-2.03987 0.52002,-4.02505 0.96122,-6.01133 0.71823,-3.23341 1.29726,-6.57208 2.28092,-9.73667 1.69249,-5.44507 4.05604,-10.70525 5.94699,-16.08667 0.83879,-2.38717 1.67199,-4.7724 2.39852,-7.19666 0.53289,-1.77842 0.9359,-3.67293 1.78206,-5.334 0.64499,0.20506 1.22403,0.48903 1.69782,0.98035 0.30472,0.31598 0.50987,0.8526 0.93921,1.01456 0.6869,0.25908 1.35594,-0.12852 2.01964,-0.19397 0.37702,-0.0371 0.80984,-0.16535 1.18533,-0.12437 0.41402,0.0452 0.75608,0.36254 1.18534,0.20074 0.80433,-0.30336 1.10405,-1.06197 1.64507,-1.63796 0.68411,-0.72771 1.55109,-1.39658 2.33426,-2.01735 m 2.70933,3.47133 c 2.1082,2.70527 3.62628,5.77181 5.03344,8.89 2.21996,4.92024 3.90567,9.90499 4.79467,15.24 0.50461,3.02616 0.99653,6.24019 0.71713,9.31333 -0.2557,2.8023 -0.63162,5.54533 -1.24122,8.29734 -0.19304,0.86868 -0.31072,2.42062 -1.0033,3.048 -0.42926,0.38862 -1.35043,0.17864 -1.86605,0.0847 0.30988,-2.00067 0.48937,-4.00786 0.75861,-6.01133 0.18204,-1.35822 0.52494,-2.68359 0.5097,-4.064 -0.0195,-1.76335 -0.40386,-3.58275 -0.61722,-5.334 -0.6223,-5.12132 -1.66963,-10.30486 -2.86512,-15.32467 -0.8145,-3.419 -2.13699,-6.64049 -3.15807,-9.99066 -0.37338,-1.22589 -1.19973,-2.85589 -1.06257,-4.14867 m -15.66333,0.16933 c -1.49157,4.77063 -3.45499,9.37591 -5.20988,14.05467 -1.28558,3.42773 -2.36025,6.9237 -3.45804,10.414 -0.73533,2.33807 -1.79781,4.62068 -2.27195,7.02733 -0.48031,2.43781 -1.0734,4.81364 -1.3986,7.28134 -0.0817,0.61933 0.0645,2.34289 -0.34214,2.7907 -0.41512,0.45711 -2.06223,0.17263 -2.64406,0.17263 0,-4.87892 1.01397,-9.83234 2.12395,-14.56267 1.54813,-6.59748 3.52891,-13.43651 7.15264,-19.21933 1.68885,-2.69502 3.62848,-5.86376 6.04808,-7.95867 m -12.61533,42.75667 0.33866,5.92667 c -1.73431,-1.56718 -2.45533,-3.56532 -2.45533,-5.842 l 2.11667,-0.0847 m 35.98333,3.302 c -0.43688,1.73567 -1.24714,3.62458 -2.62467,4.826 l 0.8763,-3.47133 0.40386,-1.37838 1.34451,0.0237 m -4.74133,7.78933 -5.00126,29.972 -1.43341,10.07534 c -2.54169,0 -5.20201,0.25484 -7.70467,0.67733 -0.2816,-1.77038 -0.16933,-3.63135 -0.16933,-5.41867 0,-3.05646 0.0351,-6.09261 0.17653,-9.144 0.0535,-1.154 0.15816,-2.33002 0.33917,-3.47133 0.0632,-0.39793 0.25874,-1.04309 -0.14545,-1.32927 -0.48692,-0.34459 -0.82169,0.37423 -0.91711,0.7366 -0.31454,1.1955 -0.30878,2.50021 -0.40733,3.72534 -0.39845,4.95384 -0.24884,9.94664 0.0229,14.90133 -1.85141,-0.33782 -3.72314,-0.0906 -5.588,-0.0847 -0.50021,0.002 -1.60943,0.30142 -1.99119,-0.0999 -0.55457,-0.58166 -0.57007,-2.33934 -0.71053,-3.11743 -0.5174,-2.86766 -0.9624,-5.74463 -1.32528,-8.636 -1.32699,-10.57487 -1.73076,-21.27589 -4.18567,-31.66533 9.747,0 19.26844,2.87866 29.04067,2.87866 m -22.65172,-1.37329 c -0.48023,0.25739 -0.50445,1.32334 -0.66159,1.79663 -0.54568,1.64168 -1.847,3.04207 -2.3197,4.65582 -0.12615,0.43095 0.1541,0.89916 0.64694,0.72644 0.51266,-0.1795 0.79959,-0.88223 1.04894,-1.31826 0.75946,-1.32758 1.47133,-2.73643 1.82406,-4.23334 0.0815,-0.34628 0.36923,-2.11243 -0.53865,-1.62729 m 16.91809,2.45279 c -0.57573,0.28787 -0.46228,1.1938 -0.40725,1.7145 0.16764,1.59343 0.64347,3.15214 1.17772,4.65667 0.15324,0.4318 0.57827,1.76784 1.27592,1.37583 0.59606,-0.33443 0.0119,-1.37075 -0.15494,-1.79916 -0.72305,-1.85759 -0.99991,-3.55346 -1.20565,-5.49741 -0.0373,-0.35052 -0.32851,-0.62907 -0.6858,-0.45043 z"
         id="path4136" /></g></g></svg>
