<?xml version="1.0" encoding="UTF-8" standalone="no"?>
<!-- Created with Inkscape (http://www.inkscape.org/) -->

<svg
   width="119.0625"
   height="143.94035"
   viewBox="0 0 119.0625 143.94035"
   version="1.1"
   id="svg5"
   xml:space="preserve"
   xmlns:inkscape="http://www.inkscape.org/namespaces/inkscape"
   xmlns:sodipodi="http://sodipodi.sourceforge.net/DTD/sodipodi-0.dtd"
   xmlns="http://www.w3.org/2000/svg"
   xmlns:svg="http://www.w3.org/2000/svg"><sodipodi:namedview
     id="namedview7"
     pagecolor="#ffffff"
     bordercolor="#000000"
     borderopacity="0.25"
     inkscape:showpageshadow="2"
     inkscape:pageopacity="0.0"
     inkscape:pagecheckerboard="0"
     inkscape:deskcolor="#d1d1d1"
     inkscape:document-units=""
     showgrid="false" /><defs
     id="defs2" /><g
     inkscape:label="Layer 1"
     inkscape:groupmode="layer"
     id="layer1"
     transform="translate(-15.040503,-25.65278)"><g
       style="fill:none"
       id="g327"
       transform="matrix(1.5023295,0,0,1.5023295,14.933402,40.476148)"
       inkscape:label="blob"
       inkscape:export-filename="wordsmith.svg"
       inkscape:export-xdpi="96"
       inkscape:export-ydpi="96"><path
         opacity="0.689993"
         d="m 72.8975,12.5995 c 7.772,9.1384 7.0288,21.9294 5.2714,33.7952 C 76.4057,58.3001 73.8816,71.573 63.3103,77.3307 52.9213,82.9893 40.9429,76.9223 29.8966,72.6868 18.6969,68.3925 5.60747,64.8955 1.4971,53.6294 -2.76479,41.948 3.209,29.4434 10.4245,19.3156 17.4138,9.50523 27.2734,1.92365 39.2519,0.635917 51.7036,-0.702696 64.7851,3.06102 72.8975,12.5995 Z"
         fill=""
         id="path318"
         inkscape:export-filename="speaker.svg"
         inkscape:export-xdpi="96"
         inkscape:export-ydpi="96" /></g><g
       id="g3983"
       inkscape:label="decider"
       transform="translate(2.8281077,-31.109185)"><path
         style="opacity:0.6;fill:#020202;stroke:none;stroke-width:0.0846667"
         d="m 109.97255,94.954578 c -1.04987,0.109813 -2.72085,0.111591 -3.62145,0.69723 -0.59994,0.390059 -0.68842,1.330452 -0.0739,1.756749 0.44941,0.311742 1.0712,0.207094 1.57869,0.146304 1.12353,-0.134451 2.26907,-0.1524 3.38667,-0.299297 0.95504,-0.125476 1.94141,-1.310047 0.90932,-2.075519 -0.56049,-0.415628 -1.52654,-0.293793 -2.17932,-0.225467 m 10.16,3.262207 c 0.0389,0.441875 0.0618,0.919056 0.59267,0.931333 l -0.59267,-0.931333 m -8.97467,1.393359 c -1.86182,0.162391 -3.72948,0.248412 -5.588,0.451016 -0.71746,0.0781 -1.67563,0.0799 -1.99923,0.86894 -0.38049,0.92777 0.55033,1.42037 1.3219,1.43349 1.32546,0.0225 2.65422,-0.15579 3.97933,-0.16671 1.06511,-0.009 2.36813,0.12344 3.38582,-0.23546 0.86106,-0.30378 1.21074,-1.34569 0.47922,-1.995168 -0.4335,-0.384302 -1.03294,-0.403775 -1.57904,-0.356108 m 1.778,5.841666 c -2.99804,0.2689 -5.97865,0.45449 -8.97466,0.8238 -0.89408,0.11024 -2.71899,0.008 -2.82397,1.25519 -0.12506,1.48513 1.85174,1.14723 2.7393,1.08364 2.44856,-0.17543 4.91067,-0.53568 7.366,-0.57497 0.96181,-0.0154 2.73135,0.20422 3.5433,-0.35526 0.68749,-0.47422 0.70527,-1.50029 -0.006,-1.96503 -0.5207,-0.33976 -1.25137,-0.32063 -1.84404,-0.26737 m 1.35467,5.84191 c -4.12835,0.37558 -8.23349,0.0735 -12.36133,0.66328 -0.97265,0.13894 -2.15374,0.24325 -2.213514,1.61004 -0.07671,1.75328 1.302754,0.84631 2.298184,0.74843 3.40478,-0.33451 6.82582,-0.4196 10.24466,-0.43569 1.16925,-0.005 3.35026,0.26424 4.3053,-0.49115 0.68919,-0.54568 0.67903,-1.58674 -0.16341,-1.97561 -0.6079,-0.28076 -1.46134,-0.17831 -2.10989,-0.1193 m 1.35467,8.6824 v 0.0847 l 10.07533,-0.254 v -2.37066 c -1.83981,0.75988 -3.82439,0.9221 -5.75733,1.35492 -1.45288,0.3252 -2.85666,0.92659 -4.318,1.18508 m -18.457335,0.762 c 1.743964,0 3.512225,0.0269 5.249335,-0.13107 0.53001,-0.0483 1.25476,0.0954 1.74193,-0.13775 0.78037,-0.37363 1.7123,-1.79299 2.15273,-2.52518 -2.00126,0.008 -4.01184,0.16315 -6.01133,0.24646 -0.635591,0.0264 -1.826766,-0.17424 -2.362537,0.22979 -0.514265,0.38786 -0.680551,1.71492 -0.770128,2.31775 m -1.134836,6.36485 c 2.481495,0.24689 4.665271,-0.29459 7.146171,-0.50016 5.23917,-0.43417 10.49697,-0.88409 15.748,-1.11591 1.66454,-0.0735 3.33586,-0.15917 4.99533,-0.31657 0.43434,-0.0412 1.41817,0.0546 1.72466,-0.30632 0.38439,-0.45127 0.13801,-1.78012 0.13801,-2.34789 -2.44602,0.0194 -4.92168,0.35822 -7.366,0.49665 -5.10879,0.28931 -10.22689,0.61638 -15.32467,1.08204 -1.66565,0.15223 -3.332394,0.27813 -4.995332,0.46262 -0.536024,0.0594 -1.519851,-10e-4 -1.945555,0.36568 -0.494284,0.42587 0.32077,0.66533 0.158634,1.2723 m -0.75754,6.14797 -0.224294,1.53293 c 4.430184,-0.0627 8.588407,-0.69389 13.013417,-0.93434 5.82168,-0.31665 11.84572,-0.35306 17.61067,-1.28185 l -0.0847,-2.45534 -8.128,0.66083 -21.977689,1.57022 m -0.628309,5.98162 v 2.37067 c 10.167618,-1.37499 21.428288,-1.524 31.671268,-1.524 l -0.76793,-2.54 c -5.19769,0 -10.3886,0.19981 -15.57867,0.41571 -5.07255,0.21082 -10.31909,0.36237 -15.324668,1.27762 m 11.006668,52.15467 c 0.86826,0.3937 2.25806,0.77216 3.21733,0.6206 0.46567,-0.0745 0.8145,-0.48852 1.28186,-0.51054 0.65447,-0.0296 1.36398,0.2938 2.02014,0.36492 0.80518,0.0872 1.49098,-0.0847 2.27415,-0.19643 0.83905,-0.12023 1.43933,0.81534 2.25467,0.0152 0.41402,-0.4064 0.51224,-1.03632 0.6985,-1.56379 0.30311,-0.86106 0.73576,-1.72128 0.89408,-2.62467 0.0796,-0.45466 -0.0601,-0.90339 0.011,-1.35467 0.23791,-1.52484 0.9017,-3.07678 1.30302,-4.572 0.46313,-1.7272 0.61468,-3.50858 0.98637,-5.24933 1.4605,-6.83853 2.6289,-13.68129 3.77698,-20.574 0.39793,-2.38845 0.76962,-4.79467 1.0778,-7.19667 0.11938,-0.93133 0.48684,-2.2225 0.17103,-3.13266 -0.80264,-2.31733 -3.70501,-1.39446 -5.48894,-1.35552 -1.75514,0.0381 -3.49758,0.3175 -5.24933,0.41233 -2.25806,0.12277 -4.51528,0.10837 -6.77334,0.28871 -1.43493,0.1143 -2.88891,0.5461 -4.318,0.56642 -1.61205,0.022 -3.21809,-0.0914 -4.825998,0.16849 -0.634492,0.10245 -1.441873,0.25231 -1.686475,0.94149 -0.386165,1.08882 -0.361732,1.60243 -0.424301,2.74204 -0.03133,0.5715 0.113997,2.00184 0.111881,2.58604 -0.0037,1.04563 0.314706,2.1844 0.481245,3.21733 0.516805,3.20802 1.378204,6.14595 2.392088,9.22867 1.64414,4.99956 2.05082,9.56348 3.28179,14.62654 0.14173,0.58336 0.17083,1.71836 0.32213,2.30679 0.59386,2.30886 0.94463,4.69985 1.46956,7.02733 0.22979,1.01854 0.73389,2.18017 0.74075,3.21734 z"
         id="path3979"
         sodipodi:nodetypes="ccscccccccccsccccccccssccccccccccccccccccccccccccssccscccccccccccccccccsccccccccccccccccccccccccccss" /><path
         style="fill:#040404;stroke:none;stroke-width:0.0846667"
         d="m 104.80788,93.221451 c -0.62153,0.712978 -1.49072,1.143847 -2.09304,1.871811 -3.517138,4.251029 -5.998125,8.875268 -8.574955,13.706858 h -0.08467 c -0.667851,-0.63018 -1.55846,-0.98586 -2.285831,-1.55262 -0.241469,-0.18813 -0.666411,-0.4329 -0.732451,-0.75929 -0.08263,-0.40835 0.48387,-0.82211 0.727794,-1.07476 0.326136,-0.33782 0.663618,-0.8669 1.107948,-1.05418 0.345525,-0.14571 0.664549,0.1115 1.013122,0.0888 0.665818,-0.0434 1.341458,-0.92236 1.18601,-1.57387 -0.143256,-0.59994 -0.771906,-1.08009 -1.163235,-1.52552 -1.031748,-1.17433 -2.186855,-2.245191 -3.256873,-3.385313 -0.45449,-0.484293 -1.044786,-1.12141 -1.749467,-0.708321 -0.533569,0.312928 -1.270593,1.137243 -1.081447,1.807633 0.156294,0.55372 0.79121,0.842942 0.37321,1.441281 -1.67623,2.39954 -4.389797,4.07949 -5.907447,6.60281 -0.511387,-0.41783 -1.00838,-1.32181 -1.694857,-1.43713 -0.909151,-0.15265 -1.857164,1.34375 -1.414018,2.11447 0.442383,0.76953 1.294807,1.3423 1.923542,1.95207 1.160441,1.12531 2.232236,2.33375 3.386666,3.46465 0.333587,0.32673 0.754296,0.79993 1.266783,0.78401 1.292606,-0.0403 1.154261,-1.88942 0.595884,-2.56007 0.96266,-0.61561 1.803231,-1.72533 2.370667,-2.70933 1.269238,1.04953 2.483781,2.16577 3.725333,3.24764 0.421047,0.36687 1.204891,0.83473 1.32715,1.41673 0.202015,0.96165 -0.266023,2.40708 -0.408771,3.37896 -0.335026,2.2816 -0.612732,4.55405 -0.737531,6.858 -0.199898,3.69189 -0.483955,7.90982 0.481838,11.51467 0.150029,0.56049 0.32385,1.12776 0.656421,1.60867 0.303191,0.43857 0.828039,0.84412 0.982387,1.36652 0.142409,0.4809 -0.01405,1.09812 -0.01533,1.59681 -0.0031,1.2446 0.01465,2.48327 -0.06816,3.72533 -0.03302,0.4953 -0.206925,1.6019 0.351536,1.86775 0.46372,0.22013 1.343745,-0.32681 1.833118,-0.42841 -0.01482,1.86436 -0.187621,3.72448 0.03514,5.588 0.502412,4.20285 2.012611,8.42518 3.023023,12.53066 1.063921,4.32224 1.952671,8.68342 2.870541,13.03867 0.7758,3.68046 1.63499,7.34399 2.02996,11.09133 -1.85055,-0.19896 -3.66369,-0.4191 -5.503327,0.0152 -2.872571,0.67734 -5.411047,2.82956 -6.145869,5.7421 -0.380238,1.50706 -0.199136,3.29607 0.929132,4.46532 1.123103,1.16332 3.073061,1.62814 4.62407,1.80001 1.069086,0.11853 2.143084,0.0847 3.217334,0.0847 3.34399,0 7.41595,-0.1778 9.22866,-3.556 h 0.16934 c 0.60282,1.57818 2.22758,2.64498 3.64066,3.44254 3.00652,1.69588 6.23909,1.93464 9.56734,1.1955 1.49944,-0.33274 2.96079,-0.7747 4.14782,-1.79917 0.46397,-0.39963 0.87545,-0.86953 1.18448,-1.39954 2.27838,-3.90398 -2.4257,-6.95537 -5.67097,-7.81812 -1.83219,-0.48768 -3.77783,-0.71797 -5.67267,-0.73321 1.27339,-3.05478 2.03285,-6.26957 2.78638,-9.48267 1.36229,-5.80475 2.32072,-11.62727 3.16484,-17.526 0.88308,-6.17813 2.17678,-12.28344 2.17678,-18.542 0.89493,-0.0974 1.12946,-0.78486 1.07612,-1.60867 -0.14309,-2.19964 -0.26332,-4.4069 -0.41572,-6.604 -0.23029,-3.32359 -0.47159,-6.67241 -0.77554,-9.99066 -0.1795,-1.96529 -0.56812,-3.9486 -0.56304,-5.92633 0.002,-0.83558 0.62908,-1.10024 1.14554,-1.64702 0.46821,-0.4964 0.86191,-1.25375 1.04733,-1.90932 0.65024,-2.30539 -1.37499,-4.51468 -2.36135,-6.43467 1.40208,-0.43992 0.81788,-1.37337 0.33189,-2.37066 -0.79671,-1.63619 -1.56803,-3.11531 -2.67123,-4.572 -1.67979,-2.218438 -3.33333,-4.729905 -5.45,-6.557774 -0.68834,-0.594614 -1.42409,-1.133179 -2.11497,-1.726353 -0.26839,-0.230632 -0.6731,-0.541613 -0.71882,-0.921936 -0.0584,-0.486833 0.68326,-1.023789 0.94827,-1.377272 0.78147,-1.040469 1.40038,-2.243921 1.8271,-3.471334 0.57489,-1.652693 0.79418,-3.361097 1.0812,-5.079999 0.40978,-2.448137 0.80518,-4.96316 0.83989,-7.450667 0.89577,0.416729 2.06671,0.114723 1.80679,-1.100667 -0.0762,-0.358732 -0.32851,-0.654981 -0.38778,-1.016 -0.072,-0.436202 0.10499,-0.829902 -0.0491,-1.27 -0.2667,-0.761915 -0.76454,-1.433067 -1.0414,-2.201333 -0.22098,-0.613325 -0.23453,-1.264158 -0.49784,-1.862666 0.8873,-0.274659 2.14206,-0.63119 2.678,-1.448901 1.07612,-1.641009 0.31073,-3.875278 -1.74667,-3.885099 0.0499,-0.545338 0.42079,-1.047158 0.2794,-1.60672 -0.40132,-1.58115 -2.98789,-0.61214 -4.00473,-0.340614 v -0.08467 c 0.98636,-0.492422 1.98458,-2.336038 0.25315,-2.651337 -0.86953,-0.158411 -1.66031,0.654558 -2.53915,0.704003 -0.11854,-2.453978 -2.9718,-1.346538 -4.48649,-1.198456 -0.74253,0.07256 -1.17517,-0.690203 -1.94818,-0.62882 -1.44289,0.11447 -2.87773,1.2192 -4.14867,1.832441 -1.47303,0.710946 -3.04021,0.932349 -4.30631,2.074333 -1.482429,1.337226 -2.119969,3.158829 -2.036064,5.117169 0.02963,0.689695 0.339767,1.434423 0.238083,2.116667 -0.247481,1.660228 -0.97663,3.186345 -0.55516,4.910666 0.2159,0.882904 1.214628,1.432137 1.304714,2.288709 0.112691,1.070356 -0.111168,2.213272 -0.05241,3.299291 0.204724,3.781721 0.714671,7.87527 2.690027,11.176 0.86276,1.44145 1.89289,2.938018 3.47912,3.640666 m 12.27667,-24.807332 c 0.23283,1.162219 0.46228,2.34044 0.82127,3.471333 0.21505,0.677587 0.6079,1.332484 0.72898,2.032 0.24553,1.418844 0.002,2.985939 -0.15833,4.402666 -0.30565,2.713821 -0.52832,5.683166 -1.33943,8.297333 -0.6223,2.00279 -1.51384,3.865372 -3.26982,5.116746 -2.7178,1.936919 -8.28641,1.487762 -10.44245,-1.140376 -2.58166,-3.14689 -3.15544,-7.254832 -3.531531,-11.173036 -0.134197,-1.398609 -0.387519,-3.369987 -0.0047,-4.733798 0.256111,-0.912453 1.306831,-1.552871 1.694691,-2.462869 0.54576,-1.280414 0.80441,-2.723218 1.16907,-4.063999 0.12971,-0.476674 0.15596,-1.22682 0.64423,-1.483276 0.8719,-0.457877 1.84311,-0.185843 2.76606,-0.251121 1.06883,-0.07552 2.24621,-0.462703 3.302,-0.415375 0.50123,0.02252 0.95589,0.357124 1.43933,0.478706 0.62992,0.158665 1.31149,0.09635 1.93125,0.275082 0.49361,0.142324 0.82804,0.658452 1.28693,0.895011 0.91102,0.470239 1.95326,0.64643 2.96249,0.754973 M 106.00282,75.5857 c -0.80476,0.06782 -0.55296,2.188972 -0.50716,2.732193 0.0246,0.2921 0.13775,0.65913 0.49547,0.65913 0.86792,0 0.66692,-2.30886 0.56524,-2.853182 -0.0516,-0.276352 -0.23377,-0.56515 -0.55355,-0.538141 m 5.77824,0.06977 c -0.58505,0.210227 -0.50038,2.39268 -0.40809,2.915666 0.0567,0.318262 0.3158,0.696722 0.68918,0.562779 0.64686,-0.231817 0.42249,-2.371852 0.34375,-2.926249 -0.0432,-0.306409 -0.25231,-0.685969 -0.62484,-0.552196 m -5.92218,10.58291 c -0.64694,0.227838 -0.0972,0.976376 0.22471,1.204552 0.64795,0.458978 1.68368,0.714248 2.43611,0.370417 0.33867,-0.154601 0.67141,-0.671745 0.21421,-0.916432 -0.46829,-0.250529 -1.11989,0.01473 -1.64,-0.203877 -0.3572,-0.150114 -0.81991,-0.600879 -1.23503,-0.45466 m 16.38018,16.04238 c 1.21242,1.60325 2.02438,3.01583 2.46549,4.99534 -1.78054,0.60604 -3.41207,1.45356 -5.08,2.30894 -0.55541,0.28482 -1.45119,1.05461 -2.10989,0.91643 -0.4335,-0.0908 -0.65956,-0.58326 -0.83736,-0.93937 -0.46736,-0.93565 -0.80941,-1.89154 -1.14554,-2.87867 -0.12869,-0.3771 -0.46058,-1.29582 -1.02531,-0.9061 -0.49869,0.34366 -0.10668,1.15223 0.0389,1.58343 0.34374,1.02142 0.79078,2.0138 1.30048,2.96334 0.17272,0.323 0.59012,0.83921 0.4572,1.22978 -0.24046,0.70764 -1.90416,1.2214 -2.52053,1.55016 -0.86445,0.46084 -1.58581,1.13818 -2.45533,1.58395 -1.14216,0.58606 -2.40962,0.89221 -3.556,1.50503 -0.63255,0.33833 -1.49581,1.35975 -2.20134,1.40411 -0.47709,0.03 -1.00981,-0.51977 -1.35466,-0.794 -0.86555,-0.68834 -1.72068,-1.38337 -2.62467,-2.0215 -0.39387,-0.27796 -1.03903,-0.60892 -1.19524,-1.09898 -0.26924,-0.84505 1.20599,-1.41046 0.6897,-2.02302 -0.3247,-0.38532 -0.98722,-0.5019 -1.441791,-0.66065 -0.895942,-0.31293 -1.73592,-0.75616 -2.624666,-1.08264 -0.479298,-0.1761 -1.259248,-0.18211 -1.4975,-0.71924 -0.200236,-0.45144 0.115062,-0.94065 0.319617,-1.32834 0.517906,-0.98145 0.967317,-1.9922 1.506982,-2.96333 1.813814,-3.2639 3.856818,-7.110897 6.707288,-9.595102 0.72754,-0.634068 1.57574,-0.830918 2.36161,-1.326896 1.65193,0.432478 3.14706,0.520954 4.826,0.128694 0.78401,-0.18305 2.00829,-0.978916 2.794,-0.778341 0.64262,0.163999 1.27508,0.835575 1.77631,1.247055 m 8.62076,14.8419 c 0.61976,0.10388 1.03547,1.26204 1.30556,1.74802 0.93133,1.67454 2.2606,3.58945 0.39539,5.18059 -2.55778,2.18118 -6.64295,2.66412 -9.81202,3.39776 -1.18618,0.27449 -2.48412,0.51054 -3.556,1.11252 -1.10067,0.61815 -1.90585,1.63262 -2.96333,2.30547 -0.73237,0.466 -1.61392,0.67141 -2.45534,0.83811 -0.57547,0.11397 -1.20015,0.25892 -1.77774,0.0875 -0.90466,-0.26848 -1.16874,-1.04657 -1.18186,-1.91525 -0.0258,-1.70713 1.21378,-2.89187 2.4516,-3.9182 2.35289,-1.95089 5.38311,-2.39074 8.04334,-3.76826 1.12945,-0.58471 2.2081,-1.24486 3.21648,-2.02006 0.6731,-0.51673 1.1574,-1.12353 1.94818,-1.47532 0.99314,-0.44205 2.03624,-0.78173 3.048,-1.18025 0.38693,-0.1524 0.90848,-0.46449 1.33774,-0.3926 m -27.499734,1.66336 2.624667,1.10066 -0.254,0.84667 -2.455334,-1.86267 0.08467,-0.0847 m -1.947333,2.70933 c 0.773938,0.76225 2.675382,1.67496 3.010916,2.72102 0.181694,0.56659 -0.296164,1.47955 -0.469646,2.02031 -0.500973,1.561 -0.820251,3.16298 -1.250612,4.74134 -1.144862,4.19896 -1.375325,8.62601 -1.375325,12.954 h -0.08467 c -0.917024,-1.53332 -0.917024,-3.43578 -1.032679,-5.16467 -0.266615,-3.98433 -0.06773,-8.06162 0.41402,-12.02267 0.188891,-1.55253 0.07535,-3.85648 0.787993,-5.24933 m 8.381997,6.77333 c -0.19414,0.62078 -0.45517,1.28651 -0.39175,1.94734 0.15629,1.62729 1.71247,2.81516 3.27042,2.94496 0.94191,0.0785 2.19625,-0.48116 3.048,-0.24647 0.72982,0.20117 1.4461,0.96749 2.01506,1.44255 0.25062,0.20871 0.56727,0.5583 0.92964,0.4252 0.29295,-0.10753 0.48514,-0.43222 0.65702,-0.67259 0.28278,-0.3937 0.85428,-0.98256 0.63584,-1.51147 -0.31919,-0.77639 -2.11497,-1.46753 -1.07442,-2.39768 0.86699,-0.77504 2.51376,-1.04944 3.61019,-1.3633 2.83041,-0.81034 5.75395,-1.59808 8.636,-2.1772 0.0347,2.47811 0.53086,4.98119 0.74761,7.45066 0.44873,5.09135 0.77639,10.21334 0.77639,15.32467 -6.86054,-0.25315 -13.91243,0.24553 -20.74333,0.96012 -3.2479,0.34036 -6.480387,0.9017 -9.736667,1.15655 0.05791,-7.29404 0.369146,-14.76875 2.212509,-21.844 0.398187,-1.52849 0.664464,-3.09999 1.258824,-4.572 l 4.148664,3.13266 m 8.382,67.818 c 0.0118,-2.81432 0.20659,-5.74886 0.46143,-8.55133 0.0466,-0.51393 0.46313,-2.60011 -0.22352,-2.73304 -1.00245,-0.19389 -0.91101,1.93463 -0.91609,2.47904 -0.0254,2.90407 -0.12361,5.91651 -0.42249,8.80533 -1.20142,-8.4e-4 -2.24112,-0.32342 -3.38666,-0.65278 -0.36508,-0.10498 -0.95589,-0.17018 -1.17805,-0.519 -0.43646,-0.68496 -0.33537,-2.09127 -0.45602,-2.89222 -0.32139,-2.13275 -0.78985,-4.23926 -1.22894,-6.35 -1.55879,-7.4913 -3.27177,-14.92842 -5.127407,-22.352 -0.649224,-2.59757 -1.404112,-5.35093 -1.407499,-8.04333 -8.47e-4,-0.68326 -0.244517,-1.95834 0.0994,-2.56286 0.247226,-0.43519 1.162134,-0.38608 1.59385,-0.43603 1.610186,-0.18796 3.215216,-0.41318 4.825996,-0.59436 4.24773,-0.47922 8.51662,-0.67395 12.78467,-0.90594 2.55862,-0.138 5.22224,-0.45466 7.7834,-0.23198 0.98298,0.0855 0.63162,2.31817 0.57574,3.03784 -0.25993,3.32486 -0.85514,6.61331 -1.36483,9.906 -1.26069,8.13308 -2.40877,16.19419 -4.2926,24.21466 -0.49361,2.10312 -0.97028,4.23757 -1.72551,6.26534 -0.20574,0.55202 -0.41486,1.7001 -0.9,2.06332 -0.36238,0.27178 -1.08882,0.13801 -1.51554,0.13801 -1.32842,0 -2.65006,-0.0847 -3.97933,-0.0847 m 9.32434,-44.56006 c -0.72559,0.0635 -0.30395,1.33265 -0.18542,1.71873 0.46482,1.51299 1.05749,2.98619 1.76191,4.40267 0.2049,0.41063 0.51308,1.33942 1.11506,1.24375 0.69427,-0.11091 0.38439,-0.9398 0.18966,-1.32842 -0.73576,-1.46812 -1.4241,-2.93201 -1.95834,-4.48733 -0.14732,-0.43011 -0.27517,-1.60528 -0.92287,-1.5494 m -9.73751,1.09389 c -0.47752,0.0466 -0.4318,0.70951 -0.4335,1.04817 -0.005,1.03802 -0.0576,2.09635 0.009,3.13182 0.022,0.33867 0.13123,0.90509 0.58504,0.87546 0.46821,-0.0305 0.49869,-0.61045 0.50462,-0.95928 0.0186,-1.02954 0.0779,-2.10904 -0.0389,-3.13266 -0.0398,-0.35222 -0.12785,-1.01262 -0.62653,-0.96351 m -8.46735,0.0847 c -0.5676,0.0533 -0.65853,1.13707 -0.80094,1.55617 -0.51003,1.49945 -1.32774,2.8448 -2.069254,4.23333 -0.197442,0.36915 -0.345524,1.1447 0.325204,1.10406 0.55448,-0.0322 0.8846,-0.76962 1.10981,-1.18872 0.69333,-1.29117 1.37084,-2.65346 1.7824,-4.064 0.11727,-0.40217 0.48557,-1.71958 -0.34722,-1.64084 z"
         id="path3977"
         sodipodi:nodetypes="ccccsssccccscccccccccccssccccccsccsccccsccsccccccccccccccccccccccccccccccccccccccccccccccccccccccccccssccccccccccssccccccccccscccsccccccccccsccccccsccsccccccccsscssscccscccccccccccccccccscccccsccccccccccccccsccccsccccccccccscccccccccccccccccccccc" /></g></g></svg>
