<?xml version="1.0" encoding="UTF-8" standalone="no"?>
<!-- Created with Inkscape (http://www.inkscape.org/) -->

<svg
   width="136.84866"
   height="147.40073"
   viewBox="0 0 136.84866 147.40073"
   version="1.1"
   id="svg5"
   xml:space="preserve"
   xmlns:inkscape="http://www.inkscape.org/namespaces/inkscape"
   xmlns:sodipodi="http://sodipodi.sourceforge.net/DTD/sodipodi-0.dtd"
   xmlns="http://www.w3.org/2000/svg"
   xmlns:svg="http://www.w3.org/2000/svg"><sodipodi:namedview
     id="namedview7"
     pagecolor="#ffffff"
     bordercolor="#000000"
     borderopacity="0.25"
     inkscape:showpageshadow="2"
     inkscape:pageopacity="0.0"
     inkscape:pagecheckerboard="0"
     inkscape:deskcolor="#d1d1d1"
     inkscape:document-units=""
     showgrid="false" /><defs
     id="defs2" /><g
     inkscape:label="Layer 1"
     inkscape:groupmode="layer"
     id="layer1"
     transform="translate(-15.040503,-21.266281)"><g
       style="fill:none"
       id="g327"
       transform="matrix(1.5023295,0,0,1.5023295,14.933402,40.476148)"
       inkscape:label="blob"
       inkscape:export-filename="wordsmith.svg"
       inkscape:export-xdpi="96"
       inkscape:export-ydpi="96"><path
         opacity="0.689993"
         d="m 72.8975,12.5995 c 7.772,9.1384 7.0288,21.9294 5.2714,33.7952 C 76.4057,58.3001 73.8816,71.573 63.3103,77.3307 52.9213,82.9893 40.9429,76.9223 29.8966,72.6868 18.6969,68.3925 5.60747,64.8955 1.4971,53.6294 -2.76479,41.948 3.209,29.4434 10.4245,19.3156 17.4138,9.50523 27.2734,1.92365 39.2519,0.635917 51.7036,-0.702696 64.7851,3.06102 72.8975,12.5995 Z"
         fill=""
         id="path318"
         inkscape:export-filename="speaker.svg"
         inkscape:export-xdpi="96"
         inkscape:export-ydpi="96" /></g><g
       id="g3725"
       inkscape:label="encourager"
       transform="translate(8.9509282,-49.230105)"><path
         style="opacity:0.55;fill:#020202;stroke:none;stroke-width:0.0846667"
         d="m 51.703348,109.51158 c -0.325543,1.46464 -0.732177,1.97141 -1.096075,3.42379 -0.118618,0.47337 -0.04276,0.96054 -0.130302,1.43933 -0.244432,1.33604 -0.620183,2.65921 -0.938445,3.97933 -0.256032,1.06231 -0.214217,2.01921 -0.482526,3.08796 -0.603419,2.40343 -0.972559,4.95681 -1.315713,7.41071 -0.239437,1.71221 -0.774781,3.44153 -0.913296,5.16466 -0.474133,5.89526 -0.782997,11.8403 -1.672082,17.69534 -0.381846,2.5146 -0.822875,5.01734 -1.179237,7.53533 -0.150791,1.06511 0.201523,1.6902 0.2265,2.76547 0.466564,4.46803 0.997676,3.29734 4.079308,2.9072 2.289133,-0.31412 4.562517,-0.16934 6.858,-0.32174 0.811276,-0.0542 1.5875,0.0813 2.370666,-0.18626 0.291846,0.78909 0.656506,2.28854 1.477518,2.70086 0.334603,0.16764 0.789856,0.0212 1.147149,0.0119 0.680212,-0.0186 1.367282,0.0322 2.032,0.18203 0.625094,0.14139 1.832356,0.84413 2.435098,0.52747 0.950637,-0.49868 0.3048,-1.71534 0.852678,-2.37236 0.450173,-0.54017 1.037844,-0.29464 1.599946,-0.5063 1.39223,-1.02924 0.481056,-0.35149 1.336379,0.11938 0.379475,0.19388 0.976968,0.14139 1.395899,0.17695 1.069001,0.0906 2.420874,0.48006 3.471333,0.23114 0.431123,-0.1016 1.393529,-0.27601 1.542457,-0.76793 0.13081,-0.4318 -0.157226,-1.06426 -0.253407,-1.48844 -0.259927,-1.14554 -0.420963,-2.12852 -0.813562,-3.21902 -0.344509,-0.95674 -0.389382,-1.9829 -0.626364,-2.96164 -0.453475,-1.87368 -1.053423,-3.71365 -1.516634,-5.588 -2.218013,-8.97535 -5.105738,-17.79914 -7.038086,-26.83933 -0.62467,-2.92244 -1.3081,-5.80416 -1.992291,-8.71314 -0.522055,-2.21979 -1.03886,-4.59223 -2.478278,-6.40207 -1.448562,-1.82143 -3.638472,0.18675 -5.495212,0.33138 -1.076452,0.0838 -1.762069,-0.16065 -2.704578,-0.54749 m 66.331419,58.42667 c -0.42249,1.98374 -0.82127,4.42383 -2.18017,5.98847 -0.77047,0.88646 -1.51215,2.12683 -2.89729,1.56633 -1.55533,-0.62992 -1.94132,-2.28618 -2.14706,-3.62561 -0.27178,-1.7653 -0.32521,-3.27218 -0.39294,-5.11453 -1.66541,-0.28602 -3.7278,0.51052 -3.9292,0.16279 -1.60358,0.0593 -3.28356,-0.189 -4.87614,0.0125 -0.77046,0.0974 -1.50283,0.26416 -1.789,1.09474 -0.291258,0.84413 0.61468,2.40284 0.88561,3.21734 0.63585,1.90669 1.34705,3.83201 2.16069,5.67266 0.48176,1.08797 1.13284,2.16324 1.4749,3.302 1.32418,4.40267 3.06476,9.93445 4.20437,14.38453 1.33571,5.74567 1.61502,10.16167 4.15053,13.85519 0.97241,3.70087 4.94224,3.75965 7.6073,2.90576 1.11506,-0.38269 2.02015,-1.42324 2.52307,-2.4511 0.71628,-1.46304 0.71204,-2.96587 0.79671,-4.56438 0.11938,-2.25298 0.17018,-4.51866 0.32766,-6.77333 0.31242,-4.46955 0.73829,-8.92725 1.25222,-13.37733 0.46143,-3.99712 0.78825,-8.0027 0.87207,-12.02267 0.0483,-2.32241 -0.20913,-4.62534 -0.0821,-6.94267 l -3.13266,-0.003 -1.5892,0.46162 -1.37414,0.13358 c -1.77028,-1.84068 -1.62559,1.0062 -1.86523,2.11711 z"
         id="path3721"
         sodipodi:nodetypes="cscccscscccccccccccccccccccscccccccccccccccccccccccccccc" /><path
         style="fill:#040404;stroke:none;stroke-width:0.0846667"
         d="m 66.400146,209.03203 c 0,-6.30851 2.604177,-12.10733 4.218009,-18.11867 0.786468,-2.92946 1.307422,-5.91989 1.912281,-8.89 0.533231,-2.61789 1.172125,-5.21208 1.460161,-7.874 0.278469,-2.57386 0.06435,-5.13588 0.29354,-7.70212 0.058,-0.6494 0.758274,-0.87715 0.801539,-1.52739 0.05825,-0.87715 -0.497417,-1.85251 -0.675132,-2.70849 -0.443315,-2.13444 -0.784013,-4.29175 -1.183217,-6.43466 -1.608582,-8.63617 -4.000923,-17.14221 -6.149847,-25.654 1.05139,-0.40056 1.749636,-1.57734 2.380149,-2.45533 0.731774,-1.01888 1.609513,-1.92397 2.420366,-2.87867 3.781128,-4.45211 6.718638,-9.80178 9.012258,-15.15533 0.839216,-1.95877 1.935396,-4.08763 2.35856,-6.18067 h 0.08467 c 1.006433,3.80729 2.987971,7.29335 4.800177,10.75267 2.260854,4.31571 4.665726,9.16423 8.407823,12.39164 1.687661,1.4555 3.482337,2.7962 5.587997,3.56353 0.77639,0.28288 1.72297,0.65846 2.54,0.38549 -1.57988,7.97687 -2.63313,16.1174 -4.826844,23.96067 -0.804333,2.87697 -1.64829,5.74717 -2.406734,8.636 -0.334095,1.27254 -0.95267,2.90914 -0.725932,4.23333 0.08755,0.51139 0.267208,1.16247 0.851662,1.27762 0.801285,0.15748 2.024464,-0.70189 2.423244,0.33697 2.658534,6.92066 5.237474,14.02419 7.261014,21.16074 0.64939,2.29193 1.08966,4.63296 1.66708,6.94267 0.90678,3.62543 2.38083,7.44559 2.69918,11.176 -2.148,-0.009 -4.29176,-0.0974 -6.43467,0.1905 -1.12353,0.15155 -2.32156,0.64855 -2.78723,1.75683 -0.43942,1.04648 -0.22267,2.30378 -0.0525,3.38667 0.15155,0.96774 0.4699,1.89569 1.16332,2.61535 1.11929,1.15909 2.96672,1.18788 4.4704,1.2954 3.64236,0.25993 7.52856,0.50885 11.176,0.31073 1.7653,-0.0948 3.51451,-0.033 4.24434,-1.93548 0.53509,-1.39531 1.07611,-3.32655 0.89662,-4.826 -0.0737,-0.61637 -0.5859,-1.07527 -0.5969,-1.69333 -0.0203,-1.08035 0.22606,-2.2242 0.3285,-3.302 0.17018,-1.80171 0.26416,-3.61358 0.39286,-5.41867 0.36576,-5.1181 1.04817,-10.19725 1.32672,-15.32467 0.36068,-6.62516 0.34798,-13.28166 0.85852,-19.89666 1.37838,0 2.69664,0.14647 4.064,0.29718 0.53848,0.0601 1.16502,0.061 1.46304,-0.48006 0.51393,-0.93388 -0.20743,-2.76183 -0.46228,-3.71179 -0.81364,-3.03022 -1.55871,-6.08415 -2.25213,-9.144 -2.14545,-9.4709 -4.96993,-18.76069 -6.92827,-28.27866 -0.42164,-2.04987 -0.91101,-4.08322 -1.48421,-6.096 -0.35729,-1.25206 -0.93218,-2.82872 -0.78316,-4.14867 0.0889,-0.79147 0.91863,-1.48929 1.35551,-2.11641 0.20489,-0.29422 0.40386,-0.67192 0.74168,-0.83211 0.65447,-0.30988 1.4097,-0.10033 2.08449,-0.49809 1.07019,-0.63077 1.85589,-1.72644 2.54339,-2.73406 1.2446,-1.82414 1.41054,-4.281 1.662,-6.43466 0.13632,-1.16739 0.57828,-2.294471 0.61553,-3.471338 0.11176,-3.539828 -1.00415,-7.824554 -2.70425,-10.921999 0.90254,0.402674 1.96934,0.863938 2.6907,1.550246 1.0304,0.979001 1.72128,2.373122 2.37829,3.61442 1.71365,3.240024 2.97434,6.744631 2.97434,10.414001 0,1.74735 -0.96943,6.26288 1.86267,6.01133 -0.0186,0.49987 -0.14309,1.03742 0.0347,1.5207 0.3175,0.8575 1.38684,1.0668 2.04385,0.45618 0.39286,-0.36474 0.52578,-0.92269 0.76878,-1.38421 0.46312,-0.87833 1.02277,-1.57006 1.30132,-2.54 0.80095,0.26534 1.60105,0.0323 1.8686,-0.84709 0.5063,-1.6626 0.49106,-3.77554 0.50122,-5.50291 0.0119,-2.110402 -0.32596,-4.182704 -0.61552,-6.265334 -0.60706,-4.377097 -1.46643,-8.538379 -4.49665,-11.938 -2.24113,-2.513499 -5.16975,-4.320879 -8.60298,-4.392337 -1.05749,-0.02202 -2.09296,0.234696 -3.13267,0.375327 -0.88476,0.119719 -1.7653,0.137499 -2.62466,0.41021 -1.18872,0.377105 -2.01676,1.505543 -3.13267,1.852761 -0.43603,0.135636 -0.95504,-0.177123 -1.35466,-0.324274 -0.99738,-0.36703 -2.01761,-0.711369 -3.048,-0.97265 -2.64753,-0.671576 -4.8404,-0.424434 -7.28134,0.78994 -7.0612,3.512735 -6.95621,13.056023 -6.3119,19.702356 0.13462,1.388961 0.2684,2.766911 0.4699,4.148671 0.29972,2.04334 0.69342,4.04359 1.32927,6.01133 0.4064,1.25967 1.07865,2.30107 1.93379,3.302 0.40216,0.47075 1.2937,1.17814 1.42409,1.78833 0.14647,0.68267 -0.16002,1.60011 -0.28448,2.27567 -0.28956,1.57734 -0.60113,3.15663 -0.84667,4.74133 -2.41554,-0.60105 -4.19862,-2.8177 -5.853,-4.572 -3.542538,-3.75488 -6.683926,-8.0054 -9.026906,-12.61533 -0.645584,-1.27034 -1.617218,-2.60663 -2.006346,-3.97933 -0.224875,-0.792992 -0.02091,-1.642961 -0.05469,-2.455338 -0.08687,-2.093552 -0.166455,-4.18465 -0.871389,-6.180666 -0.445432,-1.261364 -1.045888,-2.608665 -2.092283,-3.487166 -1.385993,-1.163743 -3.315123,-1.406652 -4.394708,0.269833 -0.23478,-0.468292 -0.456099,-0.938784 -0.815594,-1.327912 -0.227499,-0.24638 -0.495892,-0.458809 -0.793411,-0.614511 -2.436961,-1.275503 -3.772662,1.776899 -4.393099,3.551089 -0.877909,2.510705 -0.72517,5.871633 -0.290661,8.466667 0.113961,0.680635 0.260265,1.380234 0.489881,2.032004 0.134959,0.38294 0.448903,0.79434 0.399712,1.21564 -0.0729,0.62374 -0.522394,1.27974 -0.798661,1.83236 -0.667427,1.33493 -1.408007,2.6184 -2.180929,3.89466 -2.823464,4.66226 -5.612214,9.16889 -9.481904,13.03867 -0.642281,-2.79129 -1.599607,-5.54491 -2.395051,-8.29733 -0.338582,-1.17171 -0.654896,-3.03251 -1.414949,-3.97934 v -0.0847 c 6.30682,-4.32562 7.349659,-13.15695 6.874595,-20.150671 -0.106342,-1.566502 -0.239522,-3.109637 -0.52468,-4.656666 -0.576072,-3.125132 -1.695788,-6.056495 -3.834299,-8.466497 -1.454404,-1.638935 -3.296666,-3.237451 -5.394283,-3.9756 -3.835146,-1.349578 -8.886359,0.07748 -10.413999,4.144764 -0.960374,-1.949755 -2.201842,-4.056516 -4.487334,-4.625848 -0.90788,-0.226153 -2.182537,-0.21712 -2.951649,0.383184 -0.375497,0.293048 -0.519599,0.781414 -0.897721,1.058003 -0.58166,0.425484 -1.315889,0.621259 -1.907878,1.060789 -1.560068,1.158291 -2.423837,2.915903 -2.600198,4.833205 -0.329777,3.584109 1.593596,7.760631 5.22478,8.901853 0.903054,0.283803 1.878838,0.316738 2.794,0.07366 0.438065,-0.116417 0.993309,-0.43561 1.338072,0.02836 0.415205,0.558716 0.058,1.617896 0.02269,2.25679 -0.09948,1.796881 -0.0029,3.471503 0.297519,5.249333 0.657183,3.889672 2.207683,7.362451 4.172881,10.752671 0.591312,1.02015 1.259332,1.98061 2.024888,2.8785 0.323512,0.37947 0.999575,0.83616 1.056217,1.36237 0.05833,0.54085 -0.252476,1.24138 -0.370417,1.77046 -0.308271,1.38337 -0.644313,2.76217 -0.937598,4.14867 -1.023874,4.83988 -2.216066,9.65014 -2.846748,14.56267 -1.024805,7.98288 -1.86546,16.03544 -2.65286,24.04533 -0.205571,2.09126 -0.4434,4.18507 -0.737786,6.26533 -0.169587,1.19803 -0.525102,2.60096 -0.406484,3.81 0.07933,0.80857 0.788585,0.87799 1.138428,1.47574 0.489034,0.83481 0.596053,2.08026 0.84963,3.01159 1.393698,5.1181 2.691638,10.27007 4.307078,15.32467 1.20015,3.75497 2.70747,7.40156 3.856227,11.176 1.187112,3.90059 2.028783,7.90025 3.017012,11.85333 0.261536,1.04648 0.961221,2.54593 0.865971,3.61781 -0.03946,0.44365 -0.45974,0.80349 -0.624586,1.20819 -0.378545,0.93049 -0.413597,2.53831 0.193887,3.3799 0.907542,1.25645 2.88544,1.02108 4.231978,1.13792 3.307419,0.28532 7.01675,0.35983 10.244667,-0.51647 1.172548,-0.31835 2.713397,-0.7239 3.412659,-1.8034 1.011428,-1.56125 -0.01194,-3.37905 -1.296331,-4.38997 -2.10583,-1.65608 -4.803987,-2.20472 -7.026995,-0.51731 M 41.084813,79.153366 c -1.008126,0.0085 -1.783249,0.420878 -2.709333,0.762 0.205825,-1.443228 1.808141,-2.012781 2.709333,-0.762 m 39.344092,0.06071 c -0.398103,0.245957 -0.200322,0.856742 -0.10414,1.209294 0.289306,1.061127 0.69833,2.092367 1.054777,3.132074 0.12192,0.355515 0.381508,1.011682 0.880703,0.695621 0.401404,-0.254169 0.217932,-0.843195 0.108966,-1.203028 -0.331216,-1.093809 -0.658538,-2.226141 -1.050883,-3.297852 -0.124629,-0.34036 -0.479467,-0.789347 -0.889423,-0.536109 M 64.876146,80.67737 c 1.936581,7.326461 2.45127,16.327712 -1.752854,23.02933 -2.028952,3.2341 -6.747171,7.25915 -10.777812,4.80602 -0.72136,-0.439 -1.29921,-1.10135 -1.817539,-1.75802 -0.505122,-0.64 -1.043348,-1.34171 -1.315128,-2.11667 1.291082,-1.19989 -0.08221,-2.12428 -0.370501,-3.38666 -0.144187,-0.63145 0.03658,-1.276012 -0.137499,-1.947334 0.983488,-0.855302 0.70739,-1.635252 0.254,-2.709333 1.789515,-0.378629 1.166453,-1.994154 0.762,-3.217333 1.369992,-0.975021 0.703919,-1.936073 0.254,-3.217333 0.723562,-0.478282 0.714587,-1.06316 1.113198,-1.745065 0.458554,-0.784352 1.10998,-0.933789 1.003469,-1.980269 1.775544,0.371433 2.26805,-0.891455 1.778,-2.370666 2.284222,0.08644 1.741508,-1.982216 1.185333,-3.386667 1.315212,0.473541 2.620433,1.489371 3.471333,-0.254 1.187535,0.630682 2.447968,0.849291 2.878667,-0.762 1.306999,0.45085 2.043853,1.468628 3.471333,1.016 m 10.020808,0.709422 c -0.530098,0.231225 -0.177969,0.770721 0.149691,0.986875 0.910166,0.600371 1.989666,0.973582 2.952834,1.482344 0.309034,0.163237 0.780204,0.452628 1.12903,0.233087 0.516975,-0.325459 -0.07036,-0.87376 -0.373888,-1.068663 -0.843957,-0.541951 -1.80467,-0.956648 -2.702475,-1.402588 -0.329353,-0.163576 -0.783759,-0.393107 -1.155192,-0.231055 m 12.669266,1.39192 c -1.006264,0.150283 -2.450931,1.184656 -3.193965,1.859026 -0.335026,0.304038 -0.534078,1.06553 0.155532,1.044194 0.940985,-0.02912 1.924135,-1.122934 2.700359,-1.572514 0.303699,-0.175937 0.764116,-0.229701 1.011766,-0.48006 0.472186,-0.47752 -0.217085,-0.918803 -0.673692,-0.850646 m 20.48993,4.110482 c 3.62373,-0.339259 7.48707,1.792817 9.67316,4.540843 0.90509,1.137496 1.41478,2.378286 2.09212,3.640666 1.68486,3.137154 2.90152,6.436777 2.49428,10.075327 -0.18373,1.64033 -0.37677,3.56472 -1.06596,5.08 -1.15824,2.54424 -4.02674,4.43357 -6.75894,4.70747 -1.07188,0.10744 -2.20218,-0.22369 -3.21733,-0.52925 -1.16755,-0.35137 -2.47904,-0.60325 -3.4544,-1.37753 -2.06417,-1.63881 -2.80077,-4.05189 -3.302,-6.52602 -0.66971,-3.31004 -1.10067,-6.698824 -1.2065,-10.07533 -0.10075,-3.175847 -0.89323,-7.710593 2.79823,-9.103529 0.63246,-0.238506 1.27593,-0.36974 1.94734,-0.432647 m -28.786671,0.711454 c 1.531366,-0.254423 1.51147,1.548807 1.764792,2.468541 0.08501,0.30861 0.320125,0.556938 0.364067,0.877147 0.133773,0.976122 -0.139023,2.031238 -0.08534,3.0237 0.08881,1.63974 0.308441,3.278802 0.487257,4.910667 0.09,0.820843 0.760899,3.130887 -0.424688,3.357117 -0.425958,0.0814 -0.918126,0.0353 -1.344084,-0.0253 -3.765973,-0.53543 -3.43391,-5.593582 -3.309535,-8.496464 0.03404,-0.79358 0.05114,-1.594019 0.238083,-2.370666 0.280416,-1.165183 0.907711,-3.511889 2.309452,-3.744722 m 4.657514,1.011428 c 1.736597,-0.340275 2.873332,1.963081 3.366346,3.241294 0.684191,1.77402 0.818388,3.548041 0.989076,5.418666 0.06612,0.725001 0.23876,1.848612 -0.05309,2.532465 -0.456523,1.069419 -2.088896,2.059009 -3.202517,2.247809 -1.613323,0.27348 -1.85022,-1.06223 -1.969007,-2.32494 -0.253831,-2.699851 -0.756582,-5.410285 -0.507831,-8.128 0.09102,-0.994749 0.118025,-2.74066 1.377019,-2.987294 m -22.320927,2.604685 c -0.685631,0.254424 -0.379476,2.53111 -0.226145,3.087709 0.08119,0.294386 0.332655,0.633476 0.682075,0.539411 0.27796,-0.07476 0.365929,-0.366691 0.372364,-0.622046 0.01863,-0.738293 0.01,-1.729909 -0.146474,-2.450168 -0.06748,-0.310558 -0.306662,-0.694098 -0.68182,-0.554906 m 43.608664,2.986109 c -0.33443,0.178308 -0.36237,0.619844 -0.37253,0.9525 -0.0263,0.859874 -0.0263,1.771057 0.10837,2.622465 0.0584,0.371179 0.34968,0.828294 0.78656,0.605028 0.34036,-0.174498 0.36406,-0.606975 0.36491,-0.941578 0.002,-0.831342 0.088,-1.717971 -0.061,-2.539323 -0.0686,-0.37575 -0.34375,-0.955971 -0.82635,-0.699092 m -16.716584,7.13316 c 1.250611,2.08881 2.220044,4.33824 3.463628,6.43467 2.230798,3.76106 4.965192,7.39783 8.051036,10.49867 1.60444,1.61146 3.71348,4.29564 6.18067,4.318 l -1.35467,7.366 c -1.05748,-0.67945 -2.3351,-0.8178 -3.47133,-1.35569 -1.501141,-0.71035 -2.897125,-1.88722 -4.148668,-2.96909 -3.720253,-3.21581 -5.934202,-8.10937 -8.250936,-12.35456 -1.677585,-3.07382 -3.79349,-6.53135 -4.53373,-9.99066 1.654217,-0.0425 2.8205,-0.97409 4.064,-1.94734 m -29.180028,0.21319 c -0.642281,0.22623 -0.08585,0.96935 0.231648,1.19507 0.668698,0.47532 1.896026,0.85818 2.688421,0.49285 0.366437,-0.169 0.653203,-0.71315 0.213699,-0.98696 -0.327068,-0.20388 -0.773854,0.004 -1.13174,-0.0269 -0.618913,-0.0528 -1.421384,-0.87841 -2.002028,-0.67403 m 22.830028,1.81881 c -0.400389,1.95191 -1.524508,3.92913 -2.310299,5.75734 -2.307675,5.36905 -5.259832,10.70466 -9.071356,15.15533 -1.300988,1.51917 -2.476331,3.48683 -4.027678,4.74133 -0.604943,-1.59342 -1.022181,-3.27829 -1.511469,-4.91066 -0.173228,-0.57785 -0.619506,-1.42012 -0.503936,-2.0293 0.114046,-0.6013 0.928962,-1.19574 1.339596,-1.61146 1.069255,-1.08254 2.131144,-2.14663 3.021414,-3.38658 1.654725,-2.30471 3.133344,-4.77825 4.615857,-7.19666 1.432306,-2.33655 2.912788,-4.7018 3.875871,-7.28134 1.586907,0.62332 2.859363,0.89425 4.572,0.762 m 25.499904,3.86622 c -0.37422,0.14741 -1.44864,0.492 -1.68994,0.78164 -0.7129,0.85852 1.02277,0.82271 1.41986,0.66768 0.38608,-0.15011 0.79756,-0.40656 0.91609,-0.83049 0.11853,-0.4274 -0.21675,-0.78799 -0.64601,-0.61883 m -48.275237,1.89112 c 1.850475,3.92379 2.692231,8.46836 3.932513,12.61533 2.818807,9.42501 5.24112,18.88574 7.549049,28.448 0.830156,3.43933 1.4489,6.92996 2.056807,10.414 0.136906,0.78486 0.227499,1.61544 0.488865,2.37066 0.123529,0.35645 0.394462,0.76793 0.193972,1.14639 -0.336635,0.63669 -1.527387,0.47752 -2.113873,0.42418 -2.053082,-0.18796 -4.138252,-0.11769 -6.180666,-0.38523 -1.001776,-7.20768 -2.103628,-14.4305 -2.831508,-21.67467 -0.171026,-1.70214 -0.300736,-3.45414 -0.301159,-5.16467 -8.5e-5,-0.37304 0.113199,-1.60257 -0.576411,-1.46295 -0.580982,0.1176 -0.471847,1.28456 -0.499702,1.71695 -0.11955,1.85522 0.09432,3.90932 0.295825,5.75734 0.600371,5.50756 1.314196,11.03122 2.136309,16.51 0.372618,2.48327 0.889847,4.94876 1.183979,7.45066 -1.243499,-0.38354 -2.419604,-0.78147 -3.725333,-0.90085 -0.483278,-0.044 -1.37414,0.13462 -1.757088,-0.21675 -0.637624,-0.5842 -0.730504,-2.06078 -0.813223,-2.86173 -0.193209,-1.87198 -0.680805,-3.73634 -1.016762,-5.588 -1.538901,-8.48174 -1.984756,-17.07786 -2.655231,-25.654 -0.190754,-2.43967 -0.192363,-4.9193 -0.192363,-7.366 0,-0.7029 0.288713,-2.25984 -0.183896,-2.82676 -0.270341,-0.32428 -0.639487,-0.11261 -0.774446,0.2131 -0.248666,0.59995 -0.142325,1.38642 -0.142325,2.021 0,2.85978 0.01803,5.6973 0.17543,8.55133 0.568452,10.31341 1.33731,20.84612 3.803904,30.90333 -3.128264,-0.11515 -6.284214,-0.12785 -9.398,0.27009 -0.886121,0.11345 -2.71653,0.76962 -3.385735,-0.0618 -0.283718,-0.35221 -0.166878,-0.81534 -0.11574,-1.22428 l 0.352637,-2.70933 c 0.466429,-3.63305 0.872575,-7.28134 1.276858,-10.922 0.773345,-6.96316 1.271185,-13.98617 2.333583,-20.91267 0.425196,-2.77224 1.096941,-5.47158 1.670642,-8.21266 0.49022,-2.34222 1.004909,-4.68097 1.474555,-7.02734 0.13335,-0.66641 0.153162,-2.21107 0.669544,-2.6852 0.386249,-0.35467 2.046308,0.254 2.581656,0.28981 1.662514,0.11125 2.987971,-0.71882 4.487333,-1.24527 m 59.689997,5.334 4.73117,20.74333 3.51452,13.462 2.41215,9.99066 1.36483,5.92667 -4.064,-0.33359 -8.46667,0.84159 c -0.19388,-3.5306 0.18458,-7.05612 0.33105,-10.58333 0.0982,-2.35831 -0.14986,-4.79798 0.22606,-7.112 0.18881,-1.16375 0.0499,-2.46329 0.0373,-3.64084 -0.0296,-2.80881 -0.23114,-5.58851 -0.53763,-8.38183 -0.43857,-3.99906 -0.73575,-8.01353 -1.05749,-12.02266 -0.0728,-0.90822 -0.0466,-1.90484 -0.25315,-2.7929 -0.0728,-0.31717 -0.3302,-0.8327 -0.74422,-0.66718 -0.59351,0.23775 -0.20405,2.17619 -0.15663,2.69808 0.254,2.78976 0.35898,5.59062 0.62653,8.382 0.40894,4.25365 0.92879,8.5112 1.01769,12.78466 0.0271,1.31394 -0.21251,2.58572 -0.24638,3.89467 -0.0906,3.55778 -0.13885,7.10522 -0.33189,10.668 -0.11769,2.1717 -0.0965,4.34424 -0.0965,6.51933 0,0.48853 0.27009,1.88807 -0.0559,2.25552 -0.25061,0.28194 -0.90424,0.0466 -1.21412,-0.003 -1.09813,-0.17357 -2.22165,-0.29125 -3.302,-0.5588 -3.5941,-0.88985 -2.02946,-5.73617 -1.74075,-8.38285 0.36915,-3.38243 0.33698,-6.76774 0.47837,-10.16 0.21844,-5.24874 0.41571,-10.4907 0.41571,-15.748 0,-2.63338 -0.14308,-5.24916 -0.3539,-7.87399 -0.0389,-0.48701 0.22182,-2.48294 -0.56558,-2.41097 -0.86021,0.0786 -0.53424,1.88341 -0.51985,2.41097 0.0703,2.60104 0.254,5.1832 0.254,7.78933 0,8.39436 -0.10668,16.88058 -0.90932,25.23066 -0.19135,1.99221 -0.54779,4.01151 -0.6096,6.01134 -0.0169,0.54186 0.4445,1.81948 0.18796,2.23858 -0.35137,0.57235 -1.81102,0.41826 -2.39437,0.46228 -2.23436,0.16764 -4.47718,0.43942 -6.68867,0.79841 -0.464821,0.0745 -2.462616,0.8128 -2.520697,0.0381 -0.104394,-1.39277 0.676063,-3.29692 1.043263,-4.63804 0.905086,-3.30285 1.940564,-6.57267 2.734734,-9.906 1.70688,-7.16542 2.78553,-14.45658 4.2291,-21.67466 0.69765,-3.48988 1.37245,-6.98797 1.95749,-10.49867 0.29464,-1.77258 0.74338,-3.61882 0.76878,-5.41867 2.14206,0.56566 4.24857,1.54449 6.51933,1.22335 1.47743,-0.20896 2.68563,-0.8785 3.97933,-1.56201 m -53.50933,50.88466 7.535333,0.42333 c 0,2.79231 0.05088,5.59986 -0.27305,8.382 -1.016339,8.7266 -3.64634,17.17802 -6.088295,25.56934 -0.612902,2.10566 -1.256369,4.23418 -1.411394,6.43466 -0.05766,0.81873 -0.101261,1.63407 -0.101261,2.45534 0,0.35221 0.09085,0.88561 -0.09948,1.20057 -0.226314,0.37507 -1.125305,0.30141 -1.509184,0.34967 -1.395222,0.17442 -3.329432,0.70358 -4.714917,0.43434 -0.689102,-0.13377 -0.846413,-2.00744 -0.989584,-2.57725 -0.701633,-2.79146 -1.374225,-5.58969 -2.074249,-8.382 -1.292267,-5.15451 -3.156542,-10.04147 -4.836498,-15.07067 -1.291336,-3.86503 -2.398861,-7.82404 -3.419856,-11.76866 -0.625602,-2.41724 -1.743625,-4.96994 -1.998895,-7.45067 2.899918,-0.23029 5.711274,-0.67733 8.635999,-0.67733 0.889678,0 2.385738,-0.28025 3.179488,0.18034 1.175173,0.68241 0.545676,2.57048 0.482515,3.54499 -0.105241,1.62475 0.509355,4.02505 1.339765,5.41867 1.543558,2.58995 6.737858,4.29683 7.753774,0.33866 0.810514,-3.15806 -1.150451,-5.76072 -1.410208,-8.80533 m 59.943997,0.16933 -0.41572,6.01134 -0.87714,19.38866 -1.67047,18.288 c -2.26653,-0.29718 -4.57708,-0.51646 -6.858,-0.67987 -0.64855,-0.0466 -2.17932,0.11515 -2.68902,-0.3048 -0.52662,-0.43265 -0.58504,-2.17001 -0.73575,-2.82533 -0.57997,-2.51968 -1.25391,-5.03766 -1.92447,-7.53533 -0.64008,-2.38337 -1.06596,-4.81753 -1.7162,-7.19667 -1.07696,-3.93446 -2.4367,-7.83082 -3.77444,-11.684 -0.77046,-2.2208 -1.61882,-4.41367 -2.47142,-6.604 -0.52747,-1.35466 -1.2048,-2.78807 -1.4207,-4.23333 l 5.41866,-0.67733 c -0.56896,0.92964 -0.43603,1.92108 -0.30988,2.96333 0.28872,2.37998 1.23783,4.71763 2.28008,6.858 0.38777,0.79756 0.74506,1.65439 1.28608,2.36305 0.22437,0.29379 0.62146,0.68072 1.00754,0.40047 0.32427,-0.23453 0.20404,-0.61722 0.0288,-0.90085 -0.51392,-0.83397 -0.96012,-1.70434 -1.47235,-2.54 -1.13284,-1.84828 -1.79832,-4.46109 -2.08111,-6.604 -0.11599,-0.88223 0.0237,-2.08111 0.76793,-2.70172 0.42841,-0.35814 1.25984,-0.3412 1.79493,-0.43095 0.0347,2.45957 0.57743,5.22478 1.64508,7.45067 0.3556,0.74083 0.87376,1.905 1.74244,2.13444 1.20226,0.31835 2.63398,-0.77808 3.3401,-1.62644 1.82118,-2.18948 2.18355,-5.84708 2.16238,-8.55134 l 6.94267,-0.762 m -14.64733,1.35467 c 1.50706,0.59605 2.8812,0.97536 4.48733,1.24883 0.53001,0.0906 1.49691,0.10076 1.83557,0.5859 0.33698,0.48344 -0.10583,1.5477 -0.24214,2.05994 -0.42334,1.58242 -1.31742,4.74387 -3.53145,4.52712 -0.73321,-0.0711 -1.11591,-1.3208 -1.33011,-1.90246 -0.751,-2.0447 -1.21497,-4.34001 -1.2192,-6.51933 m -51.210888,0.66887 c 0.437811,-0.15833 0.976799,-0.0567 1.426887,-0.0119 1.232916,0.12277 3.186938,0.33105 4.048168,1.33435 0.525356,0.61129 0.662601,1.55533 0.776308,2.32664 0.182288,1.23613 0.324104,3.43239 -1.100836,4.02505 -1.543727,0.64262 -3.75031,-0.6223 -4.558284,-1.91346 -0.47244,-0.75523 -0.665818,-1.76107 -0.865716,-2.61959 -0.183473,-0.78825 -0.816526,-2.74659 0.273473,-3.14113 z"
         id="path3719" /></g></g></svg>
