<?xml version="1.0" encoding="UTF-8" standalone="no"?>
<!-- Created with Inkscape (http://www.inkscape.org/) -->

<svg
   width="142.27788"
   height="147.75511"
   viewBox="0 0 142.27788 147.75511"
   version="1.1"
   id="svg5"
   xml:space="preserve"
   xmlns:inkscape="http://www.inkscape.org/namespaces/inkscape"
   xmlns:sodipodi="http://sodipodi.sourceforge.net/DTD/sodipodi-0.dtd"
   xmlns="http://www.w3.org/2000/svg"
   xmlns:svg="http://www.w3.org/2000/svg"><sodipodi:namedview
     id="namedview7"
     pagecolor="#ffffff"
     bordercolor="#000000"
     borderopacity="0.25"
     inkscape:showpageshadow="2"
     inkscape:pageopacity="0.0"
     inkscape:pagecheckerboard="0"
     inkscape:deskcolor="#d1d1d1"
     inkscape:document-units=""
     showgrid="false" /><defs
     id="defs2" /><g
     inkscape:label="Layer 1"
     inkscape:groupmode="layer"
     id="layer1"
     transform="translate(-15.040503,-22.985944)"><g
       style="fill:none"
       id="g327"
       transform="matrix(1.5023295,0,0,1.5023295,14.933402,40.476148)"
       inkscape:label="blob"
       inkscape:export-filename="wordsmith.svg"
       inkscape:export-xdpi="96"
       inkscape:export-ydpi="96"><path
         opacity="0.689993"
         d="m 72.8975,12.5995 c 7.772,9.1384 7.0288,21.9294 5.2714,33.7952 C 76.4057,58.3001 73.8816,71.573 63.3103,77.3307 52.9213,82.9893 40.9429,76.9223 29.8966,72.6868 18.6969,68.3925 5.60747,64.8955 1.4971,53.6294 -2.76479,41.948 3.209,29.4434 10.4245,19.3156 17.4138,9.50523 27.2734,1.92365 39.2519,0.635917 51.7036,-0.702696 64.7851,3.06102 72.8975,12.5995 Z"
         fill=""
         id="path318"
         inkscape:export-filename="speaker.svg"
         inkscape:export-xdpi="96"
         inkscape:export-ydpi="96" /></g><g
       id="g3479"
       inkscape:label="facilitator"
       transform="translate(8.0043458,-30.468155)"><path
         style="opacity:0.4;fill:#030303;stroke:none;stroke-width:0.0846667"
         d="m 124.77995,98.702813 c 1.25476,0.187368 2.32071,1.085342 3.64067,1.246802 0.90339,0.110485 1.80763,0.157985 2.70933,0.01532 0.99483,-0.157226 2.12767,-0.192532 3.04461,-0.644144 0.52324,-0.257556 0.762,-0.809413 0.22691,-1.220554 -0.5715,-0.438828 -1.93971,0.178562 -2.59419,0.292608 -1.88976,0.329099 -3.58827,-0.374657 -5.36458,-0.423086 -0.88815,-0.0243 -1.51712,-0.26246 -1.66275,0.73305 m -0.67733,0.846667 -0.0984,2.554704 -1.29526,5.23463 -2.27753,13.80067 -0.71035,4.40267 -2.29924,10.4189 -0.76231,2.95843 -1.78562,8.04333 c 0.75946,-0.23706 1.58327,-0.1778 2.37067,-0.26331 2.14037,-0.23199 4.29598,-0.28194 6.43466,-0.53933 0.63246,-0.0753 2.49513,-0.4826 2.49513,0.63246 0,0.95166 -1.94141,0.8636 -2.57979,0.92795 -1.9177,0.19219 -3.8354,0.24977 -5.75734,0.35475 -1.13114,0.061 -2.40559,0.58874 -3.44614,0.003 l -0.19452,2.69463 c 1.50791,0.16764 3.14536,0.58082 4.65666,0.22437 1.37245,-0.32427 3.02938,-1.54347 4.48734,-0.9525 0.96604,0.39201 0.89492,1.26238 1.50706,1.89992 0.91102,0.94827 2.32241,1.38684 3.25628,2.30547 0.48006,0.47244 0.49192,1.24545 1.24968,1.44611 1.26662,0.33443 1.73482,-1.42579 2.03031,-2.2987 -0.85429,-0.3048 -1.47913,-1.00753 -2.20218,-1.53077 -0.93049,-0.6748 -1.93463,-1.1557 -2.79315,-1.93633 -0.36238,-0.3302 -1.73313,-1.35297 -0.66294,-1.76361 0.70866,-0.27178 1.39192,0.62569 1.86012,1.0033 0.66718,0.53933 1.4732,0.87122 2.18948,1.33689 0.6985,0.45381 1.30556,1.04479 2.032,1.45119 l 0.46059,-1.524 0.47075,-1.524 c 1.13284,-0.009 2.25552,-0.20998 3.38666,-0.24977 2.52138,-0.0898 5.0165,-0.0728 7.53534,-0.28109 0.81364,-0.0669 1.63914,-0.116 2.45533,-0.1414 0.40132,-0.0127 1.74666,0.322 2.0667,0.0249 0.55288,-0.51308 -0.32357,-1.95864 -0.47341,-2.56994 -1.68995,0.40302 -4.01052,0.33867 -5.74196,0.43519 -1.75006,0.0965 -3.50012,0.31157 -5.24933,0.42841 -0.635,0.0423 -3.61276,0.70942 -3.58736,-0.3921 0.0229,-1.03039 2.80419,-0.99897 3.50269,-1.04723 3.41715,-0.23876 7.30236,-0.76454 10.73729,-0.77893 -0.53425,-4.53306 -2.53817,-9.00769 -3.50252,-13.462 -1.00838,-4.65659 -2.01845,-9.2677 -3.19955,-13.88534 -0.56558,-2.20988 -0.99568,-4.37235 -1.73821,-6.51933 -0.83566,-2.41452 -0.60368,-4.03236 -1.22429,-6.51022 -0.19304,-0.77385 -1.05409,-3.24829 -2.00405,-3.39578 V 100.227 c -3.6195,2.07959 -8.27193,1.6847 -11.59933,-0.677334 M 45.785952,146.96281 c 0,3.66607 0.182795,7.34484 0.339852,11.00667 0.119972,2.79823 0.128185,5.79967 0.712639,8.55133 0.210989,0.99314 0.817965,2.00406 1.175258,2.96334 0.72517,1.94733 1.372277,3.98441 1.836251,6.01133 0.159258,-0.70781 0,-1.55787 0,-2.286 v -4.99533 c 0,-4.79806 0.169333,-9.59274 0.169333,-14.39334 0,-1.62475 -0.01854,-3.29099 0.107696,-4.91066 0.03937,-0.50546 0.281855,-1.59428 -0.07612,-2.01676 -0.235966,-0.2794 -0.810684,-0.18458 -1.132248,-0.18458 -1.074758,0 -2.070354,0.1287 -3.132666,0.254 m 5.08,-0.16933 -0.258742,16.34067 -0.07993,9.22866 0.128185,5.50333 1.591818,5.16467 2.952045,10.414 0.756422,0.22392 c -0.02811,-3.54838 -0.653183,-7.34862 -0.844953,-10.89192 -0.38083,-7.03834 -0.377528,-14.11732 -0.43561,-21.16666 -0.03962,-4.80738 -0.240538,-9.77054 0.254762,-14.56267 l -4.063999,-0.254 m -8.577197,2.83184 0.593427,2.88561 3.073103,12.48588 h 0.08467 c -0.931334,-5.81998 -0.846667,-11.98541 -0.846667,-17.86466 l -2.680613,0.97054 m 19.459451,0.47402 c 0.04047,0.90509 -0.03702,0.46975 0.266424,1.26477 0.629412,1.64846 1.350518,3.8989 1.323679,5.67267 -0.01541,1.02023 -0.391075,2.00236 -1.184825,2.66784 -0.507069,0.42503 -1.529588,0.47668 -1.595036,1.23275 -0.388789,4.48818 0.121074,9.12961 0.158158,13.62541 0.06934,8.40993 -0.101177,16.82157 -0.08391,25.23066 l 3.692229,0.26162 0.539411,-0.90847 0.171027,-3.16315 c -1.711368,-0.38185 -2.36872,-1.96511 -2.370582,-3.556 -0.0032,-2.77622 0.972566,-5.40343 1.71069,-8.04333 0.226737,-0.81111 0.06722,-1.70519 0.06722,-2.54 0,-1.86436 -0.08467,-3.72195 -0.08467,-5.588 0,-6.40503 -0.169333,-12.81599 -0.169333,-19.21933 0,-1.83727 -0.08467,-3.66607 -0.08467,-5.50334 0,-0.46651 0.210482,-1.64507 -0.18415,-1.97866 -0.494284,-0.41825 -1.259112,-0.18561 -1.905458,-0.20085 m 2.682275,0.14751 0.423333,32.68133 c 0.984166,-1.50452 1.228852,-3.77359 1.701462,-5.50333 0.593682,-2.17254 1.321503,-4.48234 1.526058,-6.72855 0.115316,-1.26661 0.134927,-2.66945 0.08202,-3.93945 -0.110236,-2.64922 -0.203539,-5.30775 -0.258742,-7.95866 -0.04301,-2.06248 0.03556,-4.12158 -0.07595,-6.18067 -0.02489,-0.45974 0.23368,-1.73821 -0.118618,-2.06417 -0.210989,-0.19558 -0.64135,-0.17526 -0.908896,-0.19982 -0.793158,-0.0745 -1.574292,-0.10668 -2.370667,-0.10668 m 4.064,0.254 c 0,5.90127 -0.317823,10.51519 0.288983,16.38682 0.571077,-1.54263 0.781965,-1.81738 1.032325,-3.43282 0.425704,-2.74743 0.951145,-5.59562 0.964353,-8.382 0.0045,-0.95927 3.39e-4,-1.91939 3.39e-4,-2.87866 0,-0.35052 0.09068,-0.88054 -0.09948,-1.1938 -0.292862,-0.4826 -1.675722,-0.41402 -2.186516,-0.49954 m -13.462,0.0847 c -0.167132,0.92117 -0.03937,1.86436 -0.101346,2.794 -0.194479,2.91592 -0.152654,5.88179 -0.152654,8.80533 0,8.07128 0.245025,16.1544 0.585131,24.21467 0.110829,2.62636 0.3175,5.25187 0.499026,7.874 0.04563,0.6604 -0.164254,2.35881 0.320886,2.85157 0.315299,0.32004 1.19761,-0.0364 1.55829,-0.14224 0.302768,1.38091 -0.128693,3.91583 1.947334,3.72533 0,-9.44964 0.199559,-18.91368 0.0028,-28.36333 -0.04987,-2.39268 -0.106426,-4.80568 -0.0867,-7.19666 0.0098,-1.19465 0.290407,-2.52561 0.05436,-3.70925 -0.117771,-0.59013 -1.044448,-0.75861 -1.494451,-1.04055 -0.851832,-0.53425 -1.553549,-1.37414 -1.986873,-2.27754 -1.159002,-2.41638 -0.256371,-5.07407 -1.145794,-7.53533 z"
         id="path3475"
         sodipodi:nodetypes="csccccccccccccccccsccccccccccccccccccccccccccccccccccccccccsssscscccccccccsccccccccccsccsccccccsssscccccsccscccccccsccscsscccccccccss" /><path
         style="fill:#040404;stroke:none;stroke-width:0.0846667"
         d="m 63.481285,192.00548 c 0,-6.30852 2.604177,-12.10734 4.218008,-18.11867 0.786469,-2.92946 1.307423,-5.91989 1.912281,-8.89 0.533231,-2.61789 1.172126,-5.21208 1.460162,-7.874 0.278468,-2.57386 0.06435,-5.13588 0.293539,-7.70212 0.058,-0.6494 0.758275,-0.87715 0.801539,-1.52739 0.06536,-0.98298 -0.565996,-2.15985 -0.76073,-3.13182 -0.484632,-2.41977 -0.85454,-4.86156 -1.337733,-7.28133 -1.790784,-8.96917 -4.008035,-17.99404 -6.633972,-26.75467 -1.335616,-4.45601 -2.653792,-8.91616 -3.970697,-13.377333 -0.426805,-1.445853 -0.833205,-2.903051 -1.355937,-4.318 -0.198204,-0.536448 -0.276606,-1.158664 -0.637794,-1.608667 1.021588,-0.907881 2.057485,-1.776476 2.881376,-2.878666 3.177371,-4.250521 4.121743,-9.61644 4.146296,-14.816667 0.0059,-1.23935 0.17653,-2.483696 0.06469,-3.725333 -0.162814,-1.808141 -0.691981,-3.625511 -1.277028,-5.334 -0.795612,-2.323338 -1.405128,-4.312497 -3.010577,-6.265333 -2.996438,-3.644688 -6.800427,-5.167207 -11.440752,-4.921987 -1.212596,0.06408 -2.701121,0.08701 -3.803904,0.66123 -0.781135,0.406705 -0.499534,1.279686 -1.127422,1.72383 -1.533567,1.08475 -3.189732,1.879549 -3.999145,3.72226 -0.235881,0.537041 0.04589,1.00584 -0.09948,1.524 -0.239438,0.853271 -1.067308,1.492843 -1.340528,2.370667 -0.170603,0.548216 0.02489,1.066546 -0.08009,1.608666 -0.118195,0.610362 -0.470832,1.139698 -0.491914,1.778 -0.01431,0.433917 0.214292,0.837608 0.163153,1.27 -0.150283,1.269746 -0.950806,2.420705 -1.069848,3.725334 -0.08915,0.977476 0.459402,1.832525 0.564219,2.793999 0.151553,1.390735 -0.183642,2.857331 0.08915,4.233334 0.196765,0.992801 1.000421,1.506897 1.471168,2.316988 0.298958,0.51435 0.265768,1.150027 0.60579,1.65845 0.526372,0.787231 1.468289,1.340274 2.14486,1.990514 0.402675,0.387011 0.667089,0.905848 1.137074,1.224618 0.363558,0.246634 0.862753,0.198798 1.186434,0.498433 0.909235,0.841502 1.407668,2.391833 2.150364,3.40233 0.463719,0.630851 1.930315,1.76259 1.93277,2.544741 0.0017,0.542036 -0.255439,1.159087 -0.373464,1.688592 -0.27068,1.214797 -0.54229,2.428494 -0.824738,3.640667 -0.804249,3.451773 -1.539833,6.937753 -2.230628,10.414003 -1.519852,7.64904 -1.811782,15.54945 -2.740914,23.28333 -0.410041,3.41334 -0.7747,6.83175 -1.185334,10.24467 -0.200914,1.67047 -0.691303,3.47895 -0.60562,5.16466 0.04555,0.89493 0.849037,0.9542 1.181862,1.63238 0.628142,1.27931 0.846497,2.99635 1.197186,4.37896 1.200912,4.73456 2.477516,9.49875 4.004564,14.13933 1.083903,3.29353 2.422737,6.50071 3.427138,9.82133 1.604602,5.30521 2.999824,10.75267 4.183633,16.16879 0.148167,0.67734 -0.341037,1.02701 -0.578866,1.61121 -0.378544,0.93049 -0.413596,2.53831 0.193887,3.37989 0.907542,1.25646 2.88544,1.02108 4.231979,1.13792 3.334766,0.28787 7.07898,0.36153 10.329333,-0.54017 1.181354,-0.32766 2.711365,-0.74168 3.379385,-1.86267 0.927947,-1.55702 -0.08915,-3.31639 -1.347724,-4.30699 -2.105829,-1.65608 -4.803986,-2.20472 -7.026994,-0.51731 m 64.769998,-0.42334 c -2.14799,-0.009 -4.29175,-0.0974 -6.43466,0.1905 -1.12353,0.15156 -2.32156,0.64855 -2.78723,1.75684 -0.43942,1.04648 -0.22267,2.30378 -0.0525,3.38666 0.15155,0.96774 0.4699,1.89569 1.16332,2.61536 1.11929,1.15908 2.96672,1.18787 4.4704,1.2954 3.64236,0.25992 7.52856,0.50884 11.176,0.31072 1.7653,-0.0948 3.51451,-0.033 4.24434,-1.93548 0.53509,-1.3953 1.07611,-3.32655 0.89662,-4.826 -0.0737,-0.61637 -0.5859,-1.07526 -0.5969,-1.69333 -0.0203,-1.08035 0.22606,-2.22419 0.3285,-3.302 0.17018,-1.80171 0.26416,-3.61357 0.39286,-5.41867 0.36576,-5.1181 1.04817,-10.19725 1.32672,-15.32466 0.36068,-6.62517 0.34798,-13.28166 0.85852,-19.89667 1.37838,0 2.69664,0.14648 4.064,0.29718 0.53848,0.0601 1.16502,0.061 1.46304,-0.48006 0.47583,-0.86529 -0.14732,-2.4892 -0.37338,-3.37312 -0.70696,-2.76098 -1.43171,-5.51857 -2.06756,-8.29733 -2.60434,-11.38445 -5.71584,-22.63115 -8.25076,-34.036 1.15739,-0.2551 2.25806,-1.06748 2.45533,-2.286 1.63322,-0.047 1.93971,-1.14554 2.94301,-2.13614 0.73068,-0.721614 1.71281,-0.97663 2.37575,-1.843955 0.94911,-1.241891 0.93303,-2.422483 1.00584,-3.893905 0.0787,-1.583521 -8.5e-4,-3.379216 -1.58327,-4.233333 0.68665,-0.379053 1.42156,-0.377952 2.02269,-0.949706 0.83481,-0.794851 0.83989,-1.674961 1.17009,-2.690961 0.41572,-1.279821 0.99568,-2.317919 0.81958,-3.725333 -0.12785,-1.020064 -1.06257,-2.016337 -1.03802,-2.963333 0.0263,-1.009058 -0.2159,-1.736429 -0.34628,-2.709334 -0.24892,-1.856147 -0.22098,-3.707807 -2.45872,-4.233333 0.31072,-0.936836 -0.26078,-1.615186 -0.27602,-2.54 -0.0195,-1.11616 0.96012,-1.956985 0.0593,-3.03784 -0.62569,-0.750485 -2.07264,-0.51054 -2.43501,-1.379304 -0.22945,-0.54864 -0.23876,-1.195748 -0.43434,-1.763522 -0.17272,-0.501396 -0.5605,-0.99712 -0.62908,-1.524 -0.12615,-0.96537 0.46313,-1.622298 -0.33104,-2.51162 -0.70951,-0.794817 -1.39192,-0.267801 -2.20218,-0.552213 -0.77216,-0.270789 -1.61375,-1.000167 -2.37998,-1.381463 -0.6621,-0.329396 -1.13792,-0.975581 -1.78562,-1.352042 -0.9288,-0.539691 -1.81356,-0.509262 -2.794,-0.797967 -0.74253,-0.218592 -1.31488,-0.644347 -2.11667,-0.711522 -0.93472,-0.07831 -1.78477,0.662864 -2.62467,0.576208 -0.46228,-0.04772 -0.90593,-0.374599 -1.35466,-0.502903 -0.889,-0.254246 -1.89823,-0.132309 -2.70934,0.306544 -0.87799,0.475268 -1.57734,1.254608 -1.93971,2.185645 -0.16595,0.4255 -0.15663,1.004383 -0.4445,1.367586 -0.63077,0.798246 -1.61121,1.161915 -2.14799,2.103747 -0.63754,1.118108 -0.31581,2.249 -0.70189,3.369987 -0.13885,0.404114 -0.52239,0.685546 -0.75607,1.033441 -0.50123,0.745067 -0.65194,1.685121 -0.36746,2.539238 0.2413,0.727456 0.72306,1.331638 1.27847,1.847596 0.34883,0.324104 0.89662,0.592667 0.92371,1.122088 0.10668,2.060363 -0.51816,4.264744 -0.58081,6.343649 -0.15071,4.961467 0.25231,10.442618 1.58073,15.24 0.42587,1.537462 0.88222,3.03911 1.87452,4.318 0.51985,0.67056 1.96088,1.76276 2.00829,2.628223 0.0754,1.400894 -0.45974,3.023197 -0.71205,4.399107 -0.5317,2.90907 -1.0651,5.81635 -1.62221,8.72067 -1.58411,8.24831 -2.73304,16.67798 -4.86749,24.80733 -0.8619,3.28507 -1.88806,6.53119 -2.72288,9.82134 -0.36068,1.42494 -1.00245,3.08779 -0.90932,4.572 0.0144,0.22944 0.066,0.4572 0.13293,0.67648 0.5461,1.81272 2.16323,-0.077 2.9845,0.83651 0.44111,0.49107 0.56642,1.51045 0.77216,2.12767 0.4953,1.48506 1.0668,2.93878 1.61798,4.40267 1.87367,4.96739 3.67284,10.04147 5.10625,15.15533 0.68241,2.43247 1.14723,4.91829 1.76868,7.366 0.87038,3.429 2.24875,7.05104 2.55016,10.58333 M 72.709951,78.46748 c -1.520867,0.533993 -2.872571,1.330283 -4.487333,1.619166 -0.67056,0.119888 -1.284986,-0.03869 -1.94564,-0.01346 -0.43307,0.01651 -0.835067,0.403436 -0.840232,0.846751 -0.01016,0.859197 1.485815,1.154261 2.108539,1.356021 1.702138,0.551604 3.474296,0.978154 5.249333,1.209379 0.677841,0.08831 1.497753,-0.250613 2.116666,-0.0086 1.540595,0.602319 2.98467,1.371261 4.572,1.874351 2.60858,0.82677 5.403088,1.09838 8.128,0.98281 1.328335,-0.0563 2.676906,-0.395562 3.894667,-0.920665 0.506476,-0.21844 1.385485,-0.944965 1.945809,-0.814324 0.470916,0.109813 0.854033,0.703241 1.191599,1.018709 0.85344,0.797645 1.726522,1.546522 2.704592,2.189057 2.477346,1.627632 5.307749,2.339848 8.212669,2.7178 1.1938,0.155278 2.43924,0.223181 3.64066,0.11049 0.56304,-0.05275 1.17602,-0.374566 1.73144,-0.332656 0.57404,0.04335 1.18956,0.407755 1.7399,0.578782 0.98975,0.307594 2.01168,0.472694 3.048,0.493437 0.66548,0.01329 1.51468,0.03395 2.10904,-0.30226 0.54187,-0.306747 0.66802,-0.856742 0.0923,-1.17475 -0.21421,-0.841586 -1.10151,-1.36525 -1.69333,-1.948857 -1.28694,-1.269069 -3.1115,-2.748957 -3.90737,-4.401143 -0.43349,-0.899498 -0.27855,-2.310638 -0.42333,-3.302 -0.27856,-1.899073 -0.86445,-3.704251 -1.89061,-5.334 -1.79832,-2.855298 -4.43569,-5.448299 -7.32536,-7.195481 -0.80603,-0.487256 -1.64846,-0.928793 -2.54,-1.23808 -0.468206,-0.162476 -1.159933,-0.197951 -1.532212,-0.543645 -0.588518,-0.5461 -0.824061,-1.685883 -1.277197,-2.368127 -1.050628,-1.581912 -2.585127,-2.75192 -4.387257,-3.35026 -2.892806,-0.960543 -6.163479,-0.586062 -8.974666,0.466598 -6.914473,2.589107 -13.14831,10.054929 -11.260667,17.784995 M 97.178617,65.936814 c -1.274826,0.169672 -2.478532,0.259249 -3.640666,0.881211 -4.601972,2.463038 -5.022766,8.103446 -3.280834,12.496122 0.601642,1.517396 1.765724,2.747264 2.3495,4.233333 -4.363381,2.202011 -8.96857,1.967654 -13.546666,0.422826 -1.448562,-0.488781 -2.790105,-1.403689 -4.232995,-1.842178 -0.601302,-0.182795 -1.221909,0.262044 -1.86309,0.192702 -1.640924,-0.177292 -3.212846,-0.661416 -4.825915,-0.974683 v -0.169333 c 1.533229,-0.131149 3.030728,-0.70866 4.402667,-1.377612 0.450426,-0.219625 1.144524,-0.449834 1.384977,-0.926592 0.216239,-0.428582 -0.155279,-0.856572 -0.285157,-1.251796 -0.195326,-0.594614 -0.172805,-1.244939 -0.167725,-1.862667 0.01651,-2.012611 0.651171,-4.161959 1.60147,-5.926666 2.664206,-4.947328 8.312827,-8.960189 14.061101,-8.974498 3.422565,-0.0086 7.000833,1.51638 8.043333,5.079831 m -35.221332,-2.286 c 1.93658,7.326461 2.451269,16.327712 -1.752854,23.029333 -2.028952,3.234097 -6.747172,7.25915 -10.777813,4.806018 -0.72136,-0.438996 -1.29921,-1.101344 -1.817539,-1.758018 -0.505121,-0.639995 -1.043347,-1.341797 -1.315127,-2.116667 1.291082,-1.199896 -0.08221,-2.124286 -0.370502,-3.386666 -0.144187,-0.631444 0.03658,-1.276012 -0.137498,-1.947334 0.983488,-0.855302 0.70739,-1.635252 0.254,-2.709333 1.789514,-0.378629 1.166452,-1.994154 0.762,-3.217333 1.369991,-0.975022 0.703918,-1.936073 0.254,-3.217333 0.723561,-0.478282 0.714586,-1.06316 1.113197,-1.745065 0.458555,-0.784352 1.10998,-0.933789 1.003469,-1.980269 1.775545,0.371433 2.268051,-0.891455 1.778,-2.370666 2.284222,0.08644 1.741509,-1.982216 1.185334,-3.386667 1.315211,0.473541 2.620433,1.489371 3.471333,-0.254 1.187534,0.630682 2.447967,0.849291 2.878666,-0.762 1.307,0.45085 2.043854,1.468628 3.471334,1.016 M 117.15995,90.15148 c -1.34874,0.473879 -3.10219,-0.0092 -4.40267,-0.452713 -0.54779,-0.186859 -1.10659,-0.512063 -1.69333,-0.539495 -0.87799,-0.04098 -1.80171,0.411818 -2.70933,0.442298 -1.75938,0.05901 -3.62543,-0.304546 -5.334,-0.693504 -6.475733,-1.474047 -12.493416,-7.535334 -12.609155,-14.419919 -0.01778,-1.061889 0.153246,-2.23012 0.54991,-3.217333 0.336634,-0.837692 0.83803,-1.632204 1.48827,-2.261277 4.69282,-4.539996 11.007005,0.06545 14.447855,3.785277 1.7797,1.923288 3.19109,4.176776 3.68808,6.773333 0.16934,0.882396 0.33782,1.809496 0.36322,2.709333 0.0127,0.466683 -0.18288,0.901362 0.008,1.354667 0.35899,0.851239 1.13877,1.606127 1.74498,2.286 1.33181,1.493605 2.77876,3.122083 4.4577,4.233333 m 3.302,-19.727333 c 0.44873,0.546354 1.03293,1.043432 1.778,1.06316 0.53933,0.01431 0.98044,-0.233511 1.524,-0.05131 0.54949,0.184404 0.92625,0.637455 1.43933,0.886629 0.4335,0.210312 0.90678,0.176784 1.35467,0.324697 0.55287,0.182456 1.04648,0.503682 1.60867,0.671237 0.57912,0.17272 1.73482,-0.02184 2.18778,0.298958 0.3192,0.225637 0.41233,0.80501 0.62738,1.124627 0.31666,0.470747 0.83566,0.778087 1.13792,1.246632 0.29464,0.456269 0.0813,1.275757 0.12616,1.801368 0.0923,1.071287 0.48937,2.228681 1.20396,3.044783 0.35475,0.404791 1.78054,0.930825 1.7636,1.457452 -0.0212,0.653796 -0.67479,1.076536 -1.05579,1.522137 -0.44789,0.524256 -0.70273,1.176613 -0.82719,1.849628 -0.21506,1.166199 -0.0906,2.579793 0.45974,3.640582 0.25569,0.493437 0.8238,0.90424 0.94911,1.446953 0.24299,1.047919 -0.40132,2.20218 -0.26416,3.294465 0.0813,0.644652 0.95589,1.976374 0.67987,2.517648 -0.44619,0.874776 -2.13275,1.305898 -3.00905,1.505542 -3.32232,0.757005 -7.52263,-0.961982 -9.44118,-3.684524 -1.1303,-1.604602 -1.41901,-3.871976 -1.78477,-5.757333 -0.78148,-4.026408 -1.05072,-8.183541 -1.05072,-12.276666 0,-1.811698 -0.0669,-4.220972 0.59267,-5.926667 m -61.774746,3.766058 c -0.685631,0.254423 -0.379476,2.53111 -0.226145,3.087709 0.0812,0.294386 0.332656,0.633476 0.682075,0.539411 0.277961,-0.07476 0.365929,-0.366691 0.372364,-0.622046 0.01863,-0.738293 0.01,-1.729909 -0.146473,-2.450169 -0.06748,-0.310557 -0.306663,-0.694097 -0.681821,-0.554905 m 63.166666,3.324775 c -0.33443,0.178308 -0.36237,0.619845 -0.37253,0.9525 -0.0263,0.859875 -0.0263,1.771058 0.10837,2.622466 0.0584,0.371178 0.34967,0.828294 0.78655,0.605028 0.34036,-0.174498 0.36407,-0.606976 0.36492,-0.941578 0.002,-0.831342 0.088,-1.717972 -0.061,-2.539323 -0.0686,-0.375751 -0.34375,-0.955971 -0.82635,-0.699093 m 7.87739,0.554736 c -0.25654,0.128355 -0.33444,0.437981 -0.16934,0.672931 0.21336,0.302937 0.65363,0.326898 0.92626,0.56134 0.4445,0.381508 0.61976,1.060535 0.69088,1.618827 0.19219,1.52781 -0.54949,2.73541 -1.3479,3.969173 -0.20235,0.312166 -0.72982,0.525272 -0.81534,0.882735 -0.13631,0.567097 0.58759,0.786722 1.00754,0.649478 0.61129,-0.199644 0.8636,-0.936668 1.17094,-1.437386 0.94318,-1.535261 1.4842,-3.190156 0.93895,-4.995334 -0.26247,-0.869442 -1.22936,-2.508758 -2.40199,-1.921764 m -73.332003,6.452955 c -0.642282,0.226229 -0.08585,0.969349 0.231648,1.19507 0.668697,0.475319 1.896025,0.858181 2.68842,0.492845 0.366438,-0.168995 0.653204,-0.713148 0.213699,-0.98696 -0.327067,-0.203877 -0.773853,0.0036 -1.131739,-0.02692 -0.618914,-0.05283 -1.421469,-0.878416 -2.002028,-0.674031 m 67.887933,6.023694 c -0.37423,0.147405 -1.44865,0.491998 -1.68995,0.781643 -0.71289,0.85852 1.02278,0.822706 1.41986,0.667681 0.38608,-0.150198 0.79756,-0.406569 0.9161,-0.830495 0.11853,-0.427397 -0.21675,-0.787993 -0.64601,-0.618829 m -67.833239,1.552448 c 1.850475,3.923792 2.692231,8.468355 3.932513,12.615335 2.818807,9.425 5.241121,18.88574 7.549049,28.448 0.830157,3.43916 1.448901,6.92996 2.056807,10.414 0.136906,0.78486 0.2275,1.61544 0.488866,2.37066 0.123528,0.35645 0.394462,0.76793 0.193971,1.14639 -0.336635,0.63669 -1.527387,0.47752 -2.113872,0.42418 -2.053082,-0.18796 -4.138253,-0.11769 -6.180667,-0.38523 -1.001776,-7.20768 -2.103628,-14.43051 -2.831507,-21.67467 -0.171027,-1.70214 -0.300736,-3.45415 -0.30116,-5.16467 -8.4e-5,-0.37304 0.1132,-1.60257 -0.57641,-1.46295 -0.580983,0.1176 -0.471848,1.28456 -0.499703,1.71695 -0.119549,1.85522 0.09432,3.90932 0.295825,5.75734 0.600372,5.50756 1.314196,11.03122 2.13631,16.51 0.372618,2.48327 0.889846,4.94876 1.183978,7.45066 -1.243499,-0.38354 -2.419604,-0.78147 -3.725333,-0.90085 -0.483277,-0.044 -1.37414,0.13462 -1.757087,-0.21675 -0.637625,-0.5842 -0.730504,-2.06078 -0.813224,-2.86173 -0.193209,-1.87198 -0.680804,-3.73634 -1.016762,-5.588 -1.538985,-8.48165 -1.984755,-17.07786 -2.655231,-25.654 -0.190754,-2.43967 -0.192362,-4.9193 -0.192362,-7.366 0,-0.7029 0.288713,-2.25984 -0.183896,-2.82677 -0.270341,-0.32427 -0.639488,-0.1126 -0.774446,0.21311 -0.248666,0.59995 -0.142325,1.38642 -0.142325,2.02099 0,2.85979 0.01803,5.69731 0.175429,8.55134 0.568452,10.3135 1.337395,20.84578 3.803904,30.90333 -3.128264,-0.11515 -6.284214,-0.12785 -9.398,0.27009 -0.886121,0.11345 -2.71653,0.76962 -3.385735,-0.0618 -0.283718,-0.35221 -0.166878,-0.81534 -0.115739,-1.22428 l 0.352636,-2.70933 c 0.466429,-3.63305 0.872575,-7.28134 1.276858,-10.922 0.773346,-6.96316 1.271186,-13.98618 2.333583,-20.91267 0.425196,-2.77224 1.096941,-5.47158 1.670643,-8.21267 0.49022,-2.34222 1.004908,-4.680961 1.474554,-7.027328 0.13335,-0.666411 0.153162,-2.21107 0.669544,-2.685203 0.38625,-0.354669 2.046309,0.254 2.581656,0.289814 1.662515,0.111252 2.987971,-0.71882 4.487333,-1.245278 m 77.808669,6.519334 c -0.45043,1.396571 -0.51478,2.992621 0.85174,3.915751 0.49784,0.33638 1.52146,0.344 1.82711,0.86698 0.32258,0.55211 0.39963,1.37152 0.53848,1.9906 0.29633,1.32342 0.56727,2.65261 0.84836,3.97933 2.03877,9.61644 4.87003,19.03248 7.04511,28.61734 0.73576,3.24188 2.06841,6.5913 2.3512,9.906 l -4.14867,-0.33105 -10.32933,1.00838 c 0.20828,-1.61713 0.72051,-3.22665 1.04902,-4.826 0.55202,-2.68647 0.95842,-5.39665 1.21496,-8.128 0.65786,-7.00253 0.0576,-13.94028 -0.635,-20.91267 -0.29972,-3.01659 -0.52493,-6.03792 -0.76708,-9.05933 -0.0508,-0.63339 0.008,-1.43281 -0.24468,-2.02387 -0.12531,-0.2949 -0.48006,-0.62467 -0.79079,-0.34172 -0.28956,0.26442 -0.15748,0.75938 -0.12107,1.09559 0.0999,0.92558 0.0872,1.86563 0.17187,2.794 0.33867,3.72186 0.54441,7.45448 0.93133,11.176 1.30133,12.51526 0.21167,24.82088 -4.19523,36.66067 -1.44103,-0.67395 -2.42655,-2.00322 -3.64067,-2.98366 -0.38608,-0.31242 -1.20142,-0.71035 -1.27931,-1.25476 -0.0957,-0.67225 0.99653,-1.91431 1.29286,-2.53492 0.78655,-1.65184 1.15316,-3.3511 1.31741,-5.16466 0.76708,-8.43551 1.03971,-17.01386 1.03971,-25.48467 0,-3.11294 -0.0254,-6.21106 -0.30903,-9.31333 -0.0542,-0.59877 0.18372,-2.68952 -0.39963,-2.96478 -0.95165,-0.44881 -0.75523,1.72356 -0.73829,2.11811 0.1143,2.60011 0.26162,5.18456 0.26162,7.78933 0,8.39589 -0.13886,16.85968 -0.77047,25.23067 -0.17187,2.27669 -0.27009,4.85648 -1.24714,6.94267 -0.27517,0.58758 -0.60706,1.52992 -1.15655,1.91092 -0.55456,0.38439 -1.59088,0.3192 -2.24451,0.40132 -1.74921,0.21929 -3.51113,0.43942 -5.24933,0.72898 -0.4716,0.0779 -2.00914,0.61045 -2.23944,-0.033 -0.12022,-0.33528 0.0864,-0.81449 0.15579,-1.14554 0.19812,-0.93472 0.39878,-1.86774 0.63415,-2.794 0.90001,-3.54668 2.05148,-7.02648 2.92016,-10.58333 1.73905,-7.12741 2.7813,-14.40155 4.21894,-21.59 0.7095,-3.54643 1.39954,-7.1004 1.9939,-10.668 0.29972,-1.79993 0.75776,-3.675717 0.78316,-5.503331 2.0845,0.550418 4.06146,1.43129 6.26534,1.251712 0.96943,-0.07891 1.87621,-0.455253 2.794,-0.743712 m -71.628002,49.699331 7.535333,0.42333 c 0,2.79231 0.05089,5.59986 -0.27305,8.382 -1.016338,8.7266 -3.646339,17.17802 -6.088295,25.56933 -0.612902,2.10566 -1.256369,4.23418 -1.411393,6.43467 -0.05766,0.81873 -0.101262,1.63407 -0.101262,2.45533 0,0.35222 0.09085,0.88562 -0.09948,1.20058 -0.226314,0.37507 -1.125305,0.30141 -1.509183,0.34967 -1.395222,0.17441 -3.329432,0.70358 -4.715002,0.43434 -0.689018,-0.13377 -0.846328,-2.00745 -0.9895,-2.57725 -0.69452,-2.76352 -1.358476,-5.53382 -2.052997,-8.29734 -1.360254,-5.41189 -3.329347,-10.54777 -5.083471,-15.83266 -1.208363,-3.64067 -2.233253,-7.3787 -3.194135,-11.09133 -0.625602,-2.41724 -1.743625,-4.96994 -1.998895,-7.45067 2.899918,-0.23029 5.711275,-0.67733 8.636,-0.67733 0.889677,0 2.385737,-0.28025 3.179487,0.18034 1.175173,0.68241 0.545677,2.57048 0.482515,3.54499 -0.10524,1.62475 0.509355,4.0259 1.339766,5.41867 1.543558,2.58995 6.737773,4.29683 7.753773,0.33866 0.810514,-3.15806 -1.150451,-5.76072 -1.410208,-8.80533 m 79.501999,0.508 c -0.31158,8.45397 -0.61214,16.96551 -1.29286,25.4 -0.49192,6.09684 -1.33435,12.1793 -1.67048,18.288 -2.26652,-0.29718 -4.57708,-0.51647 -6.858,-0.67988 -0.64854,-0.0466 -2.17932,0.11515 -2.68901,-0.3048 -0.52663,-0.43264 -0.58505,-2.17 -0.73575,-2.82532 -0.57997,-2.51968 -1.25392,-5.03767 -1.92448,-7.53534 -0.64008,-2.38336 -1.06595,-4.81753 -1.71619,-7.19666 -1.07696,-3.93446 -2.43671,-7.83082 -3.77444,-11.684 -0.77047,-2.22081 -1.61883,-4.41367 -2.47142,-6.604 -0.52747,-1.35467 -1.20481,-2.78807 -1.42071,-4.23333 l 5.41867,-0.67734 c -0.58166,0.95081 -0.43349,1.98374 -0.29887,3.048 0.3048,2.41046 1.28608,4.77859 2.35204,6.94267 0.38777,0.78655 0.7349,1.68825 1.32757,2.34865 0.26585,0.29549 0.78825,0.54018 1.03463,0.0711 0.21505,-0.40894 -0.20405,-0.83396 -0.41064,-1.14977 -0.46482,-0.70951 -0.90932,-1.54855 -1.12606,-2.37067 1.24968,-0.56388 2.15561,-1.46304 3.21733,-2.29954 0.39539,-0.31158 0.93472,-0.45043 1.24883,-0.85514 0.40302,-0.519 0.6223,-1.24036 0.87969,-1.84065 0.46228,-1.07781 0.85005,-2.18101 1.1938,-3.302 0.13039,-0.42503 0.20997,-1.18364 0.58166,-1.47151 0.55457,-0.42926 1.93463,-0.29633 2.61535,-0.36152 2.17594,-0.20828 4.33917,-0.53848 6.51934,-0.70697 m -85.41622,1.68487 c 0.437812,-0.15833 0.9768,-0.0567 1.426888,-0.0119 1.232916,0.12277 3.186938,0.33105 4.048167,1.33435 0.525357,0.61129 0.662601,1.55533 0.776309,2.32664 0.182287,1.23613 0.324104,3.43239 -1.100836,4.02505 -1.543812,0.64262 -3.75031,-0.6223 -4.558284,-1.91346 -0.47244,-0.75523 -0.665819,-1.76107 -0.865717,-2.61959 -0.183473,-0.78825 -0.816525,-2.74659 0.273473,-3.14113 m 67.21288,1.27846 c 0.9288,1.07019 1.88892,2.08704 2.96334,3.01414 0.4047,0.34882 1.23782,0.73829 1.34789,1.3081 0.083,0.42756 -0.30057,0.75607 -0.59013,1.0016 -0.74252,0.62908 -1.45965,1.16925 -2.36643,1.53416 -0.61891,-1.57564 -1.22682,-3.23342 -1.4859,-4.91066 -0.0991,-0.64347 -0.29633,-1.397 0.13123,-1.94734 z"
         id="path3473"
         sodipodi:nodetypes="csccsccccscccccccscccccscccccccscccscccccccscccccccccccccccccccccccccccccccccccccccccccsccccccssccccccccccccccccccsccccccccccccscsccscccccscccsccccccccccccccsccccscccccccccccccccccccccccccccccccccccsccccccccccccccccccccccscccccscccccccccccccccccccccccccccccccccccccsscccsccccccsscscccccccsscscccccccccccccccccccccccccscccscsccccccccccccccccsscccccsscsccccccccccccccccccccccccccccccccccccccccccccc" /></g></g></svg>
