<?xml version="1.0" encoding="UTF-8" standalone="no"?>
<!-- Created with Inkscape (http://www.inkscape.org/) -->

<svg
   width="154.57906"
   height="119.06253"
   viewBox="0 0 154.57906 119.06253"
   version="1.1"
   id="svg5"
   xml:space="preserve"
   xmlns:inkscape="http://www.inkscape.org/namespaces/inkscape"
   xmlns:sodipodi="http://sodipodi.sourceforge.net/DTD/sodipodi-0.dtd"
   xmlns="http://www.w3.org/2000/svg"
   xmlns:svg="http://www.w3.org/2000/svg"><sodipodi:namedview
     id="namedview7"
     pagecolor="#ffffff"
     bordercolor="#000000"
     borderopacity="0.25"
     inkscape:showpageshadow="2"
     inkscape:pageopacity="0.0"
     inkscape:pagecheckerboard="0"
     inkscape:deskcolor="#d1d1d1"
     inkscape:document-units=""
     showgrid="false" /><defs
     id="defs2" /><g
     inkscape:label="Layer 1"
     inkscape:groupmode="layer"
     id="layer1"
     transform="translate(-15.040503,-41.038054)"><g
       style="fill:none"
       id="g327"
       transform="matrix(1.5023295,0,0,1.5023295,14.933402,40.476148)"
       inkscape:label="blob"
       inkscape:export-filename="wordsmith.svg"
       inkscape:export-xdpi="96"
       inkscape:export-ydpi="96"><path
         opacity="0.689993"
         d="m 72.8975,12.5995 c 7.772,9.1384 7.0288,21.9294 5.2714,33.7952 C 76.4057,58.3001 73.8816,71.573 63.3103,77.3307 52.9213,82.9893 40.9429,76.9223 29.8966,72.6868 18.6969,68.3925 5.60747,64.8955 1.4971,53.6294 -2.76479,41.948 3.209,29.4434 10.4245,19.3156 17.4138,9.50523 27.2734,1.92365 39.2519,0.635917 51.7036,-0.702696 64.7851,3.06102 72.8975,12.5995 Z"
         fill=""
         id="path318"
         inkscape:export-filename="speaker.svg"
         inkscape:export-xdpi="96"
         inkscape:export-ydpi="96" /></g><g
       id="g3245"
       inkscape:label="globetrotter"
       transform="translate(-0.43708961,23.384294)"><path
         style="opacity:0.45;fill:#020202;stroke:none;stroke-width:0.0846667"
         d="m 145.07846,36.994174 c 0.23537,-2.82558 -3.20887,-1.131739 -4.318,-0.355431 -0.45466,0.318178 -0.90424,0.840317 -1.43933,1.012275 -0.56558,0.181779 -1.06003,0.01575 -1.60867,0.356447 -1.94649,1.208362 -3.50012,3.17373 -5.16467,4.727363 -0.80772,0.753872 -2.09888,1.624161 -2.66446,2.566162 -0.36237,0.602403 -0.15494,1.356953 0.39116,1.767501 0.40386,0.303954 0.89324,0.319363 1.34197,0.511726 0.84413,0.361696 2.10481,1.161288 2.67377,1.88595 0.62061,0.790617 0.97452,1.7145 1.73228,2.411137 0.47414,0.435864 1.27593,0.558292 1.67556,1.026668 0.44619,0.523409 0.46905,1.280244 1.00076,1.850728 1.12352,1.20523 2.57302,2.329604 3.43069,3.744807 0.28448,0.468376 0.13377,0.933704 0.24723,1.439333 0.13546,0.602319 0.51223,1.13411 0.7603,1.693334 0.74592,1.683596 0.74084,4.639225 3.21141,4.639818 1.33096,3.38e-4 2.53069,-0.938954 3.556,-1.677247 1.64761,-1.186688 3.2258,-2.466001 4.826,-3.715258 0.9144,-0.713909 2.00829,-1.400387 2.75082,-2.300055 0.33528,-0.4064 0.35052,-0.884174 0.60113,-1.319614 0.59775,-1.039284 1.95157,-2.028952 0.45805,-3.078311 0.80095,-0.639826 2.02607,-1.187111 2.51799,-2.121493 0.60621,-1.149688 -0.46228,-2.127757 -1.58666,-1.942507 0.23368,-1.102698 -0.30564,-1.807718 -1.43933,-1.862666 v -0.08467 c 0.53933,-0.314875 1.11929,-0.739733 1.33435,-1.354751 0.45127,-1.290066 -0.82804,-1.769364 -1.84235,-1.608582 0.59267,-0.491575 1.41055,-0.95902 1.72551,-1.693672 0.58758,-1.374056 -0.80095,-1.949112 -1.89484,-1.692995 0.40132,-1.991699 -2.18102,-2.616115 -3.72534,-2.286 0.81788,-1.330113 0.36068,-2.900595 -1.43933,-2.54 0.0508,-0.280839 0.0931,-0.561001 0.0567,-0.847005 -0.30311,-2.377101 -2.84057,-0.358733 -3.86673,-0.042 -0.44027,0.135805 -0.90255,-0.06358 -1.35467,0.03378 -0.68834,0.148167 -1.30386,0.582845 -1.94733,0.855218 m 8.55133,2.54 -0.0847,0.08467 0.0847,-0.08467 M 68.370461,77.041507 c -1.730756,-0.224706 -1.716701,1.54161 -1.690539,2.794 0.03776,1.813983 0.333079,3.624833 0.501565,5.418666 0.05376,0.571754 -0.476588,1.264073 -0.227076,1.804501 0.282194,0.611208 1.483784,1.03615 2.093384,1.158832 0.4191,-1.380236 0.839893,-2.744216 1.172464,-4.148666 0.405638,-1.712637 0.566589,-3.16865 1.880446,-4.482423 0.703834,-0.703918 1.656419,-1.54669 2.619756,-1.853099 1.028361,-0.327152 2.168906,-0.124375 3.217333,9.31e-4 1.923796,0.229955 3.695954,0.55626 5.588,0.97934 1.716363,0.383878 4.004733,0.819742 4.880017,2.562013 1.014392,2.01913 -0.08357,3.942249 -0.665818,5.925904 -0.267632,0.911522 -0.302599,1.767925 -0.319532,2.709334 3.162554,0 6.419003,-0.23385 9.567333,-0.53103 1.265005,-0.11938 2.636859,-0.558546 3.894666,-0.539496 1.01922,0.01549 1.4141,0.956903 1.43933,1.832526 h 0.0847 c 0.24553,-0.889593 0.52307,-1.522392 1.43933,-1.862667 -0.62289,-1.690624 -1.09025,-3.381756 -1.6736,-5.08 -0.63128,-1.83752 -1.46372,-3.63838 -0.333,-5.498253 0.60021,-0.987129 1.841,-1.318853 2.7686,-1.910673 1.36026,-0.867664 2.69291,-1.852422 4.318,-2.152565 1.34112,-0.24765 2.97646,0.458216 4.318,0.628819 2.08204,0.264922 4.1927,-0.05241 6.26534,0.276776 2.09211,0.332316 4.66767,0.928454 5.92412,2.844376 0.36661,0.559393 0.0347,1.705949 -0.0271,2.340187 -0.20405,2.096939 -0.53933,4.177707 -0.81703,6.265333 l 2.45533,0.0015 6.096,0.167809 c -0.11599,-2.037672 -0.98298,-3.761909 -1.79663,-5.587999 -0.5334,-1.196764 -0.99483,-2.466086 -1.73482,-3.556 -0.47328,-0.698162 -1.39615,-1.07586 -1.778,-1.791208 -0.65108,-1.2181 -1.27338,-2.428325 -1.98458,-3.627459 -0.37338,-0.630936 -0.83058,-1.417913 -1.51384,-1.75133 -0.75015,-0.365675 -2.2115,-0.724662 -3.04546,-0.652441 -0.5478,0.0475 -1.05664,0.320886 -1.60867,0.314875 -1.89992,-0.02049 -3.87384,-0.456015 -5.75733,-0.699177 -1.22276,-0.157819 -2.19668,0.115908 -3.38667,0.2424 -0.74701,0.07942 -1.45914,-0.01515 -2.20133,0.172297 -0.82559,0.208449 -1.78444,0.869273 -2.62467,0.882311 -0.68301,0.01058 -2.57082,-0.96376 -2.89255,-1.572429 -0.29972,-0.566928 0.0226,-1.426633 0.12962,-2.016506 0.12438,-0.685207 0.14063,-1.458298 0.36712,-2.116666 0.37058,-1.077214 0.9337,-1.952583 1.08475,-3.132667 0.11074,-0.865463 0.0396,-1.743117 0.16594,-2.624667 0.20185,-1.409107 0.60334,-2.814404 0.70468,-4.233333 0.0897,-1.255522 -0.2065,-2.710011 0.61037,-3.798485 1.15138,-1.534245 4.40724,-2.580979 6.15738,-1.532467 0.38684,0.231818 0.58843,0.685292 0.8879,1.009396 0.56278,0.609262 1.36212,1.203875 2.18279,1.390989 0.89806,0.204808 1.72551,0.05334 2.62467,0.0059 0.92879,-0.04902 1.77546,0.162391 2.70933,-0.03615 1.83049,-0.389213 3.33841,-1.543981 4.99533,-2.350262 0.85683,-0.416729 2.47904,-0.602488 3.12674,-1.269492 0.66379,-0.684276 0.44196,-1.813814 -0.12022,-2.472097 -0.76708,-0.898229 -2.26314,-1.277197 -3.34518,-1.66641 -2.11667,-0.761068 -4.18508,-0.117771 -6.35,-0.118279 -2.79807,-6.77e-4 -5.57463,-0.579797 -8.382,-0.593005 -0.50411,-0.0024 -1.19177,0.04106 -1.656,-0.182203 -0.56472,-0.271611 -0.80162,-0.784183 -1.47675,-0.916771 -1.74431,-0.34273 -3.41715,0.404876 -5.16459,0.369909 -0.87553,-0.01744 -1.33815,-0.871813 -2.285996,-0.879263 -0.24511,-1.752346 -1.474893,-1.122257 -2.624667,-0.951992 -0.412411,0.06113 -0.853016,-0.06316 -1.27,-0.05969 -1.19634,0.01016 -2.239602,0.57785 -3.302,1.057825 -1.903137,0.859875 -3.741166,1.787737 -5.588,2.760557 -0.823213,0.433662 -2.36711,0.687154 -2.691891,1.68258 -0.3037,0.93091 0.522986,1.520275 1.337225,1.604772 2.08263,0.215985 4.460748,-0.592243 6.180243,0.882396 1.643295,1.409277 2.246037,4.288536 2.071285,6.400885 -0.08128,0.982726 -0.617389,1.977813 -0.454406,2.963333 0.381,2.303018 2.232406,4.270756 0.363813,6.429587 -1.228767,1.419436 -3.501136,2.497158 -5.282269,3.012101 -1.186942,0.343154 -2.523066,0.517059 -3.640666,1.048427 -1.830493,0.870289 -3.345688,2.550837 -5.418667,2.918375 -1.597236,0.283126 -2.74447,-0.80374 -4.233333,-0.784352 -1.719665,0.02227 -3.780621,1.585045 -5.08,2.6024 -0.405892,0.317754 -1.104053,0.70849 -1.369398,1.152736 -0.310896,0.520531 -0.368978,1.796542 -0.408602,2.416726 M 157.52446,45.206841 v 0.08467 l -0.254,0.08467 0.254,-0.169333 m 0.508,3.048 -0.0847,0.08467 0.0847,-0.08467 M 115.02179,90.33418 c 0.40623,1.387687 0.56177,3.72364 -0.28312,4.98856 -0.61798,0.92456 -2.80662,1.634067 -2.19414,3.136053 0.28939,0.709507 1.09787,0.936413 1.79993,0.912707 1.6543,-0.05503 3.51451,-0.31496 5.08,-0.857673 2.07433,-0.71882 4.28667,-2.091267 5.03428,-4.28498 0.36999,-1.08712 0.38693,-2.5019 0.38439,-3.640667 -0.003,-1.328505 -0.22522,-3.127417 -1.3606,-4.000585 -1.6383,-1.260686 -4.34424,-0.600286 -6.17474,-0.296248 -0.72627,0.120565 -1.4842,0.128524 -2.20133,0.289898 -0.41546,0.09347 -0.76615,0.367454 -1.18533,0.437812 -0.54187,0.09102 -1.10338,-0.07882 -1.58234,0.278384 -1.63872,1.221909 1.48649,3.298952 2.683,3.036739 m -16.001996,6.180667 0.08467,0.08467 -0.08467,-0.08467 m 25.315336,0.254 c -0.54102,2.778759 -2.09889,5.005493 -3.22834,7.535333 -0.24554,0.54864 -0.20574,1.14724 -0.42334,1.68572 -0.17441,0.43264 -0.5444,0.76538 -0.74252,1.1938 -0.90763,1.96426 -1.64592,3.8735 -3.22072,5.4085 -0.69461,0.67734 -1.45449,1.44865 -2.37575,1.80256 -1.79536,0.69088 -4.5963,-0.0322 -5.75776,-1.54686 -0.71941,-0.93811 -0.73482,-2.3876 -0.33629,-3.46372 0.17306,-0.46736 0.5715,-0.85344 0.6416,-1.35466 0.10541,-0.75354 -0.24765,-1.56295 -0.41089,-2.286 -0.34069,-1.50876 -0.5737,-3.14791 -1.19879,-4.572 -0.25756,-0.58674 -0.66446,-1.503687 -1.27855,-1.793247 -0.42156,-0.19812 -1.10566,0.09483 -1.56532,0.09737 -0.94954,0.0068 -1.9365,-0.257387 -2.87867,-0.18796 -0.45296,0.03387 -0.81534,0.364913 -1.27,0.385233 -0.448052,0.01863 -0.83591,-0.2667 -1.269996,-0.333587 -0.681059,-0.104986 -1.42875,-0.0381 -2.116667,-0.02879 -2.50444,0.03387 -4.967478,0.48006 -7.450666,0.583353 -1.235795,0.0508 -2.485306,-0.161713 -3.725333,-0.161713 -0.106257,1.936331 -0.347557,3.900601 -0.242486,5.842001 0.08661,1.59936 0.416137,3.08526 0.66294,4.65667 0.13479,0.85852 0.04699,1.78308 0.247058,2.62467 0.18525,0.77893 0.97011,2.08788 1.498261,2.69832 0.586994,0.67818 1.447376,0.8763 2.236893,1.21666 2.063919,0.889 4.115647,1.32588 6.265333,1.91347 7.700093,2.10227 15.659443,1.94903 23.283333,-0.43603 2.07433,-0.6494 4.17407,-1.31149 6.096,-2.34527 4.10125,-2.20726 7.64963,-5.37887 11.09133,-8.47767 0.93388,-0.84159 2.75336,-1.97274 2.99382,-3.29015 0.10837,-0.59097 -0.1778,-1.31826 -0.39286,-1.86267 -0.2413,-0.61298 -0.7366,-1.00076 -1.08288,-1.54008 -0.14986,-0.23284 -0.2176,-0.58928 -0.47837,-0.72814 -0.31242,-0.166795 -0.78232,-0.03979 -1.12437,-0.06096 -1.14893,-0.06943 -2.33257,0.07028 -3.47134,-0.10922 -0.96435,-0.151554 -1.39107,-0.90424 -2.22588,-1.16078 -0.63246,-0.194733 -1.35552,-0.125307 -2.00745,-0.242147 -0.87545,-0.156633 -1.62475,-0.554566 -2.45533,-0.8382 -0.82889,-0.282786 -1.52908,-0.323426 -2.286,-0.823806 z"
         id="path3241" /><path
         style="fill:#040404;stroke:none;stroke-width:0.0846667"
         d="m 52.537795,48.593507 c 0.826855,0.453475 1.062905,1.802554 1.415119,2.624667 0.874606,2.041228 1.924049,3.989832 3.006597,5.926666 1.558121,2.78782 3.383958,5.566664 5.506043,7.958667 0.721953,0.813731 1.448477,1.618742 2.144268,2.455333 0.253492,0.304885 0.670475,0.680466 0.702818,1.100667 0.04843,0.628819 -0.71374,1.30666 -0.957411,1.86419 -0.617135,1.412071 -0.956564,2.924302 -1.379304,4.401143 -1.37922,4.818041 -2.378626,10.315109 -1.452457,15.324666 0.605367,3.27406 3.038517,6.589607 5.830993,8.35406 0.873676,0.552873 1.853608,1.068493 2.794,1.496904 0.497078,0.22691 1.136311,0.33613 1.544235,0.71459 0.712978,0.66294 1.156208,1.75937 1.711452,2.55778 1.155108,1.66116 2.407751,3.25967 3.78841,4.74133 5.202936,5.58208 11.931057,9.63338 19.287236,11.6459 13.284286,3.6339 27.866336,0.23961 38.184666,-8.89254 2.32664,-2.05994 4.38489,-4.38404 6.20353,-6.90202 0.59436,-0.82212 1.14554,-1.67132 1.66962,-2.54 0.26501,-0.43858 0.4953,-1.02278 0.90086,-1.35128 0.70188,-0.568964 2.28769,-0.486837 3.16399,-0.713744 2.52984,-0.657013 5.5118,-1.44018 7.33044,-3.443393 1.89653,-2.088727 2.74659,-5.048758 3.11827,-7.784253 0.73406,-5.391319 -0.0838,-10.713381 -1.53585,-15.917333 -0.56473,-2.024211 -1.55448,-3.877818 -2.63059,-5.672667 -0.43858,-0.731266 -0.82296,-1.622467 -1.54094,-2.116666 V 64.25684 l 3.302,-2.370666 c 0.0533,1.707049 1.6129,1.629748 2.62467,0.67056 0.97536,-0.924814 1.76784,-2.033778 2.7051,-2.960116 0.3429,-0.339175 0.82804,-0.519769 1.18957,-0.854456 1.05156,-0.97553 1.95918,-2.127081 2.79315,-3.290655 0.56557,-0.790109 0.98891,-1.772497 1.62814,-2.497582 0.381,-0.432647 0.94234,-0.535009 1.25899,-1.062228 0.39116,-0.652102 0.46059,-1.442042 0.8145,-2.112856 0.46905,-0.888323 1.24375,-1.703832 1.45796,-2.709334 0.14139,-0.661246 -0.36238,-1.189058 -0.20574,-1.862666 0.4936,-2.125726 1.25476,-4.124114 1.13114,-6.35 -0.15748,-2.855129 -1.59088,-4.57454 -3.42815,-6.604 -1.39785,-1.543389 -2.83887,-3.136053 -4.68799,-4.153493 -1.35044,-0.743119 -2.74574,-0.848444 -4.23334,-1.076706 -1.65184,-0.253492 -3.31639,-0.578273 -4.99533,-0.402674 -3.70163,0.387096 -7.20598,2.601468 -10.32933,4.496138 -1.79832,1.091015 -3.63305,2.076366 -5.334,3.324014 -1.15655,0.847936 -2.36136,1.802468 -3.09118,3.062054 -0.40302,0.695875 -0.54356,1.468882 0.12784,2.032 l -3.51197,3.803819 -1.56803,1.699514 c -10.22688,-6.175586 -22.6971,-7.80271 -34.120663,-4.201414 -3.946652,1.244262 -7.38632,3.206835 -10.921999,5.302081 0.211412,-1.093385 -1.002792,-2.548805 -1.57734,-3.471333 -1.794849,-2.882054 -3.797216,-5.633974 -5.787475,-8.382 -0.84328,-1.164336 -2.228088,-2.262632 -2.853013,-3.539321 -0.180255,-0.368215 0.02726,-0.736092 0.04013,-1.117684 0.01702,-0.50546 -0.187452,-0.956056 -0.48751,-1.352804 -0.648716,-0.857589 -1.639401,-1.442128 -2.542794,-1.994747 -2.235539,-1.367367 -4.834467,-2.557865 -7.450667,-2.910755 -1.389126,-0.187368 -2.851658,-0.201592 -4.233333,0.05021 -0.563033,0.102616 -1.475825,0.67691 -2.015575,0.544576 -0.651594,-0.159681 -0.569468,-1.363133 -0.716534,-1.871472 -0.345778,-1.195239 -1.150027,-2.236554 -2.178557,-2.922608 -1.586569,-1.058249 -3.872992,-1.259502 -5.502572,-0.186521 -0.661416,0.435525 -0.983572,1.06299 -1.515702,1.612053 -0.685631,0.707559 -1.709166,1.407499 -2.487422,2.030053 -1.030309,0.82423 -2.318258,0.920411 -3.23342,2.008716 -2.539153,3.019637 -0.332317,6.342042 2.917782,7.418409 0.773176,0.256032 1.563794,0.358733 2.370667,0.440944 0.328845,0.03353 0.772583,0.06045 0.945727,0.396579 0.205401,0.398864 -0.163407,1.00567 -0.273304,1.394375 -0.280078,0.991108 -0.424773,2.018284 -0.417576,3.048 0.02083,2.988648 0.938614,6.213263 2.032254,8.974666 0.470408,1.18762 2.137833,4.438566 3.554899,2.286 m 7.366,-22.351999 -0.08467,0.08467 0.08467,-0.08467 m 10.329333,4.826 c 1.220046,0.922104 2.159508,2.479886 3.81,1.862666 2.385737,2.967313 4.618058,6.114373 6.685449,9.313333 0.825923,1.277959 1.394291,3.430355 2.627884,4.318 -0.955463,0.992124 -2.183215,1.75023 -3.217333,2.665561 -1.82626,1.616371 -3.50266,3.383449 -5.020141,5.293106 -6.737773,8.47852 -10.032153,19.713617 -8.611192,30.479999 -0.39895,-0.220895 -1.135211,-0.380915 -1.07696,0.3429 0.07882,0.978831 1.211241,1.547029 1.485222,2.4511 0.455761,1.503765 0.694775,3.068997 1.174581,4.572 0.739817,2.317327 1.747351,4.473787 2.735157,6.688666 -0.953262,-0.292946 -1.945048,-0.891539 -2.794,-1.414779 -7.408672,-4.565227 -6.13427,-14.649281 -4.112599,-21.783887 0.635423,-2.242396 1.057741,-4.356862 2.334599,-6.35 0.480652,0.28592 1.323848,0.308695 0.934212,-0.508592 -0.330031,-0.692404 -1.005671,-1.27381 -1.488271,-1.862074 -1.229953,-1.499193 -2.546519,-2.936494 -3.71094,-4.487333 -2.214118,-2.948686 -4.140623,-6.100826 -5.789168,-9.398 -0.691557,-1.383115 -1.636691,-2.955205 -1.932178,-4.487333 -0.198797,-1.030478 0.397934,-2.234692 0.302345,-3.302 h 0.08467 c 1.018963,1.121579 2.915073,0.271356 2.897123,-1.27 -0.0065,-0.56261 -0.514858,-0.956818 -0.824145,-1.371346 -0.430445,-0.577004 -0.770382,-1.240452 -0.972312,-1.930654 h 0.08467 c 0.49911,0.822367 1.050798,1.824566 1.947333,2.27059 1.189228,0.591566 2.117683,-0.566504 1.947333,-1.677924 0.837269,0.4699 2.551515,0.453221 2.18203,-1.016 -0.19939,-0.793072 -1.014561,-1.416388 -1.42003,-2.116666 0.669968,0.59546 2.900765,2.5665 3.133175,0.338497 0.08551,-0.819235 -0.845481,-1.200404 -0.423841,-2.031831 1.644734,0.683514 2.257213,-0.804163 1.608666,-2.116666 1.155362,0.6858 2.416302,0.374057 2.286,-1.185333 1.016847,0.156125 3.209883,0.257302 3.40504,-1.100752 0.05994,-0.416898 -0.161629,-0.796798 -0.272373,-1.185248 m 82.803998,5.023527 c 0.0652,0 0.0135,0.04216 -0.0279,0.02828 l 0.0279,-0.02828 m -11.43,0.987806 c 0.33274,2.313178 2.81432,1.038013 4.14866,0.592666 0.39286,1.639062 2.02015,1.38176 3.302,1.100667 -0.0991,0.330115 -0.22606,0.667173 -0.2269,1.016085 -0.007,2.231136 3.11658,1.32063 4.37557,1.185248 0.072,1.220301 1.39869,2.046648 2.25129,2.784433 0.41486,0.358563 0.69934,0.727625 1.22004,0.940901 -0.41994,1.30048 -1.2048,2.570903 0.33867,3.516122 0.23622,0.144949 0.49699,0.22081 0.762,0.293878 -0.52578,1.440942 -0.25654,3.540505 1.18533,4.317999 -0.74083,1.685798 -2.2479,2.422483 -1.43933,4.402667 l -3.048,3.276177 -4.826,3.529753 -3.47133,2.422737 c -3.40699,-8.361596 -8.5234,-15.95247 -16.34067,-20.828 v -0.169333 c 0.91017,-0.233934 1.07103,-0.852509 1.64338,-1.524 0.87037,-1.01998 1.78477,-2.030392 2.75929,-2.951819 0.70104,-0.662855 1.69502,-1.919055 2.62466,-2.219367 0.5732,-0.185166 1.07696,0.253746 1.69334,-0.03446 1.04986,-0.490558 1.9304,-1.291082 3.048,-1.652354 M 104.43846,87.87884 c -0.15511,-0.973752 -1.03962,-1.845056 -1.50546,-2.709334 -0.96325,-1.787059 -1.60452,-4.392591 -0.81618,-6.349999 0.24688,-0.613072 0.61806,-1.181947 1.03369,-1.693249 3.41918,-4.206833 9.43297,-1.692995 13.98795,-1.477433 1.95072,0.09229 5.0673,-0.623316 6.68528,0.752771 1.40631,1.195663 1.31318,3.02514 1.27085,4.703911 -0.0119,0.488696 -0.15748,1.037166 -0.0356,1.518242 0.1634,0.643636 0.84074,0.577596 1.04648,0 0.21928,-0.61722 0.17526,-1.461262 0.17695,-2.110909 0.005,-2.119037 -0.34205,-4.289044 -2.37067,-5.440172 -2.10481,-1.194054 -5.00295,-0.343154 -7.28133,-0.622385 -1.57802,-0.193294 -3.16941,-0.310811 -4.74133,-0.529759 -1.66099,-0.231309 -3.49242,-0.575903 -5.16467,-0.276183 -4.25602,0.762847 -6.932845,5.245016 -5.79975,9.323832 0.5682,2.045123 1.75472,3.445849 2.75175,5.249333 -0.37304,-0.0795 -0.38684,-0.587925 -0.84667,-0.587925 -0.36415,0 -0.51147,0.332909 -0.78079,0.510286 -0.41817,0.275421 -1.02642,0.417491 -1.50521,0.552704 -1.543554,0.435949 -3.163312,0.461518 -4.741329,0.618575 -2.541524,0.252984 -5.233924,0.007 -7.789334,0.007 -4.363296,0 -8.805079,0.110575 -13.123333,-0.489204 -1.739476,-0.241554 -3.420025,-0.452543 -5.079999,-1.086527 -0.564219,-0.215477 -1.336125,-0.44069 -1.756834,-0.898398 -0.396494,-0.431377 -0.301159,-1.455759 -0.392768,-2.013204 -0.166878,-1.015408 -0.126831,-2.030137 -0.228092,-3.048 -0.103717,-1.041315 -0.267886,-2.364317 0.007,-3.386667 1.031579,0.260266 1.247902,-1.209717 1.525185,-1.947333 0.445432,-1.18491 1.418675,-1.919901 2.283291,-2.794169 0.536871,-0.542798 1.00313,-1.175343 1.694942,-1.530858 2.206413,-1.133941 4.319016,-0.19702 6.603915,-0.457539 1.812459,-0.206587 3.194981,-1.299972 4.826,-1.98501 2.86749,-1.204383 5.92074,-1.571752 8.551333,-3.338152 0.884174,-0.593683 1.981115,-1.342814 2.438485,-2.340272 0.804333,-1.754293 -1.078823,-3.218095 -1.142492,-4.910666 -0.04369,-1.162474 0.4329,-2.298192 0.389382,-3.471334 -0.08771,-2.363385 -0.771991,-5.859102 -2.78765,-7.355077 -1.218608,-0.90441 -2.92481,-1.104223 -4.401058,-1.11125 -1.152652,-0.0054 -2.185331,0.143086 -3.302,0.422994 v -0.08467 c 3.182789,-2.186771 6.577245,-4.01083 10.244666,-5.24891 1.191345,-0.402167 2.698666,-1.086104 3.969004,-1.090168 0.512572,-0.0017 0.858436,0.588433 1.197526,0.900599 0.58005,0.533993 1.25586,0.943441 2.03013,1.118193 1.65591,0.373888 3.25891,-0.480907 4.91067,-0.441791 0.79959,0.01897 1.4655,0.439335 2.20133,0.692912 0.76937,0.265176 1.56431,0.342138 2.37067,0.405469 2.53365,0.198797 4.91151,1.02235 7.45067,1.191683 0.40386,0.02692 2.76267,0.236135 2.23604,-0.712809 -0.22013,-0.396324 -0.82719,-0.400642 -1.22004,-0.432646 -1.15147,-0.09373 -2.2479,-0.06994 -3.38667,-0.324528 -1.10363,-0.246718 -2.17881,-0.640334 -3.302,-0.792564 -1.04402,-0.141563 -2.09584,-0.037 -3.13267,-0.251206 -1.11048,-0.229447 -2.06036,-0.915755 -3.21733,-0.937599 -2.44179,-0.04614 -4.79035,1.554141 -6.688663,-0.765302 18.497123,-3.383703 37.534423,6.573689 44.602393,24.214666 1.81441,4.529159 2.76437,9.269222 2.89984,14.139164 0.0313,1.119378 0.0626,2.268474 -0.0347,3.386836 -0.033,0.382609 0.022,0.954955 -0.24638,1.26238 -0.58928,0.674285 -2.11666,0.773768 -2.94047,0.971973 -2.91761,0.702141 -6.06044,0.98298 -9.05933,0.98298 -1.41309,0 -2.81771,0.122851 -4.23334,0.07992 -1.38853,-0.04208 -2.7542,-0.266615 -4.14866,-0.247734 -0.81111,0.01101 -1.69672,0.48878 -2.45534,0.435948 -0.55118,-0.03835 -1.08373,-0.556598 -1.60866,-0.737362 -0.94404,-0.32512 -1.97612,-0.335195 -2.96334,-0.281178 -2.17932,0.119126 -4.4516,0.599779 -6.51933,1.288373 -0.83109,0.276775 -1.61248,0.828379 -2.45533,1.033187 -0.78952,0.191855 -1.80086,-0.07434 -2.62467,-0.03954 -1.21073,0.05105 -2.36914,0.383201 -3.556,0.585047 M 53.892415,43.51347 l 0.423333,1.524 c -0.419185,-0.39226 -0.525865,-0.968163 -0.423333,-1.524 m 17.831222,0.798068 c -0.388281,0.172297 -0.22352,0.694775 -0.09313,0.980017 0.408517,0.893487 0.849207,1.827361 1.299972,2.69875 0.137837,0.266446 0.398441,0.546608 0.727795,0.400643 0.409024,-0.181187 0.321902,-0.729996 0.215307,-1.067478 C 73.599346,46.455129 73.12953,45.631492 72.6344,44.872286 72.450334,44.590007 72.124706,44.133569 71.72364,44.311538 m 73.44707,1.799421 c -0.33613,0.08517 -0.56812,0.455253 -0.7747,0.705527 -0.49361,0.598932 -1.13538,1.118701 -1.5511,1.776815 -0.22606,0.357209 -0.20658,0.986282 0.37592,0.890693 0.83566,-0.137244 1.97782,-1.702223 2.33934,-2.414439 0.16849,-0.333841 0.21167,-1.111165 -0.38946,-0.958596 m -34.55162,3.498511 c -0.24621,0.8244 0.41275,0.874014 1.016,1.154938 1.0436,0.485902 2.05528,1.037421 3.13266,1.450001 0.87453,0.334942 1.85014,0.597662 2.794,0.583946 3.25036,-0.04716 5.577,-2.707131 8.55134,-3.562942 1.2048,-0.34671 2.43416,-0.359749 3.6305,-0.61468 0.35137,-0.07493 0.55796,-0.424095 0.37508,-0.756751 -0.2921,-0.529336 -1.0558,-0.43925 -1.55025,-0.370247 -1.37329,0.191685 -2.78384,0.496824 -4.064,1.034881 -2.32156,0.975614 -4.58131,3.293617 -7.28133,3.078226 -1.22987,-0.09813 -2.8846,-0.559478 -3.86724,-1.331976 -0.5273,-0.414528 -0.75683,-1.019133 -1.38294,-1.344168 -2.00753,-1.042247 -5.07035,-0.626872 -6.55761,1.107186 -1.65345,1.927944 -0.89213,4.585546 -0.73964,6.852919 0.0947,1.408515 -0.13445,2.791376 -0.49539,4.148667 -0.2783,1.046565 -0.64186,2.089235 -1.14859,3.048 -0.61755,1.168569 -1.4478,2.360507 -1.49098,3.725333 -0.0477,1.507829 1.04809,2.909909 2.47439,3.337052 2.17805,0.652357 4.60451,-0.677079 6.77333,-0.925576 1.25027,-0.143171 2.5687,-0.234611 3.81,0.01558 1.15663,0.233172 2.23774,0.754464 3.38667,1.023789 0.5715,0.133943 2.16662,0.06486 1.72804,-0.960543 -0.21844,-0.510371 -0.82465,-0.193125 -1.22004,-0.196004 -0.53933,-0.004 -1.10406,-0.263567 -1.60867,-0.43163 -2.74455,-0.913892 -5.38158,-0.861568 -8.21267,-0.327999 -1.10676,0.208534 -2.16594,0.778171 -3.302,0.810514 -1.1943,0.03404 -2.48225,-0.849545 -2.63948,-2.091182 -0.11286,-0.890778 0.53213,-1.876721 0.93836,-2.624666 0.68377,-1.259078 1.22741,-2.512399 1.61553,-3.894667 0.35898,-1.278213 0.61095,-2.646426 0.58326,-3.979333 -0.0528,-2.542794 -1.29709,-6.018699 1.53433,-7.542361 0.37152,-0.199898 0.77081,-0.339682 1.18534,-0.416983 0.68283,-0.127169 1.3473,-0.05215 2.032,6.77e-4 M 67.608461,76.872173 c -0.187113,-0.765302 0.04894,-1.685713 0.157904,-2.455333 0.258826,-1.829731 0.651256,-3.642614 1.161118,-5.418667 1.609514,-5.607303 4.447201,-10.846307 8.287851,-15.239999 1.264835,-1.446954 2.812626,-3.451945 4.53246,-4.367699 0.406908,-0.216578 0.914739,-0.176615 1.354667,-0.299297 0.87757,-0.244856 1.714839,-0.619591 2.624667,-0.739648 0.880618,-0.116078 1.742524,-0.0668 2.624666,0.0116 0.960543,0.08543 2.10058,0.261451 2.872994,0.881634 1.716617,1.378289 2.247307,4.731004 2.204212,6.799411 -0.0232,1.114721 -0.394123,2.179066 -0.335449,3.302 0.07036,1.347131 1.830832,3.029966 1.133602,4.31783 -0.36339,0.671238 -1.115484,1.174412 -1.726692,1.602063 -1.697313,1.187619 -3.542962,1.74371 -5.503334,2.331466 -1.164081,0.348996 -2.375323,0.683598 -3.471333,1.213442 -1.177544,0.569384 -2.254334,1.338496 -3.556,1.617218 -1.675045,0.358648 -3.386497,-0.271949 -5.08,-0.06468 -2.031492,0.248666 -3.104557,1.217591 -4.499017,2.597319 -1.270338,1.256792 -2.212763,2.18948 -2.782316,3.911346 m -1.083056,-28.22668 c -0.436202,0.05656 -0.424434,0.543136 -0.256878,0.841332 0.508508,0.905341 1.158663,1.769026 1.704086,2.658872 0.171958,0.280585 0.419692,0.693505 0.809582,0.636439 0.564219,-0.08272 0.376852,-0.80501 0.212852,-1.140629 -0.402505,-0.823976 -0.95614,-1.636098 -1.508336,-2.366602 -0.219964,-0.291084 -0.549233,-0.682752 -0.961306,-0.629412 m 82.866825,1.919478 c -1.13792,0.309118 -2.40369,1.959355 -3.09796,2.854536 -0.25908,0.333587 -0.52662,1.239435 0.2303,1.140629 0.43095,-0.05622 0.75099,-0.509439 1.02531,-0.802555 0.71797,-0.766741 1.69249,-1.517904 2.28346,-2.377186 0.27517,-0.399965 0.13462,-0.971719 -0.44111,-0.815424 m -2.03031,7.946135 c -0.52747,0.10795 -0.96181,0.34544 -1.52146,0.310473 -0.35814,-0.02244 -0.88053,-0.306409 -1.19973,-0.04631 -0.4191,0.34163 0.004,0.852255 0.35899,1.011174 0.61468,0.27576 1.47913,0.17018 2.11074,-0.0011 0.71882,-0.194988 1.36991,-1.50258 0.25146,-1.274234 m -80.383209,0.72517 c -0.350774,0.215308 -0.19829,0.645076 0.06722,0.854202 0.387096,0.3048 1.413595,0.609854 1.860889,0.302684 0.310642,-0.21336 0.20193,-0.61231 -0.07434,-0.796121 -0.361272,-0.240453 -1.455589,-0.605113 -1.853776,-0.360765 m 83.603076,5.613231 c 1.09559,1.933363 2.31648,3.775032 3.16484,5.842 2.03878,4.967986 2.90576,11.103186 2.24875,16.425333 -0.36915,2.985939 -1.08712,6.570133 -3.55092,8.580966 -2.15646,1.758527 -5.66166,2.630594 -8.382,2.9337 1.23698,-2.774526 2.41977,-5.508413 3.16399,-8.466666 0.28872,-1.146133 0.53256,-2.304881 0.72306,-3.471334 0.0948,-0.577765 0.0737,-1.299464 0.31411,-1.836674 0.40047,-0.896027 1.69672,-1.391242 2.22843,-2.311992 0.48852,-0.84709 0.7222,-2.107523 0.37253,-3.047746 -0.1397,-0.37465 -0.46313,-0.880787 -0.91779,-0.880787 -0.33866,0 -0.53848,0.318177 -0.46736,0.629327 0.35476,1.560745 0.51901,2.891367 -1.09897,3.891872 0.0516,-3.675633 0.0423,-7.200476 -0.63161,-10.837333 -0.20574,-1.109472 -0.48345,-2.215049 -0.78486,-3.302 -0.10584,-0.381846 -0.41402,-0.988568 -0.24723,-1.381082 0.17018,-0.399965 0.82211,-0.584031 1.1557,-0.821605 0.9017,-0.642112 1.69926,-1.468036 2.70933,-1.945979 m -28.27866,4.366006 c -0.44281,0.06655 -1.67894,0.490135 -1.22259,1.163743 0.32173,0.474387 1.19634,-0.101346 1.64592,-0.07832 0.84921,0.04335 1.90077,0.673524 2.51629,1.230292 1.13792,1.029123 0.8526,2.87147 1.54094,4.155609 0.88815,1.657604 2.59418,2.406311 4.07077,3.393694 0.83989,0.561933 1.28693,1.405128 1.74583,2.278295 0.16679,0.316908 0.4174,0.821606 0.85936,0.741342 0.4572,-0.08323 0.43096,-0.658792 0.32851,-0.994749 -0.24469,-0.807127 -0.81534,-1.722459 -1.38684,-2.337054 -1.20819,-1.300141 -3.03107,-1.74371 -4.19947,-3.168989 -0.8636,-1.052491 -0.80094,-2.496735 -1.27931,-3.722539 -0.60283,-1.543812 -2.9591,-2.91084 -4.61941,-2.661327 m -46.143333,8.121142 c -2.354326,0.269409 -4.880948,1.726522 -5.723212,4.022852 -0.363897,0.992124 -0.640503,2.071962 -0.671999,3.132581 -0.01126,0.380238 0.12319,1.015746 0.632714,0.97172 0.649901,-0.05622 0.43671,-1.054862 0.497586,-1.479635 0.190415,-1.328928 0.67801,-2.855637 1.714499,-3.758268 2.492418,-2.170684 5.519505,-1.843448 8.545746,-1.406991 1.26221,0.182033 2.598674,0.295656 3.81,0.711454 0.871304,0.299043 2.327655,0.612817 3.018789,1.215051 1.392852,1.213782 0.495724,3.612896 -0.161374,4.932087 -0.376344,0.755481 -0.896874,1.597576 -0.970195,2.455249 -0.03014,0.352721 0.03437,0.931587 0.491066,0.971719 0.660654,0.058 0.93726,-1.609428 1.159595,-2.072301 0.978662,-2.037503 2.169837,-4.599262 0.715179,-6.76766 -0.627803,-0.935906 -1.769195,-1.020064 -2.72906,-1.427988 -1.587162,-0.67454 -3.217503,-0.897382 -4.910667,-1.155954 -1.795526,-0.274151 -3.595031,-0.552535 -5.418667,-0.343916 m 70.781333,7.832851 c -0.0813,3.396658 -1.37245,7.047654 -2.6433,10.16 -0.39285,0.964354 -0.83058,2.6162 -1.64846,3.298614 -0.33443,0.279399 -0.80348,0.246379 -1.21158,0.280246 -0.98636,0.08128 -1.97358,0.06181 -2.96333,0.06181 -2.28515,0 -4.51104,-0.292947 -6.77333,-0.57658 -2.13699,-0.268393 -4.70747,-0.69088 -6.41266,-2.142913 -0.61891,-0.526627 0.005,-1.452034 0.12277,-2.106507 0.29972,-1.659467 0.13547,-3.517815 -0.16764,-5.164667 -0.0923,-0.498178 -0.64262,-1.683427 -0.10753,-2.033016 0.50208,-0.328337 1.33604,-0.258826 1.90839,-0.25146 1.58665,0.02057 3.15214,0.338921 4.74133,0.337058 4.93861,-0.0057 10.48597,-0.07688 15.15534,-1.862582 M 112.73579,98.29284 c 0.50496,-0.659554 1.21734,-1.126914 1.74177,-1.778847 1.46498,-1.819487 2.24773,-4.245187 0.88874,-6.349153 -0.31648,-0.490051 -0.72923,-0.92473 -1.19126,-1.280245 -0.60054,-0.462195 -1.3197,-0.762762 -2.03191,-1.005755 0.79917,-0.519769 1.79154,-0.705104 2.70933,-0.912199 2.28854,-0.516297 5.87841,-1.632966 8.03741,-0.252899 0.72051,0.460078 1.08458,1.798658 1.24121,2.604431 0.45381,2.337647 0.63415,5.4483 -1.32503,7.14502 -2.46973,2.13868 -6.99762,1.786467 -10.07026,1.829647 m -11.26066,-8.636 c 0.3451,1.271693 -0.43764,2.871046 -0.62374,4.148666 -0.25172,1.728047 0.0605,3.362114 0.2004,5.08 -5.05231,0.01016 -10.200467,0.50292 -15.239996,0.862753 -1.885865,0.13462 -3.781975,0.407251 -5.672666,0.407251 -1.641264,0 -3.271944,-0.12531 -4.910667,-0.169337 -0.762169,-0.02032 -1.929299,0.01694 -2.596811,-0.395394 -0.78376,-0.483446 -1.215729,-1.932939 -1.581827,-2.737273 -1.195409,-2.62636 -2.422229,-5.578686 -2.764028,-8.466666 1.436962,0.482684 2.818892,1.045125 4.317999,1.327996 3.812286,0.719328 7.656068,0.576834 11.507132,0.710692 5.801952,0.201761 11.655551,0.340022 17.364204,-0.768688 m 7.02733,-1.236896 c 0.68589,-0.04504 1.15257,0.268478 1.78952,0.365168 1.14748,0.174244 2.10049,0.251883 3.11954,0.93455 2.23088,1.494198 1.61205,4.210304 0.23359,6.033178 -1.55456,2.05486 -4.16526,2.979419 -6.66665,3.120813 -1.13005,0.06435 -3.40055,0.379306 -4.32333,-0.42164 -0.57591,-0.50038 -0.63483,-1.233593 -0.70155,-1.937173 -0.15799,-1.667087 0.14088,-3.211407 0.52485,-4.826 0.13851,-0.582507 0.15807,-1.579288 0.60198,-2.017014 0.35128,-0.346456 0.98298,-0.489628 1.44272,-0.626449 1.29345,-0.384979 2.6377,-0.537379 3.97933,-0.625433 m 29.29467,11.735566 c 0.0449,0.85174 0.61976,1.80848 1.1794,2.43332 0.2938,0.32766 0.99738,0.56472 1.12268,-0.0686 0.0703,-0.3556 -0.31242,-0.62738 -0.508,-0.86868 -0.35898,-0.44281 -0.61637,-0.9525 -0.77808,-1.49606 l 3.13266,-0.0847 c -1.57649,3.06832 -3.9243,5.87163 -6.35,8.29733 -13.50772,13.50603 -35.48964,15.44659 -51.138662,4.49157 -3.218011,-2.25298 -6.108531,-4.953 -8.530844,-8.04757 -0.91186,-1.16501 -2.004992,-2.42739 -2.56049,-3.81 2.407582,0.18627 4.864778,0.40725 7.281334,0.33359 2.00516,-0.0601 4.00685,-0.38269 6.011333,-0.49107 2.794592,-0.15155 5.592572,-0.22775 8.382,-0.48175 1.661329,-0.15155 3.33121,-0.1905 4.995329,-0.28025 0.76116,-0.0415 1.51842,0.1287 2.11667,-0.435184 3.20345,0.803484 6.51061,0.447044 9.56733,-0.762 0.74033,0.753533 1.9895,0.537633 2.96334,0.453813 2.30547,-0.198966 4.74133,0.05588 6.94266,-0.839893 0.54272,-0.22098 1.05749,-0.507153 1.52231,-0.864446 0.27009,-0.206587 0.58674,-0.587587 0.94996,-0.60706 0.45043,-0.02455 0.95843,0.442806 1.33773,0.64516 0.94488,0.503766 1.93548,1.004993 2.96334,1.314026 2.93031,0.879687 6.35508,1.056644 9.398,1.168404 m -13.86925,-1.563797 c -0.39285,0.128693 -0.54271,0.63754 -0.70189,0.971126 -0.37846,0.794171 -0.85259,1.543471 -1.32334,2.286001 -1.13453,1.79155 -2.14545,3.59495 -2.88544,5.588 -0.9652,2.60011 -1.36482,5.50079 -4.33408,6.53373 -1.94852,0.67818 -5.47565,0.1524 -5.98103,-2.21573 -0.3572,-1.67386 0.39853,-3.54499 0.3926,-5.24933 -0.003,-1.00669 -0.10541,-2.17001 -0.65963,-3.04123 -0.25519,-0.40132 -0.76556,-0.80179 -1.25197,-0.51816 -0.22657,0.13123 -0.34536,0.39709 -0.22487,0.64177 0.1441,0.2938 0.48734,0.43942 0.64956,0.73322 0.41622,0.75353 0.43468,1.85674 0.3556,2.6924 -0.16569,1.75006 -0.83922,3.6703 -0.33748,5.41866 0.7979,2.78046 4.97137,3.52552 7.39588,2.71103 3.76344,-1.26577 4.1419,-4.90559 5.43984,-8.12969 0.73914,-1.83727 1.84065,-3.48573 2.87104,-5.16467 0.45128,-0.73491 1.09305,-1.57819 1.21243,-2.454487 0.0508,-0.374227 -0.11684,-0.966893 -0.61722,-0.80264 m -38.68022,3.384977 c -0.760814,0.29802 -0.621792,1.77038 -0.621114,2.41215 0.0013,1.27169 0.138684,2.69579 0.583184,3.89467 0.385233,1.03886 1.070864,1.9685 1.341543,3.048 0.146135,0.58335 -0.210566,3.14875 1.020826,2.67462 0.684106,-0.26332 0.291084,-2.25976 0.171196,-2.84396 -0.272373,-1.32842 -1.135973,-2.44602 -1.556173,-3.72533 -0.53467,-1.62814 -0.444331,-3.18516 -0.214038,-4.82346 0.058,-0.41317 -0.297942,-0.80433 -0.725424,-0.63669 z"
         id="path3239" /></g></g></svg>
