<?xml version="1.0" encoding="UTF-8" standalone="no"?>
<!-- Created with Inkscape (http://www.inkscape.org/) -->

<svg
   width="134.66512"
   height="138.99655"
   viewBox="0 0 134.66512 138.99655"
   version="1.1"
   id="svg5"
   xml:space="preserve"
   xmlns:inkscape="http://www.inkscape.org/namespaces/inkscape"
   xmlns:sodipodi="http://sodipodi.sourceforge.net/DTD/sodipodi-0.dtd"
   xmlns="http://www.w3.org/2000/svg"
   xmlns:svg="http://www.w3.org/2000/svg"><sodipodi:namedview
     id="namedview7"
     pagecolor="#ffffff"
     bordercolor="#000000"
     borderopacity="0.25"
     inkscape:showpageshadow="2"
     inkscape:pageopacity="0.0"
     inkscape:pagecheckerboard="0"
     inkscape:deskcolor="#d1d1d1"
     inkscape:document-units=""
     showgrid="false" /><defs
     id="defs2" /><g
     inkscape:label="Layer 1"
     inkscape:groupmode="layer"
     id="layer1"
     transform="translate(-15.040503,-25.57961)"><g
       style="fill:none"
       id="g327"
       transform="matrix(1.5023295,0,0,1.5023295,14.933402,40.476148)"
       inkscape:label="blob"
       inkscape:export-filename="wordsmith.svg"
       inkscape:export-xdpi="96"
       inkscape:export-ydpi="96"><path
         opacity="0.689993"
         d="m 72.8975,12.5995 c 7.772,9.1384 7.0288,21.9294 5.2714,33.7952 C 76.4057,58.3001 73.8816,71.573 63.3103,77.3307 52.9213,82.9893 40.9429,76.9223 29.8966,72.6868 18.6969,68.3925 5.60747,64.8955 1.4971,53.6294 -2.76479,41.948 3.209,29.4434 10.4245,19.3156 17.4138,9.50523 27.2734,1.92365 39.2519,0.635917 51.7036,-0.702696 64.7851,3.06102 72.8975,12.5995 Z"
         fill=""
         id="path318"
         inkscape:export-filename="speaker.svg"
         inkscape:export-xdpi="96"
         inkscape:export-ydpi="96" /></g><g
       id="g3023"
       inkscape:label="inquisitor"
       transform="translate(-22.191971,1.5081922)"><path
         style="opacity:0.55;fill:#010101;stroke:none;stroke-width:0.0846667"
         d="m 114.32986,105.75715 1.6736,0.0229 c -0.24579,-1.54686 -0.10329,-3.14119 0.11651,-4.67958 2.42775,-13.23564 3.72591,-14.151055 0.83459,1.016 3.04919,-0.38693 6.34213,0.58504 9.398,0.75014 3.0232,0.16426 6.03843,0.0127 9.05934,0.0119 2.89475,-8.5e-4 5.74378,0.15832 8.636,0 11.54022,-61.644421 -40.48332,-18.880264 0.93133,-4.995337 l 0.0847,4.571997 c 0.9525,-0.15917 1.91516,0.083 2.87866,-0.1126 0.33698,-0.0686 0.80688,-0.15918 0.94404,-0.52324 0.2794,-0.74168 -0.12531,-2.059944 -0.20998,-2.835491 -0.265,-2.44856 -0.59012,-4.870873 -1.11082,-7.281333 -1.24206,-5.744294 -2.20303,-11.527028 -3.45356,-17.271999 -0.19388,-0.889085 -0.60198,-1.674199 -0.83227,-2.54 -0.30141,-1.133772 -0.4445,-2.324185 -0.70019,-3.471334 -0.31327,-1.406906 -0.80688,-2.763604 -1.20058,-4.148666 -0.52916,-1.862667 -0.9508,-3.969512 -2.6653,-5.164667 -0.0373,1.223518 -1.24799,2.265087 -2.11667,3.008376 -2.88967,2.471505 -6.87349,1.860296 -9.38564,-0.807381 -0.79663,-0.84599 -1.5643,-1.848273 -1.62103,-3.047661 -1.29065,0.291846 -1.58487,1.661668 -1.87274,2.793999 -0.70925,2.78909 -1.30649,5.603071 -2.06019,8.382 -2.32876,8.586555 -4.28032,17.405858 -5.85013,26.162 -0.60291,3.36296 -0.79206,6.816517 -1.4776,10.159997 m 12.192,-47.497996 c 0.63949,2.907876 4.28286,4.915492 7.112,4.210896 1.85674,-0.462449 3.33502,-1.893316 4.23333,-3.533563 -1.17009,0.104225 -2.16154,1.270508 -3.302,1.638977 -2.0066,0.648208 -4.57564,0.310049 -6.35,-0.820928 -0.65219,-0.415713 -1.0872,-1.035981 -1.69333,-1.495382 m -9.73706,44.873336 c 0,0.58081 -0.3628,2.18186 0.15393,2.5637 0.38387,0.28279 1.16721,0.15325 1.62407,0.19135 1.62577,0.13462 8.17171,0.75711 9.8007,0.63008 4.50181,-0.35052 4.51897,-0.17034 8.9953,0.25977 1.58327,0.15155 3.16907,0.30988 4.74133,0.55541 0.47583,0.0737 1.6995,0.95636 2.13299,0.66849 0.21167,-0.14054 0.0226,-0.96736 -0.018,-1.20612 -0.0525,-0.3065 -0.25993,-0.55203 -0.28618,-0.87038 -0.0516,-0.63669 0.11346,-1.30386 0.11854,-1.94564 -2.33934,0.24215 -4.60756,-8.4e-4 -6.94267,0.0279 -3.71348,0.0466 -7.46718,0.21421 -11.176,-0.0449 -3.03784,-0.21167 -6.09473,-0.9906 -9.144,-0.82973 m 28.27867,0.254 -0.0847,2.20133 4.4676,-0.3885 -0.0847,-2.03755 c -1.40632,0.35306 -2.86741,0.24504 -4.29827,0.22472 m -30.81867,3.38666 -0.254,1.524 4.14867,0.508 -0.254,-1.60866 z"
         id="path3019"
         sodipodi:nodetypes="ccccccccccsccccccccccccscccccscccccccscccccccccccccccc" /><path
         style="fill:#040404;stroke:none;stroke-width:0.0846667"
         d="m 119.07119,38.193154 c 0.0166,0.959781 0.38617,1.505712 1.35467,1.693333 1.7e-4,4.036314 0.91778,8.213513 2.85648,11.768667 0.94463,1.732364 2.26898,3.484118 4.00152,4.487333 l -0.254,1.100667 c -0.83278,-0.08577 -1.78308,-0.110575 -2.53916,0.318854 -1.30911,0.743628 -1.66615,2.659465 -2.00109,3.999145 -1.21175,4.847082 -2.434,9.694926 -3.56074,14.562667 -1.84413,7.966879 -3.84802,15.925969 -4.91059,24.04533 -0.2512,1.9194 -0.50647,3.84048 -0.77766,5.75734 -0.11447,0.80941 -0.49885,1.89907 -0.29608,2.7051 0.19321,0.76792 1.14978,0.65362 1.52671,1.28439 0.86572,1.4478 1.40885,3.01075 2.41427,4.39251 0.6676,0.91778 1.34197,1.84234 2.0751,2.70933 0.42214,0.49869 0.97324,0.93811 1.27906,1.524 0.89001,1.70434 1.02514,4.14528 1.48801,6.01133 0.66938,2.69918 1.2645,5.41782 1.88841,8.128 0.36009,1.56464 0.83955,3.14791 1.04309,4.74134 -1.1275,0.42672 -0.58107,2.22673 -0.38354,3.13266 0.66971,3.07256 2.50808,5.84031 3.17754,8.89 -2.43408,-0.89493 -5.55879,-1.61375 -8.04333,-0.49869 -3.71551,1.66878 -3.89044,7.27541 -1.80137,10.23451 0.75142,1.06426 1.92684,1.778 3.07137,2.35035 2.37278,1.18618 4.97467,1.97442 7.62,1.27169 0.96867,-0.25739 1.99542,-0.55203 2.87866,-1.03293 0.43434,-0.23622 1.00669,-0.82889 1.524,-0.80942 0.36576,0.0144 0.70358,0.34714 1.016,0.51054 0.6096,0.31835 1.2827,0.55203 1.94734,0.72475 3.27575,0.85259 7.5802,0.45974 9.7773,-2.42147 1.76869,-2.31902 1.84828,-6.52441 0.6858,-9.144 -0.94488,-2.13106 -3.29014,-3.02514 -5.46777,-2.3368 -0.75692,0.23876 -1.46981,0.6096 -2.11667,1.0668 0.3446,-3.20124 1.49098,-6.0816 2.38168,-9.14399 0.35644,-1.22344 0.50715,-2.57387 -1.11168,-2.794 0.73914,-3.0243 1.35636,-6.0706 2.23944,-9.05934 0.92879,-3.14198 2.13106,-6.19252 3.11996,-9.31333 0.4318,-1.36313 0.34883,-2.88121 0.84836,-4.22571 0.36068,-0.97282 1.50114,-1.83304 2.08365,-2.71696 1.08966,-1.65269 2.06841,-4.12326 2.30547,-6.096 0.0965,-0.80602 -0.0923,-1.65354 -0.17102,-2.45533 -0.15494,-1.58157 -0.32512,-3.16061 -0.49107,-4.741334 -0.74761,-7.145104 -2.47396,-14.243134 -4.02675,-21.251333 -0.9017,-4.067556 -1.72889,-8.188282 -2.88459,-12.192 -0.54441,-1.886458 -1.00415,-4.034705 -2.13529,-5.672666 -0.58645,-0.561759 -2.05194,-2.264967 -2.75082,-2.031997 l -0.42334,-1.185333 c 2.00576,-1.232916 3.2512,-3.63347 3.85657,-5.842 1.21835,-4.448133 1.32927,-9.622197 -0.0466,-14.054667 1.25307,-0.71484 1.3208,-2.086102 1.10406,-3.386666 -0.40894,-2.455418 -1.24714,-5.043085 -3.13606,-6.753013 -1.07865,-0.976715 -2.43247,-1.466766 -3.81,-1.85818 -4.1893,-1.190498 -9.61881,-0.328591 -12.86933,2.69765 -1.32715,1.235625 -2.67064,2.661327 -3.47607,4.304876 -0.49353,1.00711 -0.77005,2.154851 -1.12412,3.217333 -0.44374,1.331468 -0.95521,3.20692 1.04419,3.386667 m 40.55533,-4.872313 c -5.38056,0.48387 -10.09057,2.727452 -12.24872,8.00498 -0.78232,1.911858 -0.75354,3.978063 -1.33689,5.920993 -0.25061,0.836846 -1.37922,1.099736 -2.07179,1.441027 -0.36661,0.180594 -0.7747,0.549825 -0.635,1.007703 0.28786,0.942594 1.9668,0.635846 2.63567,1.115737 0.73406,0.527219 1.2446,1.238081 2.0574,1.695281 2.97011,1.66988 6.40419,2.029375 9.73667,1.758018 4.75572,-0.387265 10.37928,-1.417997 12.94722,-5.911426 4.18508,-7.324005 -3.46117,-15.718028 -11.08456,-15.032313 m -22.43666,0.723646 c 0.78824,0.969095 2.32664,1.389973 2.88628,2.552023 0.70951,1.472607 0.81196,3.377692 0.93218,4.983311 0.38947,5.191505 -0.24976,13.40341 -6.35846,15.111475 -2.88968,0.807805 -6.37312,-0.765048 -8.35821,-2.842514 -2.67081,-2.795185 -3.91084,-6.829721 -4.4505,-10.575628 -0.23656,-1.641856 -0.37152,-3.354239 -0.0606,-4.995333 1.54974,0.868934 2.18847,-0.533146 2.54,-1.862667 1.00034,0.553127 2.85505,1.228429 3.76877,0.235204 0.56092,-0.609685 0.6538,-1.512824 1.22657,-2.097871 0.70002,1.908895 2.37659,1.571837 3.13266,-0.08467 1.04564,0.737362 1.92532,0.803825 2.70934,-0.338667 0.76962,0.230209 1.2937,0.270425 2.032,-0.08467 m 7.95866,15.409333 c 0.58759,-0.478451 1.51554,-0.70468 1.92956,-1.369822 0.24638,-0.39497 0.0931,-0.901107 0.13885,-1.339511 0.0931,-0.877993 0.33359,-1.764707 0.53001,-2.624666 0.7256,-3.188547 2.49344,-6.273208 5.44492,-7.886192 4.16136,-2.274062 9.46488,-2.449153 13.462,0.275082 4.53813,3.092873 5.50672,10.040873 1.016,13.63836 -1.67894,1.344507 -3.85403,1.941576 -5.92667,2.354749 -3.7719,0.75184 -7.47691,1.078738 -11.176,-0.173312 -0.91863,-0.311066 -1.84319,-0.695368 -2.62297,-1.281261 -0.98298,-0.737785 -1.4749,-1.507659 -2.7957,-1.593427 m 12.954,-11.968903 c -1.10913,0.200914 -2.02607,1.245278 -2.28938,2.316904 -0.1033,0.41766 -0.20236,1.313603 0.35898,1.466511 0.62823,0.171111 0.5859,-0.776732 0.69342,-1.127845 0.31581,-1.035812 1.79155,-2.262208 2.78046,-1.214882 0.4428,0.468969 0.33612,1.236642 0.19812,1.807549 -0.32936,1.359493 -1.132,2.549991 -1.50114,3.894667 -0.11938,0.437218 -0.54441,1.945131 0.34628,1.865291 0.75777,-0.0679 0.90424,-1.888151 1.14808,-2.457958 0.72898,-1.703155 2.83295,-6.184307 -0.54948,-6.580632 -0.38524,-0.04513 -0.80349,-0.03878 -1.18534,0.0304 m -23.32397,3.819737 c -0.29633,0.168995 -0.2921,0.57277 -0.27347,0.867918 0.0567,0.868172 0.0881,1.857333 0.2777,2.705015 0.072,0.323596 0.35899,0.737531 0.73999,0.522393 0.31411,-0.177376 0.31157,-0.62992 0.30395,-0.941577 -0.022,-0.829903 -0.1143,-1.7272 -0.2921,-2.538476 -0.0737,-0.334264 -0.32342,-0.862161 -0.75607,-0.615273 m -6.25822,1.331891 c -0.30285,0.120735 -0.2982,0.538142 -0.28626,0.806366 0.0334,0.748114 0.0465,1.64575 0.24681,2.367279 0.0866,0.312082 0.34179,0.699008 0.72288,0.56278 0.33426,-0.11938 0.34366,-0.5196 0.32453,-0.81407 -0.0492,-0.760222 -0.0729,-1.634321 -0.28685,-2.367449 -0.0865,-0.296588 -0.35256,-0.701718 -0.72111,-0.554906 m 30.26122,4.787223 c -1.30556,0.419269 -0.55457,2.291418 0.66548,1.847511 1.14131,-0.415375 0.44704,-2.204635 -0.66548,-1.847511 m -26.45918,3.959013 c -0.42841,0.242062 -0.18711,0.814747 0.0762,1.07569 0.45127,0.447379 1.54347,0.780119 2.12598,0.405469 1.07611,-0.69215 -1.00669,-1.009989 -1.28355,-1.165776 -0.26924,-0.151722 -0.57996,-0.506391 -0.91863,-0.315383 m -4.02251,5.352373 c 2.80162,1.510792 5.28658,1.491064 8.21266,0.508 0.20066,1.139359 -0.7603,1.717632 -1.69333,2.117344 -1.53331,0.656928 -3.51875,0.551688 -5.08,0.05046 -1.44306,-0.463296 -2.12953,-1.209971 -1.43933,-2.675805 m 20.91266,47.921336 c -1.2556,0.508 -2.80331,0.73575 -4.14866,0.762 0.0313,-2.19964 0.14986,-4.40436 -0.0229,-6.604004 -0.41995,-5.345853 -1.59597,-10.650558 -2.56371,-15.917333 -0.5588,-3.043682 -0.87376,-6.115304 -1.53416,-9.144 -0.60283,-2.764705 -1.31741,-5.583851 -1.72043,-8.382 -0.0821,-0.565319 -0.0389,-1.356444 -0.36914,-1.843278 -0.18712,-0.275759 -0.55288,-0.436118 -0.8018,-0.136821 -0.50122,0.603419 0.0381,2.37744 0.17188,3.080766 0.55033,2.886371 1.23359,5.751745 1.81102,8.636 0.64092,3.201246 1.01346,6.442117 1.61205,9.652 0.93133,5.002784 2.02777,9.993206 2.23943,15.070666 0.0838,2.018454 -0.0237,3.998804 -0.0516,6.011334 -0.008,0.63585 0.36152,1.02616 0.21336,1.69333 -1.55448,-0.127 -3.10388,-0.46312 -4.65667,-0.63838 -5.26457,-0.59352 -10.53287,-1.13962 -15.83267,-1.13962 -1.66683,0 -3.33053,0.10584 -4.99533,0.083 -0.44145,-0.006 -1.4318,0.0737 -1.67843,-0.38354 -0.25493,-0.47244 -0.0378,-1.30556 0.008,-1.8161 0.14318,-1.6146 0.38024,-3.23512 0.68894,-4.826004 1.20667,-6.219275 2.77664,-12.409254 4.93081,-18.372666 0.68072,-1.884426 1.39201,-3.76064 2.21624,-5.588 0.17255,-0.382524 0.87545,-1.637369 0.0847,-1.803146 -0.66209,-0.138769 -1.13868,1.007957 -1.33418,1.464479 -0.79679,1.860973 -1.45152,3.776811 -2.15849,5.672667 -2.41689,6.48191 -4.07695,13.407813 -5.191,20.23533 -0.34061,2.08704 -1.63212,6.47023 1.58716,6.51934 l 0.33867,1.778 -3.97933,-0.508 c 0.69553,-4.01659 1.0171,-8.09329 1.73169,-12.107337 1.50757,-8.468868 3.49537,-16.886682 5.58139,-25.230666 0.74761,-2.990512 1.49251,-5.980092 2.22326,-8.974667 0.2463,-1.009227 0.45162,-2.73177 1.40386,-3.342894 1.37583,-0.882904 2.17924,0.69232 3.19913,1.328759 1.17755,0.734737 2.61011,1.007364 3.97933,1.07044 1.18026,0.05444 2.42824,-0.181271 3.47134,-0.738293 0.98298,-0.525018 1.86182,-1.589701 3.048,-0.947589 1.04394,0.565573 1.36821,1.730163 1.86351,2.714244 0.47075,0.935736 0.58335,1.875282 0.88392,2.878666 0.67225,2.24807 1.23021,4.466844 1.66455,6.773334 0.23114,1.223602 0.80602,2.399453 1.07103,3.640666 0.6477,3.034538 1.06511,6.1087 1.68063,9.144 0.60791,2.996353 1.39362,5.957739 1.94226,8.974666 0.67648,3.72364 0.69088,7.555651 1.39276,11.260671 m -0.0847,1.60866 c -0.32682,2.19033 -1.46812,4.43484 -2.66616,6.26364 -0.25315,0.38608 -1.35551,1.62984 -1.90838,1.30302 -0.40132,-0.23791 -0.4208,-1.31995 -0.3937,-1.72466 0.0787,-1.13622 0.43264,-2.26314 0.61214,-3.38666 0.10498,-0.65956 0.24892,-1.48336 0.79502,-1.93718 0.66632,-0.55287 2.69832,-0.46736 3.56108,-0.51816 m -5.41867,2.45534 c -0.34713,1.75429 -1.71027,6.2975 1.18533,6.51933 -0.87545,5.15112 -3.27914,10.01945 -4.60163,15.07067 -0.39709,1.51722 -0.76877,3.04122 -1.10829,4.572 -0.12869,0.57827 -0.16002,1.57226 -0.54271,2.03962 -0.20066,0.24553 -0.58166,0.17187 -0.85937,0.16594 -0.6714,-0.0144 -1.36821,-0.0466 -2.032,0.0652 -1.29455,0.21674 -1.90923,1.13368 -2.62466,2.1319 -0.23707,-0.55964 -0.46144,-1.14892 -1.01939,-1.46642 -0.59097,-0.33528 -1.37642,-0.22691 -2.02861,-0.22691 -1.36,0 -2.80569,-0.24384 -4.14867,0 l -4.88052,-20.99733 -2.23148,-9.56734 c 1.13225,-0.20574 2.32512,-0.0516 3.47133,-0.0906 3.60706,-0.12446 7.16052,0.13547 10.75267,0.48429 3.50266,0.34036 7.25255,0.41233 10.668,1.29964 m 7.98661,-1.21328 0.0288,0.0559 -0.0288,-0.0559 m -26.75729,0.14902 c -0.40471,0.15663 -0.55804,0.7095 -0.72898,1.06426 -0.47168,0.9779 -1.17272,1.88214 -1.58911,2.87866 -0.16341,0.39032 -0.028,0.97282 0.51452,0.80603 0.40301,-0.12446 0.66328,-0.55203 0.86724,-0.89069 0.53433,-0.889 1.10659,-1.89738 1.44695,-2.87867 0.13166,-0.37931 0.14554,-1.23444 -0.51062,-0.97959 m 15.51355,1.94394 c -0.51477,0.2286 -0.36152,1.05918 -0.31919,1.49098 0.13885,1.4114 0.31242,2.84734 0.61807,4.23334 0.0897,0.40809 0.4174,1.4715 1.04394,1.17348 0.52916,-0.25062 0.15917,-1.1955 0.0643,-1.59682 -0.32766,-1.39361 -0.5969,-2.88798 -0.6841,-4.318 -0.0229,-0.37507 -0.11092,-1.25391 -0.72306,-0.98298 m -22.14287,0.13632 1.35467,6.18066 c -1.76149,-1.66454 -3.08526,-3.9861 -4.064,-6.18066 z"
         id="path3017"
         sodipodi:nodetypes="ccccccccscscccccccccccccccccccccccccccccccccccccccccscccccccccsccccccccccccccccccccccccccccscsccscsccccscccccccccccccccccccccscccccsccccscccccsccccsscccccccccsccccccccccccccccccccccccccccscccccccccccccccccccccsccccc" /></g></g></svg>
