<?xml version="1.0" encoding="UTF-8" standalone="no"?>
<!-- Created with Inkscape (http://www.inkscape.org/) -->

<svg
   width="124.77156"
   height="144.14839"
   viewBox="0 0 124.77156 144.14839"
   version="1.1"
   id="svg5"
   xml:space="preserve"
   xmlns:inkscape="http://www.inkscape.org/namespaces/inkscape"
   xmlns:sodipodi="http://sodipodi.sourceforge.net/DTD/sodipodi-0.dtd"
   xmlns="http://www.w3.org/2000/svg"
   xmlns:svg="http://www.w3.org/2000/svg"><sodipodi:namedview
     id="namedview7"
     pagecolor="#ffffff"
     bordercolor="#000000"
     borderopacity="0.25"
     inkscape:showpageshadow="2"
     inkscape:pageopacity="0.0"
     inkscape:pagecheckerboard="0"
     inkscape:deskcolor="#d1d1d1"
     inkscape:document-units=""
     showgrid="false" /><defs
     id="defs2" /><g
     inkscape:label="Layer 1"
     inkscape:groupmode="layer"
     id="layer1"
     transform="translate(-15.040503,-23.386508)"><g
       style="fill:none"
       id="g327"
       transform="matrix(1.5023295,0,0,1.5023295,14.933402,40.476148)"
       inkscape:label="blob"
       inkscape:export-filename="wordsmith.svg"
       inkscape:export-xdpi="96"
       inkscape:export-ydpi="96"><path
         opacity="0.689993"
         d="m 72.8975,12.5995 c 7.772,9.1384 7.0288,21.9294 5.2714,33.7952 C 76.4057,58.3001 73.8816,71.573 63.3103,77.3307 52.9213,82.9893 40.9429,76.9223 29.8966,72.6868 18.6969,68.3925 5.60747,64.8955 1.4971,53.6294 -2.76479,41.948 3.209,29.4434 10.4245,19.3156 17.4138,9.50523 27.2734,1.92365 39.2519,0.635917 51.7036,-0.702696 64.7851,3.06102 72.8975,12.5995 Z"
         fill=""
         id="path318"
         inkscape:export-filename="speaker.svg"
         inkscape:export-xdpi="96"
         inkscape:export-ydpi="96" /></g><g
       id="g2894"
       inkscape:label="inspector"
       transform="translate(28.154249,-36.707438)"><path
         style="opacity:0.4;fill:#010101;stroke:none;stroke-width:0.0846667"
         d="m 72.538547,122.50013 c -2.637282,6.51197 -3.783838,13.38157 -5.821595,20.066 -0.557445,1.8288 -1.374225,3.49674 -1.609259,5.41867 -0.101177,0.82719 -0.213191,1.62645 0.242739,2.37067 0.846836,1.38176 1.794002,1.16501 3.208782,1.21581 1.242653,0.0449 2.484967,0.0593 3.725333,0.16171 2.944791,0.243 5.937335,-0.65447 8.89,-0.77724 4.323419,-0.18034 8.57504,0.35645 12.869333,0.67818 1.949027,0.14648 3.826933,0.67395 5.757333,0.84498 0.850897,0.0753 1.771227,0.10668 2.427397,-0.54356 1.10744,-1.09813 0.47582,-3.01075 0.0559,-4.28922 -1.07358,-3.2622 -1.63492,-6.78857 -1.63661,-10.24466 0.63585,0.16425 1.15231,0.0161 1.778,0.0635 0.68241,0.0516 1.21497,0.47413 1.81949,-0.11176 0.75692,-0.73237 0.3556,-2.07662 0.28194,-2.99974 -0.21421,-2.67649 -0.53848,-5.30759 -0.9796,-7.95867 -0.508,-3.05435 -0.94826,-6.16856 -1.82626,-9.144 -1.13792,-3.8597 -2.92015,-7.53855 -5.035123,-10.922 -0.336974,-0.5389 -0.51308,-1.16789 -0.884767,-1.68732 -0.366607,-0.5124 -1.166989,-1.83021 -1.534442,-2.31763 -1.63068,-2.16027 -2.315351,-3.908673 -5.133905,-4.885049 -0.48133,1.515956 -1.471675,1.792309 -2.785532,1.927098 -1.913382,0.196342 -4.433147,-0.5969 -5.257801,-2.689098 -0.980355,0.400304 -1.696211,1.058276 -2.293196,1.873955 -1.326219,1.812034 -2.727198,3.816974 -3.870706,5.751684 -2.010326,3.40149 -4.209965,6.73264 -5.873665,10.32369 -0.688002,1.48514 -1.60528,3.10524 -0.842688,4.74117 0.685292,1.47015 2.917952,2.50351 4.328922,3.13283 m 24.72436,-11.68645 c 0.410633,-0.11786 0.8636,0.14063 0.84582,0.59808 -0.01355,0.33977 -0.260774,0.6339 -0.403014,0.92837 -0.273473,0.56575 -0.21336,1.90797 -0.968586,2.07527 -0.64262,0.14258 -0.841587,-0.57226 -0.811107,-1.05927 0.05334,-0.82914 0.415713,-2.27846 1.336887,-2.54245 m -0.407247,5.86816 c 0.788247,-0.30802 1.680633,1.16959 0.804333,1.55795 -0.857673,0.3799 -1.730586,-1.19592 -0.804333,-1.55795 m -12.294446,10.05163 v -0.16934 c -0.845312,-0.57861 -0.835463,-1.63414 -0.284871,-2.36219 0.771652,-1.02049 1.961049,-2.68027 3.335697,-2.76832 0.727117,-0.0466 1.812431,1.33177 2.417797,0.89743 0.9779,-0.70171 1.820334,-1.61247 2.828714,-2.30301 0.390313,-0.26713 0.928793,-0.64262 1.424093,-0.4434 0.717973,0.28846 0.420793,1.10532 0.04487,1.54118 -0.866986,1.00601 -2.19456,1.54009 -3.143673,2.46296 -0.69088,0.67174 0.10414,1.45 0.171873,2.21335 0.06689,0.74922 -0.710353,1.52493 -1.292013,1.88511 -0.852339,0.52764 -1.701123,0.47388 -2.62382,0.22318 -0.392514,-0.10668 -0.895688,-0.41707 -1.308269,-0.31318 -1.059857,0.26695 -1.80721,1.90254 -3.007614,1.70865 -0.58801,-0.0949 -0.884936,-0.68673 -0.562779,-1.19828 0.405722,-0.64432 1.279398,-1.18314 1.999996,-1.37414 z"
         id="path2890"
         sodipodi:nodetypes="ccsccccccccccccccccccccsccscccccccccccccsccccsccccccsc" /><path
         style="fill:#030303;stroke:none;stroke-width:0.0846667"
         d="m 71.437881,122.41547 c -0.694013,1.74532 -1.143678,3.61958 -1.680718,5.41866 -1.49352,5.00338 -2.665138,10.08888 -3.918035,15.15534 -0.442722,1.78985 -0.857927,3.60002 -1.165606,5.41866 -0.126069,0.74507 -0.353483,1.72974 -0.04741,2.45449 0.624755,1.47913 2.8205,1.18618 4.102438,1.18618 0.517398,4.98602 1.486493,9.93733 2.189142,14.90133 0.74676,5.27474 1.680717,10.47496 2.898139,15.66334 0.754042,3.2131 1.513332,6.42789 2.786719,9.48266 -1.895094,0.0152 -3.840226,0.24554 -5.672666,0.73322 -3.245189,0.86275 -7.9491,3.91498 -5.670889,7.81812 0.309287,0.53001 0.720598,0.99991 1.184317,1.39954 1.186688,1.02446 2.648374,1.46642 4.147905,1.79916 3.328585,0.73914 6.56065,0.50038 9.567333,-1.19549 1.413425,-0.79756 3.037925,-1.86436 3.640667,-3.44255 h 0.169333 c 1.812459,3.3782 5.884333,3.556 9.228666,3.556 1.07442,0 2.147994,0.0339 3.217334,-0.0847 1.551093,-0.17188 3.500966,-0.6367 4.62449,-1.80002 1.12776,-1.16924 1.30895,-2.95825 0.92879,-4.46532 -0.7349,-2.91253 -3.273207,-5.06476 -6.145947,-5.74209 -1.839807,-0.43434 -3.65252,-0.21421 -5.503333,-0.0152 0.458046,-4.34848 1.524846,-8.59451 2.403686,-12.86933 1.326727,-6.45499 2.953174,-12.81854 4.50596,-19.21934 0.447887,-1.84742 0.7366,-3.74396 1.195494,-5.58207 0.165946,-0.66548 0.74168,-0.54779 1.29286,-0.49361 0.91948,0.0914 2.46718,0.4843 3.26728,-0.12446 0.55118,-0.4191 0.65786,-1.19972 0.59352,-1.84319 -0.1397,-1.397 -0.56388,-2.7559 -0.72814,-4.14867 0.77216,0.19728 1.08035,-0.45889 1.29371,-1.10066 0.42587,-1.2827 0.52409,-2.72288 0.63077,-4.064 0.45212,-5.7145 -0.26416,-11.6139 -1.50114,-17.18734 4.24772,-0.39192 7.89686,-4.86206 8.34898,-8.97466 0.1507,-1.37228 -0.19812,-2.57692 -0.49615,-3.89467 -0.7239,-3.2004 -2.25298,-5.44491 -5.56683,-6.27498 -0.98044,-0.24562 -2.03624,-0.38575 -3.048,-0.30591 -2.02438,0.15969 -3.34772,0.85768 -5.08,1.83956 -0.361527,-0.96613 -0.99568,-1.82923 -1.524,-2.70934 -1.042247,-1.73456 -2.129367,-3.49292 -3.495887,-4.99516 -0.64516,-0.709507 -1.464733,-1.227751 -2.092113,-1.947503 2.528146,-1.11997 4.340013,-4.55803 5.08,-7.111999 0.29464,1.560321 -0.773007,3.438397 0.0254,4.904909 0.74676,1.373462 4.014046,1.3208 4.9767,0.235796 1.49268,-1.682496 1.49098,-4.703741 1.78308,-6.834039 0.95928,-7.003542 0.81788,-15.691527 -4.053834,-21.335999 -3.49504,-4.049014 -9.397661,-7.670639 -14.923346,-6.186678 -1.107101,0.297349 -2.195999,0.739394 -3.132667,1.40843 -0.524933,0.374988 -0.946658,0.965284 -1.524,1.253828 -0.579458,0.28956 -1.397592,0.150622 -2.032,0.306494 -1.496737,0.367792 -2.755815,1.375494 -3.519847,2.709926 -1.572768,2.746925 -1.574969,6.075172 -1.741,9.143999 -0.195919,3.619331 -0.524002,7.221813 -0.767165,10.837334 -0.09991,1.484968 -0.152485,2.998978 -0.152654,4.487333 -8.5e-5,0.88375 -0.03175,1.806956 0.371771,2.622973 1.027515,2.078059 5.038937,1.891623 6.994229,2.048849 0.627718,0.05055 2.39649,0.03437 2.187532,1.08568 -0.116924,0.588434 -0.834051,0.962237 -1.213527,1.372701 -0.771737,0.834559 -1.439926,1.827191 -2.062734,2.775796 -2.495719,3.80094 -4.791117,7.66022 -7.064248,11.59933 -0.944372,1.63661 -2.526876,3.57954 -2.71272,5.50334 -0.251883,2.60739 2.410206,4.23731 4.600364,4.826 m 18.287999,-59.012669 0.169333,0.254 -0.169333,-0.254 m -11.260666,5.334 c 2.013034,4.07797 6.644132,5.265336 10.498666,6.8072 2.46888,0.987637 4.552527,1.769195 5.853007,4.284133 1.175173,2.274824 0.938106,4.457531 0.33782,6.858 -1.185334,4.743535 -4.11988,10.741745 -9.91616,10.024025 -4.257463,-0.527134 -6.724481,-3.750225 -8.112167,-7.568691 -2.407328,-6.624236 -1.648884,-14.075918 1.1695,-20.404667 h 0.169334 M 89.050071,79.12574 c -0.796206,0.0668 -0.581491,2.27948 -0.457285,2.814828 0.06198,0.267123 0.228092,0.576495 0.542544,0.576495 0.31877,0 0.45339,-0.305731 0.488103,-0.576495 0.06773,-0.525611 0.303107,-2.888404 -0.573362,-2.814828 m -5.982377,0.06977 c -0.644906,0.231902 -0.443315,2.446274 -0.339598,2.997539 0.0563,0.299804 0.283972,0.599694 0.62594,0.480906 0.710015,-0.246549 0.42291,-2.332228 0.338582,-2.926249 -0.04352,-0.306493 -0.252645,-0.685969 -0.624924,-0.552196 m 12.500186,10.284629 -0.08467,0.08467 0.08467,-0.08467 m -6.608149,0.292016 c -0.482346,0.113792 -0.846497,0.500803 -1.350517,0.58784 -0.38735,0.06697 -1.024128,-0.157565 -1.327658,0.159258 -0.807212,0.842433 1.359577,0.997289 1.750991,0.904155 0.512064,-0.121835 1.136988,-0.382185 1.420706,-0.85344 0.237067,-0.395224 0.01439,-0.917447 -0.493522,-0.797813 m -7.531184,6.989317 c 2.441956,1.066631 4.684945,1.441704 7.281333,0.762 l 0.338667,0.169334 c -1.489033,1.779524 -3.948769,1.54686 -5.842,0.612478 -0.679281,-0.33528 -1.532551,-0.773768 -1.778,-1.543812 m -1.036489,0.876385 c 0.536617,1.69e-4 1.24587,1.012867 1.713822,1.287357 1.653879,0.969856 3.600789,1.654226 5.503334,1.043093 0.764793,-0.245618 1.417997,-0.669629 2.020146,-1.193207 0.136313,-0.11828 0.470747,-0.492676 0.68326,-0.336042 0.34544,0.254084 -0.521547,1.041654 -0.676487,1.196001 -0.874437,0.872061 -1.943861,1.500371 -3.212253,1.431281 -1.785704,-0.0973 -3.373543,-1.111918 -4.826,-2.049602 -0.40496,-0.26145 -0.83693,-0.527388 -1.145455,-0.905594 -0.06257,-0.07671 -0.333841,-0.473372 -0.06037,-0.473287 m 11.027155,1.663615 c 1.383454,1.418588 2.40284,3.224438 3.420534,4.910658 0.61214,1.01355 1.34874,2.00914 1.744133,3.13267 -1.677247,1.48794 -3.178387,3.7769 -3.585633,6.01133 -0.186267,1.01897 -0.128694,2.27677 0.0076,3.30201 0.06435,0.48684 0.376766,1.19694 0.229446,1.67368 -0.128693,0.41699 -0.64516,0.69927 -0.969433,0.95115 -0.841587,0.65396 -1.740747,1.58013 -2.709333,2.03031 -0.923883,0.42934 -1.307423,-0.87935 -1.95707,-1.21226 -2.312416,-1.18465 -4.315968,-2.84175 -6.42493,-4.34933 -0.481923,-0.34451 -2.406735,-1.92041 -2.910586,-1.00651 -0.355092,0.64431 1.005417,1.11134 1.386586,1.3418 1.755902,1.06147 3.366177,2.39996 5.08,3.5345 -1.283377,1.44297 -2.870793,2.60163 -3.386667,4.572 -2.193544,-0.66794 -4.404444,-1.26018 -6.604,-1.90907 -1.133686,-0.33443 -2.222584,-0.52739 -3.301999,-1.03429 -1.148758,-0.53949 -2.509097,-1.032 -3.138086,-2.22165 -1.00186,-1.89535 1.084411,-4.34594 2.019216,-5.92633 1.306914,-2.20954 2.461259,-4.50587 3.815249,-6.68866 1.640924,-2.64541 3.495124,-5.16704 5.17762,-7.789341 2.584281,1.570051 5.428488,4.579621 8.805333,3.366001 0.549233,-0.19736 1.058503,-0.51689 1.524,-0.86477 0.68326,-0.51088 1.242907,-1.163921 1.778,-1.823898 m 11.34534,22.690668 c -0.5715,-3.31774 -1.78816,-6.63422 -2.850733,-9.82133 -0.303953,-0.91348 -0.648547,-1.80789 -0.98552,-2.70933 -0.128693,-0.34544 -0.410633,-0.78181 -0.358987,-1.16307 0.08636,-0.63738 1.236134,-1.01812 1.7399,-1.22979 1.8288,-0.76801 4.02082,-1.27854 5.842,-0.22403 1.22344,0.70833 1.86521,1.90136 2.4765,3.12489 0.7637,1.52874 1.33012,3.34535 1.16417,5.08 -0.33951,3.55988 -3.48827,6.66191 -7.02733,6.94266 m -5.24934,-13.03867 c 1.44018,4.2893 3.07848,8.51924 4.064,12.95401 -1.55956,-0.14385 -3.572086,-0.69325 -4.717626,-1.81052 -3.067474,-2.9911 -2.589107,-8.55251 0.653626,-11.14348 M 86.593214,120.8068 v 0.16933 c -1.62179,0.79452 -2.747857,2.23461 -3.556,3.81 l -0.677334,-0.254 c 0.601218,-1.49826 2.315295,-4.80957 4.233334,-3.72533 m 8.805333,0.84667 c 1.71196,2.15705 2.099733,5.31842 2.80924,7.95866 1.766993,6.57268 3.007363,13.42644 4.048763,20.15067 -3.088643,-0.0246 -6.17559,-0.82465 -9.22867,-1.2319 -3.311313,-0.44111 -6.657848,-0.50377 -9.990666,-0.54441 -5.710767,-0.0703 -11.509248,1.44357 -17.187333,0.67564 0.50148,-4.25704 1.858687,-8.55726 2.930228,-12.7 1.127252,-4.35838 2.09186,-8.93233 3.758438,-13.12333 2.480987,0.6499 5.010827,1.32935 7.450667,2.11811 0.806196,0.26068 2.160016,0.46702 2.789343,1.05342 0.944287,0.87977 -0.902716,1.74151 -1.185249,2.42798 -0.217678,0.52892 0.353738,1.11777 0.635847,1.51147 0.172297,0.24037 0.364575,0.56507 0.657437,0.6726 0.362373,0.13309 0.67928,-0.2165 0.929301,-0.4252 0.569214,-0.47498 1.285579,-1.24138 2.015321,-1.44255 0.851492,-0.2347 2.106083,0.32495 3.047999,0.24646 2.694094,-0.22453 3.67792,-2.59664 2.878667,-4.89229 1.121833,-0.81466 2.299547,-2.04284 3.640667,-2.45533 m -7.958667,0.22631 c 0.662009,-0.10194 1.370584,0.37355 1.86182,0.76666 1.728047,1.38286 2.611967,4.69544 -0.33782,5.16636 -1.462024,0.23342 -4.153154,-0.45788 -4.717034,-2.01067 -0.519091,-1.42942 1.91152,-3.72499 3.193034,-3.92235 m 10.498667,1.89035 c 0.85344,0.33842 1.713653,0.42283 2.624663,0.42334 0.39794,2.5e-4 1.08966,-0.12658 1.4241,0.13775 0.55287,0.43654 0.60028,2.08034 0.72305,2.74091 0.51223,2.74752 0.89493,5.58267 0.90085,8.382 l -2.87866,-0.16933 c -0.43519,-2.56151 -1.142157,-5.12216 -1.850817,-7.62 -0.325966,-1.14935 -1.0541,-2.69841 -0.943186,-3.89467 m 5.672663,12.446 0.0847,0.762 h -2.62467 l -0.0847,-0.59266 2.62466,-0.16934 m 0.0847,1.86267 c 0,1.67386 -0.0779,3.33502 -0.30395,4.99533 -0.11854,0.87292 -0.22352,1.78647 -0.71205,2.54 -0.68919,-2.39268 -1.06426,-5.06391 -1.35467,-7.53533 h 2.37067 m -1.27,12.86933 c -0.23537,0.83228 -1.36737,0.49954 -2.032,0.43519 -2.0066,-0.19473 -4.002193,-0.39031 -6.011333,-0.62992 -3.63982,-0.43519 -7.422811,-0.91017 -11.090571,-0.81703 -3.657939,0.0923 -7.26694,0.72813 -10.922762,0.75861 -1.638046,0.0136 -3.269149,0.22352 -4.910667,0.17949 -0.965538,-0.0254 -1.760135,-0.0703 -1.778,-1.19634 3.512228,0.64178 6.989064,0.0906 10.498667,-0.23283 3.034538,-0.27855 6.097608,-0.28956 9.144,-0.27517 3.549057,0.0169 7.074746,0.42842 10.583333,0.94404 2.170006,0.31919 4.312923,0.82465 6.519333,0.83396 m -5.08,1.35467 c -0.888153,4.85479 -2.230967,9.59443 -3.373967,14.39333 -1.245446,5.22902 -2.302086,10.49528 -3.437466,15.748 -0.425027,1.96427 -0.826347,3.93616 -1.110827,5.92667 -0.0922,0.64516 0,1.92786 -0.423503,2.44179 -0.260265,0.3158 -0.850392,0.37846 -1.22157,0.48598 -1.117515,0.32258 -2.12979,0.62738 -3.302,0.62823 -0.298619,-2.88883 -0.396917,-5.90127 -0.422571,-8.80533 -0.0048,-0.54441 0.08644,-2.67293 -0.91584,-2.47904 -0.686816,0.13292 -0.270594,2.21911 -0.223858,2.73304 0.254931,2.80246 0.449834,5.73701 0.461602,8.55133 -1.357545,0 -2.707301,0.0847 -4.064,0.0847 -0.418253,0 -1.155615,0.13631 -1.485053,-0.18458 -0.568029,-0.55202 -0.833797,-1.95072 -1.082887,-2.69409 -0.813138,-2.4257 -1.3727,-4.95808 -1.938443,-7.45067 -1.471507,-6.48377 -2.399961,-12.99464 -3.418924,-19.558 -0.514012,-3.31046 -1.478365,-6.81312 -1.557359,-10.16 4.233502,-0.004 8.39343,-0.66378 12.615333,-0.83904 2.867321,-0.11938 5.702215,0.21674 8.551333,0.47921 2.097193,0.19219 4.28752,0.26331 6.35,0.6985 m -22.31771,0.38354 c -0.492167,0.17357 -0.275251,1.1557 -0.37194,1.56379 -0.316992,1.33858 -1.048174,2.46211 -1.522392,3.72449 -0.143086,0.38185 -0.01719,0.94657 0.506561,0.83397 0.485563,-0.10499 0.750147,-0.6875 0.947081,-1.08712 0.540004,-1.09728 1.067478,-2.42062 1.217084,-3.64067 0.05427,-0.44281 -0.0078,-1.66624 -0.776394,-1.39446 m 16.071003,0.84667 c -0.50292,0.16594 -0.536786,0.87799 -0.489373,1.30979 0.132927,1.19295 0.86106,2.33341 1.525693,3.302 0.240454,0.35052 0.684107,1.06003 1.2065,0.88646 0.491067,-0.16341 0.325967,-0.73321 0.12954,-1.05579 -0.854286,-1.40632 -1.580726,-2.31902 -1.766146,-3.97172 -0.03471,-0.30988 -0.270087,-0.58166 -0.606214,-0.47074 z"
         id="path2888" /></g></g></svg>
