<?xml version="1.0" encoding="UTF-8" standalone="no"?>
<!-- Created with Inkscape (http://www.inkscape.org/) -->

<svg
   width="131.5"
   height="101.5"
   viewBox="0 0 131.5 101.5"
   version="1.1"
   id="svg5"
   xml:space="preserve"
   inkscape:version="1.2 (dc2aeda, 2022-05-15)"
   sodipodi:docname="icons.svg"
   xmlns:inkscape="http://www.inkscape.org/namespaces/inkscape"
   xmlns:sodipodi="http://sodipodi.sourceforge.net/DTD/sodipodi-0.dtd"
   xmlns="http://www.w3.org/2000/svg"
   xmlns:svg="http://www.w3.org/2000/svg"><sodipodi:namedview
     id="namedview7"
     pagecolor="#ffffff"
     bordercolor="#000000"
     borderopacity="0.25"
     inkscape:showpageshadow="2"
     inkscape:pageopacity="0.0"
     inkscape:pagecheckerboard="0"
     inkscape:deskcolor="#d1d1d1"
     inkscape:document-units=""
     showgrid="false"
     inkscape:zoom="0.81009959"
     inkscape:cx="477.10183"
     inkscape:cy="817.18348"
     inkscape:window-width="1390"
     inkscape:window-height="808"
     inkscape:window-x="0"
     inkscape:window-y="38"
     inkscape:window-maximized="0"
     inkscape:current-layer="layer1" /><defs
     id="defs2" /><g
     inkscape:label="Layer 1"
     inkscape:groupmode="layer"
     id="layer1"><rect
       style="opacity:0;fill:#000000;stroke:#000000;stroke-width:1.5;stroke-linecap:round;stroke-dasharray:none;stroke-opacity:1"
       id="rect3105"
       width="130"
       height="100"
       x="0.75"
       y="0.75" /><g
       style="fill:none"
       id="g191"
       transform="matrix(0.99588767,0,0,0.99588767,15.50254,5.8832944)"><path
         opacity="0.689993"
         d="m 73.3939,12.3541 c 7.7794,9.147 7.0355,21.95 5.2764,33.8269 C 76.9054,58.0975 74.379,71.3829 63.7978,77.146 53.399,82.8099 41.4094,76.7372 30.3528,72.4978 19.1426,68.1994 6.04088,64.6992 1.92666,53.4225 -2.33922,41.7301 3.64016,29.2138 10.8624,19.0765 17.8583,9.25695 27.7271,1.66827 39.7168,0.379327 52.1802,-0.960541 65.274,2.8067 73.3939,12.3541 Z"
         fill="#b5bbfc"
         id="path182" /></g><path
       style="display:none;fill:#070707;stroke:#000000;stroke-width:2;stroke-dasharray:none;stroke-opacity:1"
       d="m 40.776355,77.288909 c 0.290579,0.82386 1.871659,0.23111 2.51523,0.11485 1.21665,-0.21925 2.43174,-0.31607 3.65419,-0.46081 1.37483,-0.16278 2.74217,-0.39674 4.12877,-0.41335 1.07737,-0.0128 2.15218,0.0679 3.22708,0.0944 1.7356,0.0423 3.4888,-0.019 5.22028,0.0997 0.41634,0.0285 0.87497,0.006 1.28134,0.10867 0.25413,0.0641 0.43775,0.29281 0.71186,0.29187 0.49474,-0.002 1.0199,-0.20692 1.51862,-0.25437 1.51033,-0.14428 3.04153,-0.18509 4.55588,-0.28855 1.32311,-0.0906 2.66282,0.0432 3.9864,0.0432 2.59542,0 5.15906,-0.0313 7.73551,0.31226 1.81712,0.24203 3.64991,0.28332 5.45755,0.60935 0.58895,0.1063 1.17219,0.2501 1.75592,0.37966 0.252,0.056 0.5448,0.17464 0.80582,0.10725 0.40291,-0.10346 0.2781,-0.64636 0.19077,-0.93395 0.37824,0.0911 0.96291,0.23918 1.04406,-0.28474 0.84616,0.0176 1.63822,0.32982 2.46777,0.41904 0.43328,0.046 0.7968,-0.0394 0.99375,-0.46651 0.364,-0.78778 -0.0531,-2.00411 -0.0902,-2.84742 -0.0987,-2.24994 -0.24679,-4.580081 -0.0925,-6.83382 0.27335,-3.990852 0.2781,-8.005821 0.37586,-12.00664 0.0926,-3.764485 0.23681,-7.522801 0.23681,-11.294785 0,-2.214394 -0.0437,-4.434769 -0.14047,-6.643991 -0.0242,-0.552543 0.0431,-1.107126 0.0455,-1.660997 0.001,-0.216216 0.0626,-0.459195 -0.0313,-0.663498 -0.18413,-0.401914 -0.80059,-0.271977 -1.1551,-0.287495 -1.11998,-0.04907 -2.25278,-0.09359 -3.36945,-0.0456 0.006,-0.285407 0.14807,-0.703978 -0.19457,-0.853611 -0.41621,-0.18157 -1.28609,0.245401 -1.70372,0.36523 -1.33306,0.3826 -2.69413,0.75248 -4.0813,0.863957 -4.70537,0.378232 -9.37278,1.197958 -13.81001,2.871675 -1.39192,0.525018 -2.76533,1.125871 -4.08131,1.820264 -0.53551,0.282559 -1.09754,0.830735 -1.661,1.016625 -0.18688,0.06165 -0.34226,-0.102508 -0.47457,-0.211327 -0.31872,-0.2622 -0.62619,-0.537641 -0.94914,-0.794716 -1.19051,-0.947718 -2.55756,-1.571351 -3.9864,-2.072023 -5.62304,-1.970181 -11.73386,-1.997469 -17.559119,-2.962413 -0.859495,-0.142372 -1.694123,-0.512252 -2.562682,-0.604888 -0.293618,-0.03132 -0.445243,0.10787 -0.711857,0.166526 -0.254559,0.056 -0.639769,-0.01557 -0.901684,-0.04048 -0.419047,-0.03986 -1.375022,-0.286925 -1.673242,0.11366 -0.180432,0.242411 -0.0037,0.561892 0.100561,0.796093 0.299075,0.67166 0.565974,1.350866 0.822337,2.040654 0.407751,1.097161 0.546136,2.312773 0.715795,3.464367 0.224093,1.521426 0.453358,3.042236 0.726283,4.555879 0.615898,3.416056 1.060381,6.839515 1.297192,10.298187 0.283888,4.145234 0.1941,8.321555 0.1941,12.481209 0,2.14506 0.109151,4.323808 -0.155897,6.454158 -0.06976,0.56094 -0.17507,1.12284 -0.350471,1.661 -0.09045,0.27762 -0.289867,0.65206 -0.170276,0.94724 0.183802,0.45274 1.019093,0.1139 1.387788,0.14712 0.316918,0.0285 0.517994,0.42094 0.854939,0.51159 0.544662,0.14664 1.357939,-0.0963 1.898283,-0.2297 m 46.41302,-42.948603 c -0.47694,7.030576 0.21974,14.112549 0.047,21.165857 -0.083,3.385922 -0.18556,6.772886 -0.33362,10.155818 -0.17037,3.885785 -0.44183,7.807638 0.0493,11.674438 -1.0004,-0.0436 -2.09523,-0.38773 -3.08471,-0.57898 -1.58887,-0.3061 -3.18769,-0.53864 -4.79317,-0.73654 -0.9629,-0.11864 -1.93008,0.001 -2.89488,-0.065 -1.98086,-0.13573 -3.94083,-0.42854 -5.93213,-0.4143 -2.85313,0.02 -5.6548,0.3042 -8.44736,0.84568 0.2247,-2.84695 -0.0762,-5.770298 0.0493,-8.637183 0.10521,-2.402745 0.13203,-4.809725 0.23729,-7.213475 0.14199,-3.242407 0.3778,-6.478031 0.3778,-9.728699 0,-2.186727 0.009,-4.467609 -0.19789,-6.643991 -0.0616,-0.646982 -0.0782,-1.297714 -0.13022,-1.94574 -0.0183,-0.227936 -0.11799,-0.54941 0.0245,-0.751056 0.3191,-0.451459 1.06588,-0.782899 1.53747,-1.052266 1.39576,-0.797279 2.91148,-1.446728 4.4135,-2.013366 2.87068,-1.082686 5.84244,-1.862406 8.87448,-2.332611 1.57605,-0.244403 3.17393,-0.289203 4.74571,-0.515003 1.27707,-0.18347 2.54275,-0.483826 3.79656,-0.780955 0.54861,-0.130032 1.09863,-0.383547 1.661,-0.432618 m -50.92145,0.711856 c -0.394131,-0.03113 -1.130332,-0.207482 -1.271565,0.332247 -0.07223,0.276058 0.151626,0.569391 0.260302,0.806723 0.250147,0.546279 0.41022,1.139255 0.599953,1.708455 0.665159,1.995475 1.051032,4.061282 1.446017,6.121963 0.564028,2.942434 0.729795,5.947511 1.014016,8.921931 0.441208,4.617905 0.711382,9.308942 0.656139,13.952379 -0.02361,1.983234 -0.150437,4.058057 -0.39299,6.027049 -0.127565,1.03551 -0.611959,2.33679 -0.366131,3.36945 l -0.854228,0.0949 c 0.847584,-3.66368 0.569485,-7.365807 0.569485,-11.104946 0,-3.742892 0.01405,-7.471123 -0.241556,-11.199872 -0.230974,-3.36969 -0.806106,-6.684946 -1.36814,-10.013444 -0.298552,-1.768014 -0.51249,-3.550739 -0.830736,-5.315193 -0.142467,-0.789828 -0.331346,-1.574436 -0.616943,-2.325396 -0.21873,-0.57499 -0.584386,-1.201045 -0.691734,-1.80337 0.481167,0.0014 1.997089,-0.139096 2.088111,0.427114 M 36.83732,34.76742 c 0.716507,0.05851 1.42993,0.278051 2.135568,0.405093 1.18671,0.213557 2.406074,0.360199 3.606738,0.488713 2.667189,0.28555 5.321079,0.620549 7.972799,1.031812 1.73261,0.268702 3.50228,0.565783 5.17281,1.111635 1.58066,0.516476 3.10147,1.099011 4.46097,2.074349 0.38099,0.273304 1.06987,0.690358 1.29401,1.107126 0.0901,0.167523 -0.0552,0.344396 -0.0457,0.520177 0.0247,0.459479 0.12576,0.907759 0.12804,1.376255 0.007,1.423285 0.14222,2.846049 0.14232,4.271137 1.4e-4,1.880439 0.14042,3.7605 0.0942,5.647393 -0.0798,3.259399 -0.28189,6.518991 -0.42455,9.77616 -0.14593,3.332911 -0.23914,6.674364 -0.23914,10.013439 0,0.79348 -0.0196,1.63062 0.0555,2.42031 0.0284,0.29755 0.15244,0.90074 -0.0566,1.15795 -0.15523,0.19078 -0.7324,-0.0128 -0.948,-0.0185 -1.01269,-0.0247 -2.02708,-0.0693 -3.03725,-0.13857 -3.75894,-0.25722 -7.61316,-0.21783 -11.34225,0.31511 -1.06318,0.15186 -2.11962,0.35688 -3.179618,0.53104 -0.22386,0.037 -0.924988,0.27336 -1.090376,0.0703 -0.155613,-0.19173 -0.09824,-0.64305 -0.09587,-0.87322 0.0083,-0.81151 0.180858,-1.61591 0.277198,-2.42031 0.349901,-2.922399 0.679778,-5.780741 0.477656,-8.732095 -0.577243,-8.430011 -1.538392,-16.999191 -3.691854,-25.199822 -0.444436,-1.692367 -1.125872,-3.276816 -1.666504,-4.935536 m 54.860388,0.427114 c 0,4.254669 0.19837,8.508152 0.0944,12.765953 -0.10394,4.235165 -0.14807,8.485184 -0.33362,12.718498 -0.0897,2.052616 -0.23539,4.113103 -0.23539,6.169423 0,2.320174 -0.21166,4.712485 0.0612,7.023645 0.074,0.6307 0.093,1.26663 0.16848,1.89828 0.0275,0.22874 0.12196,0.55477 -0.0641,0.74223 -0.13193,0.13288 -0.34027,0.0598 -0.49783,0.0228 -0.43613,-0.10346 -0.90406,-0.15614 -1.32879,-0.29044 0.57564,-0.47884 0.37965,-1.72886 0.37965,-2.42031 0,-2.19869 -0.047,-4.397846 0.0494,-6.596534 0.2259,-5.155786 0.252,-10.30512 0.37824,-15.471009 0.0712,-2.894788 0.2368,-5.786253 0.2368,-8.684646 0,-1.863877 0.0973,-3.73492 0.14285,-5.599936 0.0109,-0.440686 0.34406,-1.552368 0.0271,-1.879585 -0.46034,-0.475425 -1.4631,-0.04267 -2.02073,-0.0187 -0.18983,-0.397453 -0.61647,-0.331631 -0.9966,-0.379657 v -0.09492 l 3.93894,0.09492 M 40.728897,76.671969 c -0.415578,0.0181 -1.568692,0.4945 -1.869665,0.12813 -0.156988,-0.19125 -0.06843,-0.56996 -0.04214,-0.79253 0.07683,-0.65111 0.117502,-1.2989 0.24146,-1.94574 0.202738,-1.05782 0.225185,-2.11137 0.298363,-3.179628 0.08452,-1.234359 0.233019,-2.462548 0.233019,-3.701653 0,-4.876308 -0.192107,-9.75841 -0.656333,-14.616778 -0.255369,-2.672261 -0.413875,-5.369911 -0.874162,-8.020246 -0.352321,-2.028695 -0.75917,-4.049086 -1.337055,-6.02705 -0.279618,-0.957019 -0.807958,-1.915462 -0.976477,-2.894881 0.213557,0.0044 0.560088,0.0019 0.735632,0.139428 0.156228,0.122488 0.198703,0.395223 0.263482,0.572428 0.173502,0.474334 0.356497,0.945583 0.51937,1.423713 0.803258,2.357905 1.325097,4.868479 1.813002,7.30839 0.654625,3.273636 1.08743,6.609822 1.522516,9.918529 0.58268,4.431542 1.083683,8.910922 1.030486,13.3829 -0.0331,2.784298 -0.901493,5.529218 -0.901493,8.304988 m 47.219793,-0.14237 -0.47457,-0.0475 c -0.33979,-1.82994 -0.17796,-3.891 -0.0968,-5.742306 0.14618,-3.338131 0.2335,-6.676736 0.37967,-10.013444 0.36399,-8.307503 -0.0455,-16.602242 -0.0455,-24.914966 l 0.37823,0.07607 0.0489,0.588325 4.7e-4,1.566084 0.23681,7.30839 -4.8e-4,11.769356 -0.52154,17.132011 0.0949,2.27794 m 2.27794,-40.480895 c -0.25579,1.073954 -0.0959,2.316712 -0.14427,3.41691 -0.12814,2.923641 -0.10916,5.855255 -0.23729,8.77956 -0.16609,3.792152 -0.0954,7.592611 -0.1884,11.389701 -0.13051,5.317088 -0.37918,10.621369 -0.37918,15.945584 l -0.75932,-0.0949 0.56949,-23.538713 -0.3322,-15.75575 1.47117,-0.142372 m -47.972084,5.031969 c -0.459338,0.265618 0.179669,0.576129 0.420094,0.607878 1.40093,0.184941 2.81923,0.228221 4.22367,0.400727 0.4609,0.05657 1.31452,0.185368 1.69213,-0.146405 0.18414,-0.16178 0.21104,-0.500624 -0.0795,-0.561986 -0.28412,-0.06003 -0.6026,0.141944 -0.90078,0.117124 -1.29335,-0.107681 -2.59282,-0.315637 -3.89148,-0.323989 -0.36476,-0.0023 -1.152591,-0.273543 -1.464144,-0.09335 m 7.450764,0.142182 c -0.16321,0.09634 -0.18907,0.350043 -0.0339,0.466597 0.24184,0.181714 0.72979,0.235198 1.02346,0.278479 1.67243,0.246492 3.35792,0.372158 5.03045,0.602515 0.49151,0.06767 1.46637,0.340599 1.87768,-0.05106 0.17388,-0.16553 0.11879,-0.458103 -0.12267,-0.516096 -0.40173,-0.09648 -0.94535,0 -1.37536,-0.05652 -1.56167,-0.205347 -3.13772,-0.293142 -4.69825,-0.508075 -0.38326,-0.05277 -1.3754,-0.408369 -1.70143,-0.215835 m 31.55194,1.347638 c -2.15218,0.271265 -4.38077,0.322471 -6.54908,0.311983 -0.54386,-0.0026 -1.06542,-0.164486 -1.61355,-0.140473 -1.0189,0.04471 -2.0098,0.448849 -3.03724,0.518991 -0.91545,0.06255 -1.8105,0.03925 -2.65761,0.413636 -0.23253,0.102887 -0.80344,0.17469 -0.74127,0.53579 0.0579,0.338322 0.47836,0.210187 0.69382,0.141897 0.33362,-0.10564 0.64968,-0.304912 0.9966,-0.362809 0.60128,-0.10042 1.24242,-0.0032 1.85082,-0.08305 0.96386,-0.126662 1.97992,-0.457533 2.94234,-0.500055 0.51159,-0.02259 1.00941,0.116365 1.51863,0.13867 0.64874,0.02838 1.29937,-0.06288 1.94574,-0.09121 0.69715,-0.03052 1.39286,0.02491 2.08811,-0.04124 0.66203,-0.06302 1.33023,-0.07925 1.9932,-0.142371 0.29091,-0.02767 0.64019,0.02653 0.89884,-0.143652 0.42141,-0.277055 0.0218,-0.60038 -0.32935,-0.556103 m -2.79997,3.654195 c -0.80155,0.109104 -1.62873,0.0915 -2.42031,0.228981 -0.68956,0.119782 -1.38575,0.411832 -2.08812,0.415202 -0.96765,0.0047 -1.92533,-0.204872 -2.89487,-0.1381 -0.59607,0.04105 -1.15274,0.286972 -1.75592,0.294281 -0.41335,0.0051 -0.82243,-0.237997 -1.23389,-0.136249 -0.2406,0.05951 -1.11096,0.363142 -0.81863,0.719022 0.30135,0.367508 0.72325,-0.08234 1.03599,-0.11404 0.27383,-0.02786 0.63735,0.140948 0.92162,0.167666 0.39484,0.03706 0.849,-0.05827 1.23388,-0.144696 1.22914,-0.276248 2.37333,0.06872 3.60674,0.01471 0.7764,-0.03403 1.51435,-0.329209 2.27794,-0.451933 0.73368,-0.117883 1.48968,-0.108202 2.23048,-0.197042 0.84663,-0.101605 1.66907,0.03384 2.51522,0.03389 0.26956,0 0.73844,0.07484 0.86609,-0.242268 0.2055,-0.508503 -0.51775,-0.385541 -0.77117,-0.409271 -0.86134,-0.08053 -1.84466,-0.157225 -2.70505,-0.04015 m -33.36233,0.711809 c -0.47557,0.06321 -1.06418,0.110006 -1.47046,0.392708 -0.17151,0.119354 -0.44813,0.514434 -0.13226,0.64983 0.27516,0.11793 0.91013,-0.312601 1.22306,-0.369027 0.78903,-0.142276 1.58839,-0.06018 2.37285,0.06948 0.34098,0.05638 0.89737,0.291576 1.23109,0.157414 0.5637,-0.226703 -0.18352,-0.62928 -0.42432,-0.682575 -0.88924,-0.196804 -1.89054,-0.338653 -2.79996,-0.217828 m 8.21007,0.09923 c -0.75001,0.144697 -1.5611,0.117694 -2.32539,0.160974 -0.21223,0.01201 -0.60375,-0.143984 -0.75077,0.07247 -0.23548,0.346675 0.27212,0.497967 0.51348,0.501242 0.60436,0.0082 1.20095,-0.04727 1.80337,-0.04727 0.32147,0 0.70584,0.05752 0.99214,-0.120209 0.38264,-0.23757 0.19135,-0.64907 -0.23283,-0.567207 m 1.90109,0.200601 c -0.22983,0.0962 -0.23496,0.410741 0,0.505656 0.18157,0.07332 0.42156,0.01946 0.61414,0.04219 0.50684,0.0598 1.63708,0.401202 2.08109,0.08808 0.2089,-0.147354 0.15941,-0.448659 -0.0888,-0.513676 -0.57025,-0.149442 -1.35367,-0.157415 -1.94485,-0.157462 -0.2023,0 -0.47115,-0.04447 -0.66159,0.03521 m 20.16646,3.971304 c -1.0844,0.142371 -2.1892,0.142181 -3.27454,0.284742 -1.15843,0.152148 -2.39089,0.311604 -3.55929,0.312078 -0.25816,9.5e-5 -1.10811,-0.134636 -1.02602,0.330158 0.0489,0.279144 0.39343,0.229408 0.59891,0.243551 0.60983,0.042 1.19355,-0.02306 1.80337,-0.04983 2.60634,-0.114277 5.16618,-0.476422 7.78296,-0.476422 0.81484,0 1.6572,-0.02164 2.46778,0.05553 0.30229,0.02876 0.83287,0.151341 1.06303,-0.122866 0.14901,-0.177917 0.0417,-0.413731 -0.16231,-0.47495 -0.33931,-0.101701 -0.78303,-0.0328 -1.13801,-0.06658 -1.42704,-0.135822 -3.13217,-0.222289 -4.55588,-0.0354 m -29.66068,2.230483 c -0.47519,0.06316 -1.06522,0.01499 -1.51792,0.142845 -0.16652,0.04703 -0.31777,0.218825 -0.25474,0.401345 0.0825,0.238946 0.43523,0.20435 0.63369,0.190777 0.66421,-0.04546 1.32491,-0.16553 1.9932,-0.136296 0.81617,0.03574 1.59835,0.33742 2.42031,0.356212 0.76563,0.01747 1.51644,-0.180479 2.27794,-0.213841 1.09066,-0.04774 2.24097,0.06535 3.32199,0.208099 0.8129,0.107396 1.69873,0.241699 2.51523,0.135632 0.29561,-0.03844 0.67171,-0.06331 0.88109,-0.308281 0.16092,-0.188309 0.0955,-0.473669 -0.16994,-0.50295 -0.29286,-0.03227 -0.60489,0.155896 -0.90098,0.176682 -0.6672,0.04675 -1.33188,-0.06402 -1.9932,-0.130127 -1.16729,-0.116696 -2.38533,-0.294851 -3.55928,-0.243454 -0.78688,0.03445 -1.58549,0.266803 -2.37285,0.233583 -1.10888,-0.04679 -2.14544,-0.460285 -3.27454,-0.310226 m 24.00522,3.230925 c -0.51776,0.05985 -1.04026,-0.0063 -1.55802,0.05744 -0.17559,0.0217 -0.41762,0.0049 -0.49261,0.208526 -0.13857,0.377759 0.36447,0.374487 0.58752,0.374487 0.56902,4.3e-5 1.14039,-0.02447 1.70846,-0.0055 0.27288,0.0091 0.69003,0.08063 0.94629,-0.02293 0.27858,-0.112525 0.19315,-0.449422 -0.0455,-0.545946 -0.33553,-0.13578 -0.79396,-0.10659 -1.14609,-0.06588 m 4.42157,2.301432 c 0.002,2.395633 0.0693,4.773614 0.23302,7.166017 0.0423,0.615044 -0.12624,2.006964 0.52819,2.351022 0.40339,0.212131 1.01369,0.01233 1.42182,-0.09064 0.95341,-0.241555 1.90588,-0.506845 2.89488,-0.550032 1.01985,-0.04462 1.97706,-0.0323 2.98979,0.11295 0.43709,0.06265 0.91972,0.03421 1.20352,-0.353082 0.45416,-0.619315 0.19078,-1.708452 0.17322,-2.419362 -0.0485,-1.985459 0.3265,-4.051647 0.0669,-6.027048 -0.0835,-0.638533 0.18413,-1.973355 -0.49639,-2.358474 -0.57898,-0.327547 -1.66195,0.214511 -2.27605,0.304915 -1.47449,0.21721 -2.94519,0.40984 -4.41351,0.665442 -0.70379,0.122485 -1.51245,0.196711 -2.18302,0.443394 -0.3583,0.131785 -0.72942,0.66321 -0.14238,0.754897 m 8.68465,-1.613543 c 0.25105,0.893857 0.18983,1.879302 0.18983,2.799969 0,1.568742 -0.0475,3.129655 -0.0475,4.698254 0,0.605078 0.0845,1.255716 0.0138,1.850827 -0.0237,0.195515 0.009,0.442297 -0.16943,0.576122 -0.2667,0.200267 -0.77592,0.01997 -1.07822,-0.0067 -0.91118,-0.07973 -1.78913,-0.174171 -2.70505,-0.08685 -0.95057,0.09064 -1.88025,0.305623 -2.79997,0.554297 -0.20217,0.05461 -0.83097,0.292816 -0.99945,0.11912 -0.13715,-0.1419 -0.12813,-0.497348 -0.14047,-0.681485 -0.0389,-0.56901 -0.0593,-1.139443 -0.0982,-1.708459 -0.15233,-2.227058 -0.10487,-4.468982 -0.28047,-6.691443 l 6.50162,-1.057106 1.61354,-0.366604 m -33.36233,1.898285 c 0.67584,0.414438 1.76683,0.150386 2.51523,0.09914 0.7931,-0.0543 1.58056,0.07607 2.37285,0.04136 0.81081,-0.0355 1.61996,-0.233537 2.42031,-0.357686 0.6645,-0.103033 1.39391,-0.0437 2.04042,-0.178818 0.2296,-0.04795 0.37273,-0.285975 0.20891,-0.49246 -0.17602,-0.221864 -0.57727,-0.158368 -0.82561,-0.155422 -0.79059,0.0094 -1.59494,0.181949 -2.37285,0.31236 -2.00919,0.336946 -4.05066,0.171034 -6.07452,0.275392 -0.91886,0.04734 -1.75728,0.305907 -2.70505,0.264434 -0.85527,-0.03741 -1.66265,-0.04807 -2.51522,0.06269 -0.26339,0.03421 -0.71694,-0.02274 -0.79078,0.319528 -0.11399,0.528436 1.03139,0.265808 1.31281,0.234202 1.01805,-0.114275 2.01958,0.07408 3.03725,0.04912 0.47415,-0.01159 1.05749,-0.08941 1.37625,-0.473859 m 19.88457,1.443871 c -0.38915,0.05109 -0.86277,-0.03069 -1.23293,0.117172 -0.21072,0.08423 -0.32984,0.379325 -0.12814,0.545755 0.1661,0.136963 0.41477,-0.0062 0.60176,-0.01658 0.54907,-0.03057 1.16981,0.03846 1.70845,-0.06034 0.27857,-0.05116 0.47694,-0.441255 0.13953,-0.577502 -0.27905,-0.11271 -0.79444,-0.04709 -1.08867,-0.0085 m -15.85067,3.511636 c -0.61167,0.08068 -1.2353,0.05504 -1.85082,0.13573 -0.52184,0.06882 -1.08587,0.239657 -1.61354,0.187454 -0.67594,-0.06644 -1.36947,-0.132877 -2.04066,-0.220674 -0.73169,-0.09634 -1.79492,-0.01522 -2.51437,0.13952 -0.23591,0.05079 -0.33244,0.349766 -0.12984,0.503999 0.16728,0.127662 0.45359,0.09492 0.65101,0.08637 0.54168,-0.02373 1.06817,-0.09302 1.61355,-0.09302 0.94202,0 1.8596,0.25959 2.79996,0.23681 1.12692,-0.02804 2.23191,-0.331726 3.36945,-0.331726 0.68073,0 1.36407,-0.01898 2.04066,0.0612 0.21176,0.02465 0.56996,0.112001 0.70265,-0.119588 0.20644,-0.360201 -0.32485,-0.490236 -0.56028,-0.523931 -0.75926,-0.109622 -1.70476,-0.1623 -2.46777,-0.06217 m 16.08795,0.474574 c -0.47314,0.06216 -0.95152,0.05744 -1.42371,0.125764 -0.18223,0.02613 -0.40291,0.110571 -0.40908,0.329347 -0.008,0.261493 0.26149,0.288545 0.45654,0.26386 0.64731,-0.0802 1.35917,0.0071 1.9932,-0.140469 0.23301,-0.05461 0.49402,-0.415721 0.17891,-0.563321 -0.20787,-0.09728 -0.57471,-0.04413 -0.79586,-0.01516 m 2.04066,3.134536 c -0.8623,0.139052 -1.73599,0.210714 -2.61014,0.214979 -0.24346,0.0012 -0.75363,-0.09776 -0.86562,0.195052 -0.1756,0.460337 0.5823,0.374438 0.81816,0.374438 0.69525,0 1.39666,0.02989 2.08811,-0.03938 0.28285,-0.02848 0.65207,-0.02274 0.89647,-0.190775 0.37633,-0.25864 0.0147,-0.609349 -0.32698,-0.554304 m -24.1082,1.970896 c -0.28764,-0.504942 -1.30606,-0.138578 -1.75591,-0.06833 -0.19695,0.03082 -0.56616,-0.02515 -0.59483,0.259115 -0.0278,0.27525 0.30035,0.328397 0.49991,0.331245 0.45222,0.0049 1.59043,-0.0095 1.89829,-0.332194 0.16102,0.247725 0.45032,0.200267 0.71186,0.151859 0.45753,-0.08542 0.95891,-0.08447 1.42371,-0.0527 2.31524,0.158504 4.57234,-0.383929 6.88127,-0.383929 0.64385,0 1.30673,0.04697 1.94574,0.12908 0.22011,0.02798 0.57921,0.09397 0.67456,-0.179386 0.11593,-0.3322 -0.29779,-0.435177 -0.53218,-0.464133 -0.71282,-0.08921 -1.41764,-0.102503 -2.13557,-0.102503 -2.04701,0 -4.07395,0.437076 -6.12197,0.42711 -0.88,-0.0043 -2.13518,-0.294708 -2.89488,0.284742 m 41.61986,6.359255 v 0.0475 h -0.28474 l 0.28474,-0.0475 m 0.14237,0.0631 c 0.0365,0 0.008,0.0237 -0.0157,0.0161 z"
       id="path357"
       inkscape:export-filename="read.svg"
       inkscape:export-xdpi="96"
       inkscape:export-ydpi="96"
       inkscape:label="book" /><path
       style="display:none;fill:#060606;stroke:#000000;stroke-width:2;stroke-dasharray:none;stroke-opacity:1"
       d="m 73.342502,31.895941 c -0.567588,0.288277 -0.441311,1.475227 -0.513,2.004485 -0.283211,2.091357 -0.464088,4.233092 -0.614134,6.337718 -0.04269,0.599008 -0.07142,1.193989 -0.0615,1.795973 0.0046,0.231693 0.109269,0.555208 0.415523,0.443527 0.24173,-0.08815 0.217592,-0.393138 0.218526,-0.600473 0.0035,-0.619961 0.117981,-1.231373 0.161631,-1.848554 0.148281,-2.096803 0.433927,-4.192753 0.641492,-6.284826 0.04812,-0.484408 0.246312,-1.1124 0.211327,-1.584034 C 73.78506,31.92638 73.55579,31.787734 73.342629,31.895941 M 51.36677,32.19803 c -0.59871,0.228554 0.236862,0.834807 0.416821,1.017507 0.901175,0.914908 1.490069,2.079 2.296764,3.069508 0.221374,0.2718 0.63981,0.9276 1.071964,0.762877 0.573699,-0.218643 -0.254127,-0.969889 -0.426984,-1.183927 C 53.947468,34.900764 53.325193,33.799776 52.469256,32.900226 52.232507,32.65148 51.776505,32.041603 51.36677,32.19803 m 38.170896,9.020387 c -0.228392,0.08077 -0.359042,0.36232 -0.503158,0.53962 -0.32108,0.395157 -0.667477,0.770076 -0.995423,1.159776 -1.2519,1.489489 -2.529634,2.954769 -3.737249,4.481227 -0.373581,0.472165 -0.839608,0.954865 -1.139873,1.476392 -0.124143,0.215977 -0.0885,0.556742 0.225796,0.557504 0.2541,6.11e-4 0.434377,-0.276981 0.57795,-0.449908 0.374584,-0.451708 0.736511,-0.914804 1.106353,-1.370815 1.31985,-1.627096 2.698777,-3.211777 4.067654,-4.79738 0.278135,-0.322627 0.688396,-0.67747 0.789277,-1.10745 0.05977,-0.256016 -0.06508,-0.604454 -0.391327,-0.488966 m -28.321878,1.933062 c -0.679605,0.212354 -0.531144,1.161842 -0.532465,1.707496 -0.0043,1.712953 -0.139869,3.418499 -0.281084,5.123515 -0.538633,6.503987 -0.185361,12.972379 -0.201154,19.49259 -0.0035,1.413634 -0.224272,3.084542 0.258135,4.438073 0.233393,0.654553 0.859003,1.338069 1.630019,1.181988 2.555311,-0.515735 4.987709,-2.059258 7.297857,-3.207392 2.846098,-1.414684 5.722971,-2.764834 8.568056,-4.178977 1.682446,-0.835869 3.313338,-1.765903 5.024722,-2.546803 1.6056,-0.732635 3.353227,-1.220804 4.917796,-2.025473 0.703477,-0.361846 1.382665,-0.946846 1.474477,-1.778908 0.09727,-0.888253 -0.509631,-1.586572 -1.148077,-2.12003 -1.333292,-1.114119 -2.912942,-1.932738 -4.377704,-2.856427 -3.309818,-2.087111 -6.565545,-4.26788 -9.916199,-6.289338 -2.070219,-1.248969 -4.294024,-2.199853 -6.277681,-3.593099 -1.427119,-1.002358 -2.869387,-2.076323 -4.430518,-2.861631 -0.563503,-0.283477 -1.353596,-0.689561 -2.00618,-0.485584 m 0.591002,0.791977 c 0.412562,-0.169143 1.231037,0.405842 1.571448,0.605723 1.380406,0.810438 2.707416,1.726799 4.008399,2.657861 2.673104,1.913146 5.717007,3.36158 8.545753,5.032372 2.438688,1.440358 4.71555,3.174323 7.12028,4.675558 1.443693,0.901396 2.964577,1.770865 4.325031,2.794615 0.404977,0.3048 1.218415,0.780611 1.1451,1.381823 -0.06312,0.514419 -0.953354,1.025746 -1.362808,1.263588 -1.510338,0.877546 -3.309946,1.449427 -4.918073,2.132688 -2.007357,0.852566 -3.921888,1.9779 -5.870918,2.953119 -2.269119,1.136089 -4.600731,2.139958 -6.875397,3.270219 -2.224212,1.105558 -4.325389,2.502496 -6.716855,3.242088 -0.365305,0.113193 -1.082336,0.246716 -1.39188,-0.0645 -0.32178,-0.324092 -0.318944,-1.080023 -0.352144,-1.505896 -0.09269,-1.18935 -0.147646,-2.399226 -0.145234,-3.592569 0.01221,-6.091176 -0.240216,-12.207529 0.352244,-18.277198 0.156671,-1.604653 0.175468,-3.300357 0.179367,-4.912476 7.18e-4,-0.367719 -0.03411,-1.484769 0.385687,-1.656877 M 50.93172,57.853243 c -0.928297,0.11963 -1.868936,0.186715 -2.800537,0.295984 -0.599489,0.07027 -1.200622,0.142627 -1.796687,0.238593 -0.685484,0.110307 -1.449767,0.03912 -2.112863,0.241315 -0.277281,0.08458 -0.412025,0.425896 -0.148729,0.618934 0.40072,0.293735 1.282024,0.01223 1.73136,-0.04938 1.513144,-0.207069 3.027909,-0.385973 4.544463,-0.561842 0.451585,-0.0525 1.683614,0.09877 1.976046,-0.2865 0.142983,-0.188412 0.03353,-0.430777 -0.18037,-0.493731 -0.340806,-0.100385 -0.863336,-0.04858 -1.212683,-0.0035 m 44.161045,3.716273 c -0.673165,0.279658 0.271177,0.804727 0.572181,0.844696 1.745377,0.231658 3.62438,0.03496 5.388134,0.08112 0.38931,0.01038 1.409,0.393057 1.70865,0.123415 0.20965,-0.188977 0.0798,-0.453 -0.12487,-0.573012 -0.38667,-0.22613 -0.93551,-0.238015 -1.37071,-0.280488 -1.512585,-0.147669 -3.082473,0.01812 -4.595996,0.03254 -0.317504,0.0035 -0.698943,0.01558 -1.003512,-0.08585 -0.193188,-0.06438 -0.356007,-0.232973 -0.573865,-0.142419 m -15.510691,13.81831 c -0.218469,0.124143 -0.163142,0.396854 -0.06369,0.579346 0.235615,0.431631 0.596596,0.79597 0.853904,1.217089 1.094976,1.792419 2.303203,3.50693 3.413526,5.290938 0.305735,0.490973 0.625742,0.974584 0.905562,1.480303 0.102,0.184593 0.274823,0.386816 0.508084,0.2643 0.626273,-0.32918 -0.373546,-1.5033 -0.581365,-1.848242 -1.102304,-1.825707 -2.359673,-3.536653 -3.48525,-5.343934 -0.300473,-0.481996 -0.650711,-0.919719 -0.986123,-1.375881 -0.127938,-0.173596 -0.324957,-0.399646 -0.5646,-0.263919 m -22.514129,3.115062 c -0.205127,0.109384 -0.274526,0.387611 -0.378214,0.578596 -0.262452,0.483253 -0.54204,0.953261 -0.826068,1.424319 -1.082329,1.794023 -2.139556,3.606069 -3.253956,5.380451 -0.26102,0.41565 -0.707594,0.9291 -0.780321,1.424434 -0.03438,0.234462 0.112581,0.565512 0.402317,0.484339 0.227417,-0.06381 0.328004,-0.349973 0.432998,-0.535143 0.284578,-0.501692 0.607769,-0.980042 0.900839,-1.476969 1.142687,-1.937028 2.320027,-3.851789 3.440401,-5.802608 0.188383,-0.328131 0.493745,-0.77377 0.516975,-1.160931 0.0148,-0.247719 -0.219007,-0.441635 -0.454971,-0.316488 z"
       id="path422"
       inkscape:label="play"
       inkscape:export-filename="play.svg"
       inkscape:export-xdpi="96"
       inkscape:export-ydpi="96" /><path
       style="fill:#070707;stroke:#000000;stroke-width:2;stroke-dasharray:none;stroke-opacity:1"
       d="M 92.591006,55.023046 C 90.854428,54.35324 89.024144,54.047344 87.207816,53.677052 82.211911,52.658584 77.129774,52.383635 72.055116,52.02795 66.757405,51.656552 61.513873,51.471782 56.204598,51.837441 c -2.488981,0.171462 -4.93968,0.152375 -7.426816,0.04345 -1.054657,-0.04618 -2.470438,-0.242498 -3.338827,0.515397 -0.505174,0.440821 -0.760776,1.150894 -0.940764,1.779396 -0.400599,1.398885 -0.469584,2.896255 -0.613584,4.336458 -0.559752,5.598477 -0.59903,11.201039 1.5e-4,16.797562 0.158853,1.483871 0.375328,2.959762 0.592849,4.43616 0.09421,0.639501 0.15711,1.512769 0.666719,1.977324 0.590755,0.53831 1.543231,0.533323 2.287658,0.635511 1.786124,0.246228 3.554554,0.498946 5.333351,0.797013 3.790217,0.636017 7.538367,1.058694 11.364522,1.32088 3.911191,0.267666 7.846007,0.09674 11.763279,0.255697 4.267675,0.172965 8.536354,0.09769 12.810012,0.09769 0.852341,0 1.688723,0.03935 2.542065,0.0014 0.728727,-0.03184 1.427041,-0.07173 1.866666,-0.749669 0.620567,-0.957011 0.740193,-2.335701 0.895708,-3.439266 0.312528,-2.21657 0.56225,-4.452597 0.785051,-6.679141 0.368854,-3.688977 0.340443,-7.357036 0.340443,-11.065457 0,-1.851758 0.223301,-4.116204 -0.420688,-5.881637 C 94.46815,56.34505 93.970703,55.748261 93.558989,55.171966 92.639862,53.885436 91.589138,52.69873 90.640596,51.433623 88.06663,47.999905 85.65167,44.4141 83.237208,40.86662 c -2.457825,-3.61223 -5.07017,-7.172952 -8.000523,-10.417475 -0.484489,-0.536377 -1.140441,-1.07091 -1.510786,-1.694705 -0.149034,-0.251316 0.118626,-0.562645 0.05383,-0.847166 -0.123121,-0.541655 -1.027791,-0.559052 -1.421063,-0.328324 -0.428663,0.251369 -0.738196,1.05805 -0.383803,1.469164 0.391777,0.453934 0.897199,-0.01894 1.276515,0.309389 1.472902,1.274973 2.752407,3.012092 3.967615,4.530898 4.512914,5.641694 8.403267,11.771704 12.602163,17.64491 0.865799,1.211082 1.87565,2.302718 2.769856,3.489123 M 60.142309,52.295479 c 1.132814,-0.133628 2.348069,-0.01435 3.489108,-0.01435 3.385133,0 6.751723,0.263881 10.118412,0.589657 3.976587,0.384802 7.978594,0.393027 11.912812,1.184807 1.860694,0.374486 3.763249,0.684303 5.582575,1.230155 0.846856,0.254057 1.836758,0.583386 2.425923,1.2822 0.439625,0.520916 0.544308,1.190326 0.622556,1.844038 0.140566,1.178781 0.06531,2.358396 0.146048,3.538967 0.363365,5.302432 -0.142061,10.644256 -0.788042,15.900355 -0.192399,1.569103 -0.328978,3.142688 -0.694335,4.68538 -0.162986,0.68735 -0.370837,1.456449 -1.163866,1.580061 -1.542677,0.240749 -3.181072,0.01503 -4.735214,0.01503 -3.143687,0 -6.277904,0.01394 -9.420593,-0.04932 -7.073619,-0.141566 -14.281616,0.116686 -21.283559,-1.04324 -2.454238,-0.406746 -4.907977,-0.896223 -7.37697,-1.192295 -0.714571,-0.08622 -1.430037,-0.159 -2.143311,-0.257185 -0.37089,-0.05083 -0.834344,-0.09674 -1.141735,-0.331474 -0.447503,-0.34194 -0.455727,-1.152398 -0.540661,-1.662315 -0.254806,-1.52922 -0.49052,-3.090344 -0.614732,-4.635522 -0.44222,-5.501822 -0.617771,-10.999204 0.03992,-16.498498 0.157009,-1.313051 0.212735,-2.650874 0.544052,-3.937706 0.1442,-0.560103 0.345323,-1.252044 0.816152,-1.625423 0.510856,-0.405079 1.194021,-0.314217 1.794199,-0.273104 0.911903,0.06244 1.829488,0.03716 2.741441,0.09974 1.406161,0.09633 2.880608,-0.08157 4.28662,-0.143152 1.780093,-0.07802 3.614765,-0.07815 5.383195,-0.286753 m -7.875366,3.606355 c -0.450992,0.131032 -0.520674,0.60675 -0.727479,0.965086 -0.636114,1.102198 -0.775828,3.283598 0.677585,3.803217 1.052962,0.376426 2.334113,0.361929 3.439264,0.437993 1.778148,0.122424 3.554802,0.276875 5.33335,0.398739 C 66.954238,61.915799 72.949323,62.3 78.93364,62.3 c 2.129853,0 4.305561,0.310336 6.429928,0.108214 0.803988,-0.07652 1.642375,-0.07337 2.342685,-0.544254 0.693839,-0.466646 1.239632,-1.302831 1.24611,-2.155823 0.0023,-0.394421 -0.10018,-0.859358 -0.498935,-1.03552 C 87.697781,58.338861 86.623632,58.435051 85.812167,58.353904 84.06811,58.179505 82.35546,57.860506 80.628352,57.568861 73.77674,56.412023 66.775246,56.101892 59.843237,56.019447 c -1.586448,-0.01886 -3.197618,-0.03197 -4.785063,-0.101383 -0.837784,-0.03675 -1.976978,-0.252567 -2.791236,-0.01612 m 0.351005,0.637806 c 0.254853,-0.07392 0.537821,0.02118 0.795366,0.02746 0.650918,0.01599 1.295057,0.0014 1.943932,0.04618 1.595869,0.109307 3.236595,0.06422 4.834907,0.103432 6.459784,0.158249 12.942597,0.348403 19.339625,1.375889 2.09546,0.336652 4.172477,0.703665 6.280394,0.953281 0.563241,0.06668 1.130972,0.08854 1.694712,0.156077 0.189908,0.02268 0.514395,0.0082 0.660938,0.15016 0.501428,0.484408 -0.409723,1.60426 -0.760631,1.874808 -0.717758,0.553217 -1.879631,0.524811 -2.741438,0.524811 -1.946922,0 -3.888864,-0.148794 -5.831794,-0.149532 -6.005255,-0.0014 -12.009063,-0.382807 -17.99383,-0.793078 -1.778646,-0.121877 -3.555251,-0.274087 -5.333351,-0.398752 -0.961648,-0.06736 -2.069239,-0.06599 -2.990662,-0.371234 -1.144627,-0.379023 -0.825972,-2.111212 -0.348412,-2.873834 0.134133,-0.214187 0.17271,-0.545101 0.450244,-0.625605 m 28.609537,2.621566 c -0.214827,0.109034 -0.306042,0.352201 -0.422184,0.54685 -0.231276,0.386851 -1.065672,1.170938 -0.638506,1.673068 0.132084,0.15512 0.379813,0.121331 0.561248,0.121331 0.491465,1.91e-4 1.351781,0.09223 1.791409,-0.150885 0.651965,-0.360331 -0.321997,-1.270422 -0.521872,-1.59367 -0.0992,-0.160012 -0.16249,-0.3516 -0.29209,-0.491062 -0.12461,-0.134311 -0.308038,-0.192258 -0.478005,-0.105618 m -28.212926,5.710475 c -2.88305,0.113406 -4.704415,3.925491 -4.531403,6.450116 0.203114,2.963247 3.245767,5.504814 6.176268,5.381202 3.849084,-0.162499 5.77597,-5.081646 4.463417,-8.322027 -0.851344,-2.101429 -2.701866,-2.670167 -4.71264,-3.100865 -0.468486,-0.100289 -0.912949,-0.427418 -1.395642,-0.408426 m -0.498443,0.787449 c 0.634817,-0.111357 1.340515,0.189005 1.943931,0.334302 1.756118,0.423182 3.326216,0.863799 4.056587,2.736462 0.730369,1.872649 0.253558,4.0015 -0.910608,5.582572 -0.547891,0.744163 -1.312353,1.445477 -2.24878,1.621926 -2.763772,0.521381 -5.728866,-1.660306 -6.158824,-4.413219 -0.144649,-0.926104 0.09246,-1.888608 0.436737,-2.741449 0.496002,-1.229145 1.435469,-2.866852 2.880957,-3.120594 m 32.349011,1.098918 c -1.35078,0.14654 -2.398013,0.951027 -3.252347,1.971846 -1.449472,1.733077 -2.397017,4.104672 -2.116389,6.380077 0.308533,2.506671 2.322746,4.584189 4.969983,4.327986 1.010344,-0.09769 1.843744,-0.68735 2.59191,-1.330841 2.136332,-1.83875 2.9802,-5.062694 2.109916,-7.732356 -0.565236,-1.735099 -2.226551,-3.842021 -4.303073,-3.616712 m 0.04986,0.642494 c 1.655833,-0.131169 3.133714,1.66032 3.566871,3.073906 0.779067,2.54206 0.09122,5.521757 -2.021692,7.2374 -0.588667,0.477508 -1.258076,0.977452 -2.043625,1.032283 -0.547785,0.03839 -1.074643,-0.01899 -1.595018,-0.194895 -4.020449,-1.362253 -2.816211,-6.699581 -0.806979,-9.221214 0.704301,-0.88424 1.709164,-1.833777 2.900443,-1.92748 z"
       id="path1028"
       inkscape:label="radio"
       inkscape:export-filename="podcast.svg"
       inkscape:export-xdpi="96"
       inkscape:export-ydpi="96" /></g></svg>
