<?xml version="1.0" encoding="UTF-8" standalone="no"?>
<!-- Created with Inkscape (http://www.inkscape.org/) -->

<svg
   width="104.85674"
   height="98.06282"
   viewBox="0 0 104.85674 98.06282"
   version="1.1"
   id="svg5"
   xml:space="preserve"
   xmlns:inkscape="http://www.inkscape.org/namespaces/inkscape"
   xmlns:sodipodi="http://sodipodi.sourceforge.net/DTD/sodipodi-0.dtd"
   xmlns="http://www.w3.org/2000/svg"
   xmlns:svg="http://www.w3.org/2000/svg"><sodipodi:namedview
     id="namedview7"
     pagecolor="#ffffff"
     bordercolor="#000000"
     borderopacity="0.25"
     inkscape:showpageshadow="2"
     inkscape:pageopacity="0.0"
     inkscape:pagecheckerboard="0"
     inkscape:deskcolor="#d1d1d1"
     inkscape:document-units=""
     showgrid="false" /><defs
     id="defs2" /><g
     inkscape:label="Layer 1"
     inkscape:groupmode="layer"
     id="layer1"
     transform="translate(-54.03526,-162.25538)"><g
       style="fill:none"
       id="g332"
       transform="matrix(1.4418186,0,0,1.4418186,53.03732,161.86536)"><path
         opacity="0.689993"
         d="M 63.0844,10.7444 C 69.743,18.5736 69.1063,29.532 67.6007,39.6978 66.09,49.8975 63.9276,61.2688 54.8709,66.2016 45.9703,71.0494 35.708,65.8517 26.2444,62.223 16.6492,58.5439 5.43514,55.548 1.91367,45.896 -1.73761,35.8882 3.38031,25.1751 9.56203,16.4983 15.55,8.09348 23.997,1.59812 34.2593,0.49488 44.9271,-0.651949 56.1344,2.57253 63.0844,10.7444 Z"
         fill=""
         id="path323" /></g><path
       style="fill:#060606;stroke:none;stroke-width:0.0735762"
       d="m 117.76864,182.44564 c -0.79053,0.40151 -0.61465,2.05468 -0.7145,2.79182 -0.39445,2.91281 -0.64638,5.89579 -0.85536,8.82709 -0.0595,0.83428 -0.0995,1.66296 -0.0857,2.5014 0.006,0.3227 0.15212,0.77328 0.57873,0.61773 0.33669,-0.12271 0.30307,-0.54755 0.30436,-0.83633 0.005,-0.86347 0.16432,-1.71503 0.22512,-2.57463 0.20653,-2.9204 0.60437,-5.83961 0.89346,-8.75342 0.067,-0.67468 0.34307,-1.54934 0.29434,-2.20622 -0.0241,-0.32504 -0.34343,-0.51814 -0.64032,-0.36744 m -30.60766,0.42074 c -0.833875,0.31833 0.329897,1.16272 0.580543,1.41717 1.255143,1.27428 2.075346,2.89561 3.198899,4.27517 0.308326,0.37856 0.891119,1.29195 1.493015,1.06252 0.79904,-0.30451 -0.353943,-1.35084 -0.594697,-1.64895 -1.083401,-1.34158 -1.950096,-2.87502 -3.142234,-4.1279 -0.32974,-0.34645 -0.964854,-1.19588 -1.535526,-0.97801 m 53.16388,12.56348 c -0.31811,0.11253 -0.50007,0.50462 -0.70079,0.75157 -0.4472,0.55037 -0.92966,1.07255 -1.38642,1.61532 -1.74363,2.07453 -3.52323,4.11535 -5.20518,6.24139 -0.52032,0.65762 -1.1694,1.32992 -1.5876,2.0563 -0.17291,0.3008 -0.1233,0.77541 0.31449,0.77647 0.3539,8.6e-4 0.60499,-0.38577 0.80496,-0.62662 0.52171,-0.62913 1.0258,-1.27413 1.54091,-1.90925 1.83827,-2.26619 3.75881,-4.47332 5.66536,-6.68172 0.38738,-0.44936 0.95879,-0.94358 1.0993,-1.54244 0.0832,-0.35657 -0.0906,-0.84187 -0.54503,-0.68102 m -39.44631,2.69233 c -0.946544,0.29577 -0.73977,1.6182 -0.74161,2.37818 -0.006,2.38577 -0.194807,4.76124 -0.39149,7.13595 -0.7502,9.05867 -0.258167,18.06775 -0.280163,27.14901 -0.0048,1.96888 -0.312363,4.2961 0.359526,6.18128 0.325067,0.91166 1.196407,1.86365 2.270267,1.64626 3.559,-0.71831 6.94681,-2.8681 10.16435,-4.46721 3.964,-1.97035 7.97087,-3.85083 11.93347,-5.82042 2.34328,-1.16419 4.61477,-2.45953 6.99836,-3.54716 2.23625,-1.0204 4.67033,-1.70031 6.84943,-2.82104 0.97979,-0.50398 1.92575,-1.31876 2.05363,-2.47764 0.13543,-1.23715 -0.7098,-2.20975 -1.59902,-2.95275 -1.857,-1.55173 -4.0571,-2.69189 -6.0972,-3.97838 -4.60988,-2.90691 -9.1444,-5.94425 -13.81114,-8.75971 -2.88337,-1.73955 -5.98066,-3.06392 -8.74347,-5.00442 -1.98767,-1.39607 -3.99644,-2.89187 -6.17076,-3.98564 -0.78484,-0.39481 -1.88527,-0.9604 -2.79418,-0.67631 m 0.82314,1.10305 c 0.57461,-0.23558 1.71457,0.56526 2.18869,0.84365 1.92261,1.12876 3.77085,2.40506 5.58284,3.70183 3.72306,2.66461 7.96257,4.68196 11.9024,7.00901 3.39657,2.00612 6.56775,4.42115 9.91703,6.51206 2.01075,1.25544 4.12902,2.46643 6.02383,3.89229 0.56405,0.42452 1.69699,1.08723 1.59489,1.92459 -0.0879,0.71648 -1.32783,1.42864 -1.89811,1.7599 -2.10357,1.22224 -4.61004,2.01874 -6.84981,2.97038 -2.79582,1.18745 -5.46235,2.7548 -8.17694,4.11306 -3.1604,1.58233 -6.40783,2.9805 -9.57595,4.55472 -3.09785,1.53981 -6.02434,3.48544 -9.35514,4.51553 -0.50879,0.15768 -1.50746,0.34363 -1.93859,-0.0899 -0.44817,-0.45138 -0.44422,-1.50424 -0.49046,-2.09738 -0.12909,-1.65652 -0.20564,-3.34161 -0.20228,-5.00369 0.017,-8.48369 -0.33457,-17.00247 0.4906,-25.45622 0.21821,-2.23494 0.24439,-4.59669 0.24982,-6.84202 10e-4,-0.51215 -0.0475,-2.06797 0.53718,-2.30767 m -15.146642,19.37316 c -1.292919,0.16662 -2.603027,0.26005 -3.900547,0.41223 -0.83496,0.0979 -1.672209,0.19865 -2.502401,0.33231 -0.954731,0.15366 -2.019214,0.0544 -2.942765,0.33611 -0.386193,0.11781 -0.573861,0.59317 -0.207147,0.86204 0.558117,0.4091 1.785584,0.017 2.411413,-0.0687 2.107485,-0.28841 4.217228,-0.53758 6.329463,-0.78253 0.628961,-0.0731 2.344914,0.13752 2.752208,-0.39904 0.199145,-0.26241 0.04671,-0.59997 -0.251217,-0.68766 -0.47467,-0.13979 -1.202441,-0.0676 -1.689007,-0.005 m 61.506872,5.17596 c -0.93757,0.38951 0.37769,1.12081 0.79693,1.17649 2.43092,0.32264 5.04797,0.0487 7.50452,0.11298 0.54222,0.0142 1.96242,0.54746 2.37978,0.1719 0.29199,-0.26321 0.11117,-0.63094 -0.17392,-0.79808 -0.53856,-0.31495 -1.30297,-0.33151 -1.9091,-0.39066 -2.10672,-0.20567 -4.29324,0.0253 -6.40125,0.0453 -0.44221,0.005 -0.97348,0.0217 -1.39767,-0.11958 -0.26907,-0.0897 -0.49585,-0.32448 -0.79928,-0.19837 M 126.459,243.02019 c -0.30429,0.1729 -0.22722,0.55273 -0.0887,0.80691 0.32816,0.60117 0.83093,1.10861 1.18931,1.69514 1.52507,2.49645 3.20786,4.8844 4.75431,7.36915 0.42582,0.68381 0.87153,1.35738 1.26125,2.06173 0.14211,0.25711 0.38277,0.53876 0.70766,0.36812 0.87225,-0.45848 -0.52028,-2.09378 -0.80973,-2.5742 -1.53527,-2.54283 -3.28651,-4.9258 -4.8542,-7.44296 -0.4185,-0.67131 -0.9063,-1.28097 -1.37346,-1.91631 -0.17819,-0.24177 -0.4526,-0.55661 -0.78636,-0.36758 m -31.357358,4.33862 c -0.285699,0.15235 -0.382358,0.53986 -0.526772,0.80585 -0.365539,0.67308 -0.754946,1.3277 -1.150535,1.98378 -1.507453,2.49868 -2.979943,5.02247 -4.532064,7.49381 -0.363545,0.57891 -0.985526,1.29404 -1.086819,1.98393 -0.04789,0.32656 0.156797,0.78764 0.560342,0.67458 0.316741,-0.0889 0.456839,-0.48743 0.603072,-0.74533 0.396356,-0.69876 0.846492,-1.365 1.254676,-2.0571 1.591519,-2.69787 3.2313,-5.36472 4.791741,-8.0818 0.262377,-0.45701 0.68768,-1.07769 0.720035,-1.61693 0.02062,-0.34502 -0.305029,-0.6151 -0.633676,-0.44079 z"
       id="path422"
       inkscape:label="play" /></g></svg>
