<?xml version="1.0" encoding="UTF-8" standalone="no"?>
<!-- Created with Inkscape (http://www.inkscape.org/) -->

<svg
   width="97.895836"
   height="107.08159"
   viewBox="0 0 97.895836 107.08159"
   version="1.1"
   id="svg5"
   xml:space="preserve"
   xmlns:inkscape="http://www.inkscape.org/namespaces/inkscape"
   xmlns:sodipodi="http://sodipodi.sourceforge.net/DTD/sodipodi-0.dtd"
   xmlns="http://www.w3.org/2000/svg"
   xmlns:svg="http://www.w3.org/2000/svg"><sodipodi:namedview
     id="namedview7"
     pagecolor="#ffffff"
     bordercolor="#000000"
     borderopacity="0.25"
     inkscape:showpageshadow="2"
     inkscape:pageopacity="0.0"
     inkscape:pagecheckerboard="0"
     inkscape:deskcolor="#d1d1d1"
     inkscape:document-units=""
     showgrid="false" /><defs
     id="defs2" /><g
     inkscape:label="Layer 1"
     inkscape:groupmode="layer"
     id="layer1"
     transform="translate(-17.146828,-95.679029)"><g
       style="fill:none"
       id="g191"
       transform="matrix(1.2340918,0,0,1.2340918,16.530381,104.72015)"><path
         opacity="0.689993"
         d="m 73.3939,12.3541 c 7.7794,9.147 7.0355,21.95 5.2764,33.8269 C 76.9054,58.0975 74.379,71.3829 63.7978,77.146 53.399,82.8099 41.4094,76.7372 30.3528,72.4978 19.1426,68.1994 6.04088,64.6992 1.92666,53.4225 -2.33922,41.7301 3.64016,29.2138 10.8624,19.0765 17.8583,9.25695 27.7271,1.66827 39.7168,0.379327 52.1802,-0.960541 65.274,2.8067 73.3939,12.3541 Z"
         fill="#b5bbfc"
         id="path182" /></g><path
       style="fill:#070707;stroke:none;stroke-width:0.0736502"
       d="m 101.34179,136.43797 c -2.565971,-0.9897 -5.270399,-1.44169 -7.954207,-1.98884 -7.381953,-1.50489 -14.891322,-1.91115 -22.389642,-2.43671 -7.827903,-0.54878 -15.575749,-0.8218 -23.420739,-0.28149 -3.67772,0.25335 -7.298875,0.22513 -10.973869,0.0642 -1.558363,-0.0683 -3.650321,-0.35832 -4.933453,0.76154 -0.746444,0.65136 -1.124123,1.70057 -1.390073,2.62923 -0.591926,2.067 -0.693858,4.27952 -0.906634,6.40757 -0.82709,8.27231 -0.885127,16.55066 2.22e-4,24.82008 0.234723,2.19257 0.554585,4.37335 0.875995,6.55487 0.139199,0.94493 0.232145,2.23528 0.985143,2.9217 0.872901,0.79542 2.280282,0.78805 3.380246,0.93904 2.639179,0.36382 5.252212,0.73723 7.880563,1.17767 5.60043,0.93977 11.138699,1.56432 16.792229,1.95172 5.779178,0.39551 11.593266,0.14288 17.38143,0.37783 6.305921,0.25557 12.613324,0.14434 18.928084,0.14434 1.25942,0 2.49526,0.0582 3.756157,0.002 1.076768,-0.0471 2.108598,-0.10603 2.758188,-1.10771 0.91695,-1.41407 1.09371,-3.45124 1.3235,-5.08186 0.46179,-3.27521 0.83078,-6.57916 1.15999,-9.86911 0.54502,-5.45084 0.50304,-10.87075 0.50304,-16.35033 0,-2.73616 0.32995,-6.0821 -0.62161,-8.6907 -0.36089,-0.99171 -1.09592,-1.87352 -1.70427,-2.72506 -1.3581,-1.90098 -2.910652,-3.65445 -4.312219,-5.52377 -3.803293,-5.07367 -7.371641,-10.37206 -10.939251,-15.61381 -3.631684,-5.33744 -7.491687,-10.59877 -11.821581,-15.39288 -0.71588,-0.792551 -1.685115,-1.582378 -2.232337,-2.504097 -0.220213,-0.371345 0.175289,-0.831365 0.07954,-1.251772 -0.181915,-0.800351 -1.518664,-0.826058 -2.099763,-0.485133 -0.633393,0.371424 -1.09076,1.563375 -0.567108,2.170838 0.578891,0.670733 1.325703,-0.02799 1.886181,0.457153 2.176361,1.883901 4.066959,4.450671 5.86255,6.694861 6.668285,8.33617 12.416674,17.39388 18.620966,26.07214 1.279304,1.78948 2.771462,3.40249 4.092742,5.15552 m -47.946237,-4.02928 c 1.673847,-0.19753 3.46951,-0.0211 5.155509,-0.0211 5.001875,0 9.976351,0.38991 14.950975,0.87128 5.875807,0.56858 11.789177,0.58074 17.60238,1.75067 2.749363,0.55334 5.560579,1.01113 8.248817,1.81768 1.251316,0.37539 2.713996,0.862 3.584546,1.89457 0.64959,0.76972 0.80427,1.75884 0.91989,2.72476 0.2077,1.74176 0.0965,3.48476 0.2158,5.22917 0.53691,7.83489 -0.20991,15.72798 -1.16441,23.49439 -0.28429,2.3185 -0.4861,4.64364 -1.02595,6.92311 -0.24083,1.01563 -0.54795,2.15205 -1.71973,2.33471 -2.279461,0.35572 -4.700355,0.0221 -6.996756,0.0221 -4.645116,0 -9.276236,0.0206 -13.919877,-0.0729 -10.451984,-0.20917 -21.102528,0.17233 -31.448604,-1.5415 -3.626384,-0.60099 -7.252031,-1.32424 -10.900217,-1.76172 -1.055849,-0.12741 -2.113023,-0.23494 -3.166957,-0.38003 -0.548029,-0.0751 -1.232828,-0.14288 -1.687029,-0.48977 -0.66123,-0.50525 -0.673383,-1.7028 -0.798882,-2.45624 -0.376501,-2.25958 -0.724791,-4.56631 -0.908328,-6.84946 -0.653424,-8.1295 -0.912819,-16.25244 0.05899,-24.37819 0.231997,-1.94017 0.314338,-3.91693 0.80389,-5.81836 0.213071,-0.82761 0.51025,-1.85002 1.205948,-2.40173 0.754841,-0.59855 1.764288,-0.46429 2.65111,-0.40353 1.347429,0.0923 2.703254,0.055 4.050756,0.1473 2.077744,0.14229 4.256389,-0.12049 6.333912,-0.21153 2.630267,-0.11517 5.34118,-0.1154 7.954213,-0.4237 m -11.636645,5.32874 c -0.666387,0.19355 -0.769349,0.89654 -1.074925,1.42602 -0.939922,1.62861 -1.146364,4.85184 1.0012,5.61964 1.555858,0.5562 3.448888,0.53478 5.081859,0.64717 2.627394,0.18095 5.252579,0.40912 7.880562,0.58919 8.813269,0.60416 17.671612,1.17185 26.514044,1.17185 3.147073,0 6.361901,0.45855 9.500866,0.15983 1.187974,-0.11314 2.426775,-0.10838 3.461553,-0.80419 1.025218,-0.68952 1.831682,-1.92507 1.841255,-3.18544 0.0034,-0.5828 -0.148036,-1.2698 -0.737227,-1.53008 -1.116545,-0.49316 -2.703709,-0.35103 -3.902729,-0.47093 -2.577021,-0.2577 -5.107634,-0.72906 -7.65961,-1.15998 -10.123948,-1.70935 -20.46936,-2.1676 -30.712104,-2.28942 -2.344136,-0.0279 -4.724803,-0.0473 -7.070412,-0.14987 -1.237911,-0.0542 -2.921185,-0.37319 -4.124332,-0.0238 m 0.518643,0.94242 c 0.376573,-0.10927 0.794685,0.0314 1.175235,0.0406 0.961796,0.0236 1.913577,0.002 2.872355,0.0682 2.358057,0.16144 4.782397,0.0949 7.144062,0.15275 9.544983,0.23383 19.123992,0.51481 28.576246,2.03302 3.096255,0.49744 6.165256,1.03973 9.279917,1.40857 0.832243,0.0986 1.671124,0.13088 2.504107,0.23061 0.280607,0.0335 0.76007,0.0127 0.976602,0.22189 0.740911,0.71575 -0.605406,2.37044 -1.123909,2.77021 -1.060561,0.81744 -2.777345,0.77546 -4.050751,0.77546 -2.876773,0 -5.746188,-0.21985 -8.617064,-0.22094 -8.873369,-0.003 -17.7446,-0.56564 -26.587697,-1.17186 -2.62813,-0.18015 -5.253242,-0.405 -7.880563,-0.5892 -1.420932,-0.0995 -3.057511,-0.0976 -4.419007,-0.54854 -1.691301,-0.56004 -1.220456,-3.11953 -0.514814,-4.24637 0.198192,-0.31648 0.255198,-0.80545 0.665281,-0.92439 m 42.273476,3.87363 c -0.317429,0.16107 -0.452209,0.52041 -0.623819,0.80801 -0.341734,0.57161 -1.574637,1.73019 -0.943458,2.47214 0.195176,0.2292 0.561213,0.1792 0.829302,0.17928 0.726188,2.8e-4 1.997392,0.13631 2.646987,-0.22295 0.963343,-0.53242 -0.475783,-1.87719 -0.771117,-2.35482 -0.146567,-0.23642 -0.240097,-0.51952 -0.431593,-0.72559 -0.184119,-0.19842 -0.455158,-0.28407 -0.706302,-0.15607 m -41.687442,8.4378 c -4.259997,0.16763 -6.951246,5.80031 -6.695606,9.53069 0.300123,4.3785 4.795949,8.13392 9.126061,7.95127 5.687409,-0.2401 8.534576,-7.50864 6.595147,-12.29663 -1.257945,-3.10508 -3.99228,-3.94544 -6.963399,-4.58184 -0.692237,-0.14826 -1.348975,-0.63155 -2.062203,-0.60349 m -0.736501,1.16352 c 0.938008,-0.1646 1.980746,0.27928 2.872355,0.49397 2.594841,0.6253 4.91482,1.27636 5.994015,4.0434 1.079195,2.76703 0.374658,5.91262 -1.345514,8.24881 -0.809563,1.09959 -1.939134,2.13585 -3.322799,2.39657 -4.083752,0.77038 -8.464978,-2.45328 -9.100283,-6.52098 -0.213733,-1.36842 0.136621,-2.79061 0.645323,-4.05076 0.732892,-1.8162 2.12105,-4.23606 4.256903,-4.61101 m 47.798927,1.62377 c -1.995914,0.21653 -3.543306,1.40524 -4.805671,2.9136 -2.141741,2.56081 -3.541835,6.06508 -3.127179,9.42721 0.455889,3.70386 3.432091,6.77361 7.343651,6.39504 1.492886,-0.14436 2.724319,-1.01563 3.829809,-1.96646 3.156645,-2.71694 4.403547,-7.48064 3.117615,-11.42534 -0.835194,-2.56377 -3.289955,-5.67696 -6.358225,-5.34405 m 0.07368,0.94935 c 2.44666,-0.19371 4.630378,2.45329 5.27041,4.542 1.151152,3.75616 0.134781,8.15896 -2.987253,10.69399 -0.869814,0.70558 -1.858933,1.44429 -3.019661,1.5253 -0.809409,0.0568 -1.587894,-0.028 -2.356801,-0.28797 -5.940617,-2.01286 -4.161236,-9.89931 -1.192393,-13.62528 1.040676,-1.30655 2.525463,-2.70959 4.285698,-2.84804 z"
       id="path1028"
       inkscape:label="radio" /></g></svg>
