<?xml version="1.0" encoding="UTF-8" standalone="no"?>
<!-- Created with Inkscape (http://www.inkscape.org/) -->

<svg
   width="106.8579"
   height="97.895844"
   viewBox="0 0 106.8579 97.895844"
   version="1.1"
   id="svg5"
   xml:space="preserve"
   xmlns:inkscape="http://www.inkscape.org/namespaces/inkscape"
   xmlns:sodipodi="http://sodipodi.sourceforge.net/DTD/sodipodi-0.dtd"
   xmlns="http://www.w3.org/2000/svg"
   xmlns:svg="http://www.w3.org/2000/svg"><sodipodi:namedview
     id="namedview7"
     pagecolor="#ffffff"
     bordercolor="#000000"
     borderopacity="0.25"
     inkscape:showpageshadow="2"
     inkscape:pageopacity="0.0"
     inkscape:pagecheckerboard="0"
     inkscape:deskcolor="#d1d1d1"
     inkscape:document-units=""
     showgrid="false" /><defs
     id="defs2" /><g
     inkscape:label="Layer 1"
     inkscape:groupmode="layer"
     id="layer1"
     transform="translate(-79.990686,-39.886866)"><g
       style="display:inline;fill:none"
       id="g343"
       transform="matrix(1.2351144,0,0,1.2351144,79.98858,39.748155)"><path
         opacity="0.689993"
         d="m 72.8358,12.3391 c 7.7729,9.1394 7.0296,21.9318 5.272,33.7989 C 76.3444,58.0446 73.82,71.319 63.2476,77.0774 52.8574,82.7365 40.8777,76.6689 29.8303,72.433 18.6293,68.1381 5.53849,64.6408 1.42767,53.3735 -2.83468,41.6908 3.13976,29.1849 10.356,19.0559 17.3461,9.2445 27.2067,1.6621 39.1865,0.374227 51.6397,-0.964531 64.7226,2.79959 72.8358,12.3391 Z"
         fill="#ffdda9"
         id="path334" /></g><path
       style="fill:#070707;stroke:none;stroke-width:0.0769985"
       d="m 102.99729,133.78869 c 0.47146,1.3367 3.03674,0.37498 4.08092,0.18634 1.97401,-0.35573 3.94547,-0.51281 5.92888,-0.74766 2.23064,-0.2641 4.44912,-0.6437 6.69886,-0.67065 1.74802,-0.0208 3.49188,0.1101 5.23589,0.15322 2.81599,0.0686 5.66054,-0.0308 8.46984,0.1617 0.67551,0.0462 1.41962,0.01 2.07896,0.17633 0.41232,0.10394 0.71023,0.47507 1.15497,0.47354 0.80271,-0.003 1.65478,-0.33572 2.46395,-0.41271 2.45048,-0.23408 4.93483,-0.3003 7.39185,-0.46816 2.14672,-0.14706 4.32038,0.07 6.46787,0.07 4.21104,0 8.3705,-0.0508 12.55075,0.50665 2.94826,0.39269 5.92194,0.45968 8.85481,0.98866 0.95556,0.17247 1.90186,0.40578 2.84895,0.61599 0.40886,0.0908 0.88393,0.28335 1.30743,0.17401 0.65372,-0.16786 0.45121,-1.04871 0.30953,-1.51532 0.61368,0.14783 1.5623,0.38807 1.69397,-0.46199 1.37288,0.0285 2.65798,0.53513 4.00391,0.67989 0.703,0.0747 1.29281,-0.0639 1.61235,-0.7569 0.59058,-1.27817 -0.0862,-3.25164 -0.14629,-4.6199 -0.16016,-3.6505 -0.4004,-7.43112 -0.15015,-11.08778 0.44351,-6.4751 0.45121,-12.98933 0.60983,-19.480602 0.15015,-6.107823 0.38422,-12.205637 0.38422,-18.325627 0,-3.592823 -0.0709,-7.19535 -0.22792,-10.77978 -0.0393,-0.896493 0.07,-1.796297 0.0739,-2.694945 0.002,-0.350806 0.10164,-0.745037 -0.0508,-1.076516 -0.29875,-0.652099 -1.29896,-0.441278 -1.87414,-0.466456 -1.81716,-0.07961 -3.65511,-0.151841 -5.46689,-0.07399 0.009,-0.463069 0.24024,-1.142195 -0.31569,-1.384971 -0.67528,-0.294596 -2.08666,0.398159 -2.76425,0.59258 -2.16288,0.620762 -4.37119,1.220888 -6.62186,1.401757 -7.63439,0.613677 -15.20719,1.943671 -22.40654,4.659252 -2.25837,0.851834 -4.48671,1.82671 -6.62187,2.953352 -0.86885,0.458448 -1.78074,1.347857 -2.69495,1.64946 -0.30321,0.100021 -0.55531,-0.166317 -0.76998,-0.342874 -0.51712,-0.425416 -1.01599,-0.872315 -1.53997,-1.289416 -1.93158,-1.537659 -4.1496,-2.549494 -6.46787,-3.361828 -9.1233,-3.19659 -19.03802,-3.240865 -28.48942,-4.806473 -1.394519,-0.230996 -2.748691,-0.831122 -4.157916,-0.981422 -0.47639,-0.05082 -0.7224,0.175017 -1.154977,0.270187 -0.413019,0.09086 -1.038016,-0.02526 -1.46297,-0.06568 -0.679897,-0.06468 -2.230953,-0.465532 -2.714811,0.184411 -0.292748,0.393308 -0.006,0.911662 0.163159,1.291649 0.485245,1.089759 0.918284,2.191761 1.334229,3.310933 0.661571,1.780127 0.886098,3.752441 1.161368,5.620885 0.363587,2.468493 0.735566,4.935985 1.178384,7.39185 0.999285,5.542501 1.720453,11.097014 2.104675,16.708661 0.460605,6.725583 0.314924,13.501603 0.314924,20.250583 0,3.48033 0.177096,7.01533 -0.25294,10.47179 -0.113187,0.91012 -0.284048,1.82178 -0.568634,2.69494 -0.146758,0.45044 -0.470306,1.05796 -0.27627,1.53689 0.298215,0.73457 1.653464,0.1848 2.251666,0.23869 0.514195,0.0462 0.840437,0.68298 1.387126,0.83005 0.883707,0.23792 2.203237,-0.1563 3.079937,-0.37268 m 75.30447,-69.683501 c -0.77383,11.407009 0.35651,22.897409 0.0762,34.341301 -0.13474,5.49361 -0.30106,10.98891 -0.54129,16.47767 -0.27643,6.30463 -0.71686,12.66778 0.08,18.94161 -1.62313,-0.0708 -3.39948,-0.62908 -5.0049,-0.93938 -2.57791,-0.49664 -5.17198,-0.87393 -7.77685,-1.19502 -1.56229,-0.1925 -3.13152,0.002 -4.69689,-0.10548 -3.21392,-0.22022 -6.39395,-0.6953 -9.62481,-0.6722 -4.62915,0.0324 -9.17483,0.49356 -13.70572,1.37211 0.36458,-4.61914 -0.12366,-9.36224 0.08,-14.01372 0.1707,-3.89842 0.21421,-7.80371 0.38499,-11.70376 0.23038,-5.26076 0.61298,-10.510513 0.61298,-15.784675 0,-3.547934 0.015,-7.248632 -0.32108,-10.779781 -0.0999,-1.049719 -0.12682,-2.105522 -0.21128,-3.156936 -0.0297,-0.369823 -0.19143,-0.89141 0.0398,-1.218577 0.51774,-0.732486 1.72938,-1.270243 2.49452,-1.707286 2.2646,-1.293574 4.72385,-2.347297 7.16085,-3.266659 4.65764,-1.756642 9.47928,-3.021726 14.39871,-3.784627 2.55712,-0.396541 5.14966,-0.469228 7.69985,-0.835586 2.07203,-0.297677 4.12557,-0.785 6.15987,-1.267087 0.8901,-0.210976 1.78251,-0.622301 2.69494,-0.701917 m -82.61932,1.154976 c -0.639472,-0.05051 -1.833949,-0.336637 -2.063096,0.539066 -0.117191,0.4479 0.24601,0.923828 0.422336,1.308897 0.405859,0.886329 0.665575,1.848424 0.973415,2.771943 1.07921,3.23763 1.705284,6.589372 2.346142,9.932798 0.915127,4.774057 1.184082,9.649751 1.645226,14.475705 0.715854,7.492486 1.154207,15.103626 1.064577,22.637536 -0.0383,3.21777 -0.244082,6.58414 -0.637621,9.77881 -0.206972,1.6801 -0.992895,3.7914 -0.594043,5.46688 l -1.385972,0.154 c 1.375192,-5.94428 0.923981,-11.95093 0.923981,-18.01763 0,-6.07279 0.02279,-12.12179 -0.391922,-18.171633 -0.374751,-5.467274 -1.307895,-10.84623 -2.219787,-16.24667 -0.484397,-2.868577 -0.831507,-5.761023 -1.347858,-8.623825 -0.23115,-1.281484 -0.537603,-2.554499 -1.00098,-3.772922 -0.354886,-0.932913 -0.948158,-1.948677 -1.122329,-2.925941 0.780687,0.0022 3.240248,-0.225682 3.387931,0.692986 m 0.923981,-0.46199 c 1.162522,0.09494 2.32004,0.451134 3.464929,0.657258 1.92542,0.346493 3.90382,0.584418 5.85188,0.79293 4.32747,0.4633 8.63338,1.006831 12.93575,1.6741 2.81113,0.435965 5.6824,0.917975 8.39282,1.803611 2.56459,0.837975 5.03209,1.78313 7.23785,3.365602 0.61815,0.443433 1.73586,1.120096 2.09952,1.796296 0.14614,0.271805 -0.0896,0.558778 -0.0742,0.84398 0.0401,0.745499 0.20404,1.472826 0.20774,2.232954 0.0111,2.30926 0.23076,4.617674 0.23091,6.929859 2.4e-4,3.050986 0.22784,6.101357 0.15285,9.162814 -0.12951,5.288329 -0.45737,10.576971 -0.68883,15.861681 -0.23677,5.4076 -0.388,10.82906 -0.388,16.24666 0,1.28742 -0.0318,2.64567 0.0901,3.92692 0.046,0.48278 0.24732,1.46144 -0.0919,1.87877 -0.25186,0.30953 -1.18832,-0.0208 -1.53812,-0.03 -1.64307,-0.04 -3.28891,-0.11242 -4.9279,-0.22484 -6.09882,-0.41733 -12.35224,-0.35342 -18.40263,0.51127 -1.725,0.24639 -3.43906,0.57903 -5.15889,0.86161 -0.36321,0.06 -1.50078,0.44352 -1.76912,0.11397 -0.25248,-0.31108 -0.15939,-1.04334 -0.15554,-1.41678 0.0135,-1.31667 0.29344,-2.6218 0.44975,-3.92692 0.56771,-4.74156 1.10293,-9.37918 0.77499,-14.16771 -0.93656,-13.67742 -2.49601,-27.580792 -5.989972,-40.886198 -0.721091,-2.745842 -1.826711,-5.316588 -2.703878,-8.007837 m 89.0102,0.692986 c 0,6.90314 0.32185,13.804355 0.15322,20.712577 -0.16863,6.871495 -0.24024,13.76709 -0.54129,20.635582 -0.14553,3.33034 -0.38192,6.67345 -0.38192,10.0098 0,3.76445 -0.34341,7.64594 0.0993,11.39576 0.12012,1.02331 0.15092,2.0551 0.27335,3.07994 0.0446,0.37113 0.19788,0.90011 -0.10395,1.20426 -0.21406,0.21559 -0.55208,0.097 -0.80772,0.0369 -0.70761,-0.16786 -1.46682,-0.25333 -2.15595,-0.47123 0.93398,-0.77691 0.61598,-2.80505 0.61598,-3.92692 0,-3.56734 -0.0762,-7.13544 0.0801,-10.70278 0.36652,-8.36519 0.40887,-16.71991 0.61369,-25.101492 0.11549,-4.696752 0.38421,-9.388112 0.38421,-14.090714 0,-3.024113 0.15785,-6.059854 0.23177,-9.085815 0.0177,-0.715008 0.55824,-2.518696 0.0439,-3.0496 -0.74689,-0.771371 -2.37386,-0.06923 -3.2786,-0.03034 -0.30799,-0.644862 -1.00021,-0.538066 -1.61697,-0.615988 v -0.153997 l 6.39088,0.153997 m -82.69633,67.296699 c -0.67427,0.0293 -2.54518,0.80231 -3.033505,0.20789 -0.254711,-0.31031 -0.111032,-0.92475 -0.06837,-1.28588 0.12466,-1.05641 0.190645,-2.10744 0.391765,-3.15693 0.32894,-1.7163 0.36536,-3.42566 0.48409,-5.1589 0.13714,-2.00273 0.37807,-3.99545 0.37807,-6.00588 0,-7.91174 -0.31169,-15.83288 -1.06489,-23.715513 -0.414333,-4.335705 -0.671507,-8.712604 -1.418315,-13.012735 -0.571637,-3.291529 -1.231744,-6.569584 -2.169354,-9.778802 -0.453675,-1.55275 -1.310899,-3.10781 -1.58432,-4.696903 0.346493,0.0072 0.908736,0.0031 1.193553,0.22622 0.253478,0.198734 0.322392,0.641243 0.427495,0.928756 0.281506,0.769599 0.578412,1.534194 0.842671,2.309953 1.303275,3.825667 2.149951,7.899038 2.94157,11.857759 1.06212,5.311428 1.76434,10.724341 2.47026,16.092672 0.94539,7.190113 1.75826,14.457843 1.67195,21.713563 -0.0537,4.51749 -1.46266,8.97108 -1.46266,13.47473 m 76.61344,-0.231 -0.76999,-0.077 c -0.5513,-2.96906 -0.28874,-6.3131 -0.15708,-9.31681 0.23717,-5.41607 0.37884,-10.83291 0.616,-16.24667 0.59057,-13.478806 -0.0739,-26.936901 -0.0739,-40.424178 l 0.61368,0.123429 0.0793,0.95455 7.6e-4,2.540948 0.38423,11.857759 -7.8e-4,19.095612 -0.8462,27.79644 0.15399,3.69592 m 3.69593,-65.679665 c -0.41502,1.742474 -0.15554,3.758832 -0.23408,5.543887 -0.2079,4.743565 -0.1771,9.500067 -0.38499,14.24471 -0.26949,6.152714 -0.15477,12.318903 -0.30569,18.479628 -0.21174,8.6269 -0.61521,17.23302 -0.61521,25.87147 l -1.23198,-0.154 0.92398,-38.19122 -0.53899,-25.56348 2.38696,-0.230995 m -77.83402,8.164297 c -0.74527,0.430961 0.29151,0.934762 0.68159,0.986274 2.27299,0.300063 4.57416,0.370285 6.85285,0.650174 0.74781,0.09178 2.13279,0.300756 2.74546,-0.23754 0.29876,-0.262487 0.34241,-0.812256 -0.12897,-0.911815 -0.46099,-0.0974 -0.97772,0.230302 -1.46151,0.190032 -2.09844,-0.17471 -4.20681,-0.512117 -6.31387,-0.525668 -0.59181,-0.0037 -1.87006,-0.443819 -2.37555,-0.151457 m 12.08875,0.230688 c -0.2648,0.156307 -0.30676,0.56794 -0.055,0.757048 0.39238,0.294828 1.18408,0.381605 1.66055,0.451827 2.7135,0.39993 5.44818,0.603822 8.16183,0.977572 0.79747,0.1098 2.37917,0.552618 3.04652,-0.08285 0.28212,-0.26857 0.19273,-0.743265 -0.19904,-0.837358 -0.65179,-0.156537 -1.53381,0 -2.23149,-0.09171 -2.53379,-0.333173 -5.09091,-0.475619 -7.62285,-0.824345 -0.62184,-0.08562 -2.23157,-0.662572 -2.76055,-0.350189 m 51.19257,2.186524 c -3.49188,0.440124 -7.10773,0.523205 -10.62579,0.506188 -0.8824,-0.0043 -1.72862,-0.266876 -2.61795,-0.227916 -1.65315,0.07254 -3.26088,0.728252 -4.92789,0.842056 -1.4853,0.101484 -2.9375,0.06368 -4.31192,0.671118 -0.37729,0.166933 -1.30358,0.283432 -1.20271,0.869312 0.0939,0.548922 0.77614,0.341026 1.12572,0.230226 0.54129,-0.171399 1.0541,-0.494716 1.61696,-0.588653 0.97557,-0.162929 2.01582,-0.0052 3.00294,-0.134748 1.56384,-0.205508 3.21238,-0.742342 4.7739,-0.811332 0.83005,-0.03665 1.63776,0.1888 2.46395,0.22499 1.05258,0.04604 2.10822,-0.102024 3.15694,-0.147992 1.13111,-0.04951 2.2599,0.04042 3.38793,-0.06691 1.07413,-0.102253 2.15827,-0.128587 3.23394,-0.230995 0.472,-0.04489 1.0387,0.04304 1.45835,-0.233074 0.68374,-0.449517 0.0354,-0.974108 -0.53437,-0.902268 m -4.54291,5.928879 c -1.3005,0.17702 -2.64258,0.148454 -3.92692,0.371518 -1.11879,0.194344 -2.24836,0.668192 -3.38794,0.67366 -1.56999,0.0076 -3.12382,-0.332403 -4.69689,-0.224066 -0.96711,0.06661 -1.8703,0.465609 -2.84895,0.477467 -0.67066,0.0082 -1.33438,-0.386147 -2.00196,-0.221062 -0.39038,0.09656 -1.80253,0.589192 -1.32822,1.166603 0.48894,0.596276 1.17346,-0.133593 1.68087,-0.185028 0.44429,-0.0452 1.03409,0.228686 1.49532,0.272036 0.64062,0.06013 1.37749,-0.09455 2.00195,-0.234768 1.99427,-0.448208 3.85069,0.111493 5.85189,0.02387 1.25969,-0.05521 2.45701,-0.534137 3.69592,-0.733255 1.19039,-0.191264 2.41698,-0.175556 3.61893,-0.319698 1.37364,-0.164853 2.70803,0.0549 4.08091,0.05498 0.43735,0 1.1981,0.121426 1.40522,-0.393077 0.33341,-0.825039 -0.84005,-0.625535 -1.25122,-0.664035 -1.39752,-0.130666 -2.99293,-0.255096 -4.38891,-0.06514 m -54.1299,1.1549 c -0.7716,0.102562 -1.72661,0.178482 -2.3858,0.637162 -0.27827,0.193651 -0.72709,0.834663 -0.21459,1.05434 0.44644,0.19134 1.47667,-0.50719 1.9844,-0.59874 1.28018,-0.230842 2.57714,-0.09764 3.84992,0.112726 0.55323,0.09147 1.45596,0.473078 1.99742,0.255403 0.91459,-0.367822 -0.29776,-1.020999 -0.68845,-1.107468 -1.44279,-0.319313 -3.06738,-0.549461 -4.5429,-0.353423 m 13.32072,0.161004 c -1.21688,0.234768 -2.53286,0.190956 -3.77291,0.261178 -0.34434,0.01948 -0.97958,-0.233613 -1.21812,0.117577 -0.38206,0.562474 0.44151,0.807944 0.83312,0.813257 0.98057,0.01332 1.94853,-0.07669 2.92595,-0.07669 0.52158,0 1.1452,0.09332 1.60972,-0.195037 0.62084,-0.385454 0.31047,-1.053107 -0.37776,-0.920285 m 3.08449,0.325472 c -0.3729,0.156076 -0.38122,0.666421 0,0.820419 0.29459,0.118962 0.68398,0.03157 0.99644,0.06845 0.82234,0.09702 2.65613,0.650945 3.37653,0.14291 0.33895,-0.23908 0.25864,-0.727943 -0.14406,-0.833431 -0.92522,-0.242469 -2.1963,-0.255404 -3.15548,-0.255481 -0.32824,0 -0.76444,-0.07215 -1.07343,0.05713 m 32.71979,6.443383 c -1.75941,0.230995 -3.55194,0.230688 -5.31289,0.46199 -1.87953,0.246858 -3.87918,0.505573 -5.77489,0.506342 -0.41886,1.55e-4 -1.7979,-0.218444 -1.6647,0.535678 0.0793,0.452906 0.63832,0.372211 0.97172,0.395157 0.98943,0.06814 1.93651,-0.03742 2.92594,-0.08085 4.22875,-0.185412 8.38205,-0.772987 12.62774,-0.772987 1.32207,0 2.68879,-0.03511 4.00393,0.09009 0.49047,0.04666 1.35132,0.245548 1.72476,-0.199349 0.24177,-0.288667 0.0677,-0.671272 -0.26334,-0.7706 -0.55054,-0.165008 -1.27047,-0.05321 -1.84642,-0.108029 -2.31534,-0.220369 -5.0819,-0.360661 -7.39185,-0.05744 m -48.12402,3.618927 c -0.77099,0.102484 -1.72831,0.02433 -2.4628,0.231764 -0.27018,0.07631 -0.51558,0.35504 -0.41332,0.651176 0.1339,0.387688 0.70615,0.331556 1.02816,0.309534 1.07767,-0.07376 2.14964,-0.26857 3.23393,-0.221139 1.32422,0.05798 2.59331,0.547459 3.92692,0.57795 1.24222,0.02834 2.46041,-0.292825 3.69593,-0.346955 1.76958,-0.07746 3.63594,0.106027 5.38988,0.337638 1.31891,0.174248 2.75617,0.392153 4.08093,0.220061 0.47962,-0.06237 1.08983,-0.102715 1.42955,-0.500181 0.26109,-0.30553 0.15492,-0.768521 -0.27573,-0.81603 -0.47516,-0.05236 -0.98142,0.25294 -1.46182,0.286665 -1.08252,0.07585 -2.16096,-0.10387 -3.23394,-0.21113 -1.89392,-0.189338 -3.87017,-0.478391 -5.77488,-0.395001 -1.27671,0.0559 -2.57244,0.432885 -3.84992,0.378986 -1.79914,-0.07592 -3.48094,-0.746807 -5.31289,-0.503338 m 38.94812,5.24213 c -0.84006,0.0971 -1.68781,-0.0103 -2.52786,0.0932 -0.2849,0.0352 -0.67759,0.008 -0.79925,0.33833 -0.22483,0.61291 0.59135,0.6076 0.95324,0.6076 0.92322,7e-5 1.85027,-0.0397 2.77195,-0.009 0.44274,0.0147 1.11956,0.13082 1.53535,-0.0372 0.45198,-0.18257 0.31338,-0.72918 -0.0739,-0.88579 -0.54438,-0.2203 -1.28819,-0.17294 -1.85951,-0.10688 m 7.17394,3.73404 c 0.003,3.88688 0.11242,7.74512 0.37806,11.62676 0.0686,0.9979 -0.20481,3.25627 0.85699,3.8145 0.65449,0.34418 1.64469,0.02 2.30688,-0.14706 1.5469,-0.39192 3.09226,-0.82235 4.6969,-0.89242 1.6547,-0.0724 3.20776,-0.0524 4.8509,0.18326 0.70916,0.10164 1.49223,0.0555 1.95269,-0.57287 0.73687,-1.00483 0.30953,-2.77194 0.28104,-3.92538 -0.0786,-3.22138 0.52975,-6.57374 0.10857,-9.7788 -0.13552,-1.03601 0.29875,-3.20174 -0.8054,-3.82659 -0.93938,-0.53144 -2.69649,0.34804 -3.69285,0.49472 -2.39234,0.35242 -4.77853,0.66496 -7.16085,1.07967 -1.14189,0.19873 -2.45394,0.31916 -3.54193,0.7194 -0.58134,0.21382 -1.18347,1.07605 -0.231,1.22481 m 14.09072,-2.61795 c 0.40732,1.45027 0.30799,3.04914 0.30799,4.54291 0,2.54526 -0.077,5.07782 -0.077,7.62285 0,0.98173 0.13706,2.03738 0.0224,3.00294 -0.0385,0.31722 0.0146,0.71762 -0.27489,0.93475 -0.43272,0.32493 -1.25892,0.0324 -1.7494,-0.0108 -1.47837,-0.12936 -2.90284,-0.28259 -4.38891,-0.14091 -1.54228,0.14707 -3.05068,0.49587 -4.54291,0.89934 -0.32801,0.0886 -1.34824,0.47509 -1.62159,0.19327 -0.22252,-0.23023 -0.20789,-0.80694 -0.22791,-1.1057 -0.0631,-0.92321 -0.0962,-1.84873 -0.15939,-2.77195 -0.24716,-3.61337 -0.17016,-7.25086 -0.45506,-10.85677 l 10.54878,-1.71514 2.61795,-0.59481 m -54.1299,3.07994 c 1.09654,0.67242 2.86665,0.244 4.08092,0.16085 1.2868,-0.0881 2.56443,0.12342 3.84992,0.0671 1.31552,-0.0576 2.62835,-0.37891 3.92692,-0.58034 1.07813,-0.16717 2.2616,-0.0709 3.31055,-0.29013 0.37252,-0.0778 0.60475,-0.46399 0.33895,-0.79901 -0.28559,-0.35997 -0.93661,-0.25695 -1.33954,-0.25217 -1.28272,0.0152 -2.58777,0.29521 -3.84992,0.5068 -3.25988,0.54669 -6.57213,0.2775 -9.85581,0.44682 -1.49084,0.0768 -2.85117,0.49633 -4.38891,0.42904 -1.38766,-0.0607 -2.69763,-0.078 -4.08091,0.10171 -0.42734,0.0555 -1.16322,-0.0369 -1.28303,0.51843 -0.18495,0.85738 1.67341,0.43127 2.13001,0.37999 1.65177,-0.18541 3.27674,0.12019 4.9279,0.0797 0.7693,-0.0188 1.71576,-0.14507 2.23295,-0.76883 m 32.26242,2.34266 c -0.63139,0.0829 -1.39983,-0.0498 -2.00041,0.19011 -0.34188,0.13667 -0.53515,0.61545 -0.2079,0.88548 0.26949,0.22222 0.67296,-0.01 0.97634,-0.0269 0.89087,-0.0496 1.89801,0.0624 2.77194,-0.0979 0.45198,-0.083 0.77383,-0.71593 0.22638,-0.93699 -0.45275,-0.18287 -1.28896,-0.0764 -1.76635,-0.0138 m -25.71748,5.69758 c -0.99243,0.1309 -2.00426,0.0893 -3.00293,0.22022 -0.84668,0.11165 -1.76181,0.38884 -2.61795,0.30414 -1.09669,-0.1078 -2.22194,-0.21559 -3.31093,-0.35804 -1.18717,-0.15631 -2.91224,-0.0247 -4.07954,0.22637 -0.38276,0.0824 -0.53937,0.56749 -0.21066,0.81773 0.27141,0.20713 0.73595,0.154 1.05626,0.14014 0.87886,-0.0385 1.73308,-0.15092 2.61795,-0.15092 1.52842,0 3.01719,0.42118 4.54291,0.38422 1.8284,-0.0455 3.62123,-0.53822 5.46688,-0.53822 1.10447,0 2.21318,-0.0308 3.31094,0.0993 0.34357,0.04 0.92475,0.18172 1.14004,-0.19403 0.33494,-0.58442 -0.52706,-0.7954 -0.90904,-0.85007 -1.2319,-0.17786 -2.76595,-0.26333 -4.00393,-0.10087 m 26.10247,0.76999 c -0.76767,0.10086 -1.54382,0.0932 -2.30995,0.20405 -0.29567,0.0424 -0.65372,0.1794 -0.66373,0.53436 -0.0123,0.42427 0.42427,0.46816 0.74073,0.42811 1.05026,-0.13013 2.20523,0.0115 3.23394,-0.22791 0.37806,-0.0886 0.80155,-0.6745 0.29028,-0.91398 -0.33726,-0.15784 -0.93245,-0.0716 -1.29127,-0.0246 m 3.31094,5.08574 c -1.39907,0.22561 -2.81661,0.34188 -4.23492,0.3488 -0.395,0.002 -1.22274,-0.15861 -1.40445,0.31647 -0.2849,0.74689 0.94477,0.60752 1.32745,0.60752 1.12803,0 2.26607,0.0485 3.38794,-0.0639 0.45891,-0.0462 1.05796,-0.0369 1.4545,-0.30953 0.6106,-0.41964 0.0238,-0.98866 -0.53052,-0.89935 m -39.11521,3.19775 c -0.46669,-0.81926 -2.11907,-0.22484 -2.84894,-0.11087 -0.31955,0.05 -0.91859,-0.0408 -0.9651,0.42041 -0.0451,0.44659 0.48732,0.53282 0.8111,0.53744 0.73372,0.008 2.58045,-0.0154 3.07994,-0.53898 0.26126,0.40193 0.73064,0.32493 1.15498,0.24639 0.74234,-0.1386 1.55583,-0.13706 2.30995,-0.0855 3.75645,0.25717 7.41857,-0.62292 11.16477,-0.62292 1.04464,0 2.12015,0.0762 3.15694,0.20943 0.35712,0.0454 0.93976,0.15246 1.09446,-0.29105 0.1881,-0.53899 -0.48317,-0.70607 -0.86346,-0.75305 -1.15653,-0.14475 -2.3001,-0.16631 -3.46493,-0.16631 -3.32125,0 -6.60993,0.70915 -9.9328,0.69298 -1.42779,-0.007 -3.46431,-0.47816 -4.69691,0.46199 m 67.52763,10.31779 v 0.077 h -0.46199 l 0.46199,-0.077 m 0.231,0.10241 c 0.0593,0 0.0123,0.0385 -0.0254,0.0262 z"
       id="path357" /></g></svg>
