<?xml version="1.0" encoding="UTF-8" standalone="no"?>
<!-- Created with Inkscape (http://www.inkscape.org/) -->

<svg
   width="138.41898"
   height="147.55225"
   viewBox="0 0 138.41898 147.55225"
   version="1.1"
   id="svg5"
   xml:space="preserve"
   xmlns:inkscape="http://www.inkscape.org/namespaces/inkscape"
   xmlns:sodipodi="http://sodipodi.sourceforge.net/DTD/sodipodi-0.dtd"
   xmlns="http://www.w3.org/2000/svg"
   xmlns:svg="http://www.w3.org/2000/svg"><sodipodi:namedview
     id="namedview7"
     pagecolor="#ffffff"
     bordercolor="#000000"
     borderopacity="0.25"
     inkscape:showpageshadow="2"
     inkscape:pageopacity="0.0"
     inkscape:pagecheckerboard="0"
     inkscape:deskcolor="#d1d1d1"
     inkscape:document-units=""
     showgrid="false" /><defs
     id="defs2" /><g
     inkscape:label="Layer 1"
     inkscape:groupmode="layer"
     id="layer1"
     transform="translate(-15.040503,-20.779991)"><g
       style="fill:none"
       id="g327"
       transform="matrix(1.5023295,0,0,1.5023295,14.933402,40.476148)"
       inkscape:label="blob"
       inkscape:export-filename="wordsmith.svg"
       inkscape:export-xdpi="96"
       inkscape:export-ydpi="96"><path
         opacity="0.689993"
         d="m 72.8975,12.5995 c 7.772,9.1384 7.0288,21.9294 5.2714,33.7952 C 76.4057,58.3001 73.8816,71.573 63.3103,77.3307 52.9213,82.9893 40.9429,76.9223 29.8966,72.6868 18.6969,68.3925 5.60747,64.8955 1.4971,53.6294 -2.76479,41.948 3.209,29.4434 10.4245,19.3156 17.4138,9.50523 27.2734,1.92365 39.2519,0.635917 51.7036,-0.702696 64.7851,3.06102 72.8975,12.5995 Z"
         fill=""
         id="path318" /></g><g
       id="g1599"
       inkscape:label="wordsmith"
       style="display:none"><path
         style="fill:#040404;stroke:none;stroke-width:0.0846667"
         d="m 99.888312,27.354802 c -1.35044,-0.445177 -2.11328,-0.04741 -3.13267,0.846667 -0.13682,-1.036405 -0.6389,-2.173478 -1.52595,-2.782486 -0.74879,-0.514096 -1.85191,-0.340106 -2.18795,0.5831 -0.19313,0.530436 -0.0502,1.161626 0.35856,1.547452 0.22276,0.210228 0.89484,0.516467 0.71399,0.923883 -0.14774,0.332655 -0.7962,0.224959 -1.08398,0.296249 -0.5334,0.132249 -0.89603,0.511302 -1.18534,0.955802 h -0.0847 c 0.22978,-1.280838 -0.497,-3.547026 -1.86276,-3.977894 -1.08762,-0.34307 -2.23901,0.65515 -1.70374,1.775036 0.25569,0.53484 0.74743,0.977308 1.11116,1.440858 -1.65921,0.496231 -1.2534,1.779524 -1.60866,3.132666 -0.96766,-0.743288 -2.03683,-1.696466 -3.302004,-1.833033 -0.715264,-0.07713 -1.51274,0.267293 -1.57988,1.071203 -0.103971,1.246124 1.139698,1.018963 1.582758,1.757256 0.380408,0.6339 0.138007,1.53814 0.195326,2.221908 0.04216,0.503512 0.335788,0.91931 0.563796,1.354666 h -0.08467 c -0.408009,-0.495469 -0.897551,-0.493691 -1.439333,-0.75565 -0.523918,-0.253322 -0.933704,-0.68961 -1.524,-0.803232 -0.80899,-0.155702 -1.686052,0.398949 -1.546945,1.304882 0.289645,1.886289 1.919478,3.284897 3.832945,2.624667 -0.263314,0.938699 0.144695,1.453303 0.508,2.286 -1.36271,0.871389 -0.735161,2.595118 0.846667,2.455333 0,5.526532 1.77191,11.938762 7.366,14.393333 -2.27296,2.145284 -3.55574,5.235702 -4.79772,8.043333 -2.834981,6.40842 -4.628559,13.278358 -6.325364,20.066 -0.522816,2.091351 -0.933026,4.223766 -1.287441,6.35 -0.262721,1.57607 -0.541951,3.072384 -0.294301,4.656666 0.303191,1.939713 0.06155,3.832013 0.69198,5.757333 0.239184,0.73067 0.613495,1.48336 1.049274,2.11667 0.244856,0.3556 0.637794,0.68072 0.769451,1.10066 0.31098,0.99145 -1.379982,3.39598 0.289729,3.76513 0.274151,0.0601 0.566081,0.044 0.845058,0.0449 0.597747,3.81762 1.655404,7.55904 2.412754,11.34534 1.03428,5.17144 1.81626,10.39452 2.78273,15.57866 0.57836,3.10304 1.13869,6.20946 1.70892,9.31334 0.39514,2.15053 0.67682,4.41875 1.56227,6.43466 -2.04199,-0.21336 -3.96892,-0.21505 -6.01134,0.009 -1.420792,0.15578 -3.943774,-0.17611 -5.068655,0.79586 -0.72136,0.624 -0.801709,1.52316 -0.873167,2.41216 -0.167217,2.07856 -0.187706,5.89957 1.711706,7.25847 1.283969,0.91779 3.134529,0.99314 4.653456,1.04309 2.28117,0.0754 4.58182,0.1795 6.858,0.3573 1.66962,0.13038 3.40614,0.26331 5.08,0.2286 0.91101,-0.0195 1.650998,-0.31073 2.031998,-1.1828 4.16221,2.30802 8.86375,1.69334 13.462,1.69334 h 3.21733 c 0.55033,0 1.14131,0.0389 1.56125,-0.38354 0.82466,-0.8272 0.79248,-2.83464 0.93134,-3.93446 0.16256,-1.29032 0.89577,-3.4417 0.27347,-4.65328 -0.48683,-0.94912 -1.74837,-1.32334 -2.68139,-1.65778 -2.62467,-0.9381 -6.39996,-1.21412 -9.144,-0.71628 0.91694,-5.43136 1.22089,-10.92962 2.30293,-16.34066 1.74837,-8.74184 4.76589,-17.55987 5.22055,-26.50067 0.11176,-2.19626 -0.64432,-4.67699 -0.95589,-6.858 -0.80264,-5.615097 -1.72297,-11.645141 -3.85826,-16.933337 1.524,-0.603419 3.05901,-1.444921 4.48733,-2.250778 0.54695,-0.308695 1.34028,-0.639064 1.6383,-1.22699 0.27686,-0.545422 -0.0635,-1.37143 -0.1524,-1.940898 -0.30734,-1.953091 -1.06934,-3.797131 -1.87875,-5.588 -1.9685,-4.352205 -3.96917,-8.637439 -6.78095,-12.530666 -1.60782,-2.226226 -3.78968,-4.041733 -5.35686,-6.265334 1.41224,-0.823891 1.6493,-1.857502 2.26652,-3.217333 1.52146,-3.347974 1.8813,-7.439406 1.88214,-11.091333 1.64677,0.250783 1.95411,-1.662091 1.21836,-2.787396 -0.34714,-0.53213 -0.94065,-0.772753 -1.21836,-1.361271 0.40894,0.17653 0.81619,0.329184 1.27,0.282279 2.66616,-0.275421 2.26653,-4.351443 -0.42333,-4.052231 -0.46905,0.05215 -0.87545,0.315045 -1.27,0.552619 -0.29887,-0.658537 -0.83905,-1.212257 -1.43933,-1.608666 l 0.508,-0.846667 c 2.42062,0.388874 3.93869,-3.274737 1.524,-4.480221 -1.4749,-0.736262 -1.7924,1.181269 -2.77538,1.732449 -0.43688,0.244771 -1.25052,-0.289983 -1.71196,-0.384895 0.18542,-0.791887 0.13293,-1.385908 -0.59266,-1.862666 l 0.254,-1.439334 c 2.2098,-1.49479 -0.71544,-4.447032 -2.48582,-2.279226 -0.237908,0.292015 -0.390308,0.636354 -0.444498,1.009226 -0.0787,0.54483 0.0229,1.077722 0.13632,1.608667 m -8.29734,3.048 v 0.338991 h -0.0847 l 0.0847,-0.338667 m 6.26534,4.448302 c 1.41647,-0.06824 2.490038,0.890778 3.555998,1.642787 0.38015,0.268393 0.91694,0.357463 1.2175,0.725255 0.35391,0.433916 0.43434,1.026752 0.79672,1.467527 0.31242,0.381085 0.76708,0.623655 1.03208,1.046057 0.27856,0.445177 0.33952,0.988822 0.66972,1.407329 0.32004,0.405977 0.87376,0.598763 1.0287,1.124373 0.38438,1.304714 -0.0804,3.303609 -0.21082,4.64837 -0.27009,2.784348 -0.47752,6.407911 -2.26653,8.708982 -0.69765,0.896705 -1.77969,1.531366 -2.77537,2.044107 -0.75438,0.388282 -1.600198,0.710269 -2.455338,0.753195 -5.76521,0.28956 -10.42695,-5.323586 -11.3096,-10.574951 -0.18813,-1.119378 -0.39726,-2.495635 -0.1756,-3.622887 0.10228,-0.520022 0.73965,-0.923036 1.05723,-1.326472 0.47795,-0.607145 0.79291,-1.418082 1.23114,-2.079837 0.81441,-1.229783 0.94539,-2.983823 1.93709,-4.115816 0.4627,-0.528151 1.31216,-0.207857 1.92574,-0.436118 0.57463,-0.213868 0.89967,-0.779864 1.45085,-0.999574 0.96876,-0.38608 2.26204,-0.362712 3.29049,-0.412327 m 1.21073,10.341186 c -0.38777,0.110236 -0.36068,0.644737 -0.36322,0.958596 -0.0102,1.032002 -0.0813,2.10185 -0.0203,3.130381 0.0195,0.32131 0.20913,0.724831 0.60198,0.622046 0.41148,-0.107527 0.49445,-0.601049 0.51223,-0.958596 0.0457,-0.962067 -0.0229,-1.919478 -0.0804,-2.878413 -0.0203,-0.344762 -0.14055,-1.019048 -0.65024,-0.874014 m -4.89094,0.09068 c -0.32952,0.186606 -0.2711,0.637794 -0.24266,0.9525 0.0772,0.852848 0.0662,1.78706 0.25358,2.621704 0.0751,0.334433 0.34476,0.738124 0.7438,0.56244 0.34019,-0.149775 0.33265,-0.587502 0.3153,-0.898313 -0.0486,-0.874437 -0.0879,-1.855809 -0.30184,-2.706201 -0.083,-0.329692 -0.37592,-0.754295 -0.76818,-0.53213 m 1.61502,8.100483 c -0.71087,0.315892 0.19371,1.21158 0.5422,1.38811 0.71442,0.361866 2.02167,0.184828 2.69477,-0.223266 0.39201,-0.237998 0.63246,-0.941578 -0.006,-1.037759 -0.66887,-0.101007 -1.31234,0.43815 -2.00999,0.288544 -0.38574,-0.08272 -0.80654,-0.599863 -1.22106,-0.415629 m 6.129188,5.044017 c 0.22436,1.738376 0.79248,3.459819 1.19295,5.164667 0.63077,2.686642 1.19719,5.379719 1.92447,8.043333 0.31835,1.164505 0.67818,2.318681 1.03632,3.471333 0.13039,0.419185 0.48514,1.055285 0.32004,1.496145 -0.15324,0.41004 -0.68241,0.702987 -1.00245,0.973582 -0.83481,0.705104 -1.73059,2.037926 -2.794,2.372529 -1.15147,0.362289 -2.1209,0.04767 -3.126738,0.947759 -1.51892,1.358561 -0.6858,3.172629 -1.93633,4.539318 -0.63441,0.692997 -1.46659,1.501817 -1.84912,2.370667 -0.20379,0.463042 -0.0606,0.968163 -0.26814,1.439333 -0.22504,0.510709 -0.88553,1.255776 -0.65955,1.846495 0.32757,0.856319 1.64727,0.05173 2.16721,-0.176022 0.60283,-0.264075 1.18364,-0.14588 1.778,-0.343662 1.00838,-0.335788 2.621278,-1.554056 3.217338,-2.427478 0.59182,0.320379 1.12268,0.718651 1.778,0.908558 2.26314,0.655659 4.47886,-0.167809 6.51933,-1.077891 1.70095,5.436108 2.92015,10.956713 3.72533,16.594664 0.18542,1.30048 0.40217,2.59504 0.59267,3.89467 0.0559,0.38693 0.28533,1.09982 -0.0254,1.42409 -0.40979,0.42757 -1.5113,0.0669 -2.0066,-0.0229 -1.95411,-0.35475 -3.86334,-0.76284 -5.842,-0.9779 -5.55075,-0.60452 -11.349398,-1.13707 -16.933328,-0.83481 -2.04335,0.11007 -3.98958,0.6096 -6.011341,0.83481 0.298027,-2.51798 1.039284,-5.03004 1.468459,-7.53533 1.754132,-10.240688 4.077382,-20.3962 6.256192,-30.564667 0.58767,-2.742861 1.22284,-5.474885 1.8332,-8.212666 0.28448,-1.275927 0.72272,-2.596219 0.85615,-3.894667 2.89814,1.031579 4.99618,1.141391 7.789338,-0.254 m 1.524,1.016 c 1.56802,1.896279 3.23426,3.720761 4.62364,5.757333 2.45788,3.602567 4.32224,7.457017 6.0833,11.43 0.70866,1.598337 1.4097,3.193711 1.78393,4.910667 0.10668,0.488696 0.38523,1.33714 0.18203,1.817115 -0.22098,0.522563 -1.10998,0.835745 -1.58157,1.079754 -1.46727,0.759799 -2.95317,1.660398 -4.48733,2.267797 0.0254,-1.816354 0.51816,-4.210304 -1.016,-5.588 0.51731,-0.929047 1.63576,-1.346369 2.07179,-2.370666 0.25823,-0.608161 -0.15579,-1.102953 -0.0263,-1.693334 0.14478,-0.655658 0.60029,-1.6902 -0.44026,-1.92405 -0.58759,-0.131995 -0.97113,0.407247 -1.46643,0.586232 -0.47075,0.17035 -1.14808,0.05698 -1.66285,0.152485 -1.02447,-3.874685 -2.14715,-7.689765 -3.05562,-11.599333 -0.32682,-1.407922 -1.22005,-3.38963 -1.00838,-4.826 m -10.837338,1.100667 c -0.51342,2.98069 -1.41215,5.93217 -2.05994,8.889999 -1.29624,5.919301 -2.49309,11.860361 -3.79137,17.78 -0.45153,2.058755 -0.92939,4.114461 -1.345273,6.180667 -0.112098,0.556852 -0.107696,1.868508 -0.856742,1.916938 -0.896958,0.058 -2.533988,-0.826686 -2.729822,-1.759204 -0.133181,-0.634069 0.178816,-1.477264 0.2921,-2.105068 0.286427,-1.587669 0.594868,-3.173645 0.977392,-4.741333 1.582335,-6.484366 3.326555,-13.079391 5.957655,-19.219333 0.96656,-2.25552 1.87596,-5.111242 3.556,-6.942666 m 11.683998,23.198666 c 0.59182,0.417999 1.08543,1.601385 1.90924,1.599268 0.20658,-5.08e-4 0.29887,-0.159766 0.32258,-0.34527 0.0982,-0.775293 0.41656,-1.42257 0.56218,-2.185331 0.4462,1.380235 0.55711,4.671229 -1.01684,5.367697 -0.84752,0.374904 -1.80086,-0.102532 -2.53916,-0.503598 -1.53416,-0.832866 -3.19108,-1.512485 -3.909898,-3.255433 -0.8145,-1.976035 1.292008,-4.19464 3.310458,-3.205903 0.77386,0.378968 1.27,1.721697 1.36144,2.52857 m 3.89467,-1.608667 c 0.43434,1.040469 0.7366,2.166197 0.7493,3.302 0.008,0.682583 -0.19389,1.350518 -0.15663,2.032 l -0.59267,0.254 0.16933,-2.709333 -0.16933,-2.878667 M 81.600308,95.003467 c 0.487426,0.385318 0.96266,0.806281 1.524,1.083056 0.887899,0.437727 1.7272,0.135467 1.608666,1.372278 -1.138428,-0.14732 -3.657599,-0.918041 -3.132666,-2.455334 m 0,3.217334 c 0.912707,0.546099 1.755902,0.885613 2.794,1.100666 l -1.016,5.418663 c -1.328928,-1.35805 -2.252218,-4.65412 -1.778,-6.519329 M 114.87431,111.1748 c -0.8382,10.8585 -4.80738,21.21577 -6.17559,32.004 -0.3429,2.70595 -0.60452,5.42121 -0.94149,8.128 -0.0965,0.77216 -0.0398,2.41131 -0.78994,2.86851 -0.80095,0.48768 -2.22928,0.094 -3.09965,-0.0305 -2.47735,-0.35306 -4.878488,-0.54949 -7.365998,-0.74422 -1.00051,-0.0787 -2.22496,-0.0432 -2.82372,-0.99653 -0.77394,-1.23359 -0.92617,-2.9972 -1.20641,-4.39928 -0.5958,-2.98111 -1.11219,-5.9817 -1.65007,-8.97467 -1.11498,-6.20268 -2.08001,-12.457 -3.36347,-18.62666 -0.48904,-2.3512 -1.06621,-4.68376 -1.58682,-7.02734 -0.25756,-1.15908 -0.639914,-2.36982 -0.714844,-3.556 6.941564,-1.07865 14.025884,-0.50376 20.997332,0.18119 1.53585,0.15071 3.06239,0.36322 4.572,0.6858 1.34112,0.28617 2.77199,0.70612 4.14867,0.48768 m -23.924258,-0.78317 c -0.45483,0.24046 -0.57413,1.11083 -0.7808,1.54517 -0.61629,1.29455 -1.64076,2.42062 -2.19685,3.72449 -0.18025,0.42333 0.005,1.00922 0.56761,0.81957 0.48108,-0.16256 0.78461,-0.75692 1.04123,-1.15739 0.71162,-1.10998 1.43942,-2.29786 1.85462,-3.556 0.11549,-0.34968 0.39311,-1.8415 -0.48581,-1.37584 m 8.53524,0.066 c -0.52239,0.17272 -0.38015,0.89832 -0.34459,1.3098 0.11091,1.29624 0.0542,2.59503 0.0711,3.89466 0.005,0.36492 0.0669,1.22344 0.65617,1.05664 0.505458,-0.14393 0.441958,-0.91101 0.443648,-1.31064 0.003,-1.27677 -0.0161,-2.53661 -0.0982,-3.81 -0.0263,-0.40894 -0.0415,-1.36821 -0.728138,-1.14046 m 10.420778,1.36229 c -0.56642,0.16764 -0.25739,1.02193 -0.13886,1.38684 0.37254,1.15147 0.6477,2.41046 1.2463,3.47049 0.20658,0.36576 0.62568,0.94826 1.12522,0.78909 0.4572,-0.14478 0.29887,-0.65193 0.13546,-0.95758 -0.64092,-1.19719 -1.05494,-2.44348 -1.49267,-3.72533 -0.12107,-0.35391 -0.35221,-1.11845 -0.87545,-0.96351 m -9.7409,27.35241 c -0.723898,0.20066 -0.530858,2.16408 -0.530858,2.73643 0,2.89899 -0.25146,5.82676 -0.40471,8.72067 -0.0279,0.52578 -0.083,2.91507 0.894078,2.65176 0.7493,-0.20151 0.27263,-2.16324 0.27263,-2.73643 0.002,-2.82279 0.33866,-5.64049 0.33866,-8.46667 0,-0.75607 0.14394,-1.6239 0.0381,-2.36643 -0.0415,-0.29295 -0.26585,-0.63415 -0.6079,-0.53933 z"
         id="path1442"
         inkscape:export-filename="wordsmith.svg"
         inkscape:export-xdpi="96"
         inkscape:export-ydpi="96" /><path
         style="display:none;opacity:0.5;fill:#020202;stroke:none;stroke-width:0.0850593"
         d="M 92.823776,34.354378 C 92.576599,34.23634 92.328998,34.11245 92.054682,34.07039 c -1.65268,-0.253206 -1.783474,1.692139 -2.5123,2.604393 -0.450156,0.563312 -1.063365,0.625637 -1.293219,1.410864 -0.224222,0.765723 -0.162538,1.716476 -0.505109,2.43361 -0.35417,0.741217 -1.139217,0.985011 -1.379733,1.890905 -0.28779,1.083884 -0.113996,2.381967 0.03749,3.476702 0.439404,3.17704 1.763772,7.140145 4.051499,9.490567 0.609116,0.625808 1.369927,0.574499 2.010274,1.064716 1.01191,0.774797 2.065802,2.203475 3.346485,2.517311 0.700579,0.171625 1.277267,-0.311382 1.962398,-0.348519 1.701322,-0.09214 3.377893,-0.922856 4.778033,-1.853935 0.48633,-0.32367 0.97095,-0.54991 1.32162,-1.037333 0.71414,-0.993316 0.95731,-2.231539 1.27642,-3.388176 0.52474,-1.903202 1.0469,-3.818442 1.37624,-5.766242 0.17236,-1.017233 0.39419,-2.102563 0.26791,-3.137519 -0.0503,-0.413558 -0.27985,-0.775475 -0.32679,-1.187169 -0.13565,-1.193187 -0.0112,-2.24434 -1.5264,-2.459133 -0.1425,-0.667104 -0.62967,-0.918444 -0.95987,-1.465898 -0.22184,-0.367683 -0.25938,-0.798795 -0.55289,-1.132304 -0.24487,-0.278136 -0.61004,-0.4256 -0.81567,-0.739436 -0.55204,-0.841109 -0.55715,-1.874453 -1.59723,-2.367213 -0.82761,-0.391851 -1.761037,0.08912 -2.644118,-0.06352 -1.082733,-0.186979 -1.470007,-0.79218 -2.644978,-0.337071 -0.874031,-1.568248 -2.48107,-0.735705 -2.900934,0.678382 m 12.03037,48.334708 c -0.29948,-2.554958 -4.25756,-2.248495 -5.307018,-0.422463 -0.651854,1.134164 -0.368589,2.884899 0.641608,3.7523 0.84385,0.72519 1.90099,1.04191 2.87109,1.506007 0.40358,0.193249 0.65784,0.577553 1.03411,0.810152 0.73291,0.453251 1.86512,0.319184 2.52296,-0.218778 0.41891,-0.34334 0.50766,-0.860781 0.63138,-1.356927 0.28668,-1.15826 1.02471,-3.783678 -0.35324,-4.501577 -0.72608,-0.378536 -1.38306,0.180278 -2.04089,0.431286 M 81.647081,97.522747 c -0.715,0.170444 -1.025655,0.85985 -1.013029,1.532289 0.02067,1.102364 0.436764,2.244594 0.703311,3.307104 0.151362,0.60377 0.219616,1.30335 0.50527,1.86132 0.270899,0.52914 0.832491,0.82847 1.424708,0.69618 1.477343,-0.3307 1.367369,-2.66349 1.574611,-3.82946 0.0908,-0.51048 0.232243,-1.106604 0.002,-1.60182 -0.249818,-0.536774 -0.835727,-0.619872 -1.250219,-0.976874 -0.534283,-0.461303 -1.149205,-1.178692 -1.946616,-0.988739 z"
         id="path1456"
         inkscape:label="path1456" /></g><g
       id="g1790"
       inkscape:label="together"><path
         style="opacity:0.55;fill:#010101;stroke:none;stroke-width:0.0846667"
         d="m 63.153363,117.93725 -4.74e-4,0.33867 c 4.255864,0.48009 8.352981,0.14314 12.643949,0.28376 3.09179,1.65541 6.369454,0.16502 8.637348,-0.0212 0.935716,-0.0452 1.840521,0.15667 2.763445,0.17659 2.468977,0.0534 5.445401,0.12651 7.891738,-0.27985 -0.26606,-1.72757 -1.012811,-3.71865 -1.266928,-5.45044 -0.758322,-1.98903 -1.091275,-2.72805 -1.637269,-5.33629 l -2.169366,-9.655048 -3.462247,-12.34069 -2.484801,-8.334511 3.692988,1.298517 5.754054,2.347225 6.94035,0.829337 2.58716,0.519648 4.30086,-0.414429 2.5094,0.171889 5.22661,-1.005453 5.63325,-1.186267 2.2719,-0.532862 1.59998,-0.946712 1.28471,-5.670874 c -0.47634,-0.237734 -0.80859,-0.586518 -1.35455,-0.689644 -0.85998,-0.162578 -1.86795,0.143521 -2.70891,0.30592 -0.94768,0.182824 -2.00191,0.276345 -2.96384,0.356025 -3.47428,0.288085 -7.05194,0.03628 -10.52147,-0.167463 -2.98282,-0.175201 -6.20127,-0.345313 -9.119592,-0.991679 -2.041868,-0.452268 -3.969929,-1.337871 -6.008796,-1.816975 -1.416517,-0.33286 -2.756153,-0.184536 -4.178182,-0.571336 -1.610511,-0.438118 -3.075904,-1.419255 -4.635205,-1.908187 -0.564733,-0.177151 -1.183661,0.134996 -1.751325,-0.06485 -0.710766,-0.250169 -1.284242,-1.016613 -2.045243,-1.307661 -0.693388,-0.265216 -1.290282,0.274716 -1.947898,0.402235 -0.680736,0.131974 -1.36279,-0.186142 -2.0318,-0.144491 -0.684675,0.04264 -1.315872,0.410232 -2.032557,0.396952 -0.823956,-0.01538 -1.699985,-0.209558 -2.453049,-0.545469 -0.461738,-0.205879 -0.835714,-0.627196 -1.356771,-0.675169 -0.790431,-0.07282 -1.682289,0.39541 -2.284509,0.869125 -0.845905,0.665312 -3.04952,2.090545 -3.696778,2.862985 -2.294745,2.738468 -2.137717,5.080581 -3.781055,8.255571 -4.405523,8.511733 -8.099039,19.265052 -10.388631,28.606771 -0.978408,3.99236 -2.225458,5.40484 -0.734893,9.39303 0.301218,0.8056 0.565659,2.0565 1.20261,2.65937 0.754992,0.71311 1.479938,0.75222 2.337388,1.15474 0.505805,0.23778 0.875355,0.67602 1.36496,0.93409 0.747819,0.39306 1.86532,0.70704 2.696598,0.87415 0.518606,0.10487 1.172516,0.2658 1.667779,-0.01 0.81208,-0.45268 -0.286459,-2.78355 0.07677,-3.45783 0.638436,-1.18444 2.834937,0.41729 3.932288,0.48825 m 54.781651,-1.61667 c 10e-6,-0.0141 0.22745,0.19547 -0.0847,-1.2e-4 -0.31214,-0.19559 -1.80772,-0.23706 -2.45496,-0.26505 -0.64724,-0.028 -2.57281,-0.24191 -3.10757,-0.47634 -1.05567,11.08853 4.19917,21.9081 5.39183,33.16852 0.007,0.4335 -0.18066,0.83287 -0.12116,1.26983 0.22374,1.66232 0.82842,3.36328 1.22237,4.99705 0.34597,1.43304 0.63351,2.87871 0.9473,4.31933 0.13292,0.61063 0.15294,1.43362 0.47476,1.97678 0.33787,0.56859 1.04744,0.52217 1.57791,0.80062 0.70476,0.37013 1.30158,0.426 2.0158,0.68693 0.40958,0.14958 0.72909,0.52765 1.18458,0.54183 1.02019,0.0319 2.26511,-0.79947 2.96537,-1.45466 0.3707,0.70241 1.33765,0.66481 2.03081,0.8512 1.1358,0.3047 2.93129,1.72369 3.71786,-0.10317 0.27012,-0.62869 0.14233,-1.27149 0.20928,-1.92503 0.0704,-0.68485 0.32026,-1.36692 0.49307,-2.03131 1.08621,-4.19287 1.9599,-8.37842 2.83112,-12.61138 0.91896,-4.46997 1.89044,-8.95425 3.02523,-13.37311 0.2954,-1.14852 0.63152,-2.3554 1.03779,-3.46989 0.23203,-0.63552 0.60037,-1.27001 0.69615,-1.94636 0.0812,-0.57223 -0.20334,-1.11365 -0.14326,-1.69353 0.26263,-2.53456 1.47723,-5.29723 2.30779,-7.70145 0.17682,-0.51029 1.13411,-2.12016 0.73431,-2.60078 -0.20878,-0.25006 -0.76778,-0.10775 -1.04214,-0.0802 -0.9594,0.096 -1.91963,0.17088 -2.87903,0.25929 -3.84691,0.35529 -7.73967,0.20507 -11.59962,0.19966 -3.09203,-0.004 -6.46223,-0.2732 -9.48325,0.40668 -0.64621,0.14557 -1.64185,0.11623 -1.94769,0.25466 -0.30584,0.13843 4e-5,0.0141 5e-5,0 z"
         id="path1690"
         sodipodi:nodetypes="ccccccccccccccccccccccccccsscccccsccccccccccccccczzzccccccccccccccccccscccccczz" /><path
         style="fill:#030303;stroke:none;stroke-width:0.0846667"
         d="m 127.10438,57.35293 v 0.08467 c -5.08508,1.344507 -9.6503,5.078815 -12.93029,9.059333 -1.02023,1.237658 -1.97697,2.530856 -2.82194,3.894667 -0.33867,0.5461 -0.66633,1.551009 -1.22767,1.893485 -0.49784,0.304208 -1.43755,0.02921 -1.98543,-0.0309 -1.75421,-0.192447 -3.50495,-0.449157 -5.24933,-0.715518 -4.404956,-0.672592 -8.736756,-1.670219 -13.03867,-2.825073 -2.935986,-0.788162 -5.78341,-1.503934 -8.551333,-2.809324 1.594527,-0.593514 3.696293,-1.46194 4.869011,-2.72923 0.408686,-0.441622 0.595884,-0.995172 0.896704,-1.504104 1.957917,-3.312667 2.023618,-7.589943 2.023618,-11.345333 0,-1.011512 0.05063,-2.038434 -0.01668,-3.048 -0.04953,-0.74278 -0.242485,-1.636352 -0.109389,-2.370666 0.246718,-1.361525 1.105069,-2.585889 1.007279,-4.064 -0.05309,-0.803148 -0.73025,-1.640078 -0.934127,-2.455333 -1.066038,-4.26229 -2.905337,-8.020897 -5.337472,-11.681909 -0.438488,-0.660044 -1.120817,-0.781194 -1.720088,-1.231239 -0.47371,-0.355677 -0.838792,-0.869502 -1.357714,-1.160653 -0.530522,-0.297655 -1.204045,-0.283701 -1.776476,-0.484192 -0.875707,-0.306731 -1.555665,-0.447099 -2.455333,-0.624239 -0.420286,-0.08276 -0.755312,-0.382897 -1.185334,-0.441173 -0.986028,-0.133637 -1.674283,0.773151 -2.032,1.568738 -1.61163,-0.419278 -2.724404,0.734323 -3.69697,1.862667 -2.014643,2.337477 -3.530007,4.87553 -4.757081,7.704666 -0.989415,2.281174 -1.57971,4.77393 -2.119799,7.196667 -0.325289,1.458807 -0.737277,2.983738 -0.752179,4.487333 -0.0086,0.870373 0.476589,1.345607 0.714926,2.116667 0.160189,0.518329 0.03632,1.237318 0.02498,1.778 -0.120226,5.770626 0.489289,13.008694 6.437461,15.917333 v 0.08467 c -1.810428,0.965116 -3.8089,2.641431 -4.996434,4.318 -0.542798,0.766403 -0.858012,1.700615 -1.267883,2.54 -0.818219,1.675554 -1.658197,3.343063 -2.522305,4.995333 -4.775115,9.130962 -8.58647,18.856113 -10.284545,29.040667 -0.337058,2.02099 -0.755734,4.04791 -0.893402,6.096 -0.106511,1.58242 0.08848,3.03445 0.721106,4.48733 0.196765,0.45212 0.658452,0.74168 0.818557,1.20227 0.33401,0.96012 0.227923,2.04216 0.600625,3.03106 1.032934,2.73897 3.070183,5.15536 5.632281,6.56421 0.897636,0.49361 2.0828,1.09389 3.132667,0.97113 l 2.257636,19.558 1.298363,9.56733 c -1.870201,-0.41571 -3.835484,-0.89493 -5.757333,-0.51647 -1.725337,0.34121 -2.57048,1.61798 -2.094907,3.31047 0.151299,0.53848 0.389213,1.04563 0.677418,1.524 0.389467,0.64601 0.860044,1.24799 1.419013,1.75599 1.729486,1.57395 4.225375,2.16916 6.433143,2.72118 1.498176,0.37423 2.977303,0.8128 4.487333,1.13877 1.74625,0.37677 5.984155,1.39869 6.688667,-0.95927 4.293107,1.35551 8.574616,1.1413 12.869333,-0.22352 1.815761,-0.57658 4.018703,-1.56972 5.169069,-3.16315 1.020911,-1.41478 0.352552,-2.95825 -1.189736,-3.53991 -2.022941,-0.7637 -4.835821,-0.5461 -6.942667,-0.27009 0.39895,-3.58309 1.303952,-7.13401 1.99771,-10.668 1.415542,-7.21021 2.982468,-14.37555 4.76504,-21.50533 0.407755,-1.63068 0.781474,-3.26221 1.11125,-4.91067 0.165524,-0.82719 0.206672,-1.82541 0.521124,-2.60689 0.207941,-0.51646 0.730419,-0.38015 1.170262,-0.5063 0.579374,-0.1651 0.874776,-0.71628 0.901192,-1.28948 0.07442,-1.61205 -0.580559,-3.2368 -1.067138,-4.74133 -0.800185,-2.47396 -1.627802,-4.93606 -2.294721,-7.45066 -2.437638,-9.191078 -4.783074,-18.40569 -6.850719,-27.686003 4.214199,2.66192 8.737431,3.730244 13.631333,4.344331 2.665054,0.334433 5.447534,0.589365 8.127994,0.312335 -0.51003,1.453558 -1.15273,2.80543 -1.51104,4.318 -1.26518,5.340181 -1.29227,11.436181 -0.55592,16.848667 0.26966,1.98205 0.9613,3.82439 1.35399,5.75733 0.12937,0.6367 -0.0745,1.37584 -0.0373,2.032 0.0673,1.18872 0.37075,2.3622 0.79061,3.47133 0.63932,1.6891 1.56498,3.28338 2.73592,4.65667 0.49276,0.57743 1.68233,1.10659 1.9304,1.7907 0.83736,2.31055 0.91186,5.10794 1.3589,7.52263 0.87884,4.75234 1.91093,9.47505 2.80924,14.224 0.67141,3.54754 1.52824,7.05104 2.26738,10.58334 0.41402,1.97527 0.93641,3.98272 0.9652,6.01133 -1.51808,-0.39624 -4.37896,-0.99568 -5.73871,0.0813 -1.61713,1.28101 -0.77385,5.37887 1.08204,6.02319 1.26915,0.44026 2.73643,0.43264 4.064,0.51054 1.89653,0.11176 3.85826,0.31834 5.75733,0.12615 0.81704,-0.0821 1.7018,-0.73575 2.45534,-0.72983 0.7239,0.006 1.58242,0.60791 2.37066,0.69512 2.15562,0.2396 4.32562,-0.26078 6.43467,-0.64855 0.85767,-0.15748 2.02692,-0.22013 2.77453,-0.69511 0.36745,-0.23368 0.5715,-0.65956 0.74252,-1.04479 0.4589,-1.03717 1.30218,-3.7719 0.0313,-4.47463 -1.47659,-0.81788 -3.7211,-0.0533 -5.24171,0.2413 0.48768,-1.29964 0.63161,-2.71442 0.93133,-4.064 0.56727,-2.54847 1.15062,-5.10117 1.83981,-7.62 1.6129,-5.90042 3.27575,-11.77714 4.47632,-17.78 0.44535,-2.22758 1.02616,-4.50766 1.2192,-6.77334 1.8796,0.4716 3.67962,-1.01684 4.82685,-2.37574 1.5875,-1.8813 2.18948,-4.36626 3.09287,-6.58199 0.25316,-0.62061 0.6985,-1.18025 0.98383,-1.79493 0.68411,-1.47235 1.17517,-3.05308 1.42494,-4.65667 1.57141,-10.092348 -0.57065,-20.176741 -3.34603,-29.88733 -1.02954,-3.604683 -1.8796,-7.258134 -3.25797,-10.752666 -1.25307,-3.178048 -3.22411,-5.999988 -4.48649,-9.144 1.00076,-0.533739 1.91601,-1.293537 2.6924,-2.118191 0.42418,-0.45085 0.78994,-1.100328 1.30641,-1.446953 0.6731,-0.451612 1.37329,0.195495 2.02099,-0.596392 1.10406,-1.350941 2.34104,-3.845645 2.60435,-5.575131 0.11769,-0.770974 -0.10668,-1.517988 -0.0466,-2.286 0.10838,-1.392597 0.36322,-2.74193 0.3048,-4.148666 -0.14816,-3.564721 -1.20226,-6.803898 -2.30632,-10.16 -0.87376,-2.657179 -1.68994,-5.712155 -3.42307,-7.958607 -2.00914,-2.604652 -5.53466,-3.722429 -8.74099,-3.722362 -1.96765,4.3e-5 -3.77359,0.816153 -5.50333,1.6679 -1.01346,0.499313 -2.24367,0.785613 -3.13267,1.479397 -1.38938,1.084868 -2.37574,2.600156 -3.34941,4.046339 -2.52476,3.749378 -4.28075,8.27278 -5.51603,12.615333 -0.96266,3.386328 -1.9956,7.465314 -0.47075,10.837333 0.52239,1.154345 1.57311,1.611969 2.56286,2.268389 0.47329,0.31369 0.89069,0.727795 1.43933,0.909744 0.55203,0.183049 1.18788,-0.09339 1.69334,0.189568 1.1794,0.660062 1.88976,1.951482 3.13266,2.558966 m 12.86934,-31.326666 -0.0847,0.08467 0.0847,-0.08467 M 64.789717,43.044263 c 0.432816,0.953347 -0.08873,2.077635 0.333079,3.046307 0.445685,1.023366 1.588516,1.179576 2.278634,0.319786 0.220133,-0.274236 0.356023,-0.602996 0.520954,-0.91076 0.867833,1.755564 2.442295,1.641348 3.302,-0.08467 h 0.08467 c 0.05715,0.320209 0.122428,0.639148 0.272796,0.931079 1.035896,2.011426 2.813134,0.379645 3.36787,-1.015746 h 0.169334 c 1.312926,1.474216 2.665306,1.562862 3.81,-0.08467 0.481414,0.321226 0.903139,0.818558 1.523999,0.834814 0.38752,0.01016 0.719836,-0.246719 1.100667,-0.235204 0.418253,0.01262 0.757259,0.334687 1.185333,0.340868 1.155023,0.01685 1.59639,-1.350434 1.947334,-2.210478 0.951399,1.225889 1.63703,1.841585 3.048,0.846667 0.195326,3.562265 0.28956,7.022677 -0.06435,10.583333 -0.149098,1.499532 -0.281178,3.174408 -0.913977,4.563025 -0.17509,0.384133 -0.531452,0.597916 -0.737362,0.955379 -0.250698,0.435187 -0.30336,0.926846 -0.62975,1.330283 -0.854456,1.056216 -2.540847,1.689946 -3.750564,2.240618 -4.951561,2.254081 -11.469539,1.954192 -15.054157,-2.654638 -2.332905,-2.999571 -2.895176,-6.797887 -2.895176,-10.498667 0,-1.095417 -0.08899,-2.303441 0.124798,-3.381925 0.0939,-0.473964 0.491152,-0.802555 0.58691,-1.275503 0.24494,-1.210818 -0.1005,-2.422229 0.388958,-3.639905 M 131.50705,54.05093 c 0.65447,1.76386 2.63398,1.072472 4.064,0.896112 0.76539,-0.0944 1.14046,0.26162 1.778,-0.388112 1.05241,0.496316 1.70942,0.28067 2.794,0.306662 0.33189,0.008 0.60452,0.23114 0.93133,0.264584 0.59352,0.06096 1.03971,-0.468038 1.43934,-0.825246 l 1.18533,1.439333 c -0.9779,1.223687 -2.03031,1.68275 -3.37397,2.283714 -0.43688,0.195072 -0.72051,0.535601 -1.19888,0.677079 -2.77706,0.821013 -5.49486,0.03438 -8.12715,-0.870881 -1.07442,-0.36957 -2.27669,-0.690372 -3.2004,-1.381421 -0.60791,-0.454745 -1.29455,-1.305984 -1.79493,-1.893824 1.22174,-0.433494 2.8812,0.611547 4.14782,0.436372 0.55626,-0.07688 0.93556,-0.6223 1.35551,-0.944372 m 9.31333,5.333999 c 1.18449,2.949702 3.07764,5.568781 4.24604,8.551334 1.18364,3.020229 1.96511,6.116997 2.85411,9.228666 1.64423,5.753947 3.07086,11.506708 3.91837,17.441333 0.88985,6.230198 1.1701,13.572918 -1.87452,19.303998 -1.21327,-0.56896 -2.47057,-0.85767 -3.81,-0.93133 0.38778,-3.00821 1.28778,-5.8166 1.35213,-8.89 0.11769,-5.674785 -0.45466,-11.525421 -1.50622,-17.102668 -0.78655,-4.171018 -1.93802,-8.271425 -2.68647,-12.446 -0.5588,-3.115733 -1.07612,-6.234853 -1.82626,-9.313333 -0.16172,-0.661246 -0.32512,-2.683764 -1.11252,-2.905844 -0.37931,-0.107104 -0.5478,0.32131 -0.52832,0.622046 0.044,0.68944 0.34544,1.435438 0.4936,2.114465 0.68072,3.115903 1.2573,6.25348 1.78562,9.398 0.73491,4.378113 1.98036,8.669612 2.78892,13.038666 0.9525,5.142992 1.40886,10.438045 1.40886,15.663338 0,2.805 -0.34629,5.49063 -1.02616,8.21266 -0.19643,0.78232 -0.27009,2.07264 -0.75523,2.72457 -0.28702,0.38608 -1.25476,0.29803 -1.68995,0.31581 -1.57818,0.066 -3.16145,0.17695 -4.74133,0.17695 -2.90237,0 -5.82507,-0.007 -8.72067,0.18627 -3.50858,0.23368 -7.06712,0.72813 -10.58333,0.74507 -1.57734,0.007 -3.18177,0.0339 -4.74133,-0.2413 -0.58336,-0.10245 -1.32504,-0.18288 -1.73821,-0.65278 -1.77123,-2.01507 -1.27847,-5.49825 -0.95419,-7.91125 0.77385,-5.75598 1.9541,-11.491557 3.08186,-17.187338 0.36322,-1.830916 0.82127,-3.626527 1.33943,-5.418666 0.18542,-0.641266 0.26247,-1.589871 0.64516,-2.140035 0.22945,-0.329946 0.73745,-0.367369 1.09728,-0.452289 0.96012,-0.226484 1.92193,-0.438658 2.87867,-0.677926 1.06426,-0.266023 2.13614,-0.657352 3.21733,-0.83566 2.71272,-0.447379 5.56514,-0.606129 8.04333,-1.933533 3.29777,-1.766485 3.87012,-6.961632 -0.33866,-7.950369 -2.07434,-0.487341 -3.98272,0.358225 -5.92667,0.931757 -1.9812,0.584454 -4.12835,0.976206 -6.18067,1.204722 0.41995,-1.55592 1.35044,-2.945977 2.16747,-4.318 1.34874,-2.267035 2.7559,-4.515104 4.37134,-6.604 0.58674,-0.759714 1.15739,-1.531536 1.75345,-2.284392 0.24214,-0.305815 0.5207,-0.727625 0.9398,-0.7885 0.43434,-0.06308 0.94996,0.252137 1.35128,0.390229 1.0905,0.375327 2.17847,0.855217 3.302,1.118023 2.78553,0.651679 4.99448,0.333671 7.70466,-0.382694 m -14.64733,-0.338666 -6.3373,9.313333 -1.41309,2.709333 -0.67818,1.257893 -1.98543,0.181441 h -4.318 c 0.66209,-1.665817 1.94564,-3.197098 3.07086,-4.572 2.36135,-2.885271 5.00719,-5.469382 8.27447,-7.316555 1.06003,-0.599271 2.19964,-1.270085 3.38667,-1.573445 m -1.18533,13.377333 c -0.12277,1.443736 -0.55711,2.912364 -0.90001,4.318 -0.14393,0.587417 -0.23114,1.317582 -0.66548,1.770549 -0.58759,0.612563 -1.46135,0.727033 -2.24451,0.938361 -1.64931,0.445008 -3.32402,0.819573 -4.99534,1.169839 -7.57233,1.586907 -15.41687,1.637453 -22.944663,-0.248666 -2.597319,-0.650833 -4.999821,-1.708997 -7.281333,-3.110145 -0.575226,-0.35323 -1.715093,-1.667764 -2.401486,-0.968926 -0.401828,0.40911 0.620692,1.60528 0.779188,2.142321 0.664294,2.25044 1.060534,4.568021 1.558036,6.858 1.136819,5.232146 2.6035,10.412476 4.005326,15.578671 0.787992,2.90381 1.420706,5.842 2.30361,8.72066 0.634323,2.06841 1.413087,4.09533 1.990768,6.18067 0.15748,0.56896 0.626617,1.82795 0.298365,2.38336 -0.289814,0.49022 -1.157309,-0.21505 -1.591903,-0.10244 -2.152396,0.5571 -4.799414,0.17441 -7.026571,0.17441 -4.465235,0 -8.918109,-0.1143 -13.377333,-0.24892 -3.190579,-0.0974 -6.392164,-0.066 -9.567333,-0.46567 -1.006517,-0.12615 -2.445343,-0.24553 -3.252385,-0.92964 -0.693336,-0.58758 -0.287444,-2.01337 -1.488948,-1.99644 -0.312928,-1.30555 -0.09203,-2.6653 0.06909,-3.97933 0.278384,-2.26991 0.656336,-4.53898 1.144185,-6.77333 1.368891,-6.270499 2.446951,-12.596454 4.135628,-18.796001 0.708744,-2.601891 1.542118,-5.173387 2.197015,-7.789333 0.174583,-0.6974 0.760137,-2.169499 0.286681,-2.82956 -0.266784,-0.371856 -0.67437,-0.123021 -0.810175,0.215561 -0.286427,0.713825 -0.330708,1.608582 -0.533993,2.359999 -0.866648,3.202347 -1.926081,6.346359 -2.731346,9.567333 -1.332061,5.328327 -2.363639,10.709994 -3.469979,16.086671 -0.70612,3.43154 -1.763945,7.22291 -1.60384,10.75266 0.04089,0.9017 0.144272,1.82457 0.595206,2.62467 0.291423,0.51731 0.789771,0.9 1.037252,1.43933 0.396663,0.86529 0.376174,1.95157 0.530944,2.87867 -3.185922,-0.1778 -6.171946,-2.24282 -8.636,-4.064 0.01787,-1.21836 -0.323257,-2.39607 -0.237151,-3.64067 0.114385,-1.65269 0.50546,-3.27829 0.765048,-4.91066 0.514604,-3.23512 1.084157,-6.50359 2.000927,-9.652005 1.440858,-4.948428 3.495718,-9.617963 5.598668,-14.308666 1.997118,-4.454567 4.011338,-9.073219 6.472005,-13.292666 0.700532,-1.201336 1.991529,-2.177373 3.095836,-2.992798 0.65041,-0.480229 1.377612,-0.851831 1.778,-1.579202 1.842008,0.44323 3.478954,1.157816 5.418667,1.183809 1.656673,0.02227 3.474381,-0.664803 5.08,-0.297011 2.014304,0.461434 3.83777,1.668188 5.842,2.228935 7.669953,2.146131 15.652834,4.038261 23.621994,4.572254 3.07679,0.206163 6.2501,0.227076 9.31334,-0.158157 1.95495,-0.245872 3.8862,-0.831173 5.842,-1.010497 m -0.0847,6.265333 -0.0847,-0.08467 c 0.3446,-1.551347 0.70358,-3.098038 1.016,-4.656666 0.116,-0.579459 0.11092,-1.503934 0.51478,-1.964775 0.38692,-0.441113 1.22682,-0.544745 1.77122,-0.664802 1.80679,-0.398865 4.81415,-0.379053 5.11218,2.03691 0.52747,4.278207 -5.41274,4.82854 -8.32951,5.334 m -9.652,3.302 c -0.36915,1.895602 -1.14893,3.698748 -1.56972,5.588 -1.41986,6.380395 -2.63398,12.911584 -3.51028,19.388674 -1.14215,-0.14055 -2.06172,0.96096 -2.87867,1.60866 -1.95241,-5.90558 -1.52552,-12.816079 -0.7349,-18.880667 0.22386,-1.71704 0.60037,-3.389715 1.26178,-4.995334 0.21108,-0.512402 0.44798,-1.294638 0.86106,-1.678855 0.40192,-0.373634 1.39506,-0.295995 1.91406,-0.353145 1.55787,-0.171534 3.11489,-0.395308 4.65667,-0.677333 m -5.24933,26.077334 c -0.13716,1.79324 -0.15918,3.82778 0.24722,5.588 0.18204,0.78825 0.3302,1.55617 1.10744,1.94733 l 0.42334,4.572 c -0.62061,-0.50207 -1.10829,-1.1286 -1.56718,-1.778 -1.87105,-2.64837 -4.47574,-8.61567 -0.21082,-10.32933 m 35.95962,6.19591 c 0.6748,-0.37677 3.32402,0.10498 3.22072,1.08881 -0.0813,0.77131 -0.5698,1.58665 -0.88815,2.28261 -0.89408,1.95326 -2.01083,4.15883 -4.08771,5.10117 -0.28024,0.12785 -0.8619,0.31581 -0.94318,-0.13716 -0.12785,-0.71035 0.3175,-1.60105 0.54102,-2.25467 0.48344,-1.41309 0.85428,-2.8448 1.41393,-4.23334 0.19558,-0.48344 0.254,-1.5748 0.74337,-1.84742 m -1.75429,1.25476 c -0.61891,2.23181 -1.76784,4.37642 -2.3241,6.604 -0.85344,3.42138 -1.30895,6.96637 -2.06925,10.414 -1.16925,5.30098 -2.65092,10.50798 -4.05808,15.748 -0.71966,2.68139 -1.42409,5.40173 -1.95241,8.128 -0.21844,1.12691 -0.25823,3.03276 -1.04987,3.9226 -0.36491,0.40979 -1.0795,0.41995 -1.58496,0.50038 -1.45372,0.2303 -2.86004,0.0703 -4.318,0.0643 0.5461,-2.52815 0.41741,-5.21462 0.42334,-7.78933 0.003,-1.18618 0.1634,-2.36982 0.16933,-3.556 0.005,-0.93049 0.14817,-1.86182 0.13293,-2.79146 -0.005,-0.33613 -0.19897,-0.77809 -0.61553,-0.635 -0.35306,0.12107 -0.46567,0.56303 -0.52663,0.88646 -0.1634,0.87206 -0.13123,1.82372 -0.16848,2.70933 -0.15579,3.683 0.0322,7.43543 -0.43096,11.09133 -1.25222,0 -2.47734,-0.10075 -3.72533,-0.18034 -0.39031,-0.0246 -1.11675,0.002 -1.38684,-0.33528 -0.49784,-0.61976 -0.34544,-2.41469 -0.48429,-3.20971 -0.47752,-2.72796 -1.14216,-5.42713 -1.75006,-8.128 -2.02523,-8.98652 -3.71433,-18.10004 -5.27474,-27.178 -0.32766,-1.90585 -0.40809,-3.8608 -0.75607,-5.75733 5.49233,1.0668 10.96687,0.37168 16.51,-0.0618 3.21141,-0.25061 6.43382,-0.12785 9.652,-0.19473 1.86436,-0.0389 3.7211,-0.25146 5.588,-0.25146 m -84.327997,2.45533 c 1.599353,0.64601 3.297851,0.73491 4.995333,0.86953 2.648797,0.20997 5.301911,0.30903 7.958667,0.3158 6.571318,0.0169 13.148055,0.254 19.727333,0.254 -0.04868,1.24884 -0.439505,2.50783 -0.705274,3.72534 -0.564388,2.58487 -1.249172,5.13757 -1.887558,7.70466 -1.470322,5.91312 -2.647696,11.89398 -3.841835,17.86467 -0.513419,2.56709 -1.036489,5.12826 -1.501225,7.70467 -0.150283,0.83312 -0.11811,2.4765 -0.660569,3.14113 -0.440351,0.53933 -2.175679,0.41741 -2.833539,0.49022 -1.168316,0.13039 -2.309114,0.4191 -3.471333,0.58335 -1.292522,0.18373 -2.471082,0.15325 -3.556,0.94996 3.38e-4,-8.23298 1.452287,-16.44734 2.332397,-24.638 0.209296,-1.94733 0.518329,-3.96917 0.544745,-5.92666 0.0063,-0.4716 0.198374,-1.63576 -0.363728,-1.86436 -0.779526,-0.3175 -0.642874,1.24714 -0.667512,1.61036 -0.130386,1.91939 -0.432646,3.84471 -0.642196,5.75733 -0.877486,8.00947 -2.434167,16.16879 -2.304373,24.21467 -2.198878,0.11599 -3.979841,-1.11591 -6.011333,-1.8305 -0.566759,-0.19981 -1.854116,-0.34205 -2.198201,-0.86529 -0.479891,-0.72983 -0.413851,-2.20726 -0.535347,-3.06155 -0.36466,-2.56455 -0.660993,-5.13418 -0.976207,-7.70466 -0.705104,-5.74972 -1.131824,-11.53753 -1.950804,-17.272 -0.39006,-2.73135 -0.67183,-5.47201 -0.980948,-8.21267 -0.137668,-1.22089 -0.543899,-2.58911 -0.470493,-3.81 m -7.958667,0.84667 c 1.422146,0.85174 2.933531,1.44102 4.487334,2.00152 0.905002,0.32681 1.752176,0.66717 2.709333,0.36914 l 0.677333,6.18067 c -1.109641,0.29464 -2.1347,-0.38608 -3.048,-0.97536 -2.182114,-1.4097 -5.051552,-4.75319 -4.826,-7.57597 m 18.711333,9.22866 c -1.050967,-0.1397 -3.512989,-0.0533 -3.996605,-1.19041 -0.556514,-1.3081 -0.341376,-3.01329 -0.417661,-4.39759 -0.02108,-0.38354 -0.01761,-1.26238 -0.578188,-1.26238 -0.720175,0 -0.510879,1.41478 -0.510879,1.85505 0,1.44357 -0.245703,4.49919 1.19126,5.35432 1.023112,0.60875 2.642362,0.64601 3.804073,0.76877 0.481246,0.0517 1.008296,0.1016 1.349333,-0.3158 0.635169,-0.77724 0.320379,-2.31733 0.328337,-3.25036 0.0075,-0.87799 -0.02176,-1.76784 0.05368,-2.6416 0.0293,-0.33951 0.09838,-0.83312 -0.252561,-1.0397 -0.451019,-0.2667 -0.787908,0.23537 -0.858943,0.61891 -0.184235,0.99314 -0.111845,2.04047 -0.111845,3.04546 v 2.45533 m 10.380472,-6.40164 c -0.325543,0.14901 -0.295487,0.60282 -0.311658,0.89831 -0.04174,0.76115 -0.0442,1.52654 -0.09483,2.286 -0.07476,1.12014 -0.30844,2.59249 0.211921,3.63728 0.632206,1.27 2.550329,1.43595 3.784092,1.54855 0.475573,0.044 1.05918,0.15918 1.512401,-0.044 0.622808,-0.2794 0.721952,-1.07527 0.799592,-1.67048 0.199305,-1.52908 0.43688,-3.048 0.670475,-4.572 0.0657,-0.42841 0.323681,-1.82118 -0.519176,-1.67894 -0.673269,0.11261 -0.636947,1.42664 -0.720683,1.93294 -0.190838,1.15401 -0.381508,2.30971 -0.519006,3.47134 -0.04597,0.38862 -0.01228,1.04394 -0.367284,1.30132 -0.36068,0.26162 -1.044533,0.0787 -1.448986,0.0203 -0.653542,-0.0931 -1.510538,-0.25315 -1.970532,-0.77046 -0.859366,-0.9669 -0.315468,-3.17924 -0.315468,-4.36118 0,-0.40894 0.207264,-2.41724 -0.710861,-1.99898 z"
         id="path1688" /></g></g></svg>
