<?xml version="1.0" encoding="UTF-8" standalone="no"?>
<!-- Created with Inkscape (http://www.inkscape.org/) -->

<svg
   width="119.0625"
   height="141.46751"
   viewBox="0 0 119.0625 141.46751"
   version="1.1"
   id="svg5"
   xml:space="preserve"
   xmlns:inkscape="http://www.inkscape.org/namespaces/inkscape"
   xmlns:sodipodi="http://sodipodi.sourceforge.net/DTD/sodipodi-0.dtd"
   xmlns="http://www.w3.org/2000/svg"
   xmlns:svg="http://www.w3.org/2000/svg"><sodipodi:namedview
     id="namedview7"
     pagecolor="#ffffff"
     bordercolor="#000000"
     borderopacity="0.25"
     inkscape:showpageshadow="2"
     inkscape:pageopacity="0.0"
     inkscape:pagecheckerboard="0"
     inkscape:deskcolor="#d1d1d1"
     inkscape:document-units=""
     showgrid="false" /><defs
     id="defs2" /><g
     inkscape:label="Layer 1"
     inkscape:groupmode="layer"
     id="layer1"
     transform="translate(-15.040503,-23.96792)"><g
       style="fill:none"
       id="g327"
       transform="matrix(1.5023295,0,0,1.5023295,14.933402,40.476148)"
       inkscape:label="blob"><path
         opacity="0.689993"
         d="m 72.8975,12.5995 c 7.772,9.1384 7.0288,21.9294 5.2714,33.7952 C 76.4057,58.3001 73.8816,71.573 63.3103,77.3307 52.9213,82.9893 40.9429,76.9223 29.8966,72.6868 18.6969,68.3925 5.60747,64.8955 1.4971,53.6294 -2.76479,41.948 3.209,29.4434 10.4245,19.3156 17.4138,9.50523 27.2734,1.92365 39.2519,0.635917 51.7036,-0.702696 64.7851,3.06102 72.8975,12.5995 Z"
         fill=""
         id="path318" /></g><g
       id="g1599"
       inkscape:label="wordsmith"><path
         style="fill:#040404;stroke:none;stroke-width:0.0846667"
         d="m 99.888312,27.354802 c -1.35044,-0.445177 -2.11328,-0.04741 -3.13267,0.846667 -0.13682,-1.036405 -0.6389,-2.173478 -1.52595,-2.782486 -0.74879,-0.514096 -1.85191,-0.340106 -2.18795,0.5831 -0.19313,0.530436 -0.0502,1.161626 0.35856,1.547452 0.22276,0.210228 0.89484,0.516467 0.71399,0.923883 -0.14774,0.332655 -0.7962,0.224959 -1.08398,0.296249 -0.5334,0.132249 -0.89603,0.511302 -1.18534,0.955802 h -0.0847 c 0.22978,-1.280838 -0.497,-3.547026 -1.86276,-3.977894 -1.08762,-0.34307 -2.23901,0.65515 -1.70374,1.775036 0.25569,0.53484 0.74743,0.977308 1.11116,1.440858 -1.65921,0.496231 -1.2534,1.779524 -1.60866,3.132666 -0.96766,-0.743288 -2.03683,-1.696466 -3.302004,-1.833033 -0.715264,-0.07713 -1.51274,0.267293 -1.57988,1.071203 -0.103971,1.246124 1.139698,1.018963 1.582758,1.757256 0.380408,0.6339 0.138007,1.53814 0.195326,2.221908 0.04216,0.503512 0.335788,0.91931 0.563796,1.354666 h -0.08467 c -0.408009,-0.495469 -0.897551,-0.493691 -1.439333,-0.75565 -0.523918,-0.253322 -0.933704,-0.68961 -1.524,-0.803232 -0.80899,-0.155702 -1.686052,0.398949 -1.546945,1.304882 0.289645,1.886289 1.919478,3.284897 3.832945,2.624667 -0.263314,0.938699 0.144695,1.453303 0.508,2.286 -1.36271,0.871389 -0.735161,2.595118 0.846667,2.455333 0,5.526532 1.77191,11.938762 7.366,14.393333 -2.27296,2.145284 -3.55574,5.235702 -4.79772,8.043333 -2.834981,6.40842 -4.628559,13.278358 -6.325364,20.066 -0.522816,2.091351 -0.933026,4.223766 -1.287441,6.35 -0.262721,1.57607 -0.541951,3.072384 -0.294301,4.656666 0.303191,1.939713 0.06155,3.832013 0.69198,5.757333 0.239184,0.73067 0.613495,1.48336 1.049274,2.11667 0.244856,0.3556 0.637794,0.68072 0.769451,1.10066 0.31098,0.99145 -1.379982,3.39598 0.289729,3.76513 0.274151,0.0601 0.566081,0.044 0.845058,0.0449 0.597747,3.81762 1.655404,7.55904 2.412754,11.34534 1.03428,5.17144 1.81626,10.39452 2.78273,15.57866 0.57836,3.10304 1.13869,6.20946 1.70892,9.31334 0.39514,2.15053 0.67682,4.41875 1.56227,6.43466 -2.04199,-0.21336 -3.96892,-0.21505 -6.01134,0.009 -1.420792,0.15578 -3.943774,-0.17611 -5.068655,0.79586 -0.72136,0.624 -0.801709,1.52316 -0.873167,2.41216 -0.167217,2.07856 -0.187706,5.89957 1.711706,7.25847 1.283969,0.91779 3.134529,0.99314 4.653456,1.04309 2.28117,0.0754 4.58182,0.1795 6.858,0.3573 1.66962,0.13038 3.40614,0.26331 5.08,0.2286 0.91101,-0.0195 1.650998,-0.31073 2.031998,-1.1828 4.16221,2.30802 8.86375,1.69334 13.462,1.69334 h 3.21733 c 0.55033,0 1.14131,0.0389 1.56125,-0.38354 0.82466,-0.8272 0.79248,-2.83464 0.93134,-3.93446 0.16256,-1.29032 0.89577,-3.4417 0.27347,-4.65328 -0.48683,-0.94912 -1.74837,-1.32334 -2.68139,-1.65778 -2.62467,-0.9381 -6.39996,-1.21412 -9.144,-0.71628 0.91694,-5.43136 1.22089,-10.92962 2.30293,-16.34066 1.74837,-8.74184 4.76589,-17.55987 5.22055,-26.50067 0.11176,-2.19626 -0.64432,-4.67699 -0.95589,-6.858 -0.80264,-5.615097 -1.72297,-11.645141 -3.85826,-16.933337 1.524,-0.603419 3.05901,-1.444921 4.48733,-2.250778 0.54695,-0.308695 1.34028,-0.639064 1.6383,-1.22699 0.27686,-0.545422 -0.0635,-1.37143 -0.1524,-1.940898 -0.30734,-1.953091 -1.06934,-3.797131 -1.87875,-5.588 -1.9685,-4.352205 -3.96917,-8.637439 -6.78095,-12.530666 -1.60782,-2.226226 -3.78968,-4.041733 -5.35686,-6.265334 1.41224,-0.823891 1.6493,-1.857502 2.26652,-3.217333 1.52146,-3.347974 1.8813,-7.439406 1.88214,-11.091333 1.64677,0.250783 1.95411,-1.662091 1.21836,-2.787396 -0.34714,-0.53213 -0.94065,-0.772753 -1.21836,-1.361271 0.40894,0.17653 0.81619,0.329184 1.27,0.282279 2.66616,-0.275421 2.26653,-4.351443 -0.42333,-4.052231 -0.46905,0.05215 -0.87545,0.315045 -1.27,0.552619 -0.29887,-0.658537 -0.83905,-1.212257 -1.43933,-1.608666 l 0.508,-0.846667 c 2.42062,0.388874 3.93869,-3.274737 1.524,-4.480221 -1.4749,-0.736262 -1.7924,1.181269 -2.77538,1.732449 -0.43688,0.244771 -1.25052,-0.289983 -1.71196,-0.384895 0.18542,-0.791887 0.13293,-1.385908 -0.59266,-1.862666 l 0.254,-1.439334 c 2.2098,-1.49479 -0.71544,-4.447032 -2.48582,-2.279226 -0.237908,0.292015 -0.390308,0.636354 -0.444498,1.009226 -0.0787,0.54483 0.0229,1.077722 0.13632,1.608667 m -8.29734,3.048 v 0.338991 h -0.0847 l 0.0847,-0.338667 m 6.26534,4.448302 c 1.41647,-0.06824 2.490038,0.890778 3.555998,1.642787 0.38015,0.268393 0.91694,0.357463 1.2175,0.725255 0.35391,0.433916 0.43434,1.026752 0.79672,1.467527 0.31242,0.381085 0.76708,0.623655 1.03208,1.046057 0.27856,0.445177 0.33952,0.988822 0.66972,1.407329 0.32004,0.405977 0.87376,0.598763 1.0287,1.124373 0.38438,1.304714 -0.0804,3.303609 -0.21082,4.64837 -0.27009,2.784348 -0.47752,6.407911 -2.26653,8.708982 -0.69765,0.896705 -1.77969,1.531366 -2.77537,2.044107 -0.75438,0.388282 -1.600198,0.710269 -2.455338,0.753195 -5.76521,0.28956 -10.42695,-5.323586 -11.3096,-10.574951 -0.18813,-1.119378 -0.39726,-2.495635 -0.1756,-3.622887 0.10228,-0.520022 0.73965,-0.923036 1.05723,-1.326472 0.47795,-0.607145 0.79291,-1.418082 1.23114,-2.079837 0.81441,-1.229783 0.94539,-2.983823 1.93709,-4.115816 0.4627,-0.528151 1.31216,-0.207857 1.92574,-0.436118 0.57463,-0.213868 0.89967,-0.779864 1.45085,-0.999574 0.96876,-0.38608 2.26204,-0.362712 3.29049,-0.412327 m 1.21073,10.341186 c -0.38777,0.110236 -0.36068,0.644737 -0.36322,0.958596 -0.0102,1.032002 -0.0813,2.10185 -0.0203,3.130381 0.0195,0.32131 0.20913,0.724831 0.60198,0.622046 0.41148,-0.107527 0.49445,-0.601049 0.51223,-0.958596 0.0457,-0.962067 -0.0229,-1.919478 -0.0804,-2.878413 -0.0203,-0.344762 -0.14055,-1.019048 -0.65024,-0.874014 m -4.89094,0.09068 c -0.32952,0.186606 -0.2711,0.637794 -0.24266,0.9525 0.0772,0.852848 0.0662,1.78706 0.25358,2.621704 0.0751,0.334433 0.34476,0.738124 0.7438,0.56244 0.34019,-0.149775 0.33265,-0.587502 0.3153,-0.898313 -0.0486,-0.874437 -0.0879,-1.855809 -0.30184,-2.706201 -0.083,-0.329692 -0.37592,-0.754295 -0.76818,-0.53213 m 1.61502,8.100483 c -0.71087,0.315892 0.19371,1.21158 0.5422,1.38811 0.71442,0.361866 2.02167,0.184828 2.69477,-0.223266 0.39201,-0.237998 0.63246,-0.941578 -0.006,-1.037759 -0.66887,-0.101007 -1.31234,0.43815 -2.00999,0.288544 -0.38574,-0.08272 -0.80654,-0.599863 -1.22106,-0.415629 m 6.129188,5.044017 c 0.22436,1.738376 0.79248,3.459819 1.19295,5.164667 0.63077,2.686642 1.19719,5.379719 1.92447,8.043333 0.31835,1.164505 0.67818,2.318681 1.03632,3.471333 0.13039,0.419185 0.48514,1.055285 0.32004,1.496145 -0.15324,0.41004 -0.68241,0.702987 -1.00245,0.973582 -0.83481,0.705104 -1.73059,2.037926 -2.794,2.372529 -1.15147,0.362289 -2.1209,0.04767 -3.126738,0.947759 -1.51892,1.358561 -0.6858,3.172629 -1.93633,4.539318 -0.63441,0.692997 -1.46659,1.501817 -1.84912,2.370667 -0.20379,0.463042 -0.0606,0.968163 -0.26814,1.439333 -0.22504,0.510709 -0.88553,1.255776 -0.65955,1.846495 0.32757,0.856319 1.64727,0.05173 2.16721,-0.176022 0.60283,-0.264075 1.18364,-0.14588 1.778,-0.343662 1.00838,-0.335788 2.621278,-1.554056 3.217338,-2.427478 0.59182,0.320379 1.12268,0.718651 1.778,0.908558 2.26314,0.655659 4.47886,-0.167809 6.51933,-1.077891 1.70095,5.436108 2.92015,10.956713 3.72533,16.594664 0.18542,1.30048 0.40217,2.59504 0.59267,3.89467 0.0559,0.38693 0.28533,1.09982 -0.0254,1.42409 -0.40979,0.42757 -1.5113,0.0669 -2.0066,-0.0229 -1.95411,-0.35475 -3.86334,-0.76284 -5.842,-0.9779 -5.55075,-0.60452 -11.349398,-1.13707 -16.933328,-0.83481 -2.04335,0.11007 -3.98958,0.6096 -6.011341,0.83481 0.298027,-2.51798 1.039284,-5.03004 1.468459,-7.53533 1.754132,-10.240688 4.077382,-20.3962 6.256192,-30.564667 0.58767,-2.742861 1.22284,-5.474885 1.8332,-8.212666 0.28448,-1.275927 0.72272,-2.596219 0.85615,-3.894667 2.89814,1.031579 4.99618,1.141391 7.789338,-0.254 m 1.524,1.016 c 1.56802,1.896279 3.23426,3.720761 4.62364,5.757333 2.45788,3.602567 4.32224,7.457017 6.0833,11.43 0.70866,1.598337 1.4097,3.193711 1.78393,4.910667 0.10668,0.488696 0.38523,1.33714 0.18203,1.817115 -0.22098,0.522563 -1.10998,0.835745 -1.58157,1.079754 -1.46727,0.759799 -2.95317,1.660398 -4.48733,2.267797 0.0254,-1.816354 0.51816,-4.210304 -1.016,-5.588 0.51731,-0.929047 1.63576,-1.346369 2.07179,-2.370666 0.25823,-0.608161 -0.15579,-1.102953 -0.0263,-1.693334 0.14478,-0.655658 0.60029,-1.6902 -0.44026,-1.92405 -0.58759,-0.131995 -0.97113,0.407247 -1.46643,0.586232 -0.47075,0.17035 -1.14808,0.05698 -1.66285,0.152485 -1.02447,-3.874685 -2.14715,-7.689765 -3.05562,-11.599333 -0.32682,-1.407922 -1.22005,-3.38963 -1.00838,-4.826 m -10.837338,1.100667 c -0.51342,2.98069 -1.41215,5.93217 -2.05994,8.889999 -1.29624,5.919301 -2.49309,11.860361 -3.79137,17.78 -0.45153,2.058755 -0.92939,4.114461 -1.345273,6.180667 -0.112098,0.556852 -0.107696,1.868508 -0.856742,1.916938 -0.896958,0.058 -2.533988,-0.826686 -2.729822,-1.759204 -0.133181,-0.634069 0.178816,-1.477264 0.2921,-2.105068 0.286427,-1.587669 0.594868,-3.173645 0.977392,-4.741333 1.582335,-6.484366 3.326555,-13.079391 5.957655,-19.219333 0.96656,-2.25552 1.87596,-5.111242 3.556,-6.942666 m 11.683998,23.198666 c 0.59182,0.417999 1.08543,1.601385 1.90924,1.599268 0.20658,-5.08e-4 0.29887,-0.159766 0.32258,-0.34527 0.0982,-0.775293 0.41656,-1.42257 0.56218,-2.185331 0.4462,1.380235 0.55711,4.671229 -1.01684,5.367697 -0.84752,0.374904 -1.80086,-0.102532 -2.53916,-0.503598 -1.53416,-0.832866 -3.19108,-1.512485 -3.909898,-3.255433 -0.8145,-1.976035 1.292008,-4.19464 3.310458,-3.205903 0.77386,0.378968 1.27,1.721697 1.36144,2.52857 m 3.89467,-1.608667 c 0.43434,1.040469 0.7366,2.166197 0.7493,3.302 0.008,0.682583 -0.19389,1.350518 -0.15663,2.032 l -0.59267,0.254 0.16933,-2.709333 -0.16933,-2.878667 M 81.600308,95.003467 c 0.487426,0.385318 0.96266,0.806281 1.524,1.083056 0.887899,0.437727 1.7272,0.135467 1.608666,1.372278 -1.138428,-0.14732 -3.657599,-0.918041 -3.132666,-2.455334 m 0,3.217334 c 0.912707,0.546099 1.755902,0.885613 2.794,1.100666 l -1.016,5.418663 c -1.328928,-1.35805 -2.252218,-4.65412 -1.778,-6.519329 M 114.87431,111.1748 c -0.8382,10.8585 -4.80738,21.21577 -6.17559,32.004 -0.3429,2.70595 -0.60452,5.42121 -0.94149,8.128 -0.0965,0.77216 -0.0398,2.41131 -0.78994,2.86851 -0.80095,0.48768 -2.22928,0.094 -3.09965,-0.0305 -2.47735,-0.35306 -4.878488,-0.54949 -7.365998,-0.74422 -1.00051,-0.0787 -2.22496,-0.0432 -2.82372,-0.99653 -0.77394,-1.23359 -0.92617,-2.9972 -1.20641,-4.39928 -0.5958,-2.98111 -1.11219,-5.9817 -1.65007,-8.97467 -1.11498,-6.20268 -2.08001,-12.457 -3.36347,-18.62666 -0.48904,-2.3512 -1.06621,-4.68376 -1.58682,-7.02734 -0.25756,-1.15908 -0.639914,-2.36982 -0.714844,-3.556 6.941564,-1.07865 14.025884,-0.50376 20.997332,0.18119 1.53585,0.15071 3.06239,0.36322 4.572,0.6858 1.34112,0.28617 2.77199,0.70612 4.14867,0.48768 m -23.924258,-0.78317 c -0.45483,0.24046 -0.57413,1.11083 -0.7808,1.54517 -0.61629,1.29455 -1.64076,2.42062 -2.19685,3.72449 -0.18025,0.42333 0.005,1.00922 0.56761,0.81957 0.48108,-0.16256 0.78461,-0.75692 1.04123,-1.15739 0.71162,-1.10998 1.43942,-2.29786 1.85462,-3.556 0.11549,-0.34968 0.39311,-1.8415 -0.48581,-1.37584 m 8.53524,0.066 c -0.52239,0.17272 -0.38015,0.89832 -0.34459,1.3098 0.11091,1.29624 0.0542,2.59503 0.0711,3.89466 0.005,0.36492 0.0669,1.22344 0.65617,1.05664 0.505458,-0.14393 0.441958,-0.91101 0.443648,-1.31064 0.003,-1.27677 -0.0161,-2.53661 -0.0982,-3.81 -0.0263,-0.40894 -0.0415,-1.36821 -0.728138,-1.14046 m 10.420778,1.36229 c -0.56642,0.16764 -0.25739,1.02193 -0.13886,1.38684 0.37254,1.15147 0.6477,2.41046 1.2463,3.47049 0.20658,0.36576 0.62568,0.94826 1.12522,0.78909 0.4572,-0.14478 0.29887,-0.65193 0.13546,-0.95758 -0.64092,-1.19719 -1.05494,-2.44348 -1.49267,-3.72533 -0.12107,-0.35391 -0.35221,-1.11845 -0.87545,-0.96351 m -9.7409,27.35241 c -0.723898,0.20066 -0.530858,2.16408 -0.530858,2.73643 0,2.89899 -0.25146,5.82676 -0.40471,8.72067 -0.0279,0.52578 -0.083,2.91507 0.894078,2.65176 0.7493,-0.20151 0.27263,-2.16324 0.27263,-2.73643 0.002,-2.82279 0.33866,-5.64049 0.33866,-8.46667 0,-0.75607 0.14394,-1.6239 0.0381,-2.36643 -0.0415,-0.29295 -0.26585,-0.63415 -0.6079,-0.53933 z"
         id="path1442"
         inkscape:export-filename="wordsmith.svg"
         inkscape:export-xdpi="96"
         inkscape:export-ydpi="96" /><path
         style="opacity:0.5;fill:#020202;stroke:none;stroke-width:0.0850593"
         d="M 92.823776,34.354378 C 92.576599,34.23634 92.328998,34.11245 92.054682,34.07039 c -1.65268,-0.253206 -1.783474,1.692139 -2.5123,2.604393 -0.450156,0.563312 -1.063365,0.625637 -1.293219,1.410864 -0.224222,0.765723 -0.162538,1.716476 -0.505109,2.43361 -0.35417,0.741217 -1.139217,0.985011 -1.379733,1.890905 -0.28779,1.083884 -0.113996,2.381967 0.03749,3.476702 0.439404,3.17704 1.763772,7.140145 4.051499,9.490567 0.609116,0.625808 1.369927,0.574499 2.010274,1.064716 1.01191,0.774797 2.065802,2.203475 3.346485,2.517311 0.700579,0.171625 1.277267,-0.311382 1.962398,-0.348519 1.701322,-0.09214 3.377893,-0.922856 4.778033,-1.853935 0.48633,-0.32367 0.97095,-0.54991 1.32162,-1.037333 0.71414,-0.993316 0.95731,-2.231539 1.27642,-3.388176 0.52474,-1.903202 1.0469,-3.818442 1.37624,-5.766242 0.17236,-1.017233 0.39419,-2.102563 0.26791,-3.137519 -0.0503,-0.413558 -0.27985,-0.775475 -0.32679,-1.187169 -0.13565,-1.193187 -0.0112,-2.24434 -1.5264,-2.459133 -0.1425,-0.667104 -0.62967,-0.918444 -0.95987,-1.465898 -0.22184,-0.367683 -0.25938,-0.798795 -0.55289,-1.132304 -0.24487,-0.278136 -0.61004,-0.4256 -0.81567,-0.739436 -0.55204,-0.841109 -0.55715,-1.874453 -1.59723,-2.367213 -0.82761,-0.391851 -1.761037,0.08912 -2.644118,-0.06352 -1.082733,-0.186979 -1.470007,-0.79218 -2.644978,-0.337071 -0.874031,-1.568248 -2.48107,-0.735705 -2.900934,0.678382 m 12.03037,48.334708 c -0.29948,-2.554958 -4.25756,-2.248495 -5.307018,-0.422463 -0.651854,1.134164 -0.368589,2.884899 0.641608,3.7523 0.84385,0.72519 1.90099,1.04191 2.87109,1.506007 0.40358,0.193249 0.65784,0.577553 1.03411,0.810152 0.73291,0.453251 1.86512,0.319184 2.52296,-0.218778 0.41891,-0.34334 0.50766,-0.860781 0.63138,-1.356927 0.28668,-1.15826 1.02471,-3.783678 -0.35324,-4.501577 -0.72608,-0.378536 -1.38306,0.180278 -2.04089,0.431286 M 81.647081,97.522747 c -0.715,0.170444 -1.025655,0.85985 -1.013029,1.532289 0.02067,1.102364 0.436764,2.244594 0.703311,3.307104 0.151362,0.60377 0.219616,1.30335 0.50527,1.86132 0.270899,0.52914 0.832491,0.82847 1.424708,0.69618 1.477343,-0.3307 1.367369,-2.66349 1.574611,-3.82946 0.0908,-0.51048 0.232243,-1.106604 0.002,-1.60182 -0.249818,-0.536774 -0.835727,-0.619872 -1.250219,-0.976874 -0.534283,-0.461303 -1.149205,-1.178692 -1.946616,-0.988739 z"
         id="path1456"
         inkscape:label="path1456" /></g></g></svg>
