<svg width="75" height="49" viewBox="0 0 75 49" fill="none" xmlns="http://www.w3.org/2000/svg">
<g clip-path="url(#clip0_48_3124)">
<path d="M11.5397 16.8281C13.5948 16.8281 15.2608 15.1933 15.2608 13.1767C15.2608 11.1602 13.5948 9.52539 11.5397 9.52539C9.48461 9.52539 7.8186 11.1602 7.8186 13.1767C7.8186 15.1933 9.48461 16.8281 11.5397 16.8281Z" fill="#FD6F00"/>
<path d="M28.829 8.29731C31.0214 8.29731 32.7987 6.55335 32.7987 4.40207C32.7987 2.25079 31.0214 0.506836 28.829 0.506836C26.6367 0.506836 24.8594 2.25079 24.8594 4.40207C24.8594 6.55335 26.6367 8.29731 28.829 8.29731Z" fill="#949CFA"/>
<path d="M46.3984 28.9482C48.4535 28.9482 50.1195 27.3134 50.1195 25.2969C50.1195 23.2803 48.4535 21.6455 46.3984 21.6455C44.3432 21.6455 42.6772 23.2803 42.6772 25.2969C42.6772 27.3134 44.3432 28.9482 46.3984 28.9482Z" fill="#FCBAA2"/>
<path d="M63.4042 16.7871C65.4593 16.7871 67.1253 15.1523 67.1253 13.1357C67.1253 11.1191 65.4593 9.48438 63.4042 9.48438C61.3491 9.48438 59.6831 11.1191 59.6831 13.1357C59.6831 15.1523 61.3491 16.7871 63.4042 16.7871Z" fill="#3345FF"/>
<path d="M8.64294 48.1545C13.374 48.1545 17.2089 44.3916 17.2089 39.7492V20.7711C15.5356 19.8471 13.6068 19.3164 11.5502 19.3164C5.17036 19.3164 0 24.3898 0 30.6483V39.6736C0 44.3572 3.86989 48.1545 8.64294 48.1545Z" fill="#FD6F00"/>
<path d="M34.9954 41.2953C35.2754 37.5942 37.4038 34.3997 40.479 32.5963V21.5976C40.479 15.3322 35.3017 10.252 28.9166 10.252H28.7416C22.6401 10.252 17.6447 14.8909 17.2124 20.7698C20.811 22.7088 23.2527 26.4632 23.2527 30.7758V44.4331C23.9598 46.7878 26.1791 48.507 28.8081 48.507C32.0076 48.507 34.9499 45.9617 34.9499 42.8239V41.2953C34.9499 41.2953 34.9289 41.2953 34.8956 41.2953H34.9954Z" fill="#949CFA"/>
<path d="M51.7841 32.3029C50.2124 31.4906 48.4236 31.0303 46.5245 31.0303H46.2725C44.1546 31.0303 42.1733 31.6022 40.479 32.5966V36.0178C40.479 36.1363 40.4843 36.2531 40.4913 36.3699C40.4843 36.4867 40.479 36.6035 40.479 36.722V42.74C40.479 45.804 43.0099 48.2875 46.1324 48.2875C49.255 48.2875 51.7859 45.804 51.7859 42.74V36.722C51.7859 36.6035 51.7806 36.4867 51.7736 36.3699C51.7806 36.2531 51.7859 36.1363 51.7859 36.0178V32.3046L51.7841 32.3029Z" fill="#FCBAA2"/>
<path d="M74.9999 30.8052C74.9999 24.5329 69.8191 19.4492 63.427 19.4492H63.3553C56.9632 19.4492 51.7823 24.5329 51.7823 30.8052V32.3028L51.7473 32.3097C51.7473 32.3097 55.6925 33.7386 57.4865 40.6892C59.067 46.8103 63.6843 48.2891 65.5554 48.2891C68.5921 48.2891 73.7905 47.7086 74.9142 40.3011C74.9474 40.083 74.9632 39.87 74.9632 39.6622L74.9982 30.8052H74.9999Z" fill="#3345FF"/>
</g>
<defs>
<clipPath id="clip0_48_3124">
<rect width="75" height="48" fill="white" transform="translate(0 0.506836)"/>
</clipPath>
</defs>
</svg>
